%TF.GenerationSoftware,KiCad,Pcbnew,5.1.5+dfsg1-2build2*%
%TF.CreationDate,2021-04-22T16:13:23+03:00*%
%TF.ProjectId,RP2040-PICO-PC_rev_B,52503230-3430-42d5-9049-434f2d50435f,A*%
%TF.SameCoordinates,Original*%
%TF.FileFunction,Legend,Bot*%
%TF.FilePolarity,Positive*%
%FSLAX46Y46*%
G04 Gerber Fmt 4.6, Leading zero omitted, Abs format (unit mm)*
G04 Created by KiCad (PCBNEW 5.1.5+dfsg1-2build2) date 2021-04-22 16:13:23*
%MOMM*%
%LPD*%
G04 APERTURE LIST*
%ADD10C,0.150000*%
%ADD11C,0.254000*%
%ADD12C,0.152400*%
%ADD13C,0.400000*%
%ADD14C,0.700000*%
%ADD15C,0.500000*%
%ADD16C,0.100000*%
%ADD17C,0.508000*%
%ADD18C,0.127000*%
%ADD19C,0.200000*%
%ADD20C,0.420000*%
%ADD21C,0.370000*%
%ADD22C,0.380000*%
%ADD23C,1.000000*%
%ADD24C,0.190500*%
%ADD25C,0.250000*%
%ADD26C,0.350000*%
%ADD27C,0.180000*%
G04 APERTURE END LIST*
D10*
X186014952Y-134437380D02*
X186491142Y-134437380D01*
X186491142Y-133437380D01*
X185681619Y-134437380D02*
X185681619Y-133770714D01*
X185681619Y-133437380D02*
X185729238Y-133485000D01*
X185681619Y-133532619D01*
X185634000Y-133485000D01*
X185681619Y-133437380D01*
X185681619Y-133532619D01*
X185205428Y-134437380D02*
X185205428Y-133437380D01*
X184824476Y-133437380D01*
X184729238Y-133485000D01*
X184681619Y-133532619D01*
X184634000Y-133627857D01*
X184634000Y-133770714D01*
X184681619Y-133865952D01*
X184729238Y-133913571D01*
X184824476Y-133961190D01*
X185205428Y-133961190D01*
X184062571Y-134437380D02*
X184157809Y-134389761D01*
X184205428Y-134342142D01*
X184253047Y-134246904D01*
X184253047Y-133961190D01*
X184205428Y-133865952D01*
X184157809Y-133818333D01*
X184062571Y-133770714D01*
X183919714Y-133770714D01*
X183824476Y-133818333D01*
X183776857Y-133865952D01*
X183729238Y-133961190D01*
X183729238Y-134246904D01*
X183776857Y-134342142D01*
X183824476Y-134389761D01*
X183919714Y-134437380D01*
X184062571Y-134437380D01*
X182634000Y-133437380D02*
X182014952Y-133437380D01*
X182348285Y-133818333D01*
X182205428Y-133818333D01*
X182110190Y-133865952D01*
X182062571Y-133913571D01*
X182014952Y-134008809D01*
X182014952Y-134246904D01*
X182062571Y-134342142D01*
X182110190Y-134389761D01*
X182205428Y-134437380D01*
X182491142Y-134437380D01*
X182586380Y-134389761D01*
X182634000Y-134342142D01*
X181586380Y-134342142D02*
X181538761Y-134389761D01*
X181586380Y-134437380D01*
X181634000Y-134389761D01*
X181586380Y-134342142D01*
X181586380Y-134437380D01*
X181205428Y-133437380D02*
X180538761Y-133437380D01*
X180967333Y-134437380D01*
X180300666Y-133437380D02*
X179967333Y-134437380D01*
X179634000Y-133437380D01*
X134183238Y-122182380D02*
X134183238Y-121182380D01*
X134183238Y-121658571D02*
X133611809Y-121658571D01*
X133611809Y-122182380D02*
X133611809Y-121182380D01*
X133135619Y-122182380D02*
X133135619Y-121182380D01*
X132897523Y-121182380D01*
X132754666Y-121230000D01*
X132659428Y-121325238D01*
X132611809Y-121420476D01*
X132564190Y-121610952D01*
X132564190Y-121753809D01*
X132611809Y-121944285D01*
X132659428Y-122039523D01*
X132754666Y-122134761D01*
X132897523Y-122182380D01*
X133135619Y-122182380D01*
X132135619Y-122182380D02*
X132135619Y-121182380D01*
X131802285Y-121896666D01*
X131468952Y-121182380D01*
X131468952Y-122182380D01*
X130992761Y-122182380D02*
X130992761Y-121182380D01*
X135445142Y-123451428D02*
X134683238Y-123451428D01*
X135064190Y-123832380D02*
X135064190Y-123070476D01*
X133730857Y-122832380D02*
X134207047Y-122832380D01*
X134254666Y-123308571D01*
X134207047Y-123260952D01*
X134111809Y-123213333D01*
X133873714Y-123213333D01*
X133778476Y-123260952D01*
X133730857Y-123308571D01*
X133683238Y-123403809D01*
X133683238Y-123641904D01*
X133730857Y-123737142D01*
X133778476Y-123784761D01*
X133873714Y-123832380D01*
X134111809Y-123832380D01*
X134207047Y-123784761D01*
X134254666Y-123737142D01*
X133397523Y-122832380D02*
X133064190Y-123832380D01*
X132730857Y-122832380D01*
X131492761Y-123832380D02*
X131588000Y-123784761D01*
X131635619Y-123737142D01*
X131683238Y-123641904D01*
X131683238Y-123356190D01*
X131635619Y-123260952D01*
X131588000Y-123213333D01*
X131492761Y-123165714D01*
X131349904Y-123165714D01*
X131254666Y-123213333D01*
X131207047Y-123260952D01*
X131159428Y-123356190D01*
X131159428Y-123641904D01*
X131207047Y-123737142D01*
X131254666Y-123784761D01*
X131349904Y-123832380D01*
X131492761Y-123832380D01*
X130302285Y-123165714D02*
X130302285Y-123832380D01*
X130730857Y-123165714D02*
X130730857Y-123689523D01*
X130683238Y-123784761D01*
X130588000Y-123832380D01*
X130445142Y-123832380D01*
X130349904Y-123784761D01*
X130302285Y-123737142D01*
X129968952Y-123165714D02*
X129588000Y-123165714D01*
X129826095Y-122832380D02*
X129826095Y-123689523D01*
X129778476Y-123784761D01*
X129683238Y-123832380D01*
X129588000Y-123832380D01*
D11*
X134081761Y-127332619D02*
X134420428Y-126848809D01*
X134662333Y-127332619D02*
X134662333Y-126316619D01*
X134275285Y-126316619D01*
X134178523Y-126365000D01*
X134130142Y-126413380D01*
X134081761Y-126510142D01*
X134081761Y-126655285D01*
X134130142Y-126752047D01*
X134178523Y-126800428D01*
X134275285Y-126848809D01*
X134662333Y-126848809D01*
X133646333Y-127332619D02*
X133646333Y-126316619D01*
X133259285Y-126316619D01*
X133162523Y-126365000D01*
X133114142Y-126413380D01*
X133065761Y-126510142D01*
X133065761Y-126655285D01*
X133114142Y-126752047D01*
X133162523Y-126800428D01*
X133259285Y-126848809D01*
X133646333Y-126848809D01*
X132678714Y-126413380D02*
X132630333Y-126365000D01*
X132533571Y-126316619D01*
X132291666Y-126316619D01*
X132194904Y-126365000D01*
X132146523Y-126413380D01*
X132098142Y-126510142D01*
X132098142Y-126606904D01*
X132146523Y-126752047D01*
X132727095Y-127332619D01*
X132098142Y-127332619D01*
X131469190Y-126316619D02*
X131372428Y-126316619D01*
X131275666Y-126365000D01*
X131227285Y-126413380D01*
X131178904Y-126510142D01*
X131130523Y-126703666D01*
X131130523Y-126945571D01*
X131178904Y-127139095D01*
X131227285Y-127235857D01*
X131275666Y-127284238D01*
X131372428Y-127332619D01*
X131469190Y-127332619D01*
X131565952Y-127284238D01*
X131614333Y-127235857D01*
X131662714Y-127139095D01*
X131711095Y-126945571D01*
X131711095Y-126703666D01*
X131662714Y-126510142D01*
X131614333Y-126413380D01*
X131565952Y-126365000D01*
X131469190Y-126316619D01*
X130259666Y-126655285D02*
X130259666Y-127332619D01*
X130501571Y-126268238D02*
X130743476Y-126993952D01*
X130114523Y-126993952D01*
X129533952Y-126316619D02*
X129437190Y-126316619D01*
X129340428Y-126365000D01*
X129292047Y-126413380D01*
X129243666Y-126510142D01*
X129195285Y-126703666D01*
X129195285Y-126945571D01*
X129243666Y-127139095D01*
X129292047Y-127235857D01*
X129340428Y-127284238D01*
X129437190Y-127332619D01*
X129533952Y-127332619D01*
X129630714Y-127284238D01*
X129679095Y-127235857D01*
X129727476Y-127139095D01*
X129775857Y-126945571D01*
X129775857Y-126703666D01*
X129727476Y-126510142D01*
X129679095Y-126413380D01*
X129630714Y-126365000D01*
X129533952Y-126316619D01*
X128759857Y-126945571D02*
X127985761Y-126945571D01*
X127501952Y-127332619D02*
X127501952Y-126316619D01*
X127114904Y-126316619D01*
X127018142Y-126365000D01*
X126969761Y-126413380D01*
X126921380Y-126510142D01*
X126921380Y-126655285D01*
X126969761Y-126752047D01*
X127018142Y-126800428D01*
X127114904Y-126848809D01*
X127501952Y-126848809D01*
X126485952Y-127332619D02*
X126485952Y-126316619D01*
X125421571Y-127235857D02*
X125469952Y-127284238D01*
X125615095Y-127332619D01*
X125711857Y-127332619D01*
X125857000Y-127284238D01*
X125953761Y-127187476D01*
X126002142Y-127090714D01*
X126050523Y-126897190D01*
X126050523Y-126752047D01*
X126002142Y-126558523D01*
X125953761Y-126461761D01*
X125857000Y-126365000D01*
X125711857Y-126316619D01*
X125615095Y-126316619D01*
X125469952Y-126365000D01*
X125421571Y-126413380D01*
X124792619Y-126316619D02*
X124599095Y-126316619D01*
X124502333Y-126365000D01*
X124405571Y-126461761D01*
X124357190Y-126655285D01*
X124357190Y-126993952D01*
X124405571Y-127187476D01*
X124502333Y-127284238D01*
X124599095Y-127332619D01*
X124792619Y-127332619D01*
X124889380Y-127284238D01*
X124986142Y-127187476D01*
X125034523Y-126993952D01*
X125034523Y-126655285D01*
X124986142Y-126461761D01*
X124889380Y-126365000D01*
X124792619Y-126316619D01*
X123921761Y-126945571D02*
X123147666Y-126945571D01*
X122663857Y-127332619D02*
X122663857Y-126316619D01*
X122276809Y-126316619D01*
X122180047Y-126365000D01*
X122131666Y-126413380D01*
X122083285Y-126510142D01*
X122083285Y-126655285D01*
X122131666Y-126752047D01*
X122180047Y-126800428D01*
X122276809Y-126848809D01*
X122663857Y-126848809D01*
X121067285Y-127235857D02*
X121115666Y-127284238D01*
X121260809Y-127332619D01*
X121357571Y-127332619D01*
X121502714Y-127284238D01*
X121599476Y-127187476D01*
X121647857Y-127090714D01*
X121696238Y-126897190D01*
X121696238Y-126752047D01*
X121647857Y-126558523D01*
X121599476Y-126461761D01*
X121502714Y-126365000D01*
X121357571Y-126316619D01*
X121260809Y-126316619D01*
X121115666Y-126365000D01*
X121067285Y-126413380D01*
X128124857Y-129878666D02*
X128173238Y-129830285D01*
X128270000Y-129685142D01*
X128318380Y-129588380D01*
X128366761Y-129443238D01*
X128415142Y-129201333D01*
X128415142Y-129007809D01*
X128366761Y-128765904D01*
X128318380Y-128620761D01*
X128270000Y-128524000D01*
X128173238Y-128378857D01*
X128124857Y-128330476D01*
X127302380Y-129443238D02*
X127399142Y-129491619D01*
X127592666Y-129491619D01*
X127689428Y-129443238D01*
X127737809Y-129394857D01*
X127786190Y-129298095D01*
X127786190Y-129007809D01*
X127737809Y-128911047D01*
X127689428Y-128862666D01*
X127592666Y-128814285D01*
X127399142Y-128814285D01*
X127302380Y-128862666D01*
X126963714Y-129878666D02*
X126915333Y-129830285D01*
X126818571Y-129685142D01*
X126770190Y-129588380D01*
X126721809Y-129443238D01*
X126673428Y-129201333D01*
X126673428Y-129007809D01*
X126721809Y-128765904D01*
X126770190Y-128620761D01*
X126818571Y-128524000D01*
X126915333Y-128378857D01*
X126963714Y-128330476D01*
X125463904Y-128572380D02*
X125415523Y-128524000D01*
X125318761Y-128475619D01*
X125076857Y-128475619D01*
X124980095Y-128524000D01*
X124931714Y-128572380D01*
X124883333Y-128669142D01*
X124883333Y-128765904D01*
X124931714Y-128911047D01*
X125512285Y-129491619D01*
X124883333Y-129491619D01*
X124254380Y-128475619D02*
X124157619Y-128475619D01*
X124060857Y-128524000D01*
X124012476Y-128572380D01*
X123964095Y-128669142D01*
X123915714Y-128862666D01*
X123915714Y-129104571D01*
X123964095Y-129298095D01*
X124012476Y-129394857D01*
X124060857Y-129443238D01*
X124157619Y-129491619D01*
X124254380Y-129491619D01*
X124351142Y-129443238D01*
X124399523Y-129394857D01*
X124447904Y-129298095D01*
X124496285Y-129104571D01*
X124496285Y-128862666D01*
X124447904Y-128669142D01*
X124399523Y-128572380D01*
X124351142Y-128524000D01*
X124254380Y-128475619D01*
X123528666Y-128572380D02*
X123480285Y-128524000D01*
X123383523Y-128475619D01*
X123141619Y-128475619D01*
X123044857Y-128524000D01*
X122996476Y-128572380D01*
X122948095Y-128669142D01*
X122948095Y-128765904D01*
X122996476Y-128911047D01*
X123577047Y-129491619D01*
X122948095Y-129491619D01*
X121980476Y-129491619D02*
X122561047Y-129491619D01*
X122270761Y-129491619D02*
X122270761Y-128475619D01*
X122367523Y-128620761D01*
X122464285Y-128717523D01*
X122561047Y-128765904D01*
X132721047Y-129618619D02*
X133059714Y-129134809D01*
X133301619Y-129618619D02*
X133301619Y-128602619D01*
X132914571Y-128602619D01*
X132817809Y-128651000D01*
X132769428Y-128699380D01*
X132721047Y-128796142D01*
X132721047Y-128941285D01*
X132769428Y-129038047D01*
X132817809Y-129086428D01*
X132914571Y-129134809D01*
X133301619Y-129134809D01*
X131898571Y-129570238D02*
X131995333Y-129618619D01*
X132188857Y-129618619D01*
X132285619Y-129570238D01*
X132334000Y-129473476D01*
X132334000Y-129086428D01*
X132285619Y-128989666D01*
X132188857Y-128941285D01*
X131995333Y-128941285D01*
X131898571Y-128989666D01*
X131850190Y-129086428D01*
X131850190Y-129183190D01*
X132334000Y-129279952D01*
X131511523Y-128941285D02*
X131269619Y-129618619D01*
X131027714Y-128941285D01*
X129527904Y-129086428D02*
X129382761Y-129134809D01*
X129334380Y-129183190D01*
X129286000Y-129279952D01*
X129286000Y-129425095D01*
X129334380Y-129521857D01*
X129382761Y-129570238D01*
X129479523Y-129618619D01*
X129866571Y-129618619D01*
X129866571Y-128602619D01*
X129527904Y-128602619D01*
X129431142Y-128651000D01*
X129382761Y-128699380D01*
X129334380Y-128796142D01*
X129334380Y-128892904D01*
X129382761Y-128989666D01*
X129431142Y-129038047D01*
X129527904Y-129086428D01*
X129866571Y-129086428D01*
X155614309Y-121363619D02*
X155614309Y-120347619D01*
X155178880Y-121363619D02*
X155178880Y-120831428D01*
X155227261Y-120734666D01*
X155324023Y-120686285D01*
X155469166Y-120686285D01*
X155565928Y-120734666D01*
X155614309Y-120783047D01*
X154840214Y-120686285D02*
X154453166Y-120686285D01*
X154695071Y-120347619D02*
X154695071Y-121218476D01*
X154646690Y-121315238D01*
X154549928Y-121363619D01*
X154453166Y-121363619D01*
X154259642Y-120686285D02*
X153872595Y-120686285D01*
X154114500Y-120347619D02*
X154114500Y-121218476D01*
X154066119Y-121315238D01*
X153969357Y-121363619D01*
X153872595Y-121363619D01*
X153533928Y-120686285D02*
X153533928Y-121702285D01*
X153533928Y-120734666D02*
X153437166Y-120686285D01*
X153243642Y-120686285D01*
X153146880Y-120734666D01*
X153098500Y-120783047D01*
X153050119Y-120879809D01*
X153050119Y-121170095D01*
X153098500Y-121266857D01*
X153146880Y-121315238D01*
X153243642Y-121363619D01*
X153437166Y-121363619D01*
X153533928Y-121315238D01*
X152663071Y-121315238D02*
X152566309Y-121363619D01*
X152372785Y-121363619D01*
X152276023Y-121315238D01*
X152227642Y-121218476D01*
X152227642Y-121170095D01*
X152276023Y-121073333D01*
X152372785Y-121024952D01*
X152517928Y-121024952D01*
X152614690Y-120976571D01*
X152663071Y-120879809D01*
X152663071Y-120831428D01*
X152614690Y-120734666D01*
X152517928Y-120686285D01*
X152372785Y-120686285D01*
X152276023Y-120734666D01*
X151792214Y-121266857D02*
X151743833Y-121315238D01*
X151792214Y-121363619D01*
X151840595Y-121315238D01*
X151792214Y-121266857D01*
X151792214Y-121363619D01*
X151792214Y-120734666D02*
X151743833Y-120783047D01*
X151792214Y-120831428D01*
X151840595Y-120783047D01*
X151792214Y-120734666D01*
X151792214Y-120831428D01*
X150582690Y-120299238D02*
X151453547Y-121605523D01*
X149518309Y-120299238D02*
X150389166Y-121605523D01*
X149276404Y-120686285D02*
X149082880Y-121363619D01*
X148889357Y-120879809D01*
X148695833Y-121363619D01*
X148502309Y-120686285D01*
X148212023Y-120686285D02*
X148018500Y-121363619D01*
X147824976Y-120879809D01*
X147631452Y-121363619D01*
X147437928Y-120686285D01*
X147147642Y-120686285D02*
X146954119Y-121363619D01*
X146760595Y-120879809D01*
X146567071Y-121363619D01*
X146373547Y-120686285D01*
X145986500Y-121266857D02*
X145938119Y-121315238D01*
X145986500Y-121363619D01*
X146034880Y-121315238D01*
X145986500Y-121266857D01*
X145986500Y-121363619D01*
X145357547Y-121363619D02*
X145454309Y-121315238D01*
X145502690Y-121266857D01*
X145551071Y-121170095D01*
X145551071Y-120879809D01*
X145502690Y-120783047D01*
X145454309Y-120734666D01*
X145357547Y-120686285D01*
X145212404Y-120686285D01*
X145115642Y-120734666D01*
X145067261Y-120783047D01*
X145018880Y-120879809D01*
X145018880Y-121170095D01*
X145067261Y-121266857D01*
X145115642Y-121315238D01*
X145212404Y-121363619D01*
X145357547Y-121363619D01*
X144438309Y-121363619D02*
X144535071Y-121315238D01*
X144583452Y-121218476D01*
X144583452Y-120347619D01*
X144051261Y-121363619D02*
X144051261Y-120686285D01*
X144051261Y-120347619D02*
X144099642Y-120396000D01*
X144051261Y-120444380D01*
X144002880Y-120396000D01*
X144051261Y-120347619D01*
X144051261Y-120444380D01*
X143567452Y-121363619D02*
X143567452Y-120686285D01*
X143567452Y-120783047D02*
X143519071Y-120734666D01*
X143422309Y-120686285D01*
X143277166Y-120686285D01*
X143180404Y-120734666D01*
X143132023Y-120831428D01*
X143132023Y-121363619D01*
X143132023Y-120831428D02*
X143083642Y-120734666D01*
X142986880Y-120686285D01*
X142841738Y-120686285D01*
X142744976Y-120734666D01*
X142696595Y-120831428D01*
X142696595Y-121363619D01*
X141825738Y-121315238D02*
X141922500Y-121363619D01*
X142116023Y-121363619D01*
X142212785Y-121315238D01*
X142261166Y-121218476D01*
X142261166Y-120831428D01*
X142212785Y-120734666D01*
X142116023Y-120686285D01*
X141922500Y-120686285D01*
X141825738Y-120734666D01*
X141777357Y-120831428D01*
X141777357Y-120928190D01*
X142261166Y-121024952D01*
X141438690Y-121363619D02*
X140906500Y-120686285D01*
X141438690Y-120686285D02*
X140906500Y-121363619D01*
X140519452Y-121266857D02*
X140471071Y-121315238D01*
X140519452Y-121363619D01*
X140567833Y-121315238D01*
X140519452Y-121266857D01*
X140519452Y-121363619D01*
X139600214Y-121315238D02*
X139696976Y-121363619D01*
X139890500Y-121363619D01*
X139987261Y-121315238D01*
X140035642Y-121266857D01*
X140084023Y-121170095D01*
X140084023Y-120879809D01*
X140035642Y-120783047D01*
X139987261Y-120734666D01*
X139890500Y-120686285D01*
X139696976Y-120686285D01*
X139600214Y-120734666D01*
X139019642Y-121363619D02*
X139116404Y-121315238D01*
X139164785Y-121266857D01*
X139213166Y-121170095D01*
X139213166Y-120879809D01*
X139164785Y-120783047D01*
X139116404Y-120734666D01*
X139019642Y-120686285D01*
X138874500Y-120686285D01*
X138777738Y-120734666D01*
X138729357Y-120783047D01*
X138680976Y-120879809D01*
X138680976Y-121170095D01*
X138729357Y-121266857D01*
X138777738Y-121315238D01*
X138874500Y-121363619D01*
X139019642Y-121363619D01*
X138245547Y-121363619D02*
X138245547Y-120686285D01*
X138245547Y-120783047D02*
X138197166Y-120734666D01*
X138100404Y-120686285D01*
X137955261Y-120686285D01*
X137858500Y-120734666D01*
X137810119Y-120831428D01*
X137810119Y-121363619D01*
X137810119Y-120831428D02*
X137761738Y-120734666D01*
X137664976Y-120686285D01*
X137519833Y-120686285D01*
X137423071Y-120734666D01*
X137374690Y-120831428D01*
X137374690Y-121363619D01*
D12*
%TO.C,SJ1*%
X131953000Y-120904000D02*
G75*
G02X131699000Y-120650000I0J254000D01*
G01*
X133223000Y-120650000D02*
G75*
G02X132969000Y-120904000I-254000J0D01*
G01*
X132969000Y-119888000D02*
G75*
G02X133223000Y-120142000I0J-254000D01*
G01*
X131699000Y-120142000D02*
G75*
G02X131953000Y-119888000I254000J0D01*
G01*
D10*
X131699000Y-120650000D02*
X131699000Y-120142000D01*
X131953000Y-119888000D02*
X132969000Y-119888000D01*
X133223000Y-120142000D02*
X133223000Y-120650000D01*
X132969000Y-120904000D02*
X131953000Y-120904000D01*
D13*
%TO.C,OLIMEX_LOGO*%
X155074247Y-117538500D02*
G75*
G03X155074247Y-117538500I-337447J0D01*
G01*
D14*
X154749500Y-116763800D02*
X154241500Y-116255800D01*
X153149300Y-116179600D02*
X152514300Y-116789200D01*
X152539700Y-118745000D02*
X153098500Y-119329200D01*
X150914100Y-119341900D02*
X151371300Y-118884700D01*
X149928300Y-119341900D02*
X150914100Y-119341900D01*
D13*
X149781824Y-119316500D02*
G75*
G03X149781824Y-119316500I-366324J0D01*
G01*
D14*
X149415500Y-116624100D02*
X149415500Y-118224300D01*
D13*
X149776318Y-116090700D02*
G75*
G03X149776318Y-116090700I-373518J0D01*
G01*
X148543259Y-119291100D02*
G75*
G03X148543259Y-119291100I-359659J0D01*
G01*
D14*
X148196300Y-118783100D02*
X148196300Y-116192300D01*
X148196300Y-116192300D02*
X147358100Y-116192300D01*
X147358100Y-116192300D02*
X146748500Y-116700300D01*
X146646900Y-117487700D02*
X146646900Y-116776500D01*
X146570700Y-116700300D02*
X145935700Y-116192300D01*
D13*
X147017818Y-118021100D02*
G75*
G03X147017818Y-118021100I-370918J0D01*
G01*
D14*
X145935700Y-116192300D02*
X145046700Y-116192300D01*
D13*
X145397229Y-119303800D02*
G75*
G03X145397229Y-119303800I-363229J0D01*
G01*
X139534166Y-119392700D02*
G75*
G03X139534166Y-119392700I-329466J0D01*
G01*
D14*
X139534900Y-119037100D02*
X140373100Y-118224300D01*
D15*
X140881100Y-118122700D02*
X140347700Y-118122700D01*
D14*
X142024100Y-119341900D02*
X140881100Y-118224300D01*
X143344900Y-119341900D02*
X142024100Y-119341900D01*
X143776700Y-118910100D02*
X143344900Y-119341900D01*
X143776700Y-116674900D02*
X143776700Y-118910100D01*
X143776700Y-116649500D02*
X143294100Y-116141500D01*
X143246000Y-116166900D02*
X142024100Y-116166900D01*
X142024100Y-116166900D02*
X140931900Y-117233700D01*
D15*
X140906500Y-117348000D02*
X140347700Y-117348000D01*
D14*
X139484100Y-116357400D02*
X140347700Y-117251100D01*
D13*
X139475235Y-116001800D02*
G75*
G03X139475235Y-116001800I-359435J0D01*
G01*
D14*
X142557500Y-117741700D02*
X143776700Y-117741700D01*
D13*
X142409159Y-117741700D02*
G75*
G03X142409159Y-117741700I-359659J0D01*
G01*
D14*
X154178000Y-119354600D02*
X153136600Y-119354600D01*
X154736800Y-118795800D02*
X154736800Y-118033800D01*
X154749500Y-118783100D02*
X154165300Y-119354600D01*
X154749500Y-116814600D02*
X154749500Y-117055900D01*
X152527000Y-116776500D02*
X152527000Y-118706900D01*
X153149300Y-116166900D02*
X154152600Y-116166900D01*
X145034000Y-116179600D02*
X145034000Y-118783100D01*
X151371300Y-118897400D02*
X151371300Y-116166900D01*
D16*
X151371300Y-115824000D02*
X151650700Y-115824000D01*
X151676100Y-115824000D02*
X151676100Y-118973600D01*
X151663400Y-115824000D02*
X151676100Y-115824000D01*
X151650700Y-115824000D02*
X151663400Y-115824000D01*
X151536400Y-115912900D02*
X151599900Y-115900200D01*
X151053800Y-115824000D02*
X151053800Y-118859300D01*
X151358600Y-115824000D02*
X151053800Y-115824000D01*
X151231600Y-115900200D02*
X151117300Y-115900200D01*
X149733000Y-116509800D02*
X149733000Y-118529100D01*
X149098000Y-118529100D02*
X149098000Y-116509800D01*
X149123400Y-118529100D02*
X149098000Y-118529100D01*
X149733000Y-118529100D02*
X149123400Y-118529100D01*
X149593300Y-118465600D02*
X149656800Y-118465600D01*
X149250400Y-118465600D02*
X149161500Y-118465600D01*
X148513800Y-118872000D02*
X148513800Y-115887500D01*
X147269200Y-115874800D02*
X146685000Y-116357400D01*
X148513800Y-115874800D02*
X147269200Y-115874800D01*
X148361400Y-115938300D02*
X148437600Y-115938300D01*
X144703800Y-118897400D02*
X144703800Y-115887500D01*
X146024600Y-115874800D02*
X146646900Y-116370100D01*
X145999200Y-115874800D02*
X146024600Y-115874800D01*
X144703800Y-115874800D02*
X145999200Y-115874800D01*
X144703800Y-115887500D02*
X144703800Y-115874800D01*
X144856200Y-115951000D02*
X144754600Y-115951000D01*
X141909800Y-115836700D02*
X140652500Y-117081300D01*
X141960600Y-115836700D02*
X141909800Y-115836700D01*
X143332200Y-115836700D02*
X141960600Y-115836700D01*
D11*
%TO.C,RoHS_Complaint*%
X164274500Y-120015000D02*
X163766500Y-120015000D01*
X164147500Y-119888000D02*
X163512500Y-119888000D01*
X164020500Y-119761000D02*
X163385500Y-119761000D01*
X164020500Y-119634000D02*
X163258500Y-119634000D01*
X163969700Y-119507000D02*
X163131500Y-119507000D01*
X163893500Y-119380000D02*
X163131500Y-119380000D01*
X163893500Y-119253000D02*
X163131500Y-119253000D01*
X163893500Y-119126000D02*
X163131500Y-119126000D01*
X163893500Y-118999000D02*
X163131500Y-118999000D01*
X163893500Y-118872000D02*
X163131500Y-118872000D01*
X163893500Y-118745000D02*
X163131500Y-118745000D01*
X163893500Y-118618000D02*
X163258500Y-118618000D01*
X163766500Y-118491000D02*
X163258500Y-118491000D01*
X163766500Y-118364000D02*
X163258500Y-118364000D01*
X163385500Y-117856000D02*
X163385500Y-118364000D01*
X163512500Y-117856000D02*
X163512500Y-118364000D01*
X163639500Y-117475000D02*
X163131500Y-117475000D01*
X163766500Y-117602000D02*
X163131500Y-117602000D01*
X164020500Y-117729000D02*
X163258500Y-117729000D01*
X163512500Y-117856000D02*
X164401500Y-117856000D01*
X163385500Y-117856000D02*
X163512500Y-117856000D01*
X163258500Y-117856000D02*
X163385500Y-117856000D01*
X164020500Y-117983000D02*
X164528500Y-117983000D01*
X164147500Y-118110000D02*
X164782500Y-118110000D01*
X164147500Y-118237000D02*
X164909500Y-118237000D01*
X164274500Y-118364000D02*
X165036500Y-118364000D01*
X164274500Y-118491000D02*
X165163500Y-118491000D01*
X164401500Y-118618000D02*
X165163500Y-118618000D01*
X164401500Y-118745000D02*
X165163500Y-118745000D01*
X164401500Y-118872000D02*
X165290500Y-118872000D01*
X164401500Y-118999000D02*
X165290500Y-118999000D01*
X165163500Y-119761000D02*
X164655500Y-119761000D01*
X165163500Y-119634000D02*
X164528500Y-119634000D01*
X165290500Y-119507000D02*
X164528500Y-119507000D01*
X165290500Y-119380000D02*
X164528500Y-119380000D01*
X165163500Y-119253000D02*
X164528500Y-119253000D01*
X164655500Y-119126000D02*
X164655500Y-119634000D01*
X164401500Y-119126000D02*
X164909500Y-120015000D01*
X164655500Y-119126000D02*
X164401500Y-119126000D01*
X165036500Y-119126000D02*
X164655500Y-119126000D01*
X165163500Y-119761000D02*
X165163500Y-119888000D01*
X165163500Y-119634000D02*
X165163500Y-119761000D01*
X165163500Y-119253000D02*
X165163500Y-119634000D01*
X165163500Y-119126000D02*
X165163500Y-119253000D01*
X165036500Y-119126000D02*
X165036500Y-119761000D01*
X165163500Y-119126000D02*
X165036500Y-119126000D01*
X165290500Y-119126000D02*
X165163500Y-119126000D01*
X165290500Y-119380000D02*
X165290500Y-119126000D01*
X165290500Y-119402860D02*
X165290500Y-119380000D01*
X164350700Y-118948200D02*
X164350700Y-118940580D01*
X164734240Y-120017540D02*
X164762180Y-120045480D01*
D17*
X168084500Y-118618000D02*
X169354500Y-118364000D01*
X167703500Y-118745000D02*
X168084500Y-118618000D01*
X167576500Y-118618000D02*
X167703500Y-118745000D01*
X167576500Y-118491000D02*
X167576500Y-118618000D01*
X168084500Y-118237000D02*
X167576500Y-118491000D01*
X168338500Y-118237000D02*
X168084500Y-118237000D01*
X169354500Y-117983000D02*
X168338500Y-118237000D01*
X169862500Y-117983000D02*
X169354500Y-117983000D01*
X169989500Y-118110000D02*
X169862500Y-117983000D01*
X169862500Y-118237000D02*
X169989500Y-118110000D01*
X169227500Y-118745000D02*
X169862500Y-118237000D01*
X168719500Y-118872000D02*
X169227500Y-118745000D01*
X168338500Y-118999000D02*
X168719500Y-118872000D01*
X167703500Y-118999000D02*
X168338500Y-118999000D01*
X167322500Y-118872000D02*
X167703500Y-118999000D01*
X167068500Y-118872000D02*
X167322500Y-118872000D01*
X166941500Y-118618000D02*
X167068500Y-118872000D01*
X167068500Y-118491000D02*
X166941500Y-118618000D01*
X167703500Y-117983000D02*
X167068500Y-118491000D01*
X168719500Y-117729000D02*
X167703500Y-117983000D01*
X169862500Y-117602000D02*
X168719500Y-117729000D01*
X169989500Y-117602000D02*
X169862500Y-117602000D01*
X170116500Y-117729000D02*
X169989500Y-117602000D01*
X170878500Y-117094000D02*
X170116500Y-117729000D01*
X170243500Y-117094000D02*
X171005500Y-116713000D01*
X169506900Y-117348000D02*
X170243500Y-117094000D01*
X168897300Y-117348000D02*
X169506900Y-117348000D01*
X167500300Y-117830600D02*
X168897300Y-117348000D01*
X166814500Y-118237000D02*
X167500300Y-117830600D01*
X166306500Y-118745000D02*
X166814500Y-118237000D01*
X166052500Y-119253000D02*
X166306500Y-118745000D01*
X166306500Y-118999000D02*
X166052500Y-119253000D01*
X166687500Y-118872000D02*
X166306500Y-118999000D01*
X167449500Y-119380000D02*
X166687500Y-118872000D01*
X168338500Y-119380000D02*
X167449500Y-119380000D01*
X169227500Y-119126000D02*
X168338500Y-119380000D01*
X169735500Y-118745000D02*
X169227500Y-119126000D01*
X170624500Y-117856000D02*
X169735500Y-118745000D01*
X170878500Y-117475000D02*
X170624500Y-117856000D01*
X171259500Y-116967000D02*
X170878500Y-117475000D01*
X171389040Y-116459000D02*
X171767500Y-115572540D01*
X171389040Y-116840000D02*
X171389040Y-116459000D01*
X171767500Y-116332000D02*
X171389040Y-116840000D01*
X171894500Y-115824000D02*
X171767500Y-116332000D01*
X172402500Y-114935000D02*
X171894500Y-115824000D01*
X166814500Y-116459000D02*
X168465500Y-116459000D01*
X166941500Y-116078000D02*
X171894500Y-116001800D01*
X166941500Y-116332000D02*
X166941500Y-116078000D01*
X166941500Y-115824000D02*
X166941500Y-116078000D01*
X171513500Y-115824000D02*
X166941500Y-115824000D01*
X171005500Y-115951000D02*
X171513500Y-115824000D01*
X169735500Y-116332000D02*
X171005500Y-115951000D01*
X168592500Y-116459000D02*
X169735500Y-116332000D01*
X168465500Y-116459000D02*
X168592500Y-116459000D01*
X167957500Y-116459000D02*
X168465500Y-116459000D01*
X167322500Y-116840000D02*
X167957500Y-116459000D01*
X166941500Y-116332000D02*
X166560500Y-116840000D01*
X167195500Y-116840000D02*
X166941500Y-116332000D01*
X166560500Y-117221000D02*
X167195500Y-116840000D01*
X166052500Y-117856000D02*
X166560500Y-117221000D01*
X166179500Y-116840000D02*
X166052500Y-117856000D01*
X166433500Y-116332000D02*
X166179500Y-116840000D01*
X166941500Y-115824000D02*
X166433500Y-116332000D01*
X167576500Y-115443000D02*
X166941500Y-115824000D01*
X169227500Y-115443000D02*
X167576500Y-115443000D01*
X170243500Y-115572540D02*
X169227500Y-115443000D01*
X171389040Y-115572540D02*
X170243500Y-115572540D01*
D11*
X172402500Y-114935000D02*
X171389040Y-115572540D01*
X163944300Y-118950740D02*
X163969700Y-119341900D01*
X165023800Y-120142000D02*
X165036500Y-120142000D01*
X164122100Y-120142000D02*
X164477700Y-120142000D01*
X163319460Y-119821960D02*
X163342320Y-119844820D01*
X163004500Y-117221000D02*
X163139120Y-117759480D01*
X164020500Y-117602000D02*
X163004500Y-117221000D01*
X164442140Y-117782340D02*
X164020500Y-117602000D01*
X165216840Y-118521480D02*
X165163500Y-118427500D01*
X165036500Y-120142000D02*
X165333680Y-119722900D01*
X165171120Y-120276620D02*
X165036500Y-120142000D01*
X165925500Y-120142000D02*
X165821360Y-120248680D01*
X166687500Y-120904000D02*
X166197280Y-120413780D01*
X165925500Y-119806720D02*
X165925500Y-119761000D01*
X166560500Y-121031000D02*
X166052500Y-120269000D01*
X170002200Y-116492020D02*
X171389040Y-116078000D01*
X168135300Y-116781580D02*
X168653460Y-116707920D01*
X166860220Y-117289580D02*
X166867840Y-117284500D01*
X165801040Y-118364000D02*
X165803580Y-118361460D01*
X166215060Y-118508780D02*
X166044880Y-118696740D01*
X169080180Y-117177820D02*
X168770300Y-117238780D01*
X171389040Y-116078000D02*
X171107100Y-116425980D01*
X166560500Y-120904000D02*
X166375080Y-120718580D01*
X165902640Y-119588280D02*
X165925500Y-119634000D01*
X165801040Y-117983000D02*
X165801040Y-118364000D01*
X166006780Y-116705380D02*
X165859460Y-117304820D01*
X170205400Y-115384580D02*
X168056560Y-115189000D01*
X172783500Y-114427000D02*
X171922440Y-115046760D01*
X168028620Y-119634000D02*
X167513000Y-119634000D01*
X169933620Y-118930420D02*
X169898060Y-118965980D01*
X172783500Y-114427000D02*
X171917360Y-116542820D01*
X166202360Y-119359680D02*
X165925500Y-119634000D01*
X166974520Y-119413020D02*
X166921180Y-119359680D01*
X179641500Y-123444000D02*
X167830500Y-123444000D01*
X167830500Y-120396000D02*
X179641500Y-120396000D01*
X165290056Y-119404371D02*
G75*
G02X165036500Y-120015000I-865696J1511D01*
G01*
X163843520Y-117909180D02*
G75*
G02X164350700Y-118940580I-991420J-1127920D01*
G01*
X164760840Y-120045046D02*
G75*
G02X164350700Y-118948200I1118940J1043506D01*
G01*
X165038288Y-120143791D02*
G75*
G02X164734240Y-120017540I752J431051D01*
G01*
X164471840Y-120137613D02*
G75*
G02X163969700Y-119341900I709440J1003993D01*
G01*
X163590295Y-118003066D02*
G75*
G02X163944300Y-118993920I-1408755J-1061974D01*
G01*
X164123427Y-120143303D02*
G75*
G02X163923980Y-120119140I-1327J824263D01*
G01*
X163921997Y-120118453D02*
G75*
G02X163342320Y-119844820I205183J1185493D01*
G01*
X163318446Y-119822974D02*
G75*
G02X163004500Y-119065040I757934J757934D01*
G01*
X163004783Y-119065487D02*
G75*
G02X163075620Y-118696740I992857J447D01*
G01*
X163139648Y-117762136D02*
G75*
G02X163075620Y-118696740I-1478808J-368184D01*
G01*
X164441500Y-117783511D02*
G75*
G02X165163500Y-118427500I-601340J-1400909D01*
G01*
X165217294Y-118523321D02*
G75*
G02X165417500Y-119278400I-1323794J-755079D01*
G01*
X165419374Y-119278901D02*
G75*
G02X165333680Y-119722900I-1195674J501D01*
G01*
X165463220Y-120397612D02*
G75*
G02X165171120Y-120276620I0J413092D01*
G01*
X165820634Y-120247954D02*
G75*
G02X165463220Y-120396000I-357414J357414D01*
G01*
X166193758Y-120413710D02*
G75*
G02X165925500Y-119761000I653762J650170D01*
G01*
X166431478Y-121031280D02*
G75*
G02X165925500Y-119806720I1228842J1224560D01*
G01*
X169995879Y-116492186D02*
G75*
G02X168653460Y-116707920I-1812319J6992786D01*
G01*
X166871630Y-117281934D02*
G75*
G02X168135300Y-116781580I2134890J-3545866D01*
G01*
X165805141Y-118359765D02*
G75*
G02X166860220Y-117289580I3831299J-2722035D01*
G01*
X165924655Y-119634069D02*
G75*
G02X166044880Y-118696740I762845J378529D01*
G01*
X166215973Y-118508156D02*
G75*
G02X168770300Y-117238780I3654147J-4148444D01*
G01*
X171107041Y-116427778D02*
G75*
G02X169080180Y-117177820I-2631381J3997218D01*
G01*
X166373049Y-120719559D02*
G75*
G02X165925500Y-119634000I1086611J1083019D01*
G01*
X165799260Y-117982243D02*
G75*
G02X165859460Y-117304820I3049780J70363D01*
G01*
X166006236Y-116701585D02*
G75*
G02X168056560Y-115189000I2144304J-760715D01*
G01*
X171920452Y-115044522D02*
G75*
G02X170205400Y-115384580I-1268012J1900222D01*
G01*
X169894433Y-118968013D02*
G75*
G02X168028620Y-119634000I-1738813J1924813D01*
G01*
X171914964Y-116548447D02*
G75*
G02X169933620Y-118930420I-8344044J4925607D01*
G01*
X166202360Y-119357140D02*
G75*
G02X166921180Y-119359680I358140J-360680D01*
G01*
X167513000Y-119636066D02*
G75*
G02X166974520Y-119413020I0J761526D01*
G01*
X167830500Y-123444000D02*
G75*
G02X166306500Y-121920000I0J1524000D01*
G01*
X181165500Y-121920000D02*
G75*
G02X179641500Y-123444000I-1524000J0D01*
G01*
X179641500Y-120396000D02*
G75*
G02X181165500Y-121920000I0J-1524000D01*
G01*
X166306500Y-121920000D02*
G75*
G02X167830500Y-120396000I1524000J0D01*
G01*
D10*
%TO.C,Recycle_bin*%
X175339000Y-129236000D02*
X175339000Y-129998000D01*
X179911000Y-129236000D02*
X175339000Y-129236000D01*
X179911000Y-129998000D02*
X179911000Y-129236000D01*
X175339000Y-129998000D02*
X179911000Y-129998000D01*
X175389800Y-129286800D02*
X179809400Y-129286800D01*
X179860200Y-129388400D02*
X175389800Y-129388400D01*
X175389800Y-129540800D02*
X179809400Y-129540800D01*
X175389800Y-129693200D02*
X179809400Y-129693200D01*
X179860200Y-129439200D02*
X175440600Y-129439200D01*
X179860200Y-129591600D02*
X175389800Y-129591600D01*
X175440600Y-129794800D02*
X179809400Y-129794800D01*
X179860200Y-129896400D02*
X175440600Y-129896400D01*
D11*
X179705000Y-124460000D02*
X175514000Y-128651000D01*
X179578000Y-128524000D02*
X175514000Y-124587000D01*
X178562000Y-128143000D02*
X177165000Y-128143000D01*
X178562000Y-128143000D02*
X178816000Y-125095000D01*
X179070000Y-124968000D02*
X176149000Y-124968000D01*
X178054000Y-128524000D02*
X178054000Y-128270000D01*
X178562000Y-128524000D02*
X178054000Y-128524000D01*
X178562000Y-128143000D02*
X178562000Y-128524000D01*
X176657000Y-127635000D02*
X176530000Y-125603000D01*
X177058609Y-128143000D02*
G75*
G03X177058609Y-128143000I-401609J0D01*
G01*
X178435000Y-124333000D02*
X178435000Y-124841000D01*
X178562000Y-124333000D02*
X178435000Y-124333000D01*
X178562000Y-124841000D02*
X178562000Y-124333000D01*
X176149000Y-125476000D02*
X176149000Y-124968000D01*
X176530000Y-125476000D02*
X176149000Y-125476000D01*
X176530000Y-124968000D02*
X176530000Y-125476000D01*
X176403000Y-125095000D02*
X176403000Y-125222000D01*
X176403000Y-124968000D02*
X176276000Y-125349000D01*
X176403000Y-125095000D02*
X176403000Y-125222000D01*
X176276000Y-125095000D02*
X176276000Y-125476000D01*
X176403000Y-125095000D02*
X176276000Y-125095000D01*
X176403000Y-125476000D02*
X176403000Y-125095000D01*
X177800000Y-125857000D02*
X177800000Y-125476000D01*
X176911000Y-125857000D02*
X177800000Y-125857000D01*
X176911000Y-125476000D02*
X176911000Y-125857000D01*
X177800000Y-125476000D02*
X176911000Y-125476000D01*
X177673000Y-125603000D02*
X177038000Y-125603000D01*
X177419000Y-124079000D02*
X177800000Y-124079000D01*
X177419000Y-124206000D02*
X177419000Y-124079000D01*
X177800000Y-124206000D02*
X177419000Y-124206000D01*
X177800000Y-124079000D02*
X177800000Y-124206000D01*
D18*
X176784000Y-128143000D02*
G75*
G03X176784000Y-128143000I-127000J0D01*
G01*
D11*
X176530000Y-124841000D02*
G75*
G02X178816000Y-124841000I1143000J-1143000D01*
G01*
%TO.C,PB_FREE*%
X170915437Y-127320040D02*
G75*
G03X170915437Y-127320040I-1802237J0D01*
G01*
D19*
X170273980Y-126156720D02*
X167840660Y-128577340D01*
D20*
%TO.C,Open_Hardware*%
X161119820Y-126286260D02*
X160568640Y-124863860D01*
D21*
X161465260Y-126100840D02*
X161147760Y-126306580D01*
D13*
X162255200Y-126649480D02*
X161475420Y-126118620D01*
D22*
X162831780Y-126111000D02*
X162267900Y-126649480D01*
D21*
X162816540Y-126111000D02*
X162283140Y-125277880D01*
X162641280Y-124350780D02*
X162283140Y-125234700D01*
X163619180Y-124109480D02*
X162669220Y-124327920D01*
D22*
X163609020Y-123332240D02*
X163614100Y-124119640D01*
D21*
X163621720Y-123319540D02*
X162603180Y-123139200D01*
X162572700Y-123103640D02*
X162224720Y-122237500D01*
X162801300Y-121335800D02*
X162245040Y-122186700D01*
D22*
X162811460Y-121312940D02*
X162311080Y-120779540D01*
D21*
X162262820Y-120754140D02*
X161434780Y-121406920D01*
X161373820Y-121396760D02*
X160528000Y-120990360D01*
X160268920Y-119956580D02*
X160474660Y-120970040D01*
X160276540Y-119943880D02*
X159491680Y-119943880D01*
X159509460Y-119964200D02*
X159296100Y-120982740D01*
X159296100Y-120982740D02*
X158394400Y-121432320D01*
X158381700Y-121427240D02*
X157477460Y-120792800D01*
X157477460Y-120794780D02*
X156923740Y-121340880D01*
X156923740Y-121343420D02*
X157540960Y-122133360D01*
X157540960Y-122133360D02*
X157200600Y-123070620D01*
X157200600Y-123070620D02*
X156118560Y-123299220D01*
X156118560Y-123299220D02*
X156118560Y-124134880D01*
X156118560Y-124134880D02*
X157132020Y-124305060D01*
X157132020Y-124305060D02*
X157538420Y-125216920D01*
X157487620Y-126664720D02*
X158323280Y-126098300D01*
X158323280Y-126098300D02*
X158661100Y-126283720D01*
X158661100Y-126283720D02*
X159235140Y-124843540D01*
X157538420Y-125216920D02*
X156918660Y-126103380D01*
X157472380Y-126657100D02*
X156918660Y-126111000D01*
D10*
X161038540Y-126466600D02*
X160388300Y-124797820D01*
X161422080Y-126263400D02*
X161076640Y-126484380D01*
X161434780Y-126253240D02*
X162260280Y-126817120D01*
X162267900Y-126824740D02*
X162989260Y-126131320D01*
X162996880Y-126128780D02*
X162399980Y-125265180D01*
X163758880Y-124221240D02*
X162687000Y-124416820D01*
X163758880Y-123228100D02*
X163758880Y-124213620D01*
X163761420Y-123225560D02*
X162590480Y-123022360D01*
X162692080Y-123027440D02*
X162356800Y-122194320D01*
X162953700Y-121343420D02*
X162359340Y-122196860D01*
X162974020Y-121307860D02*
X162300920Y-120594120D01*
X162288220Y-120591580D02*
X161317940Y-121307860D01*
X161353500Y-121239280D02*
X160449260Y-120860820D01*
X160365440Y-119844820D02*
X160566100Y-120870980D01*
X160355280Y-119837200D02*
X159390080Y-119837200D01*
X159390080Y-119837200D02*
X159164020Y-121008140D01*
X159174180Y-120926860D02*
X158369000Y-121264680D01*
X158488380Y-121312940D02*
X157477460Y-120639840D01*
X157472380Y-120637300D02*
X156778960Y-121328180D01*
X156773880Y-121335800D02*
X157477460Y-122326400D01*
X157388560Y-122217180D02*
X157022800Y-123085860D01*
X156085540Y-123987560D02*
X157192980Y-124211080D01*
X156001720Y-123245880D02*
X156004260Y-124203460D01*
X157139640Y-124434600D02*
X156016960Y-124223780D01*
X157035500Y-124401580D02*
X157416500Y-125382020D01*
X157068520Y-126037340D02*
X157553660Y-126568200D01*
X157464760Y-126812040D02*
X156781500Y-126121160D01*
X158351220Y-126197360D02*
X157474920Y-126817120D01*
X157487620Y-126502160D02*
X158308040Y-125973840D01*
X158170880Y-126169420D02*
X158699200Y-126497080D01*
X158699200Y-126497080D02*
X159085280Y-125516640D01*
X159090360Y-124818140D02*
X158562040Y-126199900D01*
X163466780Y-123416060D02*
X163466780Y-124066300D01*
X163609020Y-123471940D02*
X162493960Y-123225560D01*
X162079940Y-122204480D02*
X162466020Y-123202700D01*
X162074860Y-122209560D02*
X162676840Y-121300240D01*
X162318700Y-120855740D02*
X161434780Y-121577100D01*
X159047180Y-124876560D02*
X158869380Y-124754640D01*
X158869380Y-124754640D02*
X158493460Y-124043440D01*
X158493460Y-124043440D02*
X158493460Y-123525280D01*
X158488380Y-123537980D02*
X158722060Y-122864880D01*
X158722060Y-122864880D02*
X159232600Y-122435620D01*
X159232600Y-122435620D02*
X160047940Y-122275600D01*
X160047940Y-122267980D02*
X160919160Y-122697240D01*
X160919160Y-122697240D02*
X161338260Y-123428760D01*
X161343340Y-123433840D02*
X161211260Y-124256800D01*
X161206180Y-124287280D02*
X161112200Y-124457460D01*
X161206180Y-124287280D02*
X161112200Y-124457460D01*
X160982660Y-124508260D02*
X160723580Y-124846080D01*
X160614360Y-124622560D02*
X160388300Y-124797820D01*
X159113220Y-124625100D02*
X159367220Y-124790200D01*
X159250380Y-125079760D02*
X159372300Y-124795280D01*
X161429700Y-121574560D02*
X160446720Y-121081800D01*
X161099500Y-124487940D02*
X160792160Y-124754640D01*
D23*
X162115500Y-125917960D02*
X161262060Y-124896880D01*
X163151820Y-123713240D02*
X161734500Y-123652280D01*
X162166300Y-121427240D02*
X161104580Y-122534680D01*
X159905700Y-120451880D02*
X159900620Y-121965720D01*
X157640020Y-121508520D02*
X158752540Y-122575320D01*
X156649420Y-123692920D02*
X158117540Y-123779280D01*
X161439860Y-125745240D02*
X161074100Y-124983240D01*
X162105340Y-124846080D02*
X161541460Y-124366020D01*
X162354260Y-124200920D02*
X161648140Y-124073920D01*
X162029140Y-122956320D02*
X161587180Y-123116340D01*
X161853880Y-122476260D02*
X161396680Y-122765820D01*
X160855660Y-121699020D02*
X160680400Y-122057160D01*
X160421320Y-121439940D02*
X160253680Y-122049540D01*
X159156400Y-121455180D02*
X159377380Y-122140980D01*
X158569660Y-121706640D02*
X158988760Y-122293380D01*
X157700980Y-122575320D02*
X158356300Y-122941080D01*
X157459680Y-123268740D02*
X158181040Y-123416060D01*
X158295340Y-124426980D02*
X157685740Y-124533660D01*
X158615380Y-124846080D02*
X157998160Y-125173740D01*
X158729680Y-124983240D02*
X157548580Y-125996700D01*
X158729680Y-124891800D02*
X158396940Y-125623320D01*
D21*
X159224980Y-124841000D02*
G75*
G02X158854140Y-122976640I746760J1117600D01*
G01*
X158843980Y-122991880D02*
G75*
G02X160769300Y-122793760I1061720J-863600D01*
G01*
X160794700Y-122819160D02*
G75*
G02X160718500Y-124673360I-965200J-889000D01*
G01*
D11*
%TO.C,Antistatic*%
X142557500Y-128524000D02*
X142621000Y-128524000D01*
X142557500Y-128524000D02*
X142557500Y-127508000D01*
X142494000Y-128714500D02*
X142494000Y-128587500D01*
X142938500Y-127317500D02*
X142938500Y-128397000D01*
X141986000Y-128714500D02*
X141833600Y-128714500D01*
X139001500Y-127127000D02*
X139319000Y-127127000D01*
X140627100Y-126238000D02*
X139446000Y-126238000D01*
X143002000Y-126301500D02*
X137668000Y-129794000D01*
X139446000Y-126238000D02*
X141224000Y-122682000D01*
X139001500Y-127127000D02*
X139446000Y-126238000D01*
X137668000Y-129794000D02*
X139001500Y-127127000D01*
X144780000Y-129794000D02*
X137668000Y-129794000D01*
X141224000Y-122682000D02*
X144780000Y-129794000D01*
X142621000Y-128524000D02*
G75*
G02X142748000Y-128651000I0J-127000D01*
G01*
X142494000Y-128587500D02*
G75*
G02X142557500Y-128524000I63500J0D01*
G01*
X142555071Y-128780545D02*
G75*
G02X142494000Y-128714500I2429J63505D01*
G01*
X142938500Y-128397000D02*
G75*
G02X142557500Y-128778000I-381000J0D01*
G01*
X142749048Y-127001575D02*
G75*
G02X142938500Y-127317500I-168688J-315925D01*
G01*
X142746549Y-127000142D02*
G75*
G02X142430500Y-126682500I478971J792622D01*
G01*
X142555935Y-127509845D02*
G75*
G02X141859000Y-127063500I153965J1007685D01*
G01*
X142112068Y-128270674D02*
G75*
G02X142113000Y-128587500I-316568J-159346D01*
G01*
X142112967Y-128587600D02*
G75*
G02X141986000Y-128714500I-190467J63600D01*
G01*
X140784275Y-127826493D02*
G75*
G02X141224000Y-127952500I-825195J-3709947D01*
G01*
X141223915Y-127953965D02*
G75*
G02X141795500Y-128714500I-284395J-808795D01*
G01*
X141161708Y-127509166D02*
G75*
G02X142113000Y-128270000I-285688J-1332334D01*
G01*
X140649461Y-127763576D02*
G75*
G02X139827000Y-127317500I147819J1253796D01*
G01*
X139318301Y-127127474D02*
G75*
G02X139827000Y-127317500I64199J-604046D01*
G01*
X140842915Y-126176114D02*
G75*
G02X140627100Y-126238000I-182795J230214D01*
G01*
X140843721Y-126174678D02*
G75*
G02X142430500Y-126682500I466639J-1274902D01*
G01*
%TO.C,SJ1*%
D19*
X133349885Y-118586209D02*
X133235600Y-118624304D01*
X133045123Y-118624304D01*
X132968933Y-118586209D01*
X132930838Y-118548114D01*
X132892742Y-118471923D01*
X132892742Y-118395733D01*
X132930838Y-118319542D01*
X132968933Y-118281447D01*
X133045123Y-118243352D01*
X133197504Y-118205257D01*
X133273695Y-118167161D01*
X133311790Y-118129066D01*
X133349885Y-118052876D01*
X133349885Y-117976685D01*
X133311790Y-117900495D01*
X133273695Y-117862400D01*
X133197504Y-117824304D01*
X133007028Y-117824304D01*
X132892742Y-117862400D01*
X132321314Y-117824304D02*
X132321314Y-118395733D01*
X132359409Y-118510019D01*
X132435600Y-118586209D01*
X132549885Y-118624304D01*
X132626076Y-118624304D01*
X131521314Y-118624304D02*
X131978457Y-118624304D01*
X131749885Y-118624304D02*
X131749885Y-117824304D01*
X131826076Y-117938590D01*
X131902266Y-118014780D01*
X131978457Y-118052876D01*
%TO.C,DBG1*%
D24*
X186381571Y-115951000D02*
X186454142Y-115914714D01*
X186563000Y-115914714D01*
X186671857Y-115951000D01*
X186744428Y-116023571D01*
X186780714Y-116096142D01*
X186817000Y-116241285D01*
X186817000Y-116350142D01*
X186780714Y-116495285D01*
X186744428Y-116567857D01*
X186671857Y-116640428D01*
X186563000Y-116676714D01*
X186490428Y-116676714D01*
X186381571Y-116640428D01*
X186345285Y-116604142D01*
X186345285Y-116350142D01*
X186490428Y-116350142D01*
X186018714Y-116676714D02*
X186018714Y-115914714D01*
X185583285Y-116676714D01*
X185583285Y-115914714D01*
X185220428Y-116676714D02*
X185220428Y-115914714D01*
X185039000Y-115914714D01*
X184930142Y-115951000D01*
X184857571Y-116023571D01*
X184821285Y-116096142D01*
X184785000Y-116241285D01*
X184785000Y-116350142D01*
X184821285Y-116495285D01*
X184857571Y-116567857D01*
X184930142Y-116640428D01*
X185039000Y-116676714D01*
X185220428Y-116676714D01*
X186182000Y-114009714D02*
X186436000Y-113646857D01*
X186617428Y-114009714D02*
X186617428Y-113247714D01*
X186327142Y-113247714D01*
X186254571Y-113284000D01*
X186218285Y-113320285D01*
X186182000Y-113392857D01*
X186182000Y-113501714D01*
X186218285Y-113574285D01*
X186254571Y-113610571D01*
X186327142Y-113646857D01*
X186617428Y-113646857D01*
X185928000Y-113247714D02*
X185420000Y-114009714D01*
X185420000Y-113247714D02*
X185928000Y-114009714D01*
X186635571Y-110707714D02*
X186200142Y-110707714D01*
X186417857Y-111469714D02*
X186417857Y-110707714D01*
X186018714Y-110707714D02*
X185510714Y-111469714D01*
X185510714Y-110707714D02*
X186018714Y-111469714D01*
X189266285Y-111469714D02*
X189701714Y-111469714D01*
X189484000Y-111469714D02*
X189484000Y-110707714D01*
X189556571Y-110816571D01*
X189629142Y-110889142D01*
X189701714Y-110925428D01*
%TO.C,CON2*%
X140942785Y-107088214D02*
X140688785Y-107850214D01*
X140434785Y-107088214D01*
X139854214Y-107850214D02*
X139854214Y-107088214D01*
X139854214Y-107813928D02*
X139926785Y-107850214D01*
X140071928Y-107850214D01*
X140144500Y-107813928D01*
X140180785Y-107777642D01*
X140217071Y-107705071D01*
X140217071Y-107487357D01*
X140180785Y-107414785D01*
X140144500Y-107378500D01*
X140071928Y-107342214D01*
X139926785Y-107342214D01*
X139854214Y-107378500D01*
X139164785Y-107813928D02*
X139237357Y-107850214D01*
X139382500Y-107850214D01*
X139455071Y-107813928D01*
X139491357Y-107777642D01*
X139527642Y-107705071D01*
X139527642Y-107487357D01*
X139491357Y-107414785D01*
X139455071Y-107378500D01*
X139382500Y-107342214D01*
X139237357Y-107342214D01*
X139164785Y-107378500D01*
X140471071Y-109156500D02*
X140543642Y-109120214D01*
X140652500Y-109120214D01*
X140761357Y-109156500D01*
X140833928Y-109229071D01*
X140870214Y-109301642D01*
X140906500Y-109446785D01*
X140906500Y-109555642D01*
X140870214Y-109700785D01*
X140833928Y-109773357D01*
X140761357Y-109845928D01*
X140652500Y-109882214D01*
X140579928Y-109882214D01*
X140471071Y-109845928D01*
X140434785Y-109809642D01*
X140434785Y-109555642D01*
X140579928Y-109555642D01*
X140108214Y-109882214D02*
X140108214Y-109120214D01*
X139672785Y-109882214D01*
X139672785Y-109120214D01*
X139309928Y-109882214D02*
X139309928Y-109120214D01*
X139128500Y-109120214D01*
X139019642Y-109156500D01*
X138947071Y-109229071D01*
X138910785Y-109301642D01*
X138874500Y-109446785D01*
X138874500Y-109555642D01*
X138910785Y-109700785D01*
X138947071Y-109773357D01*
X139019642Y-109845928D01*
X139128500Y-109882214D01*
X139309928Y-109882214D01*
X140942785Y-105861428D02*
X140833928Y-105897714D01*
X140652500Y-105897714D01*
X140579928Y-105861428D01*
X140543642Y-105825142D01*
X140507357Y-105752571D01*
X140507357Y-105680000D01*
X140543642Y-105607428D01*
X140579928Y-105571142D01*
X140652500Y-105534857D01*
X140797642Y-105498571D01*
X140870214Y-105462285D01*
X140906500Y-105426000D01*
X140942785Y-105353428D01*
X140942785Y-105280857D01*
X140906500Y-105208285D01*
X140870214Y-105172000D01*
X140797642Y-105135714D01*
X140616214Y-105135714D01*
X140507357Y-105172000D01*
X140180785Y-105897714D02*
X140180785Y-105135714D01*
X139999357Y-105135714D01*
X139890500Y-105172000D01*
X139817928Y-105244571D01*
X139781642Y-105317142D01*
X139745357Y-105462285D01*
X139745357Y-105571142D01*
X139781642Y-105716285D01*
X139817928Y-105788857D01*
X139890500Y-105861428D01*
X139999357Y-105897714D01*
X140180785Y-105897714D01*
X139455071Y-105680000D02*
X139092214Y-105680000D01*
X139527642Y-105897714D02*
X139273642Y-105135714D01*
X139019642Y-105897714D01*
X140924642Y-103813428D02*
X140815785Y-103849714D01*
X140634357Y-103849714D01*
X140561785Y-103813428D01*
X140525500Y-103777142D01*
X140489214Y-103704571D01*
X140489214Y-103632000D01*
X140525500Y-103559428D01*
X140561785Y-103523142D01*
X140634357Y-103486857D01*
X140779500Y-103450571D01*
X140852071Y-103414285D01*
X140888357Y-103378000D01*
X140924642Y-103305428D01*
X140924642Y-103232857D01*
X140888357Y-103160285D01*
X140852071Y-103124000D01*
X140779500Y-103087714D01*
X140598071Y-103087714D01*
X140489214Y-103124000D01*
X139727214Y-103777142D02*
X139763500Y-103813428D01*
X139872357Y-103849714D01*
X139944928Y-103849714D01*
X140053785Y-103813428D01*
X140126357Y-103740857D01*
X140162642Y-103668285D01*
X140198928Y-103523142D01*
X140198928Y-103414285D01*
X140162642Y-103269142D01*
X140126357Y-103196571D01*
X140053785Y-103124000D01*
X139944928Y-103087714D01*
X139872357Y-103087714D01*
X139763500Y-103124000D01*
X139727214Y-103160285D01*
X139037785Y-103849714D02*
X139400642Y-103849714D01*
X139400642Y-103087714D01*
D25*
X142970285Y-103957380D02*
X143541714Y-103957380D01*
X143256000Y-103957380D02*
X143256000Y-102957380D01*
X143351238Y-103100238D01*
X143446476Y-103195476D01*
X143541714Y-103243095D01*
%TO.C,UEXT1*%
D11*
X161435142Y-105476523D02*
X162160857Y-105476523D01*
X161798000Y-105476523D02*
X161798000Y-104206523D01*
X161918952Y-104387952D01*
X162039904Y-104508904D01*
X162160857Y-104569380D01*
X162160857Y-106867476D02*
X162100380Y-106807000D01*
X161979428Y-106746523D01*
X161677047Y-106746523D01*
X161556095Y-106807000D01*
X161495619Y-106867476D01*
X161435142Y-106988428D01*
X161435142Y-107109380D01*
X161495619Y-107290809D01*
X162221333Y-108016523D01*
X161435142Y-108016523D01*
X147053904Y-105476523D02*
X146812000Y-105476523D01*
X146691047Y-105416047D01*
X146630571Y-105355571D01*
X146509619Y-105174142D01*
X146449142Y-104932238D01*
X146449142Y-104448428D01*
X146509619Y-104327476D01*
X146570095Y-104267000D01*
X146691047Y-104206523D01*
X146932952Y-104206523D01*
X147053904Y-104267000D01*
X147114380Y-104327476D01*
X147174857Y-104448428D01*
X147174857Y-104750809D01*
X147114380Y-104871761D01*
X147053904Y-104932238D01*
X146932952Y-104992714D01*
X146691047Y-104992714D01*
X146570095Y-104932238D01*
X146509619Y-104871761D01*
X146449142Y-104750809D01*
X147053904Y-108016523D02*
X147779619Y-108016523D01*
X147416761Y-108016523D02*
X147416761Y-106746523D01*
X147537714Y-106927952D01*
X147658666Y-107048904D01*
X147779619Y-107109380D01*
X146267714Y-106746523D02*
X146146761Y-106746523D01*
X146025809Y-106807000D01*
X145965333Y-106867476D01*
X145904857Y-106988428D01*
X145844380Y-107230333D01*
X145844380Y-107532714D01*
X145904857Y-107774619D01*
X145965333Y-107895571D01*
X146025809Y-107956047D01*
X146146761Y-108016523D01*
X146267714Y-108016523D01*
X146388666Y-107956047D01*
X146449142Y-107895571D01*
X146509619Y-107774619D01*
X146570095Y-107532714D01*
X146570095Y-107230333D01*
X146509619Y-106988428D01*
X146449142Y-106867476D01*
X146388666Y-106807000D01*
X146267714Y-106746523D01*
%TO.C,BAT_CON1*%
X182281527Y-137837091D02*
X181507432Y-137837091D01*
X181894480Y-138224139D02*
X181894480Y-137450043D01*
X184232247Y-137788831D02*
X183458152Y-137788831D01*
%TO.C,RoHS_Complaint*%
D26*
X179198693Y-122605800D02*
X179283360Y-122690466D01*
X179537360Y-122775133D01*
X179706693Y-122775133D01*
X179960693Y-122690466D01*
X180130026Y-122521133D01*
X180214693Y-122351800D01*
X180299360Y-122013133D01*
X180299360Y-121759133D01*
X180214693Y-121420466D01*
X180130026Y-121251133D01*
X179960693Y-121081800D01*
X179706693Y-120997133D01*
X179537360Y-120997133D01*
X179283360Y-121081800D01*
X179198693Y-121166466D01*
X178182693Y-122775133D02*
X178352026Y-122690466D01*
X178436693Y-122605800D01*
X178521360Y-122436466D01*
X178521360Y-121928466D01*
X178436693Y-121759133D01*
X178352026Y-121674466D01*
X178182693Y-121589800D01*
X177928693Y-121589800D01*
X177759360Y-121674466D01*
X177674693Y-121759133D01*
X177590026Y-121928466D01*
X177590026Y-122436466D01*
X177674693Y-122605800D01*
X177759360Y-122690466D01*
X177928693Y-122775133D01*
X178182693Y-122775133D01*
X176828026Y-122775133D02*
X176828026Y-121589800D01*
X176828026Y-121759133D02*
X176743360Y-121674466D01*
X176574026Y-121589800D01*
X176320026Y-121589800D01*
X176150693Y-121674466D01*
X176066026Y-121843800D01*
X176066026Y-122775133D01*
X176066026Y-121843800D02*
X175981360Y-121674466D01*
X175812026Y-121589800D01*
X175558026Y-121589800D01*
X175388693Y-121674466D01*
X175304026Y-121843800D01*
X175304026Y-122775133D01*
X174457360Y-121589800D02*
X174457360Y-123367800D01*
X174457360Y-121674466D02*
X174288026Y-121589800D01*
X173949360Y-121589800D01*
X173780026Y-121674466D01*
X173695360Y-121759133D01*
X173610693Y-121928466D01*
X173610693Y-122436466D01*
X173695360Y-122605800D01*
X173780026Y-122690466D01*
X173949360Y-122775133D01*
X174288026Y-122775133D01*
X174457360Y-122690466D01*
X172594693Y-122775133D02*
X172764026Y-122690466D01*
X172848693Y-122521133D01*
X172848693Y-120997133D01*
X171917360Y-122775133D02*
X171917360Y-121589800D01*
X171917360Y-120997133D02*
X172002026Y-121081800D01*
X171917360Y-121166466D01*
X171832693Y-121081800D01*
X171917360Y-120997133D01*
X171917360Y-121166466D01*
X170308693Y-122775133D02*
X170308693Y-121843800D01*
X170393360Y-121674466D01*
X170562693Y-121589800D01*
X170901360Y-121589800D01*
X171070693Y-121674466D01*
X170308693Y-122690466D02*
X170478026Y-122775133D01*
X170901360Y-122775133D01*
X171070693Y-122690466D01*
X171155360Y-122521133D01*
X171155360Y-122351800D01*
X171070693Y-122182466D01*
X170901360Y-122097800D01*
X170478026Y-122097800D01*
X170308693Y-122013133D01*
X169462026Y-121589800D02*
X169462026Y-122775133D01*
X169462026Y-121759133D02*
X169377360Y-121674466D01*
X169208026Y-121589800D01*
X168954026Y-121589800D01*
X168784693Y-121674466D01*
X168700026Y-121843800D01*
X168700026Y-122775133D01*
X168107360Y-121589800D02*
X167430026Y-121589800D01*
X167853360Y-120997133D02*
X167853360Y-122521133D01*
X167768693Y-122690466D01*
X167599360Y-122775133D01*
X167430026Y-122775133D01*
D15*
X178620134Y-119670081D02*
X179286800Y-118717700D01*
X179762991Y-119670081D02*
X179762991Y-117670081D01*
X179001086Y-117670081D01*
X178810610Y-117765320D01*
X178715372Y-117860558D01*
X178620134Y-118051034D01*
X178620134Y-118336748D01*
X178715372Y-118527224D01*
X178810610Y-118622462D01*
X179001086Y-118717700D01*
X179762991Y-118717700D01*
X177477277Y-119670081D02*
X177667753Y-119574843D01*
X177762991Y-119479605D01*
X177858229Y-119289129D01*
X177858229Y-118717700D01*
X177762991Y-118527224D01*
X177667753Y-118431986D01*
X177477277Y-118336748D01*
X177191562Y-118336748D01*
X177001086Y-118431986D01*
X176905848Y-118527224D01*
X176810610Y-118717700D01*
X176810610Y-119289129D01*
X176905848Y-119479605D01*
X177001086Y-119574843D01*
X177191562Y-119670081D01*
X177477277Y-119670081D01*
X175953467Y-119670081D02*
X175953467Y-117670081D01*
X175953467Y-118622462D02*
X174810610Y-118622462D01*
X174810610Y-119670081D02*
X174810610Y-117670081D01*
X173953467Y-119574843D02*
X173667753Y-119670081D01*
X173191562Y-119670081D01*
X173001086Y-119574843D01*
X172905848Y-119479605D01*
X172810610Y-119289129D01*
X172810610Y-119098653D01*
X172905848Y-118908177D01*
X173001086Y-118812939D01*
X173191562Y-118717700D01*
X173572515Y-118622462D01*
X173762991Y-118527224D01*
X173858229Y-118431986D01*
X173953467Y-118241510D01*
X173953467Y-118051034D01*
X173858229Y-117860558D01*
X173762991Y-117765320D01*
X173572515Y-117670081D01*
X173096324Y-117670081D01*
X172810610Y-117765320D01*
%TO.C,PB_FREE*%
D11*
X170067788Y-128068767D02*
X170067788Y-126368767D01*
X169496360Y-126368767D01*
X169353502Y-126449720D01*
X169282074Y-126530672D01*
X169210645Y-126692577D01*
X169210645Y-126935434D01*
X169282074Y-127097339D01*
X169353502Y-127178291D01*
X169496360Y-127259243D01*
X170067788Y-127259243D01*
X168567788Y-128068767D02*
X168567788Y-126368767D01*
X168567788Y-127016386D02*
X168424931Y-126935434D01*
X168139217Y-126935434D01*
X167996360Y-127016386D01*
X167924931Y-127097339D01*
X167853502Y-127259243D01*
X167853502Y-127744958D01*
X167924931Y-127906862D01*
X167996360Y-127987815D01*
X168139217Y-128068767D01*
X168424931Y-128068767D01*
X168567788Y-127987815D01*
%TO.C,Open_Hardware*%
X164839298Y-128498379D02*
X164944060Y-128445998D01*
X164996440Y-128393617D01*
X165048821Y-128288855D01*
X165048821Y-127974569D01*
X164996440Y-127869807D01*
X164944060Y-127817426D01*
X164839298Y-127765045D01*
X164682155Y-127765045D01*
X164577393Y-127817426D01*
X164525012Y-127869807D01*
X164472631Y-127974569D01*
X164472631Y-128288855D01*
X164525012Y-128393617D01*
X164577393Y-128445998D01*
X164682155Y-128498379D01*
X164839298Y-128498379D01*
X164001202Y-127765045D02*
X164001202Y-128865045D01*
X164001202Y-127817426D02*
X163896440Y-127765045D01*
X163686917Y-127765045D01*
X163582155Y-127817426D01*
X163529774Y-127869807D01*
X163477393Y-127974569D01*
X163477393Y-128288855D01*
X163529774Y-128393617D01*
X163582155Y-128445998D01*
X163686917Y-128498379D01*
X163896440Y-128498379D01*
X164001202Y-128445998D01*
X162586917Y-128445998D02*
X162691679Y-128498379D01*
X162901202Y-128498379D01*
X163005964Y-128445998D01*
X163058345Y-128341236D01*
X163058345Y-127922188D01*
X163005964Y-127817426D01*
X162901202Y-127765045D01*
X162691679Y-127765045D01*
X162586917Y-127817426D01*
X162534536Y-127922188D01*
X162534536Y-128026950D01*
X163058345Y-128131712D01*
X162063107Y-127765045D02*
X162063107Y-128498379D01*
X162063107Y-127869807D02*
X162010726Y-127817426D01*
X161905964Y-127765045D01*
X161748821Y-127765045D01*
X161644060Y-127817426D01*
X161591679Y-127922188D01*
X161591679Y-128498379D01*
D27*
X160523797Y-128544580D02*
X160523797Y-127544580D01*
X160095225Y-128544580D02*
X160095225Y-128020771D01*
X160142844Y-127925533D01*
X160238082Y-127877914D01*
X160380940Y-127877914D01*
X160476178Y-127925533D01*
X160523797Y-127973152D01*
X159190463Y-128544580D02*
X159190463Y-128020771D01*
X159238082Y-127925533D01*
X159333320Y-127877914D01*
X159523797Y-127877914D01*
X159619035Y-127925533D01*
X159190463Y-128496961D02*
X159285701Y-128544580D01*
X159523797Y-128544580D01*
X159619035Y-128496961D01*
X159666654Y-128401723D01*
X159666654Y-128306485D01*
X159619035Y-128211247D01*
X159523797Y-128163628D01*
X159285701Y-128163628D01*
X159190463Y-128116009D01*
X158714273Y-128544580D02*
X158714273Y-127877914D01*
X158714273Y-128068390D02*
X158666654Y-127973152D01*
X158619035Y-127925533D01*
X158523797Y-127877914D01*
X158428559Y-127877914D01*
X157666654Y-128544580D02*
X157666654Y-127544580D01*
X157666654Y-128496961D02*
X157761892Y-128544580D01*
X157952368Y-128544580D01*
X158047606Y-128496961D01*
X158095225Y-128449342D01*
X158142844Y-128354104D01*
X158142844Y-128068390D01*
X158095225Y-127973152D01*
X158047606Y-127925533D01*
X157952368Y-127877914D01*
X157761892Y-127877914D01*
X157666654Y-127925533D01*
X157285701Y-127877914D02*
X157095225Y-128544580D01*
X156904749Y-128068390D01*
X156714273Y-128544580D01*
X156523797Y-127877914D01*
X155714273Y-128544580D02*
X155714273Y-128020771D01*
X155761892Y-127925533D01*
X155857130Y-127877914D01*
X156047606Y-127877914D01*
X156142844Y-127925533D01*
X155714273Y-128496961D02*
X155809511Y-128544580D01*
X156047606Y-128544580D01*
X156142844Y-128496961D01*
X156190463Y-128401723D01*
X156190463Y-128306485D01*
X156142844Y-128211247D01*
X156047606Y-128163628D01*
X155809511Y-128163628D01*
X155714273Y-128116009D01*
X155238082Y-128544580D02*
X155238082Y-127877914D01*
X155238082Y-128068390D02*
X155190463Y-127973152D01*
X155142844Y-127925533D01*
X155047606Y-127877914D01*
X154952368Y-127877914D01*
X154238082Y-128496961D02*
X154333320Y-128544580D01*
X154523797Y-128544580D01*
X154619035Y-128496961D01*
X154666654Y-128401723D01*
X154666654Y-128020771D01*
X154619035Y-127925533D01*
X154523797Y-127877914D01*
X154333320Y-127877914D01*
X154238082Y-127925533D01*
X154190463Y-128020771D01*
X154190463Y-128116009D01*
X154666654Y-128211247D01*
%TO.C,U2*%
D11*
X184609619Y-115479285D02*
X184609619Y-114898714D01*
X184609619Y-115189000D02*
X183593619Y-115189000D01*
X183738761Y-115092238D01*
X183835523Y-114995476D01*
X183883904Y-114898714D01*
X135430380Y-114922904D02*
X135382000Y-114971285D01*
X135333619Y-115068047D01*
X135333619Y-115309952D01*
X135382000Y-115406714D01*
X135430380Y-115455095D01*
X135527142Y-115503476D01*
X135623904Y-115503476D01*
X135769047Y-115455095D01*
X136349619Y-114874523D01*
X136349619Y-115503476D01*
X135333619Y-116132428D02*
X135333619Y-116229190D01*
X135382000Y-116325952D01*
X135430380Y-116374333D01*
X135527142Y-116422714D01*
X135720666Y-116471095D01*
X135962571Y-116471095D01*
X136156095Y-116422714D01*
X136252857Y-116374333D01*
X136301238Y-116325952D01*
X136349619Y-116229190D01*
X136349619Y-116132428D01*
X136301238Y-116035666D01*
X136252857Y-115987285D01*
X136156095Y-115938904D01*
X135962571Y-115890523D01*
X135720666Y-115890523D01*
X135527142Y-115938904D01*
X135430380Y-115987285D01*
X135382000Y-116035666D01*
X135333619Y-116132428D01*
X135430380Y-128575404D02*
X135382000Y-128623785D01*
X135333619Y-128720547D01*
X135333619Y-128962452D01*
X135382000Y-129059214D01*
X135430380Y-129107595D01*
X135527142Y-129155976D01*
X135623904Y-129155976D01*
X135769047Y-129107595D01*
X136349619Y-128527023D01*
X136349619Y-129155976D01*
X136349619Y-130123595D02*
X136349619Y-129543023D01*
X136349619Y-129833309D02*
X135333619Y-129833309D01*
X135478761Y-129736547D01*
X135575523Y-129639785D01*
X135623904Y-129543023D01*
X183932285Y-128843314D02*
X184609619Y-128843314D01*
X183545238Y-128601409D02*
X184270952Y-128359504D01*
X184270952Y-128988457D01*
X183593619Y-129569028D02*
X183593619Y-129665790D01*
X183642000Y-129762552D01*
X183690380Y-129810933D01*
X183787142Y-129859314D01*
X183980666Y-129907695D01*
X184222571Y-129907695D01*
X184416095Y-129859314D01*
X184512857Y-129810933D01*
X184561238Y-129762552D01*
X184609619Y-129665790D01*
X184609619Y-129569028D01*
X184561238Y-129472266D01*
X184512857Y-129423885D01*
X184416095Y-129375504D01*
X184222571Y-129327123D01*
X183980666Y-129327123D01*
X183787142Y-129375504D01*
X183690380Y-129423885D01*
X183642000Y-129472266D01*
X183593619Y-129569028D01*
%TD*%
M02*
