%TF.GenerationSoftware,KiCad,Pcbnew,5.1.5+dfsg1-2build2*%
%TF.CreationDate,2021-04-22T16:13:23+03:00*%
%TF.ProjectId,RP2040-PICO-PC_rev_B,52503230-3430-42d5-9049-434f2d50435f,A*%
%TF.SameCoordinates,Original*%
%TF.FileFunction,Soldermask,Top*%
%TF.FilePolarity,Negative*%
%FSLAX46Y46*%
G04 Gerber Fmt 4.6, Leading zero omitted, Abs format (unit mm)*
G04 Created by KiCad (PCBNEW 5.1.5+dfsg1-2build2) date 2021-04-22 16:13:23*
%MOMM*%
%LPD*%
G04 APERTURE LIST*
%ADD10R,0.601600X0.651600*%
%ADD11R,0.901600X1.001600*%
%ADD12R,1.501600X2.701600*%
%ADD13R,2.101600X2.701600*%
%ADD14R,1.901600X2.701600*%
%ADD15R,2.701600X2.101600*%
%ADD16C,2.001600*%
%ADD17R,0.651600X0.601600*%
%ADD18R,1.101600X1.501600*%
%ADD19R,1.879600X1.879600*%
%ADD20C,1.879600*%
%ADD21R,1.301600X1.301600*%
%ADD22C,1.301600*%
%ADD23C,6.401600*%
%ADD24C,1.254000*%
%ADD25R,1.801600X1.801600*%
%ADD26C,1.801600*%
%ADD27R,1.501600X1.501600*%
%ADD28C,1.501600*%
%ADD29R,1.117600X1.117600*%
%ADD30R,1.701600X1.901600*%
%ADD31O,2.801600X1.401600*%
%ADD32O,2.401600X1.401600*%
%ADD33R,2.100000X0.350000*%
%ADD34R,0.901600X0.901600*%
%ADD35R,0.651600X1.301600*%
%ADD36R,1.751600X0.601600*%
%ADD37R,1.751600X0.426600*%
%ADD38C,0.701600*%
%ADD39R,1.101600X1.201600*%
%ADD40O,1.901600X1.301600*%
%ADD41R,1.371600X1.625600*%
%ADD42C,0.901600*%
%ADD43R,1.117600X1.625600*%
%ADD44C,1.101600*%
%ADD45R,2.400000X1.400000*%
%ADD46R,1.600000X1.800000*%
%ADD47R,1.600000X1.400000*%
%ADD48R,1.100000X0.700000*%
%ADD49R,1.501600X0.426600*%
G04 APERTURE END LIST*
D10*
%TO.C,R28*%
X143383000Y-116205000D03*
X142367000Y-116205000D03*
%TD*%
%TO.C,R26*%
X146812000Y-116205000D03*
X145796000Y-116205000D03*
%TD*%
%TO.C,R25*%
X136398000Y-116205000D03*
X137414000Y-116205000D03*
%TD*%
%TO.C,R6*%
X148971000Y-118364000D03*
X147955000Y-118364000D03*
%TD*%
D11*
%TO.C,FET3*%
X143367000Y-117264000D03*
X141367000Y-117264000D03*
X142367000Y-119464000D03*
%TD*%
%TO.C,FET2*%
X146796000Y-117264000D03*
X144796000Y-117264000D03*
X145796000Y-119464000D03*
%TD*%
D12*
%TO.C,AUDIO_JACK_1*%
X188737000Y-102899000D03*
D13*
X176537000Y-102899000D03*
D14*
X184037000Y-109799000D03*
D15*
X172937000Y-107099000D03*
D12*
X185937000Y-102899000D03*
D16*
X184737000Y-106299000D03*
X177737000Y-106299000D03*
%TD*%
D17*
%TO.C,R3*%
X142367000Y-120523000D03*
X142367000Y-121539000D03*
%TD*%
%TO.C,R2*%
X145796000Y-120523000D03*
X145796000Y-121539000D03*
%TD*%
D18*
%TO.C,FET1*%
X173669960Y-134172960D03*
X171767500Y-134172960D03*
X172722540Y-136382760D03*
%TD*%
D19*
%TO.C,DBG1*%
X187960000Y-111125000D03*
D20*
X187960000Y-113665000D03*
X187960000Y-116205000D03*
%TD*%
D21*
%TO.C,CON2*%
X141901000Y-103553000D03*
D22*
X141901000Y-105553000D03*
X141901000Y-107553000D03*
X141901000Y-109553000D03*
%TD*%
%TO.C,MH3*%
X165481000Y-104648000D03*
X170307000Y-104648000D03*
X169545000Y-106299000D03*
X166243000Y-106426000D03*
X169545000Y-102997000D03*
X166243000Y-102997000D03*
X167894000Y-107061000D03*
X167894000Y-102235000D03*
D23*
X167894000Y-104648000D03*
%TD*%
D24*
%TO.C,FID4*%
X121793000Y-135382000D03*
%TD*%
D25*
%TO.C,UEXT1*%
X159258000Y-104902000D03*
D26*
X159258000Y-107442000D03*
X156718000Y-104902000D03*
X156718000Y-107442000D03*
X154178000Y-104902000D03*
X154178000Y-107442000D03*
X151638000Y-104902000D03*
X151638000Y-107442000D03*
X149098000Y-104902000D03*
X149098000Y-107442000D03*
%TD*%
D27*
%TO.C,BAT_CON1*%
X181851300Y-135910320D03*
D28*
X183880760Y-135907780D03*
%TD*%
D17*
%TO.C,R7*%
X132842000Y-118364000D03*
X132842000Y-117348000D03*
%TD*%
D10*
%TO.C,R13*%
X134239000Y-111379000D03*
X133223000Y-111379000D03*
%TD*%
%TO.C,R10*%
X133223000Y-108331000D03*
X134239000Y-108331000D03*
%TD*%
D17*
%TO.C,R12*%
X132715000Y-116078000D03*
X132715000Y-115062000D03*
%TD*%
%TO.C,R11*%
X131826000Y-117348000D03*
X131826000Y-118364000D03*
%TD*%
D10*
%TO.C,R9*%
X133223000Y-110363000D03*
X134239000Y-110363000D03*
%TD*%
D17*
%TO.C,R8*%
X133731000Y-116078000D03*
X133731000Y-115062000D03*
%TD*%
D10*
%TO.C,R14*%
X133223000Y-109347000D03*
X134239000Y-109347000D03*
%TD*%
D20*
%TO.C,U2*%
X173990000Y-131318000D03*
X179070000Y-131318000D03*
X143510000Y-131318000D03*
X158750000Y-131318000D03*
X158750000Y-113538000D03*
X143510000Y-113538000D03*
X156210000Y-131318000D03*
X179070000Y-113538000D03*
X146050000Y-113538000D03*
X171450000Y-113538000D03*
X176530000Y-113538000D03*
X184150000Y-131318000D03*
X151130000Y-113538000D03*
X135890000Y-113538000D03*
X171450000Y-131318000D03*
X173990000Y-113538000D03*
X153670000Y-113538000D03*
X140970000Y-113538000D03*
X138430000Y-113538000D03*
X163830000Y-131318000D03*
X138430000Y-131318000D03*
X176530000Y-131318000D03*
X151130000Y-131318000D03*
X146050000Y-131318000D03*
X148590000Y-131318000D03*
X140970000Y-131318000D03*
D19*
X184150000Y-113538000D03*
D20*
X181610000Y-113538000D03*
X168910000Y-113538000D03*
X156210000Y-113538000D03*
X135890000Y-131318000D03*
X153670000Y-131318000D03*
X148590000Y-113538000D03*
X181610000Y-131318000D03*
X161290000Y-131318000D03*
X161290000Y-113538000D03*
X163830000Y-113538000D03*
X166370000Y-131318000D03*
X166370000Y-113538000D03*
X168910000Y-131318000D03*
%TD*%
D24*
%TO.C,FID1*%
X187833000Y-107061000D03*
%TD*%
%TO.C,FID2*%
X180975000Y-128778000D03*
%TD*%
%TO.C,FID3*%
X122428000Y-106426000D03*
%TD*%
D29*
%TO.C,C1*%
X134620000Y-135509000D03*
X134620000Y-133731000D03*
%TD*%
D30*
%TO.C,FUSE1*%
X129543000Y-120459500D03*
X126743000Y-120459500D03*
%TD*%
D31*
%TO.C,HDMI1*%
X129568000Y-103190000D03*
X129568000Y-117790000D03*
D32*
X123518000Y-117790000D03*
D33*
X130718000Y-114990000D03*
X130718000Y-114490000D03*
X130718000Y-113990000D03*
X130718000Y-113490000D03*
X130718000Y-112990000D03*
X130718000Y-112490000D03*
X130718000Y-111990000D03*
X130718000Y-111490000D03*
X130718000Y-110990000D03*
X130718000Y-110490000D03*
X130718000Y-109990000D03*
X130718000Y-109490000D03*
X130718000Y-108990000D03*
X130718000Y-108490000D03*
X130718000Y-107990000D03*
X130718000Y-107490000D03*
X130718000Y-106990000D03*
X130718000Y-106490000D03*
X130718000Y-105990000D03*
D32*
X123518000Y-103190000D03*
%TD*%
D29*
%TO.C,C2*%
X178816000Y-133858000D03*
X178816000Y-135636000D03*
%TD*%
D34*
%TO.C,LED1*%
X186944000Y-137541000D03*
X188468000Y-137541000D03*
%TD*%
D10*
%TO.C,R1*%
X171958000Y-137922000D03*
X172974000Y-137922000D03*
%TD*%
%TO.C,R4*%
X175133000Y-138176000D03*
X176149000Y-138176000D03*
%TD*%
%TO.C,R5*%
X179070000Y-136906000D03*
X178054000Y-136906000D03*
%TD*%
D35*
%TO.C,U1*%
X174881500Y-136809000D03*
X175831500Y-136809000D03*
X176781500Y-136809000D03*
X174881500Y-134209000D03*
X176781500Y-134209000D03*
%TD*%
D36*
%TO.C,USB1*%
X184175000Y-123815500D03*
D37*
X184175000Y-123078000D03*
X184175000Y-122428000D03*
X184175000Y-121778000D03*
D36*
X184175000Y-121040500D03*
D38*
X185425000Y-124428000D03*
X185425000Y-120428000D03*
D39*
X188725000Y-123928000D03*
X188725000Y-120928000D03*
D40*
X187575000Y-126028000D03*
X184105000Y-126028000D03*
X184105000Y-118828000D03*
X187575000Y-118828000D03*
%TD*%
D41*
%TO.C,C3*%
X171323000Y-110490000D03*
X173355000Y-110490000D03*
%TD*%
D17*
%TO.C,C4*%
X163703000Y-134620000D03*
X163703000Y-135636000D03*
%TD*%
%TO.C,C5*%
X151511000Y-137922000D03*
X151511000Y-136906000D03*
%TD*%
%TO.C,C6*%
X148336000Y-135001000D03*
X148336000Y-133985000D03*
%TD*%
D41*
%TO.C,C7*%
X181102000Y-110617000D03*
X179070000Y-110617000D03*
%TD*%
D29*
%TO.C,R16*%
X167767000Y-109093000D03*
X169545000Y-109093000D03*
%TD*%
D10*
%TO.C,R17*%
X162687000Y-135636000D03*
X161671000Y-135636000D03*
%TD*%
%TO.C,R18*%
X162687000Y-134620000D03*
X161671000Y-134620000D03*
%TD*%
%TO.C,R19*%
X149352000Y-135001000D03*
X150368000Y-135001000D03*
%TD*%
%TO.C,R20*%
X149352000Y-133985000D03*
X150368000Y-133985000D03*
%TD*%
D29*
%TO.C,R21*%
X175641000Y-110617000D03*
X177419000Y-110617000D03*
%TD*%
D17*
%TO.C,R22*%
X151384000Y-133985000D03*
X151384000Y-135001000D03*
%TD*%
%TO.C,R23*%
X160655000Y-135636000D03*
X160655000Y-134620000D03*
%TD*%
%TO.C,R24*%
X150495000Y-137922000D03*
X150495000Y-136906000D03*
%TD*%
D42*
%TO.C,RST1*%
X189183000Y-131572000D03*
X186483000Y-131572000D03*
D43*
X188722000Y-134620000D03*
X188722000Y-128524000D03*
X186944000Y-128524000D03*
X186944000Y-134620000D03*
%TD*%
D44*
%TO.C,MICRO_SD1*%
X122732800Y-125095000D03*
X122732800Y-133096000D03*
D45*
X123135000Y-137798000D03*
X123135000Y-122298000D03*
D46*
X132735000Y-136898000D03*
D47*
X132735000Y-122298000D03*
D48*
X133615000Y-132298000D03*
X133615000Y-131198000D03*
X133615000Y-130098000D03*
X133615000Y-128998000D03*
X133615000Y-127898000D03*
X133615000Y-126798000D03*
X133615000Y-125698000D03*
X133615000Y-124598000D03*
X133615000Y-123498000D03*
%TD*%
D10*
%TO.C,R15*%
X166370000Y-109855000D03*
X165354000Y-109855000D03*
%TD*%
%TO.C,R27*%
X166370000Y-110871000D03*
X165354000Y-110871000D03*
%TD*%
D49*
%TO.C,U3*%
X153083000Y-137840000D03*
X153083000Y-137190000D03*
X153083000Y-136540000D03*
X153083000Y-135890000D03*
X153083000Y-135240000D03*
X153083000Y-134590000D03*
X153083000Y-133940000D03*
X159083000Y-133940000D03*
X159083000Y-134590000D03*
X159083000Y-135240000D03*
X159083000Y-135890000D03*
X159083000Y-136540000D03*
X159083000Y-137190000D03*
X159083000Y-137890000D03*
%TD*%
D22*
%TO.C,MH1*%
X132969000Y-104648000D03*
X137795000Y-104648000D03*
X137033000Y-106299000D03*
X133731000Y-106426000D03*
X137033000Y-102997000D03*
X133731000Y-102997000D03*
X135382000Y-107061000D03*
X135382000Y-102235000D03*
D23*
X135382000Y-104648000D03*
%TD*%
D22*
%TO.C,MH2*%
X137160000Y-135890000D03*
X141986000Y-135890000D03*
X141224000Y-137541000D03*
X137922000Y-137668000D03*
X141224000Y-134239000D03*
X137922000Y-134239000D03*
X139573000Y-138303000D03*
X139573000Y-133477000D03*
D23*
X139573000Y-135890000D03*
%TD*%
D22*
%TO.C,MH4*%
X165481000Y-135890000D03*
X170307000Y-135890000D03*
X169545000Y-137541000D03*
X166243000Y-137668000D03*
X169545000Y-134239000D03*
X166243000Y-134239000D03*
X167894000Y-138303000D03*
X167894000Y-133477000D03*
D23*
X167894000Y-135890000D03*
%TD*%
M02*
