%TF.GenerationSoftware,KiCad,Pcbnew,5.1.5+dfsg1-2build2*%
%TF.CreationDate,2021-04-22T16:13:23+03:00*%
%TF.ProjectId,RP2040-PICO-PC_rev_B,52503230-3430-42d5-9049-434f2d50435f,A*%
%TF.SameCoordinates,Original*%
%TF.FileFunction,Soldermask,Bot*%
%TF.FilePolarity,Negative*%
%FSLAX46Y46*%
G04 Gerber Fmt 4.6, Leading zero omitted, Abs format (unit mm)*
G04 Created by KiCad (PCBNEW 5.1.5+dfsg1-2build2) date 2021-04-22 16:13:23*
%MOMM*%
%LPD*%
G04 APERTURE LIST*
%ADD10C,2.001600*%
%ADD11R,0.609600X0.863600*%
%ADD12R,1.879600X1.879600*%
%ADD13C,1.879600*%
%ADD14R,1.301600X1.301600*%
%ADD15C,1.301600*%
%ADD16C,6.401600*%
%ADD17R,1.801600X1.801600*%
%ADD18C,1.801600*%
%ADD19R,1.501600X1.501600*%
%ADD20C,1.501600*%
%ADD21O,2.801600X1.401600*%
%ADD22O,2.401600X1.401600*%
%ADD23C,0.701600*%
%ADD24O,1.901600X1.301600*%
%ADD25C,0.901600*%
%ADD26C,1.101600*%
G04 APERTURE END LIST*
D10*
%TO.C,AUDIO_JACK_1*%
X184737000Y-106299000D03*
X177737000Y-106299000D03*
%TD*%
D11*
%TO.C,SJ1*%
X132080000Y-120396000D03*
X132842000Y-120396000D03*
%TD*%
D12*
%TO.C,DBG1*%
X187960000Y-111125000D03*
D13*
X187960000Y-113665000D03*
X187960000Y-116205000D03*
%TD*%
D14*
%TO.C,CON2*%
X141901000Y-103553000D03*
D15*
X141901000Y-105553000D03*
X141901000Y-107553000D03*
X141901000Y-109553000D03*
%TD*%
%TO.C,MH3*%
X165481000Y-104648000D03*
X170307000Y-104648000D03*
X169545000Y-106299000D03*
X166243000Y-106426000D03*
X169545000Y-102997000D03*
X166243000Y-102997000D03*
X167894000Y-107061000D03*
X167894000Y-102235000D03*
D16*
X167894000Y-104648000D03*
%TD*%
D17*
%TO.C,UEXT1*%
X159258000Y-104902000D03*
D18*
X159258000Y-107442000D03*
X156718000Y-104902000D03*
X156718000Y-107442000D03*
X154178000Y-104902000D03*
X154178000Y-107442000D03*
X151638000Y-104902000D03*
X151638000Y-107442000D03*
X149098000Y-104902000D03*
X149098000Y-107442000D03*
%TD*%
D19*
%TO.C,BAT_CON1*%
X181851300Y-135910320D03*
D20*
X183880760Y-135907780D03*
%TD*%
D13*
%TO.C,U2*%
X173990000Y-131318000D03*
X179070000Y-131318000D03*
X143510000Y-131318000D03*
X158750000Y-131318000D03*
X158750000Y-113538000D03*
X143510000Y-113538000D03*
X156210000Y-131318000D03*
X179070000Y-113538000D03*
X146050000Y-113538000D03*
X171450000Y-113538000D03*
X176530000Y-113538000D03*
X184150000Y-131318000D03*
X151130000Y-113538000D03*
X135890000Y-113538000D03*
X171450000Y-131318000D03*
X173990000Y-113538000D03*
X153670000Y-113538000D03*
X140970000Y-113538000D03*
X138430000Y-113538000D03*
X163830000Y-131318000D03*
X138430000Y-131318000D03*
X176530000Y-131318000D03*
X151130000Y-131318000D03*
X146050000Y-131318000D03*
X148590000Y-131318000D03*
X140970000Y-131318000D03*
D12*
X184150000Y-113538000D03*
D13*
X181610000Y-113538000D03*
X168910000Y-113538000D03*
X156210000Y-113538000D03*
X135890000Y-131318000D03*
X153670000Y-131318000D03*
X148590000Y-113538000D03*
X181610000Y-131318000D03*
X161290000Y-131318000D03*
X161290000Y-113538000D03*
X163830000Y-113538000D03*
X166370000Y-131318000D03*
X166370000Y-113538000D03*
X168910000Y-131318000D03*
%TD*%
D21*
%TO.C,HDMI1*%
X129568000Y-103190000D03*
X129568000Y-117790000D03*
D22*
X123518000Y-117790000D03*
X123518000Y-103190000D03*
%TD*%
D23*
%TO.C,USB1*%
X185425000Y-124428000D03*
X185425000Y-120428000D03*
D24*
X187575000Y-126028000D03*
X184105000Y-126028000D03*
X184105000Y-118828000D03*
X187575000Y-118828000D03*
%TD*%
D25*
%TO.C,RST1*%
X189183000Y-131572000D03*
X186483000Y-131572000D03*
%TD*%
D26*
%TO.C,MICRO_SD1*%
X122732800Y-125095000D03*
X122732800Y-133096000D03*
%TD*%
D15*
%TO.C,MH1*%
X132969000Y-104648000D03*
X137795000Y-104648000D03*
X137033000Y-106299000D03*
X133731000Y-106426000D03*
X137033000Y-102997000D03*
X133731000Y-102997000D03*
X135382000Y-107061000D03*
X135382000Y-102235000D03*
D16*
X135382000Y-104648000D03*
%TD*%
D15*
%TO.C,MH2*%
X137160000Y-135890000D03*
X141986000Y-135890000D03*
X141224000Y-137541000D03*
X137922000Y-137668000D03*
X141224000Y-134239000D03*
X137922000Y-134239000D03*
X139573000Y-138303000D03*
X139573000Y-133477000D03*
D16*
X139573000Y-135890000D03*
%TD*%
D15*
%TO.C,MH4*%
X165481000Y-135890000D03*
X170307000Y-135890000D03*
X169545000Y-137541000D03*
X166243000Y-137668000D03*
X169545000Y-134239000D03*
X166243000Y-134239000D03*
X167894000Y-138303000D03*
X167894000Y-133477000D03*
D16*
X167894000Y-135890000D03*
%TD*%
M02*
