M48
; DRILL file {KiCad 5.1.5+dfsg1-2build2} date 22.04.2021 (чт) 16:13:27
; FORMAT={-:-/ absolute / metric / decimal}
; #@! TF.CreationDate,2021-04-22T16:13:27+03:00
; #@! TF.GenerationSoftware,Kicad,Pcbnew,5.1.5+dfsg1-2build2
; #@! TF.FileFunction,Plated,1,2,PTH
FMAT,2
METRIC
T1C0.600
T2C0.800
T3C0.900
T4C1.000
T5C1.100
T6C3.300
%
G90
G05
T1
X122.174Y-128.778
X123.19Y-111.887
X123.19Y-114.427
X126.873Y-131.445
X127.762Y-110.109
X127.762Y-111.506
X127.762Y-113.03
X127.762Y-114.554
X127.762Y-116.078
X128.016Y-137.922
X128.27Y-107.696
X128.27Y-108.966
X128.524Y-127.254
X130.81Y-126.365
X130.937Y-128.778
X131.064Y-120.396
X135.382Y-116.205
X135.509Y-124.333
X136.779Y-121.793
X138.496Y-128.204
X138.684Y-118.237
X139.38Y-127.32
X140.081Y-111.379
X140.97Y-128.397
X140.999Y-122.907
X141.363Y-119.526
X142.24Y-123.825
X142.24Y-125.857
X142.264Y-117.221
X143.637Y-137.922
X144.018Y-121.539
X144.78Y-125.857
X145.161Y-108.839
X145.693Y-117.221
X145.865Y-127.137
X145.865Y-128.387
X146.05Y-136.017
X146.812Y-120.523
X147.32Y-125.857
X148.209Y-136.779
X148.463Y-110.109
X150.241Y-116.959
X150.241Y-122.428
X150.846Y-115.105
X151.066Y-135.953
X151.13Y-128.016
X151.765Y-120.777
X151.892Y-117.856
X154.559Y-135.509
X154.754Y-127.068
X154.94Y-122.301
X154.94Y-136.906
X155.956Y-133.604
X156.083Y-119.126
X156.21Y-129.091
X156.246Y-138.02
X157.607Y-136.144
X158.115Y-127.127
X159.385Y-120.015
X160.655Y-132.969
X161.036Y-137.033
X161.163Y-138.557
X161.417Y-128.27
X163.703Y-133.096
X164.338Y-127.381
X165.1Y-107.569
X166.116Y-108.585
X166.116Y-129.667
X166.37Y-120.015
X170.053Y-115.443
X171.069Y-138.557
X171.577Y-129.667
X171.641Y-136.804
X173.101Y-125.857
X173.101Y-127.381
X174.498Y-119.761
X174.498Y-127.254
X175.387Y-111.887
X175.895Y-135.382
X177.165Y-126.238
X177.292Y-118.872
X181.102Y-118.872
X181.737Y-108.331
X182.118Y-123.825
X182.118Y-125.603
X183.039Y-129.127
X132.969Y-104.648
X133.731Y-102.997
X133.731Y-106.426
X135.382Y-102.235
X135.382Y-107.061
X137.033Y-102.997
X137.033Y-106.299
X137.795Y-104.648
X137.16Y-135.89
X137.922Y-134.239
X137.922Y-137.668
X139.573Y-133.477
X139.573Y-138.303
X141.224Y-134.239
X141.224Y-137.541
X141.986Y-135.89
X165.481Y-135.89
X166.243Y-134.239
X166.243Y-137.668
X167.894Y-133.477
X167.894Y-138.303
X169.545Y-134.239
X169.545Y-137.541
X170.307Y-135.89
X165.481Y-104.648
X166.243Y-102.997
X166.243Y-106.426
X167.894Y-102.235
X167.894Y-107.061
X169.545Y-102.997
X169.545Y-106.299
X170.307Y-104.648
T2
X141.901Y-103.553
X141.901Y-105.553
X141.901Y-107.553
X141.901Y-109.553
T3
X181.851Y-135.91
X183.881Y-135.908
T4
X135.89Y-113.538
X135.89Y-131.318
X138.43Y-113.538
X138.43Y-131.318
X140.97Y-113.538
X140.97Y-131.318
X143.51Y-113.538
X143.51Y-131.318
X146.05Y-113.538
X146.05Y-131.318
X148.59Y-113.538
X148.59Y-131.318
X151.13Y-113.538
X151.13Y-131.318
X153.67Y-113.538
X153.67Y-131.318
X156.21Y-113.538
X156.21Y-131.318
X158.75Y-113.538
X158.75Y-131.318
X161.29Y-113.538
X161.29Y-131.318
X163.83Y-113.538
X163.83Y-131.318
X166.37Y-113.538
X166.37Y-131.318
X168.91Y-113.538
X168.91Y-131.318
X171.45Y-113.538
X171.45Y-131.318
X173.99Y-113.538
X173.99Y-131.318
X176.53Y-113.538
X176.53Y-131.318
X179.07Y-113.538
X179.07Y-131.318
X181.61Y-113.538
X181.61Y-131.318
X184.15Y-113.538
X184.15Y-131.318
X187.96Y-111.125
X187.96Y-113.665
X187.96Y-116.205
T5
X149.098Y-104.902
X149.098Y-107.442
X151.638Y-104.902
X151.638Y-107.442
X154.178Y-104.902
X154.178Y-107.442
X156.718Y-104.902
X156.718Y-107.442
X159.258Y-104.902
X159.258Y-107.442
T6
X135.382Y-104.648
X139.573Y-135.89
X167.894Y-135.89
X167.894Y-104.648
T1
G00X183.805Y-118.828
M15
G01X184.405Y-118.828
M16
G05
G00X183.805Y-126.028
M15
G01X184.405Y-126.028
M16
G05
G00X187.275Y-118.828
M15
G01X187.875Y-118.828
M16
G05
G00X187.275Y-126.028
M15
G01X187.875Y-126.028
M16
G05
T2
G00X123.018Y-103.19
M15
G01X124.018Y-103.19
M16
G05
G00X123.018Y-117.79
M15
G01X124.018Y-117.79
M16
G05
G00X128.868Y-103.19
M15
G01X130.268Y-103.19
M16
G05
G00X128.868Y-117.79
M15
G01X130.268Y-117.79
M16
G05
T0
M30
