%TF.GenerationSoftware,KiCad,Pcbnew,5.1.5+dfsg1-2build2*%
%TF.CreationDate,2021-04-22T16:13:23+03:00*%
%TF.ProjectId,RP2040-PICO-PC_rev_B,52503230-3430-42d5-9049-434f2d50435f,A*%
%TF.SameCoordinates,Original*%
%TF.FileFunction,Legend,Top*%
%TF.FilePolarity,Positive*%
%FSLAX46Y46*%
G04 Gerber Fmt 4.6, Leading zero omitted, Abs format (unit mm)*
G04 Created by KiCad (PCBNEW 5.1.5+dfsg1-2build2) date 2021-04-22 16:13:23*
%MOMM*%
%LPD*%
G04 APERTURE LIST*
%ADD10C,0.254000*%
%ADD11C,0.127000*%
%ADD12C,0.100000*%
%ADD13C,0.050000*%
%ADD14C,0.154000*%
%ADD15C,0.158750*%
%ADD16C,0.190500*%
%ADD17C,0.222250*%
G04 APERTURE END LIST*
D10*
%TO.C,R28*%
X142875000Y-116649500D02*
X142621000Y-116649500D01*
X142875000Y-116649500D02*
X143129000Y-116649500D01*
X142875000Y-115760500D02*
X143129000Y-115760500D01*
X142875000Y-115760500D02*
X142621000Y-115760500D01*
%TO.C,R26*%
X146304000Y-116649500D02*
X146050000Y-116649500D01*
X146304000Y-116649500D02*
X146558000Y-116649500D01*
X146304000Y-115760500D02*
X146558000Y-115760500D01*
X146304000Y-115760500D02*
X146050000Y-115760500D01*
%TO.C,R25*%
X136906000Y-115760500D02*
X137160000Y-115760500D01*
X136906000Y-115760500D02*
X136652000Y-115760500D01*
X136906000Y-116649500D02*
X136652000Y-116649500D01*
X136906000Y-116649500D02*
X137160000Y-116649500D01*
%TO.C,R6*%
X148463000Y-118808500D02*
X148209000Y-118808500D01*
X148463000Y-118808500D02*
X148717000Y-118808500D01*
X148463000Y-117919500D02*
X148717000Y-117919500D01*
X148463000Y-117919500D02*
X148209000Y-117919500D01*
%TO.C,FET3*%
X140944600Y-118999000D02*
X141655800Y-118999000D01*
X140944600Y-118160800D02*
X140944600Y-118999000D01*
X143789400Y-118160800D02*
X143789400Y-118999000D01*
X143078200Y-118999000D02*
X143789400Y-118999000D01*
%TO.C,FET2*%
X144373600Y-118999000D02*
X145084800Y-118999000D01*
X144373600Y-118160800D02*
X144373600Y-118999000D01*
X147218400Y-118160800D02*
X147218400Y-118999000D01*
X146507200Y-118999000D02*
X147218400Y-118999000D01*
%TO.C,AUDIO_JACK_1*%
X187737000Y-103299000D02*
X186937000Y-103299000D01*
X189937000Y-103299000D02*
X189777000Y-103299000D01*
X175237000Y-103299000D02*
X173537000Y-103299000D01*
X184837000Y-103299000D02*
X177837000Y-103299000D01*
X173537000Y-105879000D02*
X173537000Y-103299000D01*
X173537000Y-109299000D02*
X173537000Y-108299000D01*
X182737000Y-109299000D02*
X173537000Y-109299000D01*
X189937000Y-109299000D02*
X185237000Y-109299000D01*
X190292500Y-108302800D02*
X190292500Y-104213400D01*
X190292500Y-104213400D02*
X189937000Y-104213400D01*
X190737000Y-104549000D02*
X190292500Y-104213400D01*
X190737000Y-108049000D02*
X190737000Y-104549000D01*
X190241700Y-108353600D02*
X190737000Y-108049000D01*
X189937000Y-108353600D02*
X190241700Y-108353600D01*
X189937000Y-109299000D02*
X189937000Y-103299000D01*
%TO.C,R3*%
X142811500Y-121031000D02*
X142811500Y-121285000D01*
X142811500Y-121031000D02*
X142811500Y-120777000D01*
X141922500Y-121031000D02*
X141922500Y-120777000D01*
X141922500Y-121031000D02*
X141922500Y-121285000D01*
%TO.C,R2*%
X146240500Y-121031000D02*
X146240500Y-121285000D01*
X146240500Y-121031000D02*
X146240500Y-120777000D01*
X145351500Y-121031000D02*
X145351500Y-120777000D01*
X145351500Y-121031000D02*
X145351500Y-121285000D01*
%TO.C,FET1*%
X173431200Y-135915400D02*
X174142400Y-135915400D01*
X174142400Y-135077200D02*
X174142400Y-135915400D01*
X171297600Y-135077200D02*
X171297600Y-135915400D01*
X171297600Y-135915400D02*
X172008800Y-135915400D01*
%TO.C,DBG1*%
X189230000Y-109855000D02*
X186690000Y-109855000D01*
X186944000Y-114935000D02*
X186690000Y-115189000D01*
X186690000Y-114681000D02*
X186944000Y-114935000D01*
X186690000Y-112141000D02*
X186690000Y-110363000D01*
X186944000Y-112395000D02*
X186690000Y-112141000D01*
X186690000Y-112649000D02*
X186944000Y-112395000D01*
X186690000Y-114681000D02*
X186690000Y-112649000D01*
X186690000Y-110363000D02*
X186690000Y-109855000D01*
X186690000Y-110109000D02*
X186944000Y-109855000D01*
X188976000Y-109855000D02*
X189230000Y-110109000D01*
X186690000Y-117221000D02*
X186690000Y-115189000D01*
X186944000Y-117475000D02*
X186690000Y-117221000D01*
X188976000Y-117475000D02*
X186944000Y-117475000D01*
X189230000Y-117221000D02*
X188976000Y-117475000D01*
X189230000Y-115189000D02*
X189230000Y-117221000D01*
X188976000Y-114935000D02*
X189230000Y-115189000D01*
X189230000Y-114681000D02*
X188976000Y-114935000D01*
X189230000Y-112649000D02*
X189230000Y-114681000D01*
X188976000Y-112395000D02*
X189230000Y-112649000D01*
X189230000Y-112141000D02*
X188976000Y-112395000D01*
X189230000Y-110109000D02*
X189230000Y-112141000D01*
X189230000Y-109855000D02*
X189230000Y-110109000D01*
%TO.C,CON2*%
X143651000Y-101553000D02*
X143651000Y-104303000D01*
X139051000Y-111553000D02*
X139051000Y-101553000D01*
X139051000Y-101553000D02*
X143651000Y-101553000D01*
X139051000Y-111553000D02*
X143651000Y-111553000D01*
X143651000Y-111553000D02*
X143651000Y-109053000D01*
%TO.C,UEXT1*%
X145288000Y-110871000D02*
X145288000Y-110617000D01*
X146558000Y-110871000D02*
X146558000Y-110617000D01*
X153543000Y-110871000D02*
X153543000Y-110617000D01*
X154813000Y-110871000D02*
X154813000Y-110617000D01*
X161798000Y-110871000D02*
X161798000Y-110617000D01*
X159766000Y-101981000D02*
X159766000Y-101727000D01*
X149606000Y-102997000D02*
X149606000Y-102336600D01*
X151003000Y-102984300D02*
X151003000Y-102336600D01*
X144018000Y-110617000D02*
X144018000Y-101727000D01*
X164338000Y-101727000D02*
X159766000Y-101727000D01*
X152146000Y-102997000D02*
X145288000Y-102997000D01*
X145288000Y-109347000D02*
X145288000Y-102997000D01*
X163068000Y-109347000D02*
X163068000Y-102997000D01*
X164338000Y-110617000D02*
X164338000Y-101727000D01*
X164338000Y-110617000D02*
X163068000Y-110617000D01*
X163068000Y-109347000D02*
X145288000Y-109347000D01*
X158496000Y-101727000D02*
X152019000Y-101727000D01*
X156210000Y-102997000D02*
X163068000Y-102997000D01*
X144018000Y-110617000D02*
X145288000Y-110617000D01*
X145288000Y-110871000D02*
X146558000Y-110871000D01*
X146558000Y-110617000D02*
X153543000Y-110617000D01*
X153543000Y-110871000D02*
X154813000Y-110871000D01*
X154813000Y-110617000D02*
X161798000Y-110617000D01*
X161798000Y-110871000D02*
X163068000Y-110871000D01*
X163068000Y-110871000D02*
X163068000Y-110617000D01*
X148717000Y-101727000D02*
X144018000Y-101727000D01*
X152146000Y-103759000D02*
X152146000Y-101727000D01*
X152019000Y-101727000D02*
X151384000Y-102235000D01*
X151384000Y-102235000D02*
X149098000Y-102235000D01*
X149098000Y-102235000D02*
X148717000Y-101727000D01*
X156210000Y-101727000D02*
X156210000Y-103759000D01*
X156210000Y-103759000D02*
X152146000Y-103759000D01*
X159766000Y-101981000D02*
X158496000Y-101981000D01*
X158496000Y-101981000D02*
X158496000Y-101727000D01*
%TO.C,BAT_CON1*%
X179849780Y-138836400D02*
X185897520Y-138836400D01*
X185897520Y-138836400D02*
X185897520Y-134320280D01*
X185897520Y-134320280D02*
X179862480Y-134320280D01*
X179862480Y-134320280D02*
X179862480Y-138813540D01*
%TO.C,R7*%
X132397500Y-117856000D02*
X132397500Y-118110000D01*
X132397500Y-117856000D02*
X132397500Y-117602000D01*
X133286500Y-117856000D02*
X133286500Y-117602000D01*
X133286500Y-117856000D02*
X133286500Y-118110000D01*
%TO.C,R13*%
X133731000Y-111823500D02*
X133985000Y-111823500D01*
X133731000Y-111823500D02*
X133477000Y-111823500D01*
X133731000Y-110934500D02*
X133477000Y-110934500D01*
X133731000Y-110934500D02*
X133985000Y-110934500D01*
%TO.C,R10*%
X133731000Y-107886500D02*
X133985000Y-107886500D01*
X133731000Y-107886500D02*
X133477000Y-107886500D01*
X133731000Y-108775500D02*
X133477000Y-108775500D01*
X133731000Y-108775500D02*
X133985000Y-108775500D01*
%TO.C,R12*%
X132270500Y-115570000D02*
X132270500Y-115824000D01*
X132270500Y-115570000D02*
X132270500Y-115316000D01*
X133159500Y-115570000D02*
X133159500Y-115316000D01*
X133159500Y-115570000D02*
X133159500Y-115824000D01*
%TO.C,R11*%
X132270500Y-117856000D02*
X132270500Y-118110000D01*
X132270500Y-117856000D02*
X132270500Y-117602000D01*
X131381500Y-117856000D02*
X131381500Y-117602000D01*
X131381500Y-117856000D02*
X131381500Y-118110000D01*
%TO.C,R9*%
X133731000Y-109918500D02*
X133985000Y-109918500D01*
X133731000Y-109918500D02*
X133477000Y-109918500D01*
X133731000Y-110807500D02*
X133477000Y-110807500D01*
X133731000Y-110807500D02*
X133985000Y-110807500D01*
%TO.C,R8*%
X133286500Y-115570000D02*
X133286500Y-115824000D01*
X133286500Y-115570000D02*
X133286500Y-115316000D01*
X134175500Y-115570000D02*
X134175500Y-115316000D01*
X134175500Y-115570000D02*
X134175500Y-115824000D01*
%TO.C,R14*%
X133731000Y-109791500D02*
X133985000Y-109791500D01*
X133731000Y-109791500D02*
X133477000Y-109791500D01*
X133731000Y-108902500D02*
X133477000Y-108902500D01*
X133731000Y-108902500D02*
X133985000Y-108902500D01*
%TO.C,C1*%
X133858000Y-135128000D02*
X133858000Y-134112000D01*
X135382000Y-135128000D02*
X135382000Y-134112000D01*
%TO.C,HDMI1*%
X124650500Y-106492040D02*
X120650000Y-105491280D01*
X124650500Y-107490260D02*
X124650500Y-106492040D01*
X120650000Y-108491020D02*
X124650500Y-107490260D01*
X124650500Y-114487960D02*
X120650000Y-115488720D01*
X124650500Y-113489740D02*
X124650500Y-114487960D01*
X120650000Y-112488980D02*
X124650500Y-113489740D01*
X131066540Y-104990900D02*
X131066540Y-103604060D01*
X130566160Y-104990900D02*
X131066540Y-104990900D01*
X131066540Y-115989100D02*
X130566160Y-115989100D01*
X131066540Y-117363240D02*
X131066540Y-115989100D01*
X125016260Y-102991920D02*
X127167640Y-102991920D01*
X118910100Y-102991920D02*
X121818400Y-102991920D01*
X118910100Y-117988080D02*
X118910100Y-102991920D01*
X121818400Y-117988080D02*
X118910100Y-117988080D01*
X127167640Y-117988080D02*
X125016260Y-117988080D01*
X130566160Y-115989100D02*
X130566160Y-116888260D01*
X130566160Y-115389660D02*
X130566160Y-115989100D01*
X130566160Y-104990900D02*
X130566160Y-105590340D01*
X130566160Y-104091740D02*
X130566160Y-104990900D01*
%TO.C,C2*%
X179578000Y-135255000D02*
X179578000Y-134239000D01*
X178054000Y-135255000D02*
X178054000Y-134239000D01*
D11*
%TO.C,LED1*%
X189103000Y-138125200D02*
X188087000Y-138125200D01*
X188087000Y-136906000D02*
X189103000Y-136906000D01*
D12*
X187446000Y-137541000D02*
X187966000Y-137541000D01*
X187616000Y-137431000D02*
X187616000Y-137651000D01*
X187616000Y-137431000D02*
X187726000Y-137531000D01*
X187616000Y-137651000D02*
X187716000Y-137551000D01*
X187806000Y-137431000D02*
X187806000Y-137651000D01*
D13*
X187883800Y-137786600D02*
X187753800Y-137896600D01*
X187752200Y-137895600D02*
X187832200Y-137885600D01*
X187752200Y-137895600D02*
X187752200Y-137815600D01*
X187536800Y-137895600D02*
X187536800Y-137815600D01*
X187536800Y-137895600D02*
X187616800Y-137885600D01*
X187676800Y-137765600D02*
X187546800Y-137875600D01*
D10*
X189115700Y-136969500D02*
X189268100Y-137096500D01*
X189115700Y-138061700D02*
X189255400Y-137934700D01*
X189268100Y-137096500D02*
X189268100Y-137922000D01*
X189103000Y-138023600D02*
X189103000Y-136982200D01*
%TO.C,R1*%
X172466000Y-138366500D02*
X172720000Y-138366500D01*
X172466000Y-138366500D02*
X172212000Y-138366500D01*
X172466000Y-137477500D02*
X172212000Y-137477500D01*
X172466000Y-137477500D02*
X172720000Y-137477500D01*
%TO.C,R4*%
X175641000Y-138620500D02*
X175387000Y-138620500D01*
X175641000Y-138620500D02*
X175895000Y-138620500D01*
X175641000Y-137731500D02*
X175895000Y-137731500D01*
X175641000Y-137731500D02*
X175387000Y-137731500D01*
%TO.C,R5*%
X178562000Y-136461500D02*
X178816000Y-136461500D01*
X178562000Y-136461500D02*
X178308000Y-136461500D01*
X178562000Y-137350500D02*
X178308000Y-137350500D01*
X178562000Y-137350500D02*
X178816000Y-137350500D01*
%TO.C,U1*%
X174421800Y-134950200D02*
X174421800Y-136080500D01*
X177228500Y-134950200D02*
X177228500Y-136080500D01*
%TO.C,USB1*%
X189725000Y-118728000D02*
X189725000Y-126128000D01*
X185225000Y-126128000D02*
X186425000Y-126128000D01*
X183725000Y-124228000D02*
X183725000Y-125228000D01*
X183725000Y-119628000D02*
X183725000Y-120628000D01*
X188725000Y-118728000D02*
X189725000Y-118728000D01*
X190825000Y-118364000D02*
X190825000Y-126492000D01*
X189725000Y-126128000D02*
X188725000Y-126128000D01*
X185225000Y-118728000D02*
X186425000Y-118728000D01*
X190754000Y-118364000D02*
X189738000Y-118745000D01*
X190754000Y-126492000D02*
X189738000Y-126111000D01*
%TO.C,C3*%
X172847000Y-109474000D02*
X171831000Y-109474000D01*
X172847000Y-111506000D02*
X171831000Y-111506000D01*
%TO.C,C4*%
X163258500Y-135128000D02*
X163258500Y-135382000D01*
X163258500Y-135128000D02*
X163258500Y-134874000D01*
X164147500Y-135128000D02*
X164147500Y-134874000D01*
X164147500Y-135128000D02*
X164147500Y-135382000D01*
%TO.C,C5*%
X151955500Y-137414000D02*
X151955500Y-137668000D01*
X151955500Y-137414000D02*
X151955500Y-137160000D01*
X151066500Y-137414000D02*
X151066500Y-137160000D01*
X151066500Y-137414000D02*
X151066500Y-137668000D01*
%TO.C,C6*%
X148780500Y-134493000D02*
X148780500Y-134239000D01*
X148780500Y-134493000D02*
X148780500Y-134747000D01*
X147891500Y-134493000D02*
X147891500Y-134747000D01*
X147891500Y-134493000D02*
X147891500Y-134239000D01*
%TO.C,C7*%
X180594000Y-111633000D02*
X179578000Y-111633000D01*
X180594000Y-109601000D02*
X179578000Y-109601000D01*
%TO.C,R16*%
X168148000Y-108331000D02*
X169164000Y-108331000D01*
X168148000Y-109855000D02*
X169164000Y-109855000D01*
%TO.C,R17*%
X162179000Y-135191500D02*
X161925000Y-135191500D01*
X162179000Y-135191500D02*
X162433000Y-135191500D01*
X162179000Y-136080500D02*
X162433000Y-136080500D01*
X162179000Y-136080500D02*
X161925000Y-136080500D01*
%TO.C,R18*%
X162179000Y-134175500D02*
X162433000Y-134175500D01*
X162179000Y-134175500D02*
X161925000Y-134175500D01*
X162179000Y-135064500D02*
X161925000Y-135064500D01*
X162179000Y-135064500D02*
X162433000Y-135064500D01*
%TO.C,R19*%
X149860000Y-135445500D02*
X149606000Y-135445500D01*
X149860000Y-135445500D02*
X150114000Y-135445500D01*
X149860000Y-134556500D02*
X150114000Y-134556500D01*
X149860000Y-134556500D02*
X149606000Y-134556500D01*
%TO.C,R20*%
X149860000Y-134429500D02*
X150114000Y-134429500D01*
X149860000Y-134429500D02*
X149606000Y-134429500D01*
X149860000Y-133540500D02*
X149606000Y-133540500D01*
X149860000Y-133540500D02*
X150114000Y-133540500D01*
%TO.C,R21*%
X176022000Y-109855000D02*
X177038000Y-109855000D01*
X176022000Y-111379000D02*
X177038000Y-111379000D01*
%TO.C,R22*%
X151828500Y-134493000D02*
X151828500Y-134239000D01*
X151828500Y-134493000D02*
X151828500Y-134747000D01*
X150939500Y-134493000D02*
X150939500Y-134747000D01*
X150939500Y-134493000D02*
X150939500Y-134239000D01*
%TO.C,R23*%
X160210500Y-135128000D02*
X160210500Y-134874000D01*
X160210500Y-135128000D02*
X160210500Y-135382000D01*
X161099500Y-135128000D02*
X161099500Y-135382000D01*
X161099500Y-135128000D02*
X161099500Y-134874000D01*
%TO.C,R24*%
X150050500Y-137414000D02*
X150050500Y-137668000D01*
X150050500Y-137414000D02*
X150050500Y-137160000D01*
X150939500Y-137414000D02*
X150939500Y-137160000D01*
X150939500Y-137414000D02*
X150939500Y-137668000D01*
%TO.C,RST1*%
X189683000Y-129222000D02*
X189683000Y-131372000D01*
X189683000Y-133922000D02*
X189683000Y-131782000D01*
X185983000Y-129222000D02*
X185983000Y-131282000D01*
X185983000Y-133922000D02*
X185983000Y-131852000D01*
X189683000Y-130322000D02*
X190693000Y-130322000D01*
X189683000Y-132822000D02*
X190673000Y-132822000D01*
X190693000Y-132972000D02*
X190693000Y-130162000D01*
X187693300Y-129222500D02*
X188010800Y-129222500D01*
X187680600Y-133921500D02*
X187998100Y-133921500D01*
X189677200Y-129222500D02*
X189423200Y-129222500D01*
X189677200Y-133921500D02*
X189410500Y-133921500D01*
X185988800Y-129222500D02*
X186268200Y-129222500D01*
X185988800Y-133921500D02*
X186255500Y-133921500D01*
%TO.C,MICRO_SD1*%
X118734840Y-134096760D02*
X119435880Y-131696460D01*
X121734580Y-122699780D02*
X119435880Y-122699780D01*
X121734580Y-137396220D02*
X118734840Y-137396220D01*
X119435880Y-131696460D02*
X119435880Y-122699780D01*
X118734840Y-137396220D02*
X118734840Y-134096760D01*
X131732020Y-137396220D02*
X124536200Y-137396220D01*
X133233160Y-132897880D02*
X133233160Y-135796020D01*
X131732020Y-122699780D02*
X124536200Y-122699780D01*
%TO.C,R15*%
X165862000Y-110299500D02*
X166116000Y-110299500D01*
X165862000Y-110299500D02*
X165608000Y-110299500D01*
X165862000Y-109410500D02*
X165608000Y-109410500D01*
X165862000Y-109410500D02*
X166116000Y-109410500D01*
%TO.C,R27*%
X165862000Y-111315500D02*
X165608000Y-111315500D01*
X165862000Y-111315500D02*
X166116000Y-111315500D01*
X165862000Y-110426500D02*
X166116000Y-110426500D01*
X165862000Y-110426500D02*
X165608000Y-110426500D01*
%TO.C,U3*%
X158283000Y-138190000D02*
X158283000Y-138490000D01*
X153883000Y-138190000D02*
X153883000Y-138490000D01*
X153883000Y-133590000D02*
X153883000Y-133290000D01*
X158283000Y-133290000D02*
X158283000Y-133590000D01*
X153883000Y-138490000D02*
X158283000Y-138490000D01*
X153883000Y-133290000D02*
X158283000Y-133290000D01*
%TO.C,R28*%
D14*
X140137428Y-115977142D02*
X139837428Y-115548571D01*
X139623142Y-115977142D02*
X139623142Y-115077142D01*
X139966000Y-115077142D01*
X140051714Y-115120000D01*
X140094571Y-115162857D01*
X140137428Y-115248571D01*
X140137428Y-115377142D01*
X140094571Y-115462857D01*
X140051714Y-115505714D01*
X139966000Y-115548571D01*
X139623142Y-115548571D01*
X140480285Y-115162857D02*
X140523142Y-115120000D01*
X140608857Y-115077142D01*
X140823142Y-115077142D01*
X140908857Y-115120000D01*
X140951714Y-115162857D01*
X140994571Y-115248571D01*
X140994571Y-115334285D01*
X140951714Y-115462857D01*
X140437428Y-115977142D01*
X140994571Y-115977142D01*
X141508857Y-115462857D02*
X141423142Y-115420000D01*
X141380285Y-115377142D01*
X141337428Y-115291428D01*
X141337428Y-115248571D01*
X141380285Y-115162857D01*
X141423142Y-115120000D01*
X141508857Y-115077142D01*
X141680285Y-115077142D01*
X141766000Y-115120000D01*
X141808857Y-115162857D01*
X141851714Y-115248571D01*
X141851714Y-115291428D01*
X141808857Y-115377142D01*
X141766000Y-115420000D01*
X141680285Y-115462857D01*
X141508857Y-115462857D01*
X141423142Y-115505714D01*
X141380285Y-115548571D01*
X141337428Y-115634285D01*
X141337428Y-115805714D01*
X141380285Y-115891428D01*
X141423142Y-115934285D01*
X141508857Y-115977142D01*
X141680285Y-115977142D01*
X141766000Y-115934285D01*
X141808857Y-115891428D01*
X141851714Y-115805714D01*
X141851714Y-115634285D01*
X141808857Y-115548571D01*
X141766000Y-115505714D01*
X141680285Y-115462857D01*
%TO.C,R26*%
X147884428Y-115977142D02*
X147584428Y-115548571D01*
X147370142Y-115977142D02*
X147370142Y-115077142D01*
X147713000Y-115077142D01*
X147798714Y-115120000D01*
X147841571Y-115162857D01*
X147884428Y-115248571D01*
X147884428Y-115377142D01*
X147841571Y-115462857D01*
X147798714Y-115505714D01*
X147713000Y-115548571D01*
X147370142Y-115548571D01*
X148227285Y-115162857D02*
X148270142Y-115120000D01*
X148355857Y-115077142D01*
X148570142Y-115077142D01*
X148655857Y-115120000D01*
X148698714Y-115162857D01*
X148741571Y-115248571D01*
X148741571Y-115334285D01*
X148698714Y-115462857D01*
X148184428Y-115977142D01*
X148741571Y-115977142D01*
X149513000Y-115077142D02*
X149341571Y-115077142D01*
X149255857Y-115120000D01*
X149213000Y-115162857D01*
X149127285Y-115291428D01*
X149084428Y-115462857D01*
X149084428Y-115805714D01*
X149127285Y-115891428D01*
X149170142Y-115934285D01*
X149255857Y-115977142D01*
X149427285Y-115977142D01*
X149513000Y-115934285D01*
X149555857Y-115891428D01*
X149598714Y-115805714D01*
X149598714Y-115591428D01*
X149555857Y-115505714D01*
X149513000Y-115462857D01*
X149427285Y-115420000D01*
X149255857Y-115420000D01*
X149170142Y-115462857D01*
X149127285Y-115505714D01*
X149084428Y-115591428D01*
%TO.C,R25*%
X136327428Y-118009142D02*
X136027428Y-117580571D01*
X135813142Y-118009142D02*
X135813142Y-117109142D01*
X136156000Y-117109142D01*
X136241714Y-117152000D01*
X136284571Y-117194857D01*
X136327428Y-117280571D01*
X136327428Y-117409142D01*
X136284571Y-117494857D01*
X136241714Y-117537714D01*
X136156000Y-117580571D01*
X135813142Y-117580571D01*
X136670285Y-117194857D02*
X136713142Y-117152000D01*
X136798857Y-117109142D01*
X137013142Y-117109142D01*
X137098857Y-117152000D01*
X137141714Y-117194857D01*
X137184571Y-117280571D01*
X137184571Y-117366285D01*
X137141714Y-117494857D01*
X136627428Y-118009142D01*
X137184571Y-118009142D01*
X137998857Y-117109142D02*
X137570285Y-117109142D01*
X137527428Y-117537714D01*
X137570285Y-117494857D01*
X137656000Y-117452000D01*
X137870285Y-117452000D01*
X137956000Y-117494857D01*
X137998857Y-117537714D01*
X138041714Y-117623428D01*
X138041714Y-117837714D01*
X137998857Y-117923428D01*
X137956000Y-117966285D01*
X137870285Y-118009142D01*
X137656000Y-118009142D01*
X137570285Y-117966285D01*
X137527428Y-117923428D01*
%TO.C,R6*%
X148313000Y-117374142D02*
X148013000Y-116945571D01*
X147798714Y-117374142D02*
X147798714Y-116474142D01*
X148141571Y-116474142D01*
X148227285Y-116517000D01*
X148270142Y-116559857D01*
X148313000Y-116645571D01*
X148313000Y-116774142D01*
X148270142Y-116859857D01*
X148227285Y-116902714D01*
X148141571Y-116945571D01*
X147798714Y-116945571D01*
X149084428Y-116474142D02*
X148913000Y-116474142D01*
X148827285Y-116517000D01*
X148784428Y-116559857D01*
X148698714Y-116688428D01*
X148655857Y-116859857D01*
X148655857Y-117202714D01*
X148698714Y-117288428D01*
X148741571Y-117331285D01*
X148827285Y-117374142D01*
X148998714Y-117374142D01*
X149084428Y-117331285D01*
X149127285Y-117288428D01*
X149170142Y-117202714D01*
X149170142Y-116988428D01*
X149127285Y-116902714D01*
X149084428Y-116859857D01*
X148998714Y-116817000D01*
X148827285Y-116817000D01*
X148741571Y-116859857D01*
X148698714Y-116902714D01*
X148655857Y-116988428D01*
%TO.C,FET3*%
X139031000Y-120077714D02*
X138731000Y-120077714D01*
X138731000Y-120549142D02*
X138731000Y-119649142D01*
X139159571Y-119649142D01*
X139502428Y-120077714D02*
X139802428Y-120077714D01*
X139931000Y-120549142D02*
X139502428Y-120549142D01*
X139502428Y-119649142D01*
X139931000Y-119649142D01*
X140188142Y-119649142D02*
X140702428Y-119649142D01*
X140445285Y-120549142D02*
X140445285Y-119649142D01*
X140916714Y-119649142D02*
X141473857Y-119649142D01*
X141173857Y-119992000D01*
X141302428Y-119992000D01*
X141388142Y-120034857D01*
X141431000Y-120077714D01*
X141473857Y-120163428D01*
X141473857Y-120377714D01*
X141431000Y-120463428D01*
X141388142Y-120506285D01*
X141302428Y-120549142D01*
X141045285Y-120549142D01*
X140959571Y-120506285D01*
X140916714Y-120463428D01*
%TO.C,FET2*%
X147540000Y-119696714D02*
X147240000Y-119696714D01*
X147240000Y-120168142D02*
X147240000Y-119268142D01*
X147668571Y-119268142D01*
X148011428Y-119696714D02*
X148311428Y-119696714D01*
X148440000Y-120168142D02*
X148011428Y-120168142D01*
X148011428Y-119268142D01*
X148440000Y-119268142D01*
X148697142Y-119268142D02*
X149211428Y-119268142D01*
X148954285Y-120168142D02*
X148954285Y-119268142D01*
X149468571Y-119353857D02*
X149511428Y-119311000D01*
X149597142Y-119268142D01*
X149811428Y-119268142D01*
X149897142Y-119311000D01*
X149940000Y-119353857D01*
X149982857Y-119439571D01*
X149982857Y-119525285D01*
X149940000Y-119653857D01*
X149425714Y-120168142D01*
X149982857Y-120168142D01*
%TO.C,AUDIO_JACK_1*%
X177933000Y-101970666D02*
X178266333Y-101970666D01*
X177866333Y-102170666D02*
X178099666Y-101470666D01*
X178333000Y-102170666D01*
X178566333Y-101470666D02*
X178566333Y-102037333D01*
X178599666Y-102104000D01*
X178633000Y-102137333D01*
X178699666Y-102170666D01*
X178833000Y-102170666D01*
X178899666Y-102137333D01*
X178933000Y-102104000D01*
X178966333Y-102037333D01*
X178966333Y-101470666D01*
X179299666Y-102170666D02*
X179299666Y-101470666D01*
X179466333Y-101470666D01*
X179566333Y-101504000D01*
X179633000Y-101570666D01*
X179666333Y-101637333D01*
X179699666Y-101770666D01*
X179699666Y-101870666D01*
X179666333Y-102004000D01*
X179633000Y-102070666D01*
X179566333Y-102137333D01*
X179466333Y-102170666D01*
X179299666Y-102170666D01*
X179999666Y-102170666D02*
X179999666Y-101470666D01*
X180466333Y-101470666D02*
X180599666Y-101470666D01*
X180666333Y-101504000D01*
X180733000Y-101570666D01*
X180766333Y-101704000D01*
X180766333Y-101937333D01*
X180733000Y-102070666D01*
X180666333Y-102137333D01*
X180599666Y-102170666D01*
X180466333Y-102170666D01*
X180399666Y-102137333D01*
X180333000Y-102070666D01*
X180299666Y-101937333D01*
X180299666Y-101704000D01*
X180333000Y-101570666D01*
X180399666Y-101504000D01*
X180466333Y-101470666D01*
X180899666Y-102237333D02*
X181433000Y-102237333D01*
X181799666Y-101470666D02*
X181799666Y-101970666D01*
X181766333Y-102070666D01*
X181699666Y-102137333D01*
X181599666Y-102170666D01*
X181533000Y-102170666D01*
X182099666Y-101970666D02*
X182433000Y-101970666D01*
X182033000Y-102170666D02*
X182266333Y-101470666D01*
X182499666Y-102170666D01*
X183133000Y-102104000D02*
X183099666Y-102137333D01*
X182999666Y-102170666D01*
X182933000Y-102170666D01*
X182833000Y-102137333D01*
X182766333Y-102070666D01*
X182733000Y-102004000D01*
X182699666Y-101870666D01*
X182699666Y-101770666D01*
X182733000Y-101637333D01*
X182766333Y-101570666D01*
X182833000Y-101504000D01*
X182933000Y-101470666D01*
X182999666Y-101470666D01*
X183099666Y-101504000D01*
X183133000Y-101537333D01*
X183433000Y-102170666D02*
X183433000Y-101470666D01*
X183833000Y-102170666D02*
X183533000Y-101770666D01*
X183833000Y-101470666D02*
X183433000Y-101870666D01*
X183966333Y-102237333D02*
X184499666Y-102237333D01*
X185033000Y-102170666D02*
X184633000Y-102170666D01*
X184833000Y-102170666D02*
X184833000Y-101470666D01*
X184766333Y-101570666D01*
X184699666Y-101637333D01*
X184633000Y-101670666D01*
%TO.C,R3*%
X143953666Y-121020666D02*
X143620333Y-121254000D01*
X143953666Y-121420666D02*
X143253666Y-121420666D01*
X143253666Y-121154000D01*
X143287000Y-121087333D01*
X143320333Y-121054000D01*
X143387000Y-121020666D01*
X143487000Y-121020666D01*
X143553666Y-121054000D01*
X143587000Y-121087333D01*
X143620333Y-121154000D01*
X143620333Y-121420666D01*
X143253666Y-120787333D02*
X143253666Y-120354000D01*
X143520333Y-120587333D01*
X143520333Y-120487333D01*
X143553666Y-120420666D01*
X143587000Y-120387333D01*
X143653666Y-120354000D01*
X143820333Y-120354000D01*
X143887000Y-120387333D01*
X143920333Y-120420666D01*
X143953666Y-120487333D01*
X143953666Y-120687333D01*
X143920333Y-120754000D01*
X143887000Y-120787333D01*
%TO.C,R2*%
X147255666Y-121147666D02*
X146922333Y-121381000D01*
X147255666Y-121547666D02*
X146555666Y-121547666D01*
X146555666Y-121281000D01*
X146589000Y-121214333D01*
X146622333Y-121181000D01*
X146689000Y-121147666D01*
X146789000Y-121147666D01*
X146855666Y-121181000D01*
X146889000Y-121214333D01*
X146922333Y-121281000D01*
X146922333Y-121547666D01*
X146622333Y-120881000D02*
X146589000Y-120847666D01*
X146555666Y-120781000D01*
X146555666Y-120614333D01*
X146589000Y-120547666D01*
X146622333Y-120514333D01*
X146689000Y-120481000D01*
X146755666Y-120481000D01*
X146855666Y-120514333D01*
X147255666Y-120914333D01*
X147255666Y-120481000D01*
%TO.C,FET1*%
D15*
X173817642Y-137900833D02*
X173817642Y-138112500D01*
X174150261Y-138112500D02*
X173515261Y-138112500D01*
X173515261Y-137810119D01*
X173817642Y-137568214D02*
X173817642Y-137356547D01*
X174150261Y-137265833D02*
X174150261Y-137568214D01*
X173515261Y-137568214D01*
X173515261Y-137265833D01*
X173515261Y-137084404D02*
X173515261Y-136721547D01*
X174150261Y-136902976D02*
X173515261Y-136902976D01*
X174150261Y-136177261D02*
X174150261Y-136540119D01*
X174150261Y-136358690D02*
X173515261Y-136358690D01*
X173605976Y-136419166D01*
X173666452Y-136479642D01*
X173696690Y-136540119D01*
%TO.C,DBG1*%
X186405761Y-113879690D02*
X185770761Y-113879690D01*
X185770761Y-113728500D01*
X185801000Y-113637785D01*
X185861476Y-113577309D01*
X185921952Y-113547071D01*
X186042904Y-113516833D01*
X186133619Y-113516833D01*
X186254571Y-113547071D01*
X186315047Y-113577309D01*
X186375523Y-113637785D01*
X186405761Y-113728500D01*
X186405761Y-113879690D01*
X186073142Y-113033023D02*
X186103380Y-112942309D01*
X186133619Y-112912071D01*
X186194095Y-112881833D01*
X186284809Y-112881833D01*
X186345285Y-112912071D01*
X186375523Y-112942309D01*
X186405761Y-113002785D01*
X186405761Y-113244690D01*
X185770761Y-113244690D01*
X185770761Y-113033023D01*
X185801000Y-112972547D01*
X185831238Y-112942309D01*
X185891714Y-112912071D01*
X185952190Y-112912071D01*
X186012666Y-112942309D01*
X186042904Y-112972547D01*
X186073142Y-113033023D01*
X186073142Y-113244690D01*
X185801000Y-112277071D02*
X185770761Y-112337547D01*
X185770761Y-112428261D01*
X185801000Y-112518976D01*
X185861476Y-112579452D01*
X185921952Y-112609690D01*
X186042904Y-112639928D01*
X186133619Y-112639928D01*
X186254571Y-112609690D01*
X186315047Y-112579452D01*
X186375523Y-112518976D01*
X186405761Y-112428261D01*
X186405761Y-112367785D01*
X186375523Y-112277071D01*
X186345285Y-112246833D01*
X186133619Y-112246833D01*
X186133619Y-112367785D01*
X186405761Y-111642071D02*
X186405761Y-112004928D01*
X186405761Y-111823500D02*
X185770761Y-111823500D01*
X185861476Y-111883976D01*
X185921952Y-111944452D01*
X185952190Y-112004928D01*
X186426928Y-110840761D02*
X186064071Y-110840761D01*
X186245500Y-110840761D02*
X186245500Y-110205761D01*
X186185023Y-110296476D01*
X186124547Y-110356952D01*
X186064071Y-110387190D01*
%TO.C,CON2*%
X144339128Y-111681985D02*
X144308890Y-111712223D01*
X144218176Y-111742461D01*
X144157700Y-111742461D01*
X144066985Y-111712223D01*
X144006509Y-111651747D01*
X143976271Y-111591271D01*
X143946033Y-111470319D01*
X143946033Y-111379604D01*
X143976271Y-111258652D01*
X144006509Y-111198176D01*
X144066985Y-111137700D01*
X144157700Y-111107461D01*
X144218176Y-111107461D01*
X144308890Y-111137700D01*
X144339128Y-111167938D01*
X144732223Y-111107461D02*
X144853176Y-111107461D01*
X144913652Y-111137700D01*
X144974128Y-111198176D01*
X145004366Y-111319128D01*
X145004366Y-111530795D01*
X144974128Y-111651747D01*
X144913652Y-111712223D01*
X144853176Y-111742461D01*
X144732223Y-111742461D01*
X144671747Y-111712223D01*
X144611271Y-111651747D01*
X144581033Y-111530795D01*
X144581033Y-111319128D01*
X144611271Y-111198176D01*
X144671747Y-111137700D01*
X144732223Y-111107461D01*
X145276509Y-111742461D02*
X145276509Y-111107461D01*
X145639366Y-111742461D01*
X145639366Y-111107461D01*
X145911509Y-111167938D02*
X145941747Y-111137700D01*
X146002223Y-111107461D01*
X146153414Y-111107461D01*
X146213890Y-111137700D01*
X146244128Y-111167938D01*
X146274366Y-111228414D01*
X146274366Y-111288890D01*
X146244128Y-111379604D01*
X145881271Y-111742461D01*
X146274366Y-111742461D01*
D16*
X138647714Y-102452714D02*
X138212285Y-102452714D01*
X138430000Y-102452714D02*
X138430000Y-101690714D01*
X138357428Y-101799571D01*
X138284857Y-101872142D01*
X138212285Y-101908428D01*
%TO.C,UEXT1*%
D15*
X147274642Y-111082061D02*
X147274642Y-111596109D01*
X147304880Y-111656585D01*
X147335119Y-111686823D01*
X147395595Y-111717061D01*
X147516547Y-111717061D01*
X147577023Y-111686823D01*
X147607261Y-111656585D01*
X147637500Y-111596109D01*
X147637500Y-111082061D01*
X147939880Y-111384442D02*
X148151547Y-111384442D01*
X148242261Y-111717061D02*
X147939880Y-111717061D01*
X147939880Y-111082061D01*
X148242261Y-111082061D01*
X148453928Y-111082061D02*
X148877261Y-111717061D01*
X148877261Y-111082061D02*
X148453928Y-111717061D01*
X149028452Y-111082061D02*
X149391309Y-111082061D01*
X149209880Y-111717061D02*
X149209880Y-111082061D01*
X149935595Y-111717061D02*
X149572738Y-111717061D01*
X149754166Y-111717061D02*
X149754166Y-111082061D01*
X149693690Y-111172776D01*
X149633214Y-111233252D01*
X149572738Y-111263490D01*
D10*
X146570095Y-105476523D02*
X146812000Y-105476523D01*
X146932952Y-105416047D01*
X146993428Y-105355571D01*
X147114380Y-105174142D01*
X147174857Y-104932238D01*
X147174857Y-104448428D01*
X147114380Y-104327476D01*
X147053904Y-104267000D01*
X146932952Y-104206523D01*
X146691047Y-104206523D01*
X146570095Y-104267000D01*
X146509619Y-104327476D01*
X146449142Y-104448428D01*
X146449142Y-104750809D01*
X146509619Y-104871761D01*
X146570095Y-104932238D01*
X146691047Y-104992714D01*
X146932952Y-104992714D01*
X147053904Y-104932238D01*
X147114380Y-104871761D01*
X147174857Y-104750809D01*
X146570095Y-108016523D02*
X145844380Y-108016523D01*
X146207238Y-108016523D02*
X146207238Y-106746523D01*
X146086285Y-106927952D01*
X145965333Y-107048904D01*
X145844380Y-107109380D01*
X147356285Y-106746523D02*
X147477238Y-106746523D01*
X147598190Y-106807000D01*
X147658666Y-106867476D01*
X147719142Y-106988428D01*
X147779619Y-107230333D01*
X147779619Y-107532714D01*
X147719142Y-107774619D01*
X147658666Y-107895571D01*
X147598190Y-107956047D01*
X147477238Y-108016523D01*
X147356285Y-108016523D01*
X147235333Y-107956047D01*
X147174857Y-107895571D01*
X147114380Y-107774619D01*
X147053904Y-107532714D01*
X147053904Y-107230333D01*
X147114380Y-106988428D01*
X147174857Y-106867476D01*
X147235333Y-106807000D01*
X147356285Y-106746523D01*
X161435142Y-106867476D02*
X161495619Y-106807000D01*
X161616571Y-106746523D01*
X161918952Y-106746523D01*
X162039904Y-106807000D01*
X162100380Y-106867476D01*
X162160857Y-106988428D01*
X162160857Y-107109380D01*
X162100380Y-107290809D01*
X161374666Y-108016523D01*
X162160857Y-108016523D01*
X162160857Y-105476523D02*
X161435142Y-105476523D01*
X161798000Y-105476523D02*
X161798000Y-104206523D01*
X161677047Y-104387952D01*
X161556095Y-104508904D01*
X161435142Y-104569380D01*
X153936095Y-103317523D02*
X153210380Y-103317523D01*
X153573238Y-103317523D02*
X153573238Y-102047523D01*
X153452285Y-102228952D01*
X153331333Y-102349904D01*
X153210380Y-102410380D01*
X154722285Y-102047523D02*
X154843238Y-102047523D01*
X154964190Y-102108000D01*
X155024666Y-102168476D01*
X155085142Y-102289428D01*
X155145619Y-102531333D01*
X155145619Y-102833714D01*
X155085142Y-103075619D01*
X155024666Y-103196571D01*
X154964190Y-103257047D01*
X154843238Y-103317523D01*
X154722285Y-103317523D01*
X154601333Y-103257047D01*
X154540857Y-103196571D01*
X154480380Y-103075619D01*
X154419904Y-102833714D01*
X154419904Y-102531333D01*
X154480380Y-102289428D01*
X154540857Y-102168476D01*
X154601333Y-102108000D01*
X154722285Y-102047523D01*
%TO.C,BAT_CON1*%
D15*
X181519285Y-133558642D02*
X181610000Y-133588880D01*
X181640238Y-133619119D01*
X181670476Y-133679595D01*
X181670476Y-133770309D01*
X181640238Y-133830785D01*
X181610000Y-133861023D01*
X181549523Y-133891261D01*
X181307619Y-133891261D01*
X181307619Y-133256261D01*
X181519285Y-133256261D01*
X181579761Y-133286500D01*
X181610000Y-133316738D01*
X181640238Y-133377214D01*
X181640238Y-133437690D01*
X181610000Y-133498166D01*
X181579761Y-133528404D01*
X181519285Y-133558642D01*
X181307619Y-133558642D01*
X181912380Y-133709833D02*
X182214761Y-133709833D01*
X181851904Y-133891261D02*
X182063571Y-133256261D01*
X182275238Y-133891261D01*
X182396190Y-133256261D02*
X182759047Y-133256261D01*
X182577619Y-133891261D02*
X182577619Y-133256261D01*
X182819523Y-133951738D02*
X183303333Y-133951738D01*
X183817380Y-133830785D02*
X183787142Y-133861023D01*
X183696428Y-133891261D01*
X183635952Y-133891261D01*
X183545238Y-133861023D01*
X183484761Y-133800547D01*
X183454523Y-133740071D01*
X183424285Y-133619119D01*
X183424285Y-133528404D01*
X183454523Y-133407452D01*
X183484761Y-133346976D01*
X183545238Y-133286500D01*
X183635952Y-133256261D01*
X183696428Y-133256261D01*
X183787142Y-133286500D01*
X183817380Y-133316738D01*
X184210476Y-133256261D02*
X184331428Y-133256261D01*
X184391904Y-133286500D01*
X184452380Y-133346976D01*
X184482619Y-133467928D01*
X184482619Y-133679595D01*
X184452380Y-133800547D01*
X184391904Y-133861023D01*
X184331428Y-133891261D01*
X184210476Y-133891261D01*
X184150000Y-133861023D01*
X184089523Y-133800547D01*
X184059285Y-133679595D01*
X184059285Y-133467928D01*
X184089523Y-133346976D01*
X184150000Y-133286500D01*
X184210476Y-133256261D01*
X184754761Y-133891261D02*
X184754761Y-133256261D01*
X185117619Y-133891261D01*
X185117619Y-133256261D01*
X185752619Y-133891261D02*
X185389761Y-133891261D01*
X185571190Y-133891261D02*
X185571190Y-133256261D01*
X185510714Y-133346976D01*
X185450238Y-133407452D01*
X185389761Y-133437690D01*
D10*
X183610794Y-137256640D02*
X183659175Y-137208260D01*
X183755937Y-137159879D01*
X183997841Y-137159879D01*
X184094603Y-137208260D01*
X184142984Y-137256640D01*
X184191365Y-137353402D01*
X184191365Y-137450164D01*
X184142984Y-137595307D01*
X183562413Y-138175879D01*
X184191365Y-138175879D01*
X182187305Y-138226679D02*
X181606734Y-138226679D01*
X181897020Y-138226679D02*
X181897020Y-137210679D01*
X181800258Y-137355821D01*
X181703496Y-137452583D01*
X181606734Y-137500964D01*
%TO.C,R7*%
D15*
X133256261Y-119993833D02*
X132953880Y-120205500D01*
X133256261Y-120356690D02*
X132621261Y-120356690D01*
X132621261Y-120114785D01*
X132651500Y-120054309D01*
X132681738Y-120024071D01*
X132742214Y-119993833D01*
X132832928Y-119993833D01*
X132893404Y-120024071D01*
X132923642Y-120054309D01*
X132953880Y-120114785D01*
X132953880Y-120356690D01*
X132621261Y-119782166D02*
X132621261Y-119358833D01*
X133256261Y-119630976D01*
%TO.C,R13*%
X135227785Y-111666261D02*
X135016119Y-111363880D01*
X134864928Y-111666261D02*
X134864928Y-111031261D01*
X135106833Y-111031261D01*
X135167309Y-111061500D01*
X135197547Y-111091738D01*
X135227785Y-111152214D01*
X135227785Y-111242928D01*
X135197547Y-111303404D01*
X135167309Y-111333642D01*
X135106833Y-111363880D01*
X134864928Y-111363880D01*
X135832547Y-111666261D02*
X135469690Y-111666261D01*
X135651119Y-111666261D02*
X135651119Y-111031261D01*
X135590642Y-111121976D01*
X135530166Y-111182452D01*
X135469690Y-111212690D01*
X136044214Y-111031261D02*
X136437309Y-111031261D01*
X136225642Y-111273166D01*
X136316357Y-111273166D01*
X136376833Y-111303404D01*
X136407071Y-111333642D01*
X136437309Y-111394119D01*
X136437309Y-111545309D01*
X136407071Y-111605785D01*
X136376833Y-111636023D01*
X136316357Y-111666261D01*
X136134928Y-111666261D01*
X136074452Y-111636023D01*
X136044214Y-111605785D01*
%TO.C,R10*%
X135291285Y-108618261D02*
X135079619Y-108315880D01*
X134928428Y-108618261D02*
X134928428Y-107983261D01*
X135170333Y-107983261D01*
X135230809Y-108013500D01*
X135261047Y-108043738D01*
X135291285Y-108104214D01*
X135291285Y-108194928D01*
X135261047Y-108255404D01*
X135230809Y-108285642D01*
X135170333Y-108315880D01*
X134928428Y-108315880D01*
X135896047Y-108618261D02*
X135533190Y-108618261D01*
X135714619Y-108618261D02*
X135714619Y-107983261D01*
X135654142Y-108073976D01*
X135593666Y-108134452D01*
X135533190Y-108164690D01*
X136289142Y-107983261D02*
X136349619Y-107983261D01*
X136410095Y-108013500D01*
X136440333Y-108043738D01*
X136470571Y-108104214D01*
X136500809Y-108225166D01*
X136500809Y-108376357D01*
X136470571Y-108497309D01*
X136440333Y-108557785D01*
X136410095Y-108588023D01*
X136349619Y-108618261D01*
X136289142Y-108618261D01*
X136228666Y-108588023D01*
X136198428Y-108557785D01*
X136168190Y-108497309D01*
X136137952Y-108376357D01*
X136137952Y-108225166D01*
X136168190Y-108104214D01*
X136198428Y-108043738D01*
X136228666Y-108013500D01*
X136289142Y-107983261D01*
%TO.C,R12*%
X133002261Y-114200214D02*
X132699880Y-114411880D01*
X133002261Y-114563071D02*
X132367261Y-114563071D01*
X132367261Y-114321166D01*
X132397500Y-114260690D01*
X132427738Y-114230452D01*
X132488214Y-114200214D01*
X132578928Y-114200214D01*
X132639404Y-114230452D01*
X132669642Y-114260690D01*
X132699880Y-114321166D01*
X132699880Y-114563071D01*
X133002261Y-113595452D02*
X133002261Y-113958309D01*
X133002261Y-113776880D02*
X132367261Y-113776880D01*
X132457976Y-113837357D01*
X132518452Y-113897833D01*
X132548690Y-113958309D01*
X132427738Y-113353547D02*
X132397500Y-113323309D01*
X132367261Y-113262833D01*
X132367261Y-113111642D01*
X132397500Y-113051166D01*
X132427738Y-113020928D01*
X132488214Y-112990690D01*
X132548690Y-112990690D01*
X132639404Y-113020928D01*
X133002261Y-113383785D01*
X133002261Y-112990690D01*
%TO.C,R11*%
X132113261Y-120042214D02*
X131810880Y-120253880D01*
X132113261Y-120405071D02*
X131478261Y-120405071D01*
X131478261Y-120163166D01*
X131508500Y-120102690D01*
X131538738Y-120072452D01*
X131599214Y-120042214D01*
X131689928Y-120042214D01*
X131750404Y-120072452D01*
X131780642Y-120102690D01*
X131810880Y-120163166D01*
X131810880Y-120405071D01*
X132113261Y-119437452D02*
X132113261Y-119800309D01*
X132113261Y-119618880D02*
X131478261Y-119618880D01*
X131568976Y-119679357D01*
X131629452Y-119739833D01*
X131659690Y-119800309D01*
X132113261Y-118832690D02*
X132113261Y-119195547D01*
X132113261Y-119014119D02*
X131478261Y-119014119D01*
X131568976Y-119074595D01*
X131629452Y-119135071D01*
X131659690Y-119195547D01*
%TO.C,R9*%
X135276166Y-110650261D02*
X135064500Y-110347880D01*
X134913309Y-110650261D02*
X134913309Y-110015261D01*
X135155214Y-110015261D01*
X135215690Y-110045500D01*
X135245928Y-110075738D01*
X135276166Y-110136214D01*
X135276166Y-110226928D01*
X135245928Y-110287404D01*
X135215690Y-110317642D01*
X135155214Y-110347880D01*
X134913309Y-110347880D01*
X135578547Y-110650261D02*
X135699500Y-110650261D01*
X135759976Y-110620023D01*
X135790214Y-110589785D01*
X135850690Y-110499071D01*
X135880928Y-110378119D01*
X135880928Y-110136214D01*
X135850690Y-110075738D01*
X135820452Y-110045500D01*
X135759976Y-110015261D01*
X135639023Y-110015261D01*
X135578547Y-110045500D01*
X135548309Y-110075738D01*
X135518071Y-110136214D01*
X135518071Y-110287404D01*
X135548309Y-110347880D01*
X135578547Y-110378119D01*
X135639023Y-110408357D01*
X135759976Y-110408357D01*
X135820452Y-110378119D01*
X135850690Y-110347880D01*
X135880928Y-110287404D01*
%TO.C,R8*%
X134145261Y-114151833D02*
X133842880Y-114363500D01*
X134145261Y-114514690D02*
X133510261Y-114514690D01*
X133510261Y-114272785D01*
X133540500Y-114212309D01*
X133570738Y-114182071D01*
X133631214Y-114151833D01*
X133721928Y-114151833D01*
X133782404Y-114182071D01*
X133812642Y-114212309D01*
X133842880Y-114272785D01*
X133842880Y-114514690D01*
X133782404Y-113788976D02*
X133752166Y-113849452D01*
X133721928Y-113879690D01*
X133661452Y-113909928D01*
X133631214Y-113909928D01*
X133570738Y-113879690D01*
X133540500Y-113849452D01*
X133510261Y-113788976D01*
X133510261Y-113668023D01*
X133540500Y-113607547D01*
X133570738Y-113577309D01*
X133631214Y-113547071D01*
X133661452Y-113547071D01*
X133721928Y-113577309D01*
X133752166Y-113607547D01*
X133782404Y-113668023D01*
X133782404Y-113788976D01*
X133812642Y-113849452D01*
X133842880Y-113879690D01*
X133903357Y-113909928D01*
X134024309Y-113909928D01*
X134084785Y-113879690D01*
X134115023Y-113849452D01*
X134145261Y-113788976D01*
X134145261Y-113668023D01*
X134115023Y-113607547D01*
X134084785Y-113577309D01*
X134024309Y-113547071D01*
X133903357Y-113547071D01*
X133842880Y-113577309D01*
X133812642Y-113607547D01*
X133782404Y-113668023D01*
%TO.C,R14*%
X135291285Y-109634261D02*
X135079619Y-109331880D01*
X134928428Y-109634261D02*
X134928428Y-108999261D01*
X135170333Y-108999261D01*
X135230809Y-109029500D01*
X135261047Y-109059738D01*
X135291285Y-109120214D01*
X135291285Y-109210928D01*
X135261047Y-109271404D01*
X135230809Y-109301642D01*
X135170333Y-109331880D01*
X134928428Y-109331880D01*
X135896047Y-109634261D02*
X135533190Y-109634261D01*
X135714619Y-109634261D02*
X135714619Y-108999261D01*
X135654142Y-109089976D01*
X135593666Y-109150452D01*
X135533190Y-109180690D01*
X136440333Y-109210928D02*
X136440333Y-109634261D01*
X136289142Y-108969023D02*
X136137952Y-109422595D01*
X136531047Y-109422595D01*
%TO.C,U2*%
D16*
X182045428Y-114898714D02*
X182045428Y-115515571D01*
X182081714Y-115588142D01*
X182118000Y-115624428D01*
X182190571Y-115660714D01*
X182335714Y-115660714D01*
X182408285Y-115624428D01*
X182444571Y-115588142D01*
X182480857Y-115515571D01*
X182480857Y-114898714D01*
X182807428Y-114971285D02*
X182843714Y-114935000D01*
X182916285Y-114898714D01*
X183097714Y-114898714D01*
X183170285Y-114935000D01*
X183206571Y-114971285D01*
X183242857Y-115043857D01*
X183242857Y-115116428D01*
X183206571Y-115225285D01*
X182771142Y-115660714D01*
X183242857Y-115660714D01*
X184367714Y-115660714D02*
X183932285Y-115660714D01*
X184150000Y-115660714D02*
X184150000Y-114898714D01*
X184077428Y-115007571D01*
X184004857Y-115080142D01*
X183932285Y-115116428D01*
X135309428Y-114844285D02*
X135345714Y-114808000D01*
X135418285Y-114771714D01*
X135599714Y-114771714D01*
X135672285Y-114808000D01*
X135708571Y-114844285D01*
X135744857Y-114916857D01*
X135744857Y-114989428D01*
X135708571Y-115098285D01*
X135273142Y-115533714D01*
X135744857Y-115533714D01*
X136216571Y-114771714D02*
X136289142Y-114771714D01*
X136361714Y-114808000D01*
X136398000Y-114844285D01*
X136434285Y-114916857D01*
X136470571Y-115062000D01*
X136470571Y-115243428D01*
X136434285Y-115388571D01*
X136398000Y-115461142D01*
X136361714Y-115497428D01*
X136289142Y-115533714D01*
X136216571Y-115533714D01*
X136144000Y-115497428D01*
X136107714Y-115461142D01*
X136071428Y-115388571D01*
X136035142Y-115243428D01*
X136035142Y-115062000D01*
X136071428Y-114916857D01*
X136107714Y-114844285D01*
X136144000Y-114808000D01*
X136216571Y-114771714D01*
X135309428Y-129322285D02*
X135345714Y-129286000D01*
X135418285Y-129249714D01*
X135599714Y-129249714D01*
X135672285Y-129286000D01*
X135708571Y-129322285D01*
X135744857Y-129394857D01*
X135744857Y-129467428D01*
X135708571Y-129576285D01*
X135273142Y-130011714D01*
X135744857Y-130011714D01*
X136470571Y-130011714D02*
X136035142Y-130011714D01*
X136252857Y-130011714D02*
X136252857Y-129249714D01*
X136180285Y-129358571D01*
X136107714Y-129431142D01*
X136035142Y-129467428D01*
X183932285Y-129503714D02*
X183932285Y-130011714D01*
X183750857Y-129213428D02*
X183569428Y-129757714D01*
X184041142Y-129757714D01*
X184476571Y-129249714D02*
X184549142Y-129249714D01*
X184621714Y-129286000D01*
X184658000Y-129322285D01*
X184694285Y-129394857D01*
X184730571Y-129540000D01*
X184730571Y-129721428D01*
X184694285Y-129866571D01*
X184658000Y-129939142D01*
X184621714Y-129975428D01*
X184549142Y-130011714D01*
X184476571Y-130011714D01*
X184404000Y-129975428D01*
X184367714Y-129939142D01*
X184331428Y-129866571D01*
X184295142Y-129721428D01*
X184295142Y-129540000D01*
X184331428Y-129394857D01*
X184367714Y-129322285D01*
X184404000Y-129286000D01*
X184476571Y-129249714D01*
%TO.C,C1*%
D15*
X134514166Y-136815285D02*
X134483928Y-136845523D01*
X134393214Y-136875761D01*
X134332738Y-136875761D01*
X134242023Y-136845523D01*
X134181547Y-136785047D01*
X134151309Y-136724571D01*
X134121071Y-136603619D01*
X134121071Y-136512904D01*
X134151309Y-136391952D01*
X134181547Y-136331476D01*
X134242023Y-136271000D01*
X134332738Y-136240761D01*
X134393214Y-136240761D01*
X134483928Y-136271000D01*
X134514166Y-136301238D01*
X135118928Y-136875761D02*
X134756071Y-136875761D01*
X134937500Y-136875761D02*
X134937500Y-136240761D01*
X134877023Y-136331476D01*
X134816547Y-136391952D01*
X134756071Y-136422190D01*
%TO.C,FUSE1*%
X127009071Y-122001642D02*
X126797404Y-122001642D01*
X126797404Y-122334261D02*
X126797404Y-121699261D01*
X127099785Y-121699261D01*
X127341690Y-121699261D02*
X127341690Y-122213309D01*
X127371928Y-122273785D01*
X127402166Y-122304023D01*
X127462642Y-122334261D01*
X127583595Y-122334261D01*
X127644071Y-122304023D01*
X127674309Y-122273785D01*
X127704547Y-122213309D01*
X127704547Y-121699261D01*
X127976690Y-122304023D02*
X128067404Y-122334261D01*
X128218595Y-122334261D01*
X128279071Y-122304023D01*
X128309309Y-122273785D01*
X128339547Y-122213309D01*
X128339547Y-122152833D01*
X128309309Y-122092357D01*
X128279071Y-122062119D01*
X128218595Y-122031880D01*
X128097642Y-122001642D01*
X128037166Y-121971404D01*
X128006928Y-121941166D01*
X127976690Y-121880690D01*
X127976690Y-121820214D01*
X128006928Y-121759738D01*
X128037166Y-121729500D01*
X128097642Y-121699261D01*
X128248833Y-121699261D01*
X128339547Y-121729500D01*
X128611690Y-122001642D02*
X128823357Y-122001642D01*
X128914071Y-122334261D02*
X128611690Y-122334261D01*
X128611690Y-121699261D01*
X128914071Y-121699261D01*
X129518833Y-122334261D02*
X129155976Y-122334261D01*
X129337404Y-122334261D02*
X129337404Y-121699261D01*
X129276928Y-121789976D01*
X129216452Y-121850452D01*
X129155976Y-121880690D01*
%TO.C,HDMI1*%
D16*
X124913571Y-102325714D02*
X124913571Y-101563714D01*
X124913571Y-101926571D02*
X125349000Y-101926571D01*
X125349000Y-102325714D02*
X125349000Y-101563714D01*
X125711857Y-102325714D02*
X125711857Y-101563714D01*
X125893285Y-101563714D01*
X126002142Y-101600000D01*
X126074714Y-101672571D01*
X126111000Y-101745142D01*
X126147285Y-101890285D01*
X126147285Y-101999142D01*
X126111000Y-102144285D01*
X126074714Y-102216857D01*
X126002142Y-102289428D01*
X125893285Y-102325714D01*
X125711857Y-102325714D01*
X126473857Y-102325714D02*
X126473857Y-101563714D01*
X126727857Y-102108000D01*
X126981857Y-101563714D01*
X126981857Y-102325714D01*
X127344714Y-102325714D02*
X127344714Y-101563714D01*
X128106714Y-102325714D02*
X127671285Y-102325714D01*
X127889000Y-102325714D02*
X127889000Y-101563714D01*
X127816428Y-101672571D01*
X127743857Y-101745142D01*
X127671285Y-101781428D01*
%TO.C,C2*%
D15*
X179980166Y-133830785D02*
X179949928Y-133861023D01*
X179859214Y-133891261D01*
X179798738Y-133891261D01*
X179708023Y-133861023D01*
X179647547Y-133800547D01*
X179617309Y-133740071D01*
X179587071Y-133619119D01*
X179587071Y-133528404D01*
X179617309Y-133407452D01*
X179647547Y-133346976D01*
X179708023Y-133286500D01*
X179798738Y-133256261D01*
X179859214Y-133256261D01*
X179949928Y-133286500D01*
X179980166Y-133316738D01*
X180222071Y-133316738D02*
X180252309Y-133286500D01*
X180312785Y-133256261D01*
X180463976Y-133256261D01*
X180524452Y-133286500D01*
X180554690Y-133316738D01*
X180584928Y-133377214D01*
X180584928Y-133437690D01*
X180554690Y-133528404D01*
X180191833Y-133891261D01*
X180584928Y-133891261D01*
%TO.C,LED1*%
X186995404Y-139098261D02*
X186693023Y-139098261D01*
X186693023Y-138463261D01*
X187207071Y-138765642D02*
X187418738Y-138765642D01*
X187509452Y-139098261D02*
X187207071Y-139098261D01*
X187207071Y-138463261D01*
X187509452Y-138463261D01*
X187781595Y-139098261D02*
X187781595Y-138463261D01*
X187932785Y-138463261D01*
X188023500Y-138493500D01*
X188083976Y-138553976D01*
X188114214Y-138614452D01*
X188144452Y-138735404D01*
X188144452Y-138826119D01*
X188114214Y-138947071D01*
X188083976Y-139007547D01*
X188023500Y-139068023D01*
X187932785Y-139098261D01*
X187781595Y-139098261D01*
X188749214Y-139098261D02*
X188386357Y-139098261D01*
X188567785Y-139098261D02*
X188567785Y-138463261D01*
X188507309Y-138553976D01*
X188446833Y-138614452D01*
X188386357Y-138644690D01*
%TO.C,R1*%
X173376166Y-139098261D02*
X173164500Y-138795880D01*
X173013309Y-139098261D02*
X173013309Y-138463261D01*
X173255214Y-138463261D01*
X173315690Y-138493500D01*
X173345928Y-138523738D01*
X173376166Y-138584214D01*
X173376166Y-138674928D01*
X173345928Y-138735404D01*
X173315690Y-138765642D01*
X173255214Y-138795880D01*
X173013309Y-138795880D01*
X173980928Y-139098261D02*
X173618071Y-139098261D01*
X173799500Y-139098261D02*
X173799500Y-138463261D01*
X173739023Y-138553976D01*
X173678547Y-138614452D01*
X173618071Y-138644690D01*
%TO.C,R4*%
X176932166Y-139098261D02*
X176720500Y-138795880D01*
X176569309Y-139098261D02*
X176569309Y-138463261D01*
X176811214Y-138463261D01*
X176871690Y-138493500D01*
X176901928Y-138523738D01*
X176932166Y-138584214D01*
X176932166Y-138674928D01*
X176901928Y-138735404D01*
X176871690Y-138765642D01*
X176811214Y-138795880D01*
X176569309Y-138795880D01*
X177476452Y-138674928D02*
X177476452Y-139098261D01*
X177325261Y-138433023D02*
X177174071Y-138886595D01*
X177567166Y-138886595D01*
%TO.C,R5*%
X178964166Y-138209261D02*
X178752500Y-137906880D01*
X178601309Y-138209261D02*
X178601309Y-137574261D01*
X178843214Y-137574261D01*
X178903690Y-137604500D01*
X178933928Y-137634738D01*
X178964166Y-137695214D01*
X178964166Y-137785928D01*
X178933928Y-137846404D01*
X178903690Y-137876642D01*
X178843214Y-137906880D01*
X178601309Y-137906880D01*
X179538690Y-137574261D02*
X179236309Y-137574261D01*
X179206071Y-137876642D01*
X179236309Y-137846404D01*
X179296785Y-137816166D01*
X179447976Y-137816166D01*
X179508452Y-137846404D01*
X179538690Y-137876642D01*
X179568928Y-137937119D01*
X179568928Y-138088309D01*
X179538690Y-138148785D01*
X179508452Y-138179023D01*
X179447976Y-138209261D01*
X179296785Y-138209261D01*
X179236309Y-138179023D01*
X179206071Y-138148785D01*
%TO.C,U1*%
X176617690Y-137574261D02*
X176617690Y-138088309D01*
X176647928Y-138148785D01*
X176678166Y-138179023D01*
X176738642Y-138209261D01*
X176859595Y-138209261D01*
X176920071Y-138179023D01*
X176950309Y-138148785D01*
X176980547Y-138088309D01*
X176980547Y-137574261D01*
X177615547Y-138209261D02*
X177252690Y-138209261D01*
X177434119Y-138209261D02*
X177434119Y-137574261D01*
X177373642Y-137664976D01*
X177313166Y-137725452D01*
X177252690Y-137755690D01*
%TO.C,USB1*%
X185770761Y-118324690D02*
X186284809Y-118324690D01*
X186345285Y-118294452D01*
X186375523Y-118264214D01*
X186405761Y-118203738D01*
X186405761Y-118082785D01*
X186375523Y-118022309D01*
X186345285Y-117992071D01*
X186284809Y-117961833D01*
X185770761Y-117961833D01*
X186375523Y-117689690D02*
X186405761Y-117598976D01*
X186405761Y-117447785D01*
X186375523Y-117387309D01*
X186345285Y-117357071D01*
X186284809Y-117326833D01*
X186224333Y-117326833D01*
X186163857Y-117357071D01*
X186133619Y-117387309D01*
X186103380Y-117447785D01*
X186073142Y-117568738D01*
X186042904Y-117629214D01*
X186012666Y-117659452D01*
X185952190Y-117689690D01*
X185891714Y-117689690D01*
X185831238Y-117659452D01*
X185801000Y-117629214D01*
X185770761Y-117568738D01*
X185770761Y-117417547D01*
X185801000Y-117326833D01*
X186073142Y-116843023D02*
X186103380Y-116752309D01*
X186133619Y-116722071D01*
X186194095Y-116691833D01*
X186284809Y-116691833D01*
X186345285Y-116722071D01*
X186375523Y-116752309D01*
X186405761Y-116812785D01*
X186405761Y-117054690D01*
X185770761Y-117054690D01*
X185770761Y-116843023D01*
X185801000Y-116782547D01*
X185831238Y-116752309D01*
X185891714Y-116722071D01*
X185952190Y-116722071D01*
X186012666Y-116752309D01*
X186042904Y-116782547D01*
X186073142Y-116843023D01*
X186073142Y-117054690D01*
X186405761Y-116087071D02*
X186405761Y-116449928D01*
X186405761Y-116268500D02*
X185770761Y-116268500D01*
X185861476Y-116328976D01*
X185921952Y-116389452D01*
X185952190Y-116449928D01*
D11*
X185893666Y-123649809D02*
X186063000Y-124157809D01*
X186232333Y-123649809D01*
X186571000Y-123891714D02*
X186643571Y-123915904D01*
X186667761Y-123940095D01*
X186691952Y-123988476D01*
X186691952Y-124061047D01*
X186667761Y-124109428D01*
X186643571Y-124133619D01*
X186595190Y-124157809D01*
X186401666Y-124157809D01*
X186401666Y-123649809D01*
X186571000Y-123649809D01*
X186619380Y-123674000D01*
X186643571Y-123698190D01*
X186667761Y-123746571D01*
X186667761Y-123794952D01*
X186643571Y-123843333D01*
X186619380Y-123867523D01*
X186571000Y-123891714D01*
X186401666Y-123891714D01*
X186909666Y-123649809D02*
X186909666Y-124061047D01*
X186933857Y-124109428D01*
X186958047Y-124133619D01*
X187006428Y-124157809D01*
X187103190Y-124157809D01*
X187151571Y-124133619D01*
X187175761Y-124109428D01*
X187199952Y-124061047D01*
X187199952Y-123649809D01*
X187417666Y-124133619D02*
X187490238Y-124157809D01*
X187611190Y-124157809D01*
X187659571Y-124133619D01*
X187683761Y-124109428D01*
X187707952Y-124061047D01*
X187707952Y-124012666D01*
X187683761Y-123964285D01*
X187659571Y-123940095D01*
X187611190Y-123915904D01*
X187514428Y-123891714D01*
X187466047Y-123867523D01*
X187441857Y-123843333D01*
X187417666Y-123794952D01*
X187417666Y-123746571D01*
X187441857Y-123698190D01*
X187466047Y-123674000D01*
X187514428Y-123649809D01*
X187635380Y-123649809D01*
X187707952Y-123674000D01*
X185877476Y-123407809D02*
X185877476Y-122899809D01*
X185998428Y-122899809D01*
X186071000Y-122924000D01*
X186119380Y-122972380D01*
X186143571Y-123020761D01*
X186167761Y-123117523D01*
X186167761Y-123190095D01*
X186143571Y-123286857D01*
X186119380Y-123335238D01*
X186071000Y-123383619D01*
X185998428Y-123407809D01*
X185877476Y-123407809D01*
X186385476Y-123214285D02*
X186772523Y-123214285D01*
X185877476Y-122657809D02*
X185877476Y-122149809D01*
X185998428Y-122149809D01*
X186071000Y-122174000D01*
X186119380Y-122222380D01*
X186143571Y-122270761D01*
X186167761Y-122367523D01*
X186167761Y-122440095D01*
X186143571Y-122536857D01*
X186119380Y-122585238D01*
X186071000Y-122633619D01*
X185998428Y-122657809D01*
X185877476Y-122657809D01*
X186385476Y-122464285D02*
X186772523Y-122464285D01*
X186579000Y-122657809D02*
X186579000Y-122270761D01*
X185821000Y-121907809D02*
X185821000Y-121399809D01*
X186062904Y-121907809D02*
X186062904Y-121399809D01*
X186183857Y-121399809D01*
X186256428Y-121424000D01*
X186304809Y-121472380D01*
X186329000Y-121520761D01*
X186353190Y-121617523D01*
X186353190Y-121690095D01*
X186329000Y-121786857D01*
X186304809Y-121835238D01*
X186256428Y-121883619D01*
X186183857Y-121907809D01*
X186062904Y-121907809D01*
X186037952Y-120574000D02*
X185989571Y-120549809D01*
X185917000Y-120549809D01*
X185844428Y-120574000D01*
X185796047Y-120622380D01*
X185771857Y-120670761D01*
X185747666Y-120767523D01*
X185747666Y-120840095D01*
X185771857Y-120936857D01*
X185796047Y-120985238D01*
X185844428Y-121033619D01*
X185917000Y-121057809D01*
X185965380Y-121057809D01*
X186037952Y-121033619D01*
X186062142Y-121009428D01*
X186062142Y-120840095D01*
X185965380Y-120840095D01*
X186279857Y-121057809D02*
X186279857Y-120549809D01*
X186570142Y-121057809D01*
X186570142Y-120549809D01*
X186812047Y-121057809D02*
X186812047Y-120549809D01*
X186933000Y-120549809D01*
X187005571Y-120574000D01*
X187053952Y-120622380D01*
X187078142Y-120670761D01*
X187102333Y-120767523D01*
X187102333Y-120840095D01*
X187078142Y-120936857D01*
X187053952Y-120985238D01*
X187005571Y-121033619D01*
X186933000Y-121057809D01*
X186812047Y-121057809D01*
%TO.C,C3*%
D15*
X170963166Y-109370585D02*
X170932928Y-109400823D01*
X170842214Y-109431061D01*
X170781738Y-109431061D01*
X170691023Y-109400823D01*
X170630547Y-109340347D01*
X170600309Y-109279871D01*
X170570071Y-109158919D01*
X170570071Y-109068204D01*
X170600309Y-108947252D01*
X170630547Y-108886776D01*
X170691023Y-108826300D01*
X170781738Y-108796061D01*
X170842214Y-108796061D01*
X170932928Y-108826300D01*
X170963166Y-108856538D01*
X171174833Y-108796061D02*
X171567928Y-108796061D01*
X171356261Y-109037966D01*
X171446976Y-109037966D01*
X171507452Y-109068204D01*
X171537690Y-109098442D01*
X171567928Y-109158919D01*
X171567928Y-109310109D01*
X171537690Y-109370585D01*
X171507452Y-109400823D01*
X171446976Y-109431061D01*
X171265547Y-109431061D01*
X171205071Y-109400823D01*
X171174833Y-109370585D01*
%TO.C,C4*%
X164310785Y-136630833D02*
X164341023Y-136661071D01*
X164371261Y-136751785D01*
X164371261Y-136812261D01*
X164341023Y-136902976D01*
X164280547Y-136963452D01*
X164220071Y-136993690D01*
X164099119Y-137023928D01*
X164008404Y-137023928D01*
X163887452Y-136993690D01*
X163826976Y-136963452D01*
X163766500Y-136902976D01*
X163736261Y-136812261D01*
X163736261Y-136751785D01*
X163766500Y-136661071D01*
X163796738Y-136630833D01*
X163947928Y-136086547D02*
X164371261Y-136086547D01*
X163706023Y-136237738D02*
X164159595Y-136388928D01*
X164159595Y-135995833D01*
%TO.C,C5*%
X152040166Y-138910785D02*
X152009928Y-138941023D01*
X151919214Y-138971261D01*
X151858738Y-138971261D01*
X151768023Y-138941023D01*
X151707547Y-138880547D01*
X151677309Y-138820071D01*
X151647071Y-138699119D01*
X151647071Y-138608404D01*
X151677309Y-138487452D01*
X151707547Y-138426976D01*
X151768023Y-138366500D01*
X151858738Y-138336261D01*
X151919214Y-138336261D01*
X152009928Y-138366500D01*
X152040166Y-138396738D01*
X152614690Y-138336261D02*
X152312309Y-138336261D01*
X152282071Y-138638642D01*
X152312309Y-138608404D01*
X152372785Y-138578166D01*
X152523976Y-138578166D01*
X152584452Y-138608404D01*
X152614690Y-138638642D01*
X152644928Y-138699119D01*
X152644928Y-138850309D01*
X152614690Y-138910785D01*
X152584452Y-138941023D01*
X152523976Y-138971261D01*
X152372785Y-138971261D01*
X152312309Y-138941023D01*
X152282071Y-138910785D01*
%TO.C,C6*%
X147087166Y-134084785D02*
X147056928Y-134115023D01*
X146966214Y-134145261D01*
X146905738Y-134145261D01*
X146815023Y-134115023D01*
X146754547Y-134054547D01*
X146724309Y-133994071D01*
X146694071Y-133873119D01*
X146694071Y-133782404D01*
X146724309Y-133661452D01*
X146754547Y-133600976D01*
X146815023Y-133540500D01*
X146905738Y-133510261D01*
X146966214Y-133510261D01*
X147056928Y-133540500D01*
X147087166Y-133570738D01*
X147631452Y-133510261D02*
X147510500Y-133510261D01*
X147450023Y-133540500D01*
X147419785Y-133570738D01*
X147359309Y-133661452D01*
X147329071Y-133782404D01*
X147329071Y-134024309D01*
X147359309Y-134084785D01*
X147389547Y-134115023D01*
X147450023Y-134145261D01*
X147570976Y-134145261D01*
X147631452Y-134115023D01*
X147661690Y-134084785D01*
X147691928Y-134024309D01*
X147691928Y-133873119D01*
X147661690Y-133812642D01*
X147631452Y-133782404D01*
X147570976Y-133752166D01*
X147450023Y-133752166D01*
X147389547Y-133782404D01*
X147359309Y-133812642D01*
X147329071Y-133873119D01*
%TO.C,C7*%
X182535285Y-110722833D02*
X182565523Y-110753071D01*
X182595761Y-110843785D01*
X182595761Y-110904261D01*
X182565523Y-110994976D01*
X182505047Y-111055452D01*
X182444571Y-111085690D01*
X182323619Y-111115928D01*
X182232904Y-111115928D01*
X182111952Y-111085690D01*
X182051476Y-111055452D01*
X181991000Y-110994976D01*
X181960761Y-110904261D01*
X181960761Y-110843785D01*
X181991000Y-110753071D01*
X182021238Y-110722833D01*
X181960761Y-110511166D02*
X181960761Y-110087833D01*
X182595761Y-110359976D01*
%TO.C,R16*%
X169822585Y-108288061D02*
X169610919Y-107985680D01*
X169459728Y-108288061D02*
X169459728Y-107653061D01*
X169701633Y-107653061D01*
X169762109Y-107683300D01*
X169792347Y-107713538D01*
X169822585Y-107774014D01*
X169822585Y-107864728D01*
X169792347Y-107925204D01*
X169762109Y-107955442D01*
X169701633Y-107985680D01*
X169459728Y-107985680D01*
X170427347Y-108288061D02*
X170064490Y-108288061D01*
X170245919Y-108288061D02*
X170245919Y-107653061D01*
X170185442Y-107743776D01*
X170124966Y-107804252D01*
X170064490Y-107834490D01*
X170971633Y-107653061D02*
X170850680Y-107653061D01*
X170790204Y-107683300D01*
X170759966Y-107713538D01*
X170699490Y-107804252D01*
X170669252Y-107925204D01*
X170669252Y-108167109D01*
X170699490Y-108227585D01*
X170729728Y-108257823D01*
X170790204Y-108288061D01*
X170911157Y-108288061D01*
X170971633Y-108257823D01*
X171001871Y-108227585D01*
X171032109Y-108167109D01*
X171032109Y-108015919D01*
X171001871Y-107955442D01*
X170971633Y-107925204D01*
X170911157Y-107894966D01*
X170790204Y-107894966D01*
X170729728Y-107925204D01*
X170699490Y-107955442D01*
X170669252Y-108015919D01*
%TO.C,R17*%
X161770785Y-137066261D02*
X161559119Y-136763880D01*
X161407928Y-137066261D02*
X161407928Y-136431261D01*
X161649833Y-136431261D01*
X161710309Y-136461500D01*
X161740547Y-136491738D01*
X161770785Y-136552214D01*
X161770785Y-136642928D01*
X161740547Y-136703404D01*
X161710309Y-136733642D01*
X161649833Y-136763880D01*
X161407928Y-136763880D01*
X162375547Y-137066261D02*
X162012690Y-137066261D01*
X162194119Y-137066261D02*
X162194119Y-136431261D01*
X162133642Y-136521976D01*
X162073166Y-136582452D01*
X162012690Y-136612690D01*
X162587214Y-136431261D02*
X163010547Y-136431261D01*
X162738404Y-137066261D01*
%TO.C,R18*%
X161770785Y-133891261D02*
X161559119Y-133588880D01*
X161407928Y-133891261D02*
X161407928Y-133256261D01*
X161649833Y-133256261D01*
X161710309Y-133286500D01*
X161740547Y-133316738D01*
X161770785Y-133377214D01*
X161770785Y-133467928D01*
X161740547Y-133528404D01*
X161710309Y-133558642D01*
X161649833Y-133588880D01*
X161407928Y-133588880D01*
X162375547Y-133891261D02*
X162012690Y-133891261D01*
X162194119Y-133891261D02*
X162194119Y-133256261D01*
X162133642Y-133346976D01*
X162073166Y-133407452D01*
X162012690Y-133437690D01*
X162738404Y-133528404D02*
X162677928Y-133498166D01*
X162647690Y-133467928D01*
X162617452Y-133407452D01*
X162617452Y-133377214D01*
X162647690Y-133316738D01*
X162677928Y-133286500D01*
X162738404Y-133256261D01*
X162859357Y-133256261D01*
X162919833Y-133286500D01*
X162950071Y-133316738D01*
X162980309Y-133377214D01*
X162980309Y-133407452D01*
X162950071Y-133467928D01*
X162919833Y-133498166D01*
X162859357Y-133528404D01*
X162738404Y-133528404D01*
X162677928Y-133558642D01*
X162647690Y-133588880D01*
X162617452Y-133649357D01*
X162617452Y-133770309D01*
X162647690Y-133830785D01*
X162677928Y-133861023D01*
X162738404Y-133891261D01*
X162859357Y-133891261D01*
X162919833Y-133861023D01*
X162950071Y-133830785D01*
X162980309Y-133770309D01*
X162980309Y-133649357D01*
X162950071Y-133588880D01*
X162919833Y-133558642D01*
X162859357Y-133528404D01*
%TO.C,R19*%
X149451785Y-136304261D02*
X149240119Y-136001880D01*
X149088928Y-136304261D02*
X149088928Y-135669261D01*
X149330833Y-135669261D01*
X149391309Y-135699500D01*
X149421547Y-135729738D01*
X149451785Y-135790214D01*
X149451785Y-135880928D01*
X149421547Y-135941404D01*
X149391309Y-135971642D01*
X149330833Y-136001880D01*
X149088928Y-136001880D01*
X150056547Y-136304261D02*
X149693690Y-136304261D01*
X149875119Y-136304261D02*
X149875119Y-135669261D01*
X149814642Y-135759976D01*
X149754166Y-135820452D01*
X149693690Y-135850690D01*
X150358928Y-136304261D02*
X150479880Y-136304261D01*
X150540357Y-136274023D01*
X150570595Y-136243785D01*
X150631071Y-136153071D01*
X150661309Y-136032119D01*
X150661309Y-135790214D01*
X150631071Y-135729738D01*
X150600833Y-135699500D01*
X150540357Y-135669261D01*
X150419404Y-135669261D01*
X150358928Y-135699500D01*
X150328690Y-135729738D01*
X150298452Y-135790214D01*
X150298452Y-135941404D01*
X150328690Y-136001880D01*
X150358928Y-136032119D01*
X150419404Y-136062357D01*
X150540357Y-136062357D01*
X150600833Y-136032119D01*
X150631071Y-136001880D01*
X150661309Y-135941404D01*
%TO.C,R20*%
X148245285Y-133510261D02*
X148033619Y-133207880D01*
X147882428Y-133510261D02*
X147882428Y-132875261D01*
X148124333Y-132875261D01*
X148184809Y-132905500D01*
X148215047Y-132935738D01*
X148245285Y-132996214D01*
X148245285Y-133086928D01*
X148215047Y-133147404D01*
X148184809Y-133177642D01*
X148124333Y-133207880D01*
X147882428Y-133207880D01*
X148487190Y-132935738D02*
X148517428Y-132905500D01*
X148577904Y-132875261D01*
X148729095Y-132875261D01*
X148789571Y-132905500D01*
X148819809Y-132935738D01*
X148850047Y-132996214D01*
X148850047Y-133056690D01*
X148819809Y-133147404D01*
X148456952Y-133510261D01*
X148850047Y-133510261D01*
X149243142Y-132875261D02*
X149303619Y-132875261D01*
X149364095Y-132905500D01*
X149394333Y-132935738D01*
X149424571Y-132996214D01*
X149454809Y-133117166D01*
X149454809Y-133268357D01*
X149424571Y-133389309D01*
X149394333Y-133449785D01*
X149364095Y-133480023D01*
X149303619Y-133510261D01*
X149243142Y-133510261D01*
X149182666Y-133480023D01*
X149152428Y-133449785D01*
X149122190Y-133389309D01*
X149091952Y-133268357D01*
X149091952Y-133117166D01*
X149122190Y-132996214D01*
X149152428Y-132935738D01*
X149182666Y-132905500D01*
X149243142Y-132875261D01*
%TO.C,R21*%
X174861461Y-111025214D02*
X174559080Y-111236880D01*
X174861461Y-111388071D02*
X174226461Y-111388071D01*
X174226461Y-111146166D01*
X174256700Y-111085690D01*
X174286938Y-111055452D01*
X174347414Y-111025214D01*
X174438128Y-111025214D01*
X174498604Y-111055452D01*
X174528842Y-111085690D01*
X174559080Y-111146166D01*
X174559080Y-111388071D01*
X174286938Y-110783309D02*
X174256700Y-110753071D01*
X174226461Y-110692595D01*
X174226461Y-110541404D01*
X174256700Y-110480928D01*
X174286938Y-110450690D01*
X174347414Y-110420452D01*
X174407890Y-110420452D01*
X174498604Y-110450690D01*
X174861461Y-110813547D01*
X174861461Y-110420452D01*
X174861461Y-109815690D02*
X174861461Y-110178547D01*
X174861461Y-109997119D02*
X174226461Y-109997119D01*
X174317176Y-110057595D01*
X174377652Y-110118071D01*
X174407890Y-110178547D01*
%TO.C,R22*%
X151229785Y-133573761D02*
X151018119Y-133271380D01*
X150866928Y-133573761D02*
X150866928Y-132938761D01*
X151108833Y-132938761D01*
X151169309Y-132969000D01*
X151199547Y-132999238D01*
X151229785Y-133059714D01*
X151229785Y-133150428D01*
X151199547Y-133210904D01*
X151169309Y-133241142D01*
X151108833Y-133271380D01*
X150866928Y-133271380D01*
X151471690Y-132999238D02*
X151501928Y-132969000D01*
X151562404Y-132938761D01*
X151713595Y-132938761D01*
X151774071Y-132969000D01*
X151804309Y-132999238D01*
X151834547Y-133059714D01*
X151834547Y-133120190D01*
X151804309Y-133210904D01*
X151441452Y-133573761D01*
X151834547Y-133573761D01*
X152076452Y-132999238D02*
X152106690Y-132969000D01*
X152167166Y-132938761D01*
X152318357Y-132938761D01*
X152378833Y-132969000D01*
X152409071Y-132999238D01*
X152439309Y-133059714D01*
X152439309Y-133120190D01*
X152409071Y-133210904D01*
X152046214Y-133573761D01*
X152439309Y-133573761D01*
%TO.C,R23*%
X160688261Y-137314214D02*
X160385880Y-137525880D01*
X160688261Y-137677071D02*
X160053261Y-137677071D01*
X160053261Y-137435166D01*
X160083500Y-137374690D01*
X160113738Y-137344452D01*
X160174214Y-137314214D01*
X160264928Y-137314214D01*
X160325404Y-137344452D01*
X160355642Y-137374690D01*
X160385880Y-137435166D01*
X160385880Y-137677071D01*
X160113738Y-137072309D02*
X160083500Y-137042071D01*
X160053261Y-136981595D01*
X160053261Y-136830404D01*
X160083500Y-136769928D01*
X160113738Y-136739690D01*
X160174214Y-136709452D01*
X160234690Y-136709452D01*
X160325404Y-136739690D01*
X160688261Y-137102547D01*
X160688261Y-136709452D01*
X160053261Y-136497785D02*
X160053261Y-136104690D01*
X160295166Y-136316357D01*
X160295166Y-136225642D01*
X160325404Y-136165166D01*
X160355642Y-136134928D01*
X160416119Y-136104690D01*
X160567309Y-136104690D01*
X160627785Y-136134928D01*
X160658023Y-136165166D01*
X160688261Y-136225642D01*
X160688261Y-136407071D01*
X160658023Y-136467547D01*
X160627785Y-136497785D01*
%TO.C,R24*%
X150086785Y-139034761D02*
X149875119Y-138732380D01*
X149723928Y-139034761D02*
X149723928Y-138399761D01*
X149965833Y-138399761D01*
X150026309Y-138430000D01*
X150056547Y-138460238D01*
X150086785Y-138520714D01*
X150086785Y-138611428D01*
X150056547Y-138671904D01*
X150026309Y-138702142D01*
X149965833Y-138732380D01*
X149723928Y-138732380D01*
X150328690Y-138460238D02*
X150358928Y-138430000D01*
X150419404Y-138399761D01*
X150570595Y-138399761D01*
X150631071Y-138430000D01*
X150661309Y-138460238D01*
X150691547Y-138520714D01*
X150691547Y-138581190D01*
X150661309Y-138671904D01*
X150298452Y-139034761D01*
X150691547Y-139034761D01*
X151235833Y-138611428D02*
X151235833Y-139034761D01*
X151084642Y-138369523D02*
X150933452Y-138823095D01*
X151326547Y-138823095D01*
%TO.C,RST1*%
X187182880Y-136431261D02*
X186971214Y-136128880D01*
X186820023Y-136431261D02*
X186820023Y-135796261D01*
X187061928Y-135796261D01*
X187122404Y-135826500D01*
X187152642Y-135856738D01*
X187182880Y-135917214D01*
X187182880Y-136007928D01*
X187152642Y-136068404D01*
X187122404Y-136098642D01*
X187061928Y-136128880D01*
X186820023Y-136128880D01*
X187424785Y-136401023D02*
X187515500Y-136431261D01*
X187666690Y-136431261D01*
X187727166Y-136401023D01*
X187757404Y-136370785D01*
X187787642Y-136310309D01*
X187787642Y-136249833D01*
X187757404Y-136189357D01*
X187727166Y-136159119D01*
X187666690Y-136128880D01*
X187545738Y-136098642D01*
X187485261Y-136068404D01*
X187455023Y-136038166D01*
X187424785Y-135977690D01*
X187424785Y-135917214D01*
X187455023Y-135856738D01*
X187485261Y-135826500D01*
X187545738Y-135796261D01*
X187696928Y-135796261D01*
X187787642Y-135826500D01*
X187969071Y-135796261D02*
X188331928Y-135796261D01*
X188150500Y-136431261D02*
X188150500Y-135796261D01*
X188876214Y-136431261D02*
X188513357Y-136431261D01*
X188694785Y-136431261D02*
X188694785Y-135796261D01*
X188634309Y-135886976D01*
X188573833Y-135947452D01*
X188513357Y-135977690D01*
%TO.C,MICRO_SD1*%
D16*
X125276428Y-138774714D02*
X125276428Y-138012714D01*
X125530428Y-138557000D01*
X125784428Y-138012714D01*
X125784428Y-138774714D01*
X126147285Y-138774714D02*
X126147285Y-138012714D01*
X126945571Y-138702142D02*
X126909285Y-138738428D01*
X126800428Y-138774714D01*
X126727857Y-138774714D01*
X126619000Y-138738428D01*
X126546428Y-138665857D01*
X126510142Y-138593285D01*
X126473857Y-138448142D01*
X126473857Y-138339285D01*
X126510142Y-138194142D01*
X126546428Y-138121571D01*
X126619000Y-138049000D01*
X126727857Y-138012714D01*
X126800428Y-138012714D01*
X126909285Y-138049000D01*
X126945571Y-138085285D01*
X127707571Y-138774714D02*
X127453571Y-138411857D01*
X127272142Y-138774714D02*
X127272142Y-138012714D01*
X127562428Y-138012714D01*
X127635000Y-138049000D01*
X127671285Y-138085285D01*
X127707571Y-138157857D01*
X127707571Y-138266714D01*
X127671285Y-138339285D01*
X127635000Y-138375571D01*
X127562428Y-138411857D01*
X127272142Y-138411857D01*
X128179285Y-138012714D02*
X128324428Y-138012714D01*
X128397000Y-138049000D01*
X128469571Y-138121571D01*
X128505857Y-138266714D01*
X128505857Y-138520714D01*
X128469571Y-138665857D01*
X128397000Y-138738428D01*
X128324428Y-138774714D01*
X128179285Y-138774714D01*
X128106714Y-138738428D01*
X128034142Y-138665857D01*
X127997857Y-138520714D01*
X127997857Y-138266714D01*
X128034142Y-138121571D01*
X128106714Y-138049000D01*
X128179285Y-138012714D01*
X128651000Y-138847285D02*
X129231571Y-138847285D01*
X129376714Y-138738428D02*
X129485571Y-138774714D01*
X129667000Y-138774714D01*
X129739571Y-138738428D01*
X129775857Y-138702142D01*
X129812142Y-138629571D01*
X129812142Y-138557000D01*
X129775857Y-138484428D01*
X129739571Y-138448142D01*
X129667000Y-138411857D01*
X129521857Y-138375571D01*
X129449285Y-138339285D01*
X129413000Y-138303000D01*
X129376714Y-138230428D01*
X129376714Y-138157857D01*
X129413000Y-138085285D01*
X129449285Y-138049000D01*
X129521857Y-138012714D01*
X129703285Y-138012714D01*
X129812142Y-138049000D01*
X130138714Y-138774714D02*
X130138714Y-138012714D01*
X130320142Y-138012714D01*
X130429000Y-138049000D01*
X130501571Y-138121571D01*
X130537857Y-138194142D01*
X130574142Y-138339285D01*
X130574142Y-138448142D01*
X130537857Y-138593285D01*
X130501571Y-138665857D01*
X130429000Y-138738428D01*
X130320142Y-138774714D01*
X130138714Y-138774714D01*
X131299857Y-138774714D02*
X130864428Y-138774714D01*
X131082142Y-138774714D02*
X131082142Y-138012714D01*
X131009571Y-138121571D01*
X130937000Y-138194142D01*
X130864428Y-138230428D01*
%TO.C,R15*%
D15*
X165326785Y-108999261D02*
X165115119Y-108696880D01*
X164963928Y-108999261D02*
X164963928Y-108364261D01*
X165205833Y-108364261D01*
X165266309Y-108394500D01*
X165296547Y-108424738D01*
X165326785Y-108485214D01*
X165326785Y-108575928D01*
X165296547Y-108636404D01*
X165266309Y-108666642D01*
X165205833Y-108696880D01*
X164963928Y-108696880D01*
X165931547Y-108999261D02*
X165568690Y-108999261D01*
X165750119Y-108999261D02*
X165750119Y-108364261D01*
X165689642Y-108454976D01*
X165629166Y-108515452D01*
X165568690Y-108545690D01*
X166506071Y-108364261D02*
X166203690Y-108364261D01*
X166173452Y-108666642D01*
X166203690Y-108636404D01*
X166264166Y-108606166D01*
X166415357Y-108606166D01*
X166475833Y-108636404D01*
X166506071Y-108666642D01*
X166536309Y-108727119D01*
X166536309Y-108878309D01*
X166506071Y-108938785D01*
X166475833Y-108969023D01*
X166415357Y-108999261D01*
X166264166Y-108999261D01*
X166203690Y-108969023D01*
X166173452Y-108938785D01*
%TO.C,R27*%
X167358785Y-111158261D02*
X167147119Y-110855880D01*
X166995928Y-111158261D02*
X166995928Y-110523261D01*
X167237833Y-110523261D01*
X167298309Y-110553500D01*
X167328547Y-110583738D01*
X167358785Y-110644214D01*
X167358785Y-110734928D01*
X167328547Y-110795404D01*
X167298309Y-110825642D01*
X167237833Y-110855880D01*
X166995928Y-110855880D01*
X167600690Y-110583738D02*
X167630928Y-110553500D01*
X167691404Y-110523261D01*
X167842595Y-110523261D01*
X167903071Y-110553500D01*
X167933309Y-110583738D01*
X167963547Y-110644214D01*
X167963547Y-110704690D01*
X167933309Y-110795404D01*
X167570452Y-111158261D01*
X167963547Y-111158261D01*
X168175214Y-110523261D02*
X168598547Y-110523261D01*
X168326404Y-111158261D01*
%TO.C,U3*%
X158647190Y-138463261D02*
X158647190Y-138977309D01*
X158677428Y-139037785D01*
X158707666Y-139068023D01*
X158768142Y-139098261D01*
X158889095Y-139098261D01*
X158949571Y-139068023D01*
X158979809Y-139037785D01*
X159010047Y-138977309D01*
X159010047Y-138463261D01*
X159251952Y-138463261D02*
X159645047Y-138463261D01*
X159433380Y-138705166D01*
X159524095Y-138705166D01*
X159584571Y-138735404D01*
X159614809Y-138765642D01*
X159645047Y-138826119D01*
X159645047Y-138977309D01*
X159614809Y-139037785D01*
X159584571Y-139068023D01*
X159524095Y-139098261D01*
X159342666Y-139098261D01*
X159282190Y-139068023D01*
X159251952Y-139037785D01*
D17*
X160337500Y-138832166D02*
X160252833Y-138789833D01*
X160210500Y-138747500D01*
X160168166Y-138662833D01*
X160168166Y-138408833D01*
X160210500Y-138324166D01*
X160252833Y-138281833D01*
X160337500Y-138239500D01*
X160464500Y-138239500D01*
X160549166Y-138281833D01*
X160591500Y-138324166D01*
X160633833Y-138408833D01*
X160633833Y-138662833D01*
X160591500Y-138747500D01*
X160549166Y-138789833D01*
X160464500Y-138832166D01*
X160337500Y-138832166D01*
%TD*%
M02*
