G04 #@! TF.GenerationSoftware,KiCad,Pcbnew,5.1.0-rc2-unknown-036be7d~80~ubuntu16.04.1*
G04 #@! TF.CreationDate,2023-11-01T16:14:12+02:00*
G04 #@! TF.ProjectId,RP2040-PICO-PC_rev_D,52503230-3430-42d5-9049-434f2d50435f,D*
G04 #@! TF.SameCoordinates,Original*
G04 #@! TF.FileFunction,Legend,Top*
G04 #@! TF.FilePolarity,Positive*
%FSLAX46Y46*%
G04 Gerber Fmt 4.6, Leading zero omitted, Abs format (unit mm)*
G04 Created by KiCad (PCBNEW 5.1.0-rc2-unknown-036be7d~80~ubuntu16.04.1) date 2023-11-01 16:14:12*
%MOMM*%
%LPD*%
G04 APERTURE LIST*
%ADD10C,0.254000*%
%ADD11C,0.190500*%
%ADD12C,0.100000*%
%ADD13C,0.050000*%
%ADD14C,0.127000*%
%ADD15C,0.187325*%
%ADD16C,0.222250*%
G04 APERTURE END LIST*
D10*
X178809952Y-137740571D02*
X179584047Y-137740571D01*
X179197000Y-138127619D02*
X179197000Y-137353523D01*
X141986000Y-114935000D02*
X155321000Y-114935000D01*
D11*
X165317714Y-102325714D02*
X164882285Y-102325714D01*
X165100000Y-102325714D02*
X165100000Y-101563714D01*
X165027428Y-101672571D01*
X164954857Y-101745142D01*
X164882285Y-101781428D01*
X148825857Y-111850714D02*
X148390428Y-111850714D01*
X148608142Y-111850714D02*
X148608142Y-111088714D01*
X148535571Y-111197571D01*
X148463000Y-111270142D01*
X148390428Y-111306428D01*
X149297571Y-111088714D02*
X149370142Y-111088714D01*
X149442714Y-111125000D01*
X149479000Y-111161285D01*
X149515285Y-111233857D01*
X149551571Y-111379000D01*
X149551571Y-111560428D01*
X149515285Y-111705571D01*
X149479000Y-111778142D01*
X149442714Y-111814428D01*
X149370142Y-111850714D01*
X149297571Y-111850714D01*
X149225000Y-111814428D01*
X149188714Y-111778142D01*
X149152428Y-111705571D01*
X149116142Y-111560428D01*
X149116142Y-111379000D01*
X149152428Y-111233857D01*
X149188714Y-111161285D01*
X149225000Y-111125000D01*
X149297571Y-111088714D01*
D12*
G36*
X185547000Y-118237000D02*
G01*
X182118000Y-114808000D01*
X185547000Y-114808000D01*
X185547000Y-118237000D01*
G37*
X185547000Y-118237000D02*
X182118000Y-114808000D01*
X185547000Y-114808000D01*
X185547000Y-118237000D01*
D11*
X190336714Y-111161285D02*
X190336714Y-111596714D01*
X190336714Y-111379000D02*
X189574714Y-111379000D01*
X189683571Y-111451571D01*
X189756142Y-111524142D01*
X189792428Y-111596714D01*
D10*
X187483000Y-103680000D02*
X186683000Y-103680000D01*
X189683000Y-103680000D02*
X189523000Y-103680000D01*
X174983000Y-103680000D02*
X173283000Y-103680000D01*
X184583000Y-103680000D02*
X177583000Y-103680000D01*
X173283000Y-106260000D02*
X173283000Y-103680000D01*
X173283000Y-109680000D02*
X173283000Y-108680000D01*
X182483000Y-109680000D02*
X173283000Y-109680000D01*
X189683000Y-109680000D02*
X184983000Y-109680000D01*
X190038500Y-108683800D02*
X190038500Y-104594400D01*
X190038500Y-104594400D02*
X189683000Y-104594400D01*
X190483000Y-104930000D02*
X190038500Y-104594400D01*
X190483000Y-108430000D02*
X190483000Y-104930000D01*
X189987700Y-108734600D02*
X190483000Y-108430000D01*
X189683000Y-108734600D02*
X189987700Y-108734600D01*
X189683000Y-109680000D02*
X189683000Y-103680000D01*
X172339000Y-135077200D02*
X172339000Y-135788400D01*
X173177200Y-135788400D02*
X172339000Y-135788400D01*
X173177200Y-132943600D02*
X172339000Y-132943600D01*
X172339000Y-132943600D02*
X172339000Y-133654800D01*
X118734840Y-134096760D02*
X119435880Y-131696460D01*
X121734580Y-122699780D02*
X119435880Y-122699780D01*
X121734580Y-137396220D02*
X118734840Y-137396220D01*
X119435880Y-131696460D02*
X119435880Y-122699780D01*
X118734840Y-137396220D02*
X118734840Y-134096760D01*
X131732020Y-137396220D02*
X124536200Y-137396220D01*
X133233160Y-132897880D02*
X133233160Y-135796020D01*
X131732020Y-122699780D02*
X124536200Y-122699780D01*
X132651500Y-113665000D02*
X132651500Y-113919000D01*
X132651500Y-113665000D02*
X132651500Y-113411000D01*
X133540500Y-113665000D02*
X133540500Y-113411000D01*
X133540500Y-113665000D02*
X133540500Y-113919000D01*
X142049500Y-121539000D02*
X142049500Y-121793000D01*
X142049500Y-121539000D02*
X142049500Y-121285000D01*
X142938500Y-121539000D02*
X142938500Y-121285000D01*
X142938500Y-121539000D02*
X142938500Y-121793000D01*
X145288000Y-110871000D02*
X145288000Y-110617000D01*
X146558000Y-110871000D02*
X146558000Y-110617000D01*
X153543000Y-110871000D02*
X153543000Y-110617000D01*
X154813000Y-110871000D02*
X154813000Y-110617000D01*
X161798000Y-110871000D02*
X161798000Y-110617000D01*
X159766000Y-101981000D02*
X159766000Y-101727000D01*
X149606000Y-102997000D02*
X149606000Y-102336600D01*
X151003000Y-102984300D02*
X151003000Y-102336600D01*
X144018000Y-110617000D02*
X144018000Y-101727000D01*
X164338000Y-101727000D02*
X159766000Y-101727000D01*
X152146000Y-102997000D02*
X145288000Y-102997000D01*
X145288000Y-109347000D02*
X145288000Y-102997000D01*
X163068000Y-109347000D02*
X163068000Y-102997000D01*
X164338000Y-110617000D02*
X164338000Y-101727000D01*
X164338000Y-110617000D02*
X163068000Y-110617000D01*
X163068000Y-109347000D02*
X145288000Y-109347000D01*
X158496000Y-101727000D02*
X152019000Y-101727000D01*
X156210000Y-102997000D02*
X163068000Y-102997000D01*
X144018000Y-110617000D02*
X145288000Y-110617000D01*
X145288000Y-110871000D02*
X146558000Y-110871000D01*
X146558000Y-110617000D02*
X153543000Y-110617000D01*
X153543000Y-110871000D02*
X154813000Y-110871000D01*
X154813000Y-110617000D02*
X161798000Y-110617000D01*
X161798000Y-110871000D02*
X163068000Y-110871000D01*
X163068000Y-110871000D02*
X163068000Y-110617000D01*
X148717000Y-101727000D02*
X144018000Y-101727000D01*
X152146000Y-103759000D02*
X152146000Y-101727000D01*
X152019000Y-101727000D02*
X151384000Y-102235000D01*
X151384000Y-102235000D02*
X149098000Y-102235000D01*
X149098000Y-102235000D02*
X148717000Y-101727000D01*
X156210000Y-101727000D02*
X156210000Y-103759000D01*
X156210000Y-103759000D02*
X152146000Y-103759000D01*
X159766000Y-101981000D02*
X158496000Y-101981000D01*
X158496000Y-101981000D02*
X158496000Y-101727000D01*
X146380200Y-118999000D02*
X147091400Y-118999000D01*
X147091400Y-118160800D02*
X147091400Y-118999000D01*
X144246600Y-118160800D02*
X144246600Y-118999000D01*
X144246600Y-118999000D02*
X144957800Y-118999000D01*
X149923500Y-134620000D02*
X149923500Y-134874000D01*
X149923500Y-134620000D02*
X149923500Y-134366000D01*
X150812500Y-134620000D02*
X150812500Y-134366000D01*
X150812500Y-134620000D02*
X150812500Y-134874000D01*
X151828500Y-134620000D02*
X151828500Y-134366000D01*
X151828500Y-134620000D02*
X151828500Y-134874000D01*
X150939500Y-134620000D02*
X150939500Y-134874000D01*
X150939500Y-134620000D02*
X150939500Y-134366000D01*
X175120300Y-135077200D02*
X175120300Y-136207500D01*
X177927000Y-135077200D02*
X177927000Y-136207500D01*
X189230000Y-110109000D02*
X189230000Y-110363000D01*
X189230000Y-110363000D02*
X189230000Y-112395000D01*
X189230000Y-112395000D02*
X188976000Y-112649000D01*
X188976000Y-112649000D02*
X189230000Y-112903000D01*
X189230000Y-112903000D02*
X189230000Y-114935000D01*
X189230000Y-114935000D02*
X188976000Y-115189000D01*
X188976000Y-115189000D02*
X189230000Y-115443000D01*
X189230000Y-115443000D02*
X189230000Y-117475000D01*
X189230000Y-117475000D02*
X188976000Y-117729000D01*
X188976000Y-117729000D02*
X186944000Y-117729000D01*
X186944000Y-117729000D02*
X186690000Y-117475000D01*
X186690000Y-117475000D02*
X186690000Y-115443000D01*
X188976000Y-110109000D02*
X189230000Y-110363000D01*
X186690000Y-110363000D02*
X186944000Y-110109000D01*
X186690000Y-110617000D02*
X186690000Y-110109000D01*
X186690000Y-114935000D02*
X186690000Y-112903000D01*
X186690000Y-112903000D02*
X186944000Y-112649000D01*
X186944000Y-112649000D02*
X186690000Y-112395000D01*
X186690000Y-112395000D02*
X186690000Y-110617000D01*
X186690000Y-114935000D02*
X186944000Y-115189000D01*
X186944000Y-115189000D02*
X186690000Y-115443000D01*
X189230000Y-110109000D02*
X186690000Y-110109000D01*
X177673000Y-109982000D02*
X176657000Y-109982000D01*
X177673000Y-112014000D02*
X176657000Y-112014000D01*
X170561000Y-109728000D02*
X169545000Y-109728000D01*
X170561000Y-111760000D02*
X169545000Y-111760000D01*
X149098000Y-115379500D02*
X148844000Y-115379500D01*
X149098000Y-115379500D02*
X149352000Y-115379500D01*
X149098000Y-116268500D02*
X149352000Y-116268500D01*
X149098000Y-116268500D02*
X148844000Y-116268500D01*
X145669000Y-115379500D02*
X145415000Y-115379500D01*
X145669000Y-115379500D02*
X145923000Y-115379500D01*
X145669000Y-116268500D02*
X145923000Y-116268500D01*
X145669000Y-116268500D02*
X145415000Y-116268500D01*
X144208500Y-121539000D02*
X144208500Y-121285000D01*
X144208500Y-121539000D02*
X144208500Y-121793000D01*
X143319500Y-121539000D02*
X143319500Y-121793000D01*
X143319500Y-121539000D02*
X143319500Y-121285000D01*
X149809200Y-118999000D02*
X150520400Y-118999000D01*
X150520400Y-118160800D02*
X150520400Y-118999000D01*
X147675600Y-118160800D02*
X147675600Y-118999000D01*
X147675600Y-118999000D02*
X148386800Y-118999000D01*
X147383500Y-121539000D02*
X147383500Y-121793000D01*
X147383500Y-121539000D02*
X147383500Y-121285000D01*
X148272500Y-121539000D02*
X148272500Y-121285000D01*
X148272500Y-121539000D02*
X148272500Y-121793000D01*
X145224500Y-121539000D02*
X145224500Y-121793000D01*
X145224500Y-121539000D02*
X145224500Y-121285000D01*
X146113500Y-121539000D02*
X146113500Y-121285000D01*
X146113500Y-121539000D02*
X146113500Y-121793000D01*
X180243480Y-134701280D02*
X180243480Y-139194540D01*
X186278520Y-134701280D02*
X180243480Y-134701280D01*
X186278520Y-139217400D02*
X186278520Y-134701280D01*
X180230780Y-139217400D02*
X186278520Y-139217400D01*
X132397500Y-116459000D02*
X132397500Y-116713000D01*
X132397500Y-116459000D02*
X132397500Y-116205000D01*
X133286500Y-116459000D02*
X133286500Y-116205000D01*
X133286500Y-116459000D02*
X133286500Y-116713000D01*
X133731000Y-111823500D02*
X133985000Y-111823500D01*
X133731000Y-111823500D02*
X133477000Y-111823500D01*
X133731000Y-110934500D02*
X133477000Y-110934500D01*
X133731000Y-110934500D02*
X133985000Y-110934500D01*
X133731000Y-108902500D02*
X133985000Y-108902500D01*
X133731000Y-108902500D02*
X133477000Y-108902500D01*
X133731000Y-108013500D02*
X133477000Y-108013500D01*
X133731000Y-108013500D02*
X133985000Y-108013500D01*
X131508500Y-116459000D02*
X131508500Y-116713000D01*
X131508500Y-116459000D02*
X131508500Y-116205000D01*
X132397500Y-116459000D02*
X132397500Y-116205000D01*
X132397500Y-116459000D02*
X132397500Y-116713000D01*
X133731000Y-110934500D02*
X133985000Y-110934500D01*
X133731000Y-110934500D02*
X133477000Y-110934500D01*
X133731000Y-110045500D02*
X133477000Y-110045500D01*
X133731000Y-110045500D02*
X133985000Y-110045500D01*
X133540500Y-113665000D02*
X133540500Y-113919000D01*
X133540500Y-113665000D02*
X133540500Y-113411000D01*
X134429500Y-113665000D02*
X134429500Y-113411000D01*
X134429500Y-113665000D02*
X134429500Y-113919000D01*
X133731000Y-109791500D02*
X133985000Y-109791500D01*
X133731000Y-109791500D02*
X133477000Y-109791500D01*
X133731000Y-108902500D02*
X133477000Y-108902500D01*
X133731000Y-108902500D02*
X133985000Y-108902500D01*
X137033000Y-126492000D02*
X137033000Y-127508000D01*
X138557000Y-126492000D02*
X138557000Y-127508000D01*
X179832000Y-135763000D02*
X179832000Y-134747000D01*
X178308000Y-135763000D02*
X178308000Y-134747000D01*
X189611000Y-138023600D02*
X189611000Y-136982200D01*
X189776100Y-137096500D02*
X189776100Y-137922000D01*
X189623700Y-138061700D02*
X189763400Y-137934700D01*
X189623700Y-136969500D02*
X189776100Y-137096500D01*
D13*
X188184800Y-137765600D02*
X188054800Y-137875600D01*
X188044800Y-137895600D02*
X188124800Y-137885600D01*
X188044800Y-137895600D02*
X188044800Y-137815600D01*
X188260200Y-137895600D02*
X188260200Y-137815600D01*
X188260200Y-137895600D02*
X188340200Y-137885600D01*
X188391800Y-137786600D02*
X188261800Y-137896600D01*
D12*
X188314000Y-137431000D02*
X188314000Y-137651000D01*
X188124000Y-137651000D02*
X188224000Y-137551000D01*
X188124000Y-137431000D02*
X188234000Y-137531000D01*
X188124000Y-137431000D02*
X188124000Y-137651000D01*
X187954000Y-137541000D02*
X188474000Y-137541000D01*
D14*
X188595000Y-136906000D02*
X189611000Y-136906000D01*
X189611000Y-138125200D02*
X188595000Y-138125200D01*
D10*
X172529500Y-137287000D02*
X172529500Y-137033000D01*
X172529500Y-137287000D02*
X172529500Y-137541000D01*
X171640500Y-137287000D02*
X171640500Y-137541000D01*
X171640500Y-137287000D02*
X171640500Y-137033000D01*
X174561500Y-137287000D02*
X174561500Y-137033000D01*
X174561500Y-137287000D02*
X174561500Y-137541000D01*
X173672500Y-137287000D02*
X173672500Y-137541000D01*
X173672500Y-137287000D02*
X173672500Y-137033000D01*
X172656500Y-137287000D02*
X172656500Y-137541000D01*
X172656500Y-137287000D02*
X172656500Y-137033000D01*
X173545500Y-137287000D02*
X173545500Y-137033000D01*
X173545500Y-137287000D02*
X173545500Y-137541000D01*
X163385500Y-135128000D02*
X163385500Y-135382000D01*
X163385500Y-135128000D02*
X163385500Y-134874000D01*
X164274500Y-135128000D02*
X164274500Y-134874000D01*
X164274500Y-135128000D02*
X164274500Y-135382000D01*
X151066500Y-137541000D02*
X151066500Y-137795000D01*
X151066500Y-137541000D02*
X151066500Y-137287000D01*
X151955500Y-137541000D02*
X151955500Y-137287000D01*
X151955500Y-137541000D02*
X151955500Y-137795000D01*
X149796500Y-134620000D02*
X149796500Y-134366000D01*
X149796500Y-134620000D02*
X149796500Y-134874000D01*
X148907500Y-134620000D02*
X148907500Y-134874000D01*
X148907500Y-134620000D02*
X148907500Y-134366000D01*
X174117000Y-110236000D02*
X173101000Y-110236000D01*
X174117000Y-111760000D02*
X173101000Y-111760000D01*
X163322000Y-133032500D02*
X163068000Y-133032500D01*
X163322000Y-133032500D02*
X163576000Y-133032500D01*
X163322000Y-133921500D02*
X163576000Y-133921500D01*
X163322000Y-133921500D02*
X163068000Y-133921500D01*
X162306000Y-135064500D02*
X162560000Y-135064500D01*
X162306000Y-135064500D02*
X162052000Y-135064500D01*
X162306000Y-134175500D02*
X162052000Y-134175500D01*
X162306000Y-134175500D02*
X162560000Y-134175500D01*
X148780500Y-134620000D02*
X148780500Y-134366000D01*
X148780500Y-134620000D02*
X148780500Y-134874000D01*
X147891500Y-134620000D02*
X147891500Y-134874000D01*
X147891500Y-134620000D02*
X147891500Y-134366000D01*
X180213000Y-111760000D02*
X181229000Y-111760000D01*
X180213000Y-110236000D02*
X181229000Y-110236000D01*
X161226500Y-135128000D02*
X161226500Y-134874000D01*
X161226500Y-135128000D02*
X161226500Y-135382000D01*
X160337500Y-135128000D02*
X160337500Y-135382000D01*
X160337500Y-135128000D02*
X160337500Y-134874000D01*
X150050500Y-137541000D02*
X150050500Y-137795000D01*
X150050500Y-137541000D02*
X150050500Y-137287000D01*
X150939500Y-137541000D02*
X150939500Y-137287000D01*
X150939500Y-137541000D02*
X150939500Y-137795000D01*
X165862000Y-110299500D02*
X166116000Y-110299500D01*
X165862000Y-110299500D02*
X165608000Y-110299500D01*
X165862000Y-109410500D02*
X165608000Y-109410500D01*
X165862000Y-109410500D02*
X166116000Y-109410500D01*
X165862000Y-110426500D02*
X165608000Y-110426500D01*
X165862000Y-110426500D02*
X166116000Y-110426500D01*
X165862000Y-111315500D02*
X166116000Y-111315500D01*
X165862000Y-111315500D02*
X165608000Y-111315500D01*
X153883000Y-133290000D02*
X158283000Y-133290000D01*
X153883000Y-138490000D02*
X158283000Y-138490000D01*
X158283000Y-133290000D02*
X158283000Y-133590000D01*
X153883000Y-133590000D02*
X153883000Y-133290000D01*
X153883000Y-138190000D02*
X153883000Y-138490000D01*
X158283000Y-138190000D02*
X158283000Y-138490000D01*
X142735300Y-116611400D02*
X142735300Y-119087900D01*
X143687800Y-117195600D02*
X142773400Y-118567200D01*
X142773400Y-118567200D02*
X141782800Y-117195600D01*
X143687800Y-118567200D02*
X141782800Y-118567200D01*
X143687800Y-117195600D02*
X141782800Y-117195600D01*
X143687800Y-118745000D02*
X141782800Y-118745000D01*
X141782800Y-118567200D02*
X141782800Y-118745000D01*
X143687800Y-118567200D02*
X143687800Y-118745000D01*
X141986000Y-117348000D02*
X143510000Y-117348000D01*
X143383000Y-117475000D02*
X142113000Y-117475000D01*
X142240000Y-117602000D02*
X143383000Y-117602000D01*
X143129000Y-117729000D02*
X142240000Y-117729000D01*
X143129000Y-117856000D02*
X142367000Y-117856000D01*
X143002000Y-117983000D02*
X142367000Y-117983000D01*
X142875000Y-118110000D02*
X142494000Y-118110000D01*
X141147800Y-129032000D02*
X140309600Y-129032000D01*
X141147800Y-127254000D02*
X140309600Y-127254000D01*
X143065500Y-128778000D02*
X143065500Y-129032000D01*
X143065500Y-128778000D02*
X143065500Y-128524000D01*
X143954500Y-128778000D02*
X143954500Y-128524000D01*
X143954500Y-128778000D02*
X143954500Y-129032000D01*
X140030200Y-120929400D02*
X140030200Y-121145300D01*
X137083800Y-120929400D02*
X140030200Y-120929400D01*
X137083800Y-121119900D02*
X137083800Y-120929400D01*
X140030200Y-124942600D02*
X140030200Y-124726700D01*
X137083800Y-124917200D02*
X137083800Y-124739400D01*
X137083800Y-124929900D02*
X140030200Y-124929900D01*
X188587000Y-133291000D02*
X187587000Y-133291000D01*
X188587000Y-129091000D02*
X187587000Y-129091000D01*
X189787000Y-129091000D02*
X189687000Y-129091000D01*
X189787000Y-133291000D02*
X189787000Y-129091000D01*
X189687000Y-133291000D02*
X189787000Y-133291000D01*
X186387000Y-133291000D02*
X186487000Y-133291000D01*
X186387000Y-129091000D02*
X186487000Y-129091000D01*
X186387000Y-133291000D02*
X186387000Y-129091000D01*
X143151000Y-104600000D02*
X143151000Y-107950000D01*
G36*
X143151000Y-104600000D02*
G01*
X141097000Y-104600000D01*
X141097000Y-107950000D01*
X143151000Y-107950000D01*
X143151000Y-104600000D01*
G37*
X143151000Y-104600000D02*
X141097000Y-104600000D01*
X141097000Y-107950000D01*
X143151000Y-107950000D01*
X143151000Y-104600000D01*
X124650500Y-105984040D02*
X120650000Y-104983280D01*
X124650500Y-106982260D02*
X124650500Y-105984040D01*
X120650000Y-107983020D02*
X124650500Y-106982260D01*
X124650500Y-113979960D02*
X120650000Y-114980720D01*
X124650500Y-112981740D02*
X124650500Y-113979960D01*
X120650000Y-111980980D02*
X124650500Y-112981740D01*
X131066540Y-104482900D02*
X131066540Y-103096060D01*
X130566160Y-104482900D02*
X131066540Y-104482900D01*
X131066540Y-115481100D02*
X130566160Y-115481100D01*
X131066540Y-116855240D02*
X131066540Y-115481100D01*
X125016260Y-102483920D02*
X127167640Y-102483920D01*
X118910100Y-102483920D02*
X121818400Y-102483920D01*
X118910100Y-117480080D02*
X118910100Y-102483920D01*
X121818400Y-117480080D02*
X118910100Y-117480080D01*
X127167640Y-117480080D02*
X125016260Y-117480080D01*
X130566160Y-115481100D02*
X130566160Y-116380260D01*
X130566160Y-114881660D02*
X130566160Y-115481100D01*
X130566160Y-104482900D02*
X130566160Y-105082340D01*
X130566160Y-103583740D02*
X130566160Y-104482900D01*
X190500000Y-126492000D02*
X189484000Y-126111000D01*
X190500000Y-118364000D02*
X189484000Y-118745000D01*
X184971000Y-118728000D02*
X186171000Y-118728000D01*
X189471000Y-126128000D02*
X188471000Y-126128000D01*
X190571000Y-118364000D02*
X190571000Y-126492000D01*
X188471000Y-118728000D02*
X189471000Y-118728000D01*
X183471000Y-119628000D02*
X183471000Y-120628000D01*
X183471000Y-124228000D02*
X183471000Y-125228000D01*
X184971000Y-126128000D02*
X186171000Y-126128000D01*
X189471000Y-118728000D02*
X189471000Y-126128000D01*
D15*
X177427465Y-103338501D02*
X177775130Y-103258236D01*
X177406091Y-103563153D02*
X177480900Y-102776872D01*
X177892821Y-103450782D01*
X177967631Y-102664501D02*
X178104081Y-103255531D01*
X178154900Y-103317037D01*
X178197693Y-103343777D01*
X178275252Y-103362491D01*
X178414318Y-103330385D01*
X178475824Y-103279566D01*
X178502564Y-103236773D01*
X178521278Y-103159213D01*
X178384828Y-102568184D01*
X178901048Y-103218014D02*
X178732493Y-102487919D01*
X178906325Y-102447787D01*
X179018651Y-102458474D01*
X179104236Y-102511954D01*
X179155056Y-102573460D01*
X179221928Y-102704499D01*
X179246008Y-102808799D01*
X179243347Y-102955891D01*
X179224633Y-103033450D01*
X179171153Y-103119036D01*
X179074881Y-103177882D01*
X178901048Y-103218014D01*
X179631144Y-103049459D02*
X179462588Y-102319363D01*
X179949318Y-102206993D02*
X180088384Y-102174887D01*
X180165944Y-102193600D01*
X180251529Y-102247080D01*
X180318402Y-102378120D01*
X180374587Y-102621485D01*
X180371926Y-102768577D01*
X180318446Y-102854163D01*
X180256940Y-102904982D01*
X180117874Y-102937088D01*
X180040315Y-102918375D01*
X179954729Y-102864895D01*
X179887857Y-102733855D01*
X179831671Y-102490490D01*
X179834332Y-102343398D01*
X179887812Y-102257812D01*
X179949318Y-102206993D01*
X180585891Y-102902277D02*
X181142154Y-102773853D01*
X181339976Y-101885934D02*
X181460373Y-102407431D01*
X181449686Y-102519756D01*
X181396206Y-102605342D01*
X181299934Y-102664188D01*
X181230401Y-102680241D01*
X181773271Y-102335192D02*
X182120936Y-102254928D01*
X181751897Y-102559844D02*
X181826707Y-101773563D01*
X182238628Y-102447474D01*
X182883137Y-102225438D02*
X182856397Y-102268231D01*
X182760125Y-102327077D01*
X182690592Y-102343129D01*
X182578266Y-102332442D01*
X182492680Y-102278962D01*
X182441861Y-102217456D01*
X182374988Y-102086417D01*
X182350909Y-101982117D01*
X182353569Y-101835025D01*
X182372283Y-101757466D01*
X182425763Y-101671880D01*
X182522036Y-101613034D01*
X182591569Y-101596981D01*
X182703895Y-101607668D01*
X182746687Y-101634408D01*
X183212088Y-102222732D02*
X183043533Y-101492637D01*
X183629286Y-102126415D02*
X183220070Y-101781456D01*
X183460730Y-101396319D02*
X183139850Y-101909834D01*
X183784405Y-102163842D02*
X184340668Y-102035418D01*
X184880878Y-101837462D02*
X184463681Y-101933780D01*
X184672279Y-101885621D02*
X184503724Y-101155525D01*
X184458270Y-101275878D01*
X184404790Y-101361463D01*
X184343284Y-101412283D01*
D11*
X175387000Y-133041571D02*
X175133000Y-133041571D01*
X175133000Y-133440714D02*
X175133000Y-132678714D01*
X175495857Y-132678714D01*
X175786142Y-133041571D02*
X176040142Y-133041571D01*
X176149000Y-133440714D02*
X175786142Y-133440714D01*
X175786142Y-132678714D01*
X176149000Y-132678714D01*
X176366714Y-132678714D02*
X176802142Y-132678714D01*
X176584428Y-133440714D02*
X176584428Y-132678714D01*
X177455285Y-133440714D02*
X177019857Y-133440714D01*
X177237571Y-133440714D02*
X177237571Y-132678714D01*
X177165000Y-132787571D01*
X177092428Y-132860142D01*
X177019857Y-132896428D01*
D10*
X136095619Y-129848428D02*
X135079619Y-129848428D01*
X135805333Y-129509761D01*
X135079619Y-129171095D01*
X136095619Y-129171095D01*
X136095619Y-128687285D02*
X135079619Y-128687285D01*
X135998857Y-127622904D02*
X136047238Y-127671285D01*
X136095619Y-127816428D01*
X136095619Y-127913190D01*
X136047238Y-128058333D01*
X135950476Y-128155095D01*
X135853714Y-128203476D01*
X135660190Y-128251857D01*
X135515047Y-128251857D01*
X135321523Y-128203476D01*
X135224761Y-128155095D01*
X135128000Y-128058333D01*
X135079619Y-127913190D01*
X135079619Y-127816428D01*
X135128000Y-127671285D01*
X135176380Y-127622904D01*
X136095619Y-126606904D02*
X135611809Y-126945571D01*
X136095619Y-127187476D02*
X135079619Y-127187476D01*
X135079619Y-126800428D01*
X135128000Y-126703666D01*
X135176380Y-126655285D01*
X135273142Y-126606904D01*
X135418285Y-126606904D01*
X135515047Y-126655285D01*
X135563428Y-126703666D01*
X135611809Y-126800428D01*
X135611809Y-127187476D01*
X135079619Y-125977952D02*
X135079619Y-125784428D01*
X135128000Y-125687666D01*
X135224761Y-125590904D01*
X135418285Y-125542523D01*
X135756952Y-125542523D01*
X135950476Y-125590904D01*
X136047238Y-125687666D01*
X136095619Y-125784428D01*
X136095619Y-125977952D01*
X136047238Y-126074714D01*
X135950476Y-126171476D01*
X135756952Y-126219857D01*
X135418285Y-126219857D01*
X135224761Y-126171476D01*
X135128000Y-126074714D01*
X135079619Y-125977952D01*
X136192380Y-125349000D02*
X136192380Y-124574904D01*
X136047238Y-124381380D02*
X136095619Y-124236238D01*
X136095619Y-123994333D01*
X136047238Y-123897571D01*
X135998857Y-123849190D01*
X135902095Y-123800809D01*
X135805333Y-123800809D01*
X135708571Y-123849190D01*
X135660190Y-123897571D01*
X135611809Y-123994333D01*
X135563428Y-124187857D01*
X135515047Y-124284619D01*
X135466666Y-124333000D01*
X135369904Y-124381380D01*
X135273142Y-124381380D01*
X135176380Y-124333000D01*
X135128000Y-124284619D01*
X135079619Y-124187857D01*
X135079619Y-123945952D01*
X135128000Y-123800809D01*
X136095619Y-123365380D02*
X135079619Y-123365380D01*
X135079619Y-123123476D01*
X135128000Y-122978333D01*
X135224761Y-122881571D01*
X135321523Y-122833190D01*
X135515047Y-122784809D01*
X135660190Y-122784809D01*
X135853714Y-122833190D01*
X135950476Y-122881571D01*
X136047238Y-122978333D01*
X136095619Y-123123476D01*
X136095619Y-123365380D01*
X136095619Y-121817190D02*
X136095619Y-122397761D01*
X136095619Y-122107476D02*
X135079619Y-122107476D01*
X135224761Y-122204238D01*
X135321523Y-122301000D01*
X135369904Y-122397761D01*
D11*
X134456714Y-116186857D02*
X134093857Y-116440857D01*
X134456714Y-116622285D02*
X133694714Y-116622285D01*
X133694714Y-116332000D01*
X133731000Y-116259428D01*
X133767285Y-116223142D01*
X133839857Y-116186857D01*
X133948714Y-116186857D01*
X134021285Y-116223142D01*
X134057571Y-116259428D01*
X134093857Y-116332000D01*
X134093857Y-116622285D01*
X134456714Y-115461142D02*
X134456714Y-115896571D01*
X134456714Y-115678857D02*
X133694714Y-115678857D01*
X133803571Y-115751428D01*
X133876142Y-115824000D01*
X133912428Y-115896571D01*
X133767285Y-115170857D02*
X133731000Y-115134571D01*
X133694714Y-115062000D01*
X133694714Y-114880571D01*
X133731000Y-114808000D01*
X133767285Y-114771714D01*
X133839857Y-114735428D01*
X133912428Y-114735428D01*
X134021285Y-114771714D01*
X134456714Y-115207142D01*
X134456714Y-114735428D01*
X141369142Y-123534714D02*
X141115142Y-123171857D01*
X140933714Y-123534714D02*
X140933714Y-122772714D01*
X141224000Y-122772714D01*
X141296571Y-122809000D01*
X141332857Y-122845285D01*
X141369142Y-122917857D01*
X141369142Y-123026714D01*
X141332857Y-123099285D01*
X141296571Y-123135571D01*
X141224000Y-123171857D01*
X140933714Y-123171857D01*
X141659428Y-122845285D02*
X141695714Y-122809000D01*
X141768285Y-122772714D01*
X141949714Y-122772714D01*
X142022285Y-122809000D01*
X142058571Y-122845285D01*
X142094857Y-122917857D01*
X142094857Y-122990428D01*
X142058571Y-123099285D01*
X141623142Y-123534714D01*
X142094857Y-123534714D01*
X142784285Y-122772714D02*
X142421428Y-122772714D01*
X142385142Y-123135571D01*
X142421428Y-123099285D01*
X142494000Y-123063000D01*
X142675428Y-123063000D01*
X142748000Y-123099285D01*
X142784285Y-123135571D01*
X142820571Y-123208142D01*
X142820571Y-123389571D01*
X142784285Y-123462142D01*
X142748000Y-123498428D01*
X142675428Y-123534714D01*
X142494000Y-123534714D01*
X142421428Y-123498428D01*
X142385142Y-123462142D01*
D10*
X156264428Y-110949619D02*
X156264428Y-111772095D01*
X156312809Y-111868857D01*
X156361190Y-111917238D01*
X156457952Y-111965619D01*
X156651476Y-111965619D01*
X156748238Y-111917238D01*
X156796619Y-111868857D01*
X156845000Y-111772095D01*
X156845000Y-110949619D01*
X157328809Y-111433428D02*
X157667476Y-111433428D01*
X157812619Y-111965619D02*
X157328809Y-111965619D01*
X157328809Y-110949619D01*
X157812619Y-110949619D01*
X158151285Y-110949619D02*
X158828619Y-111965619D01*
X158828619Y-110949619D02*
X158151285Y-111965619D01*
X159070523Y-110949619D02*
X159651095Y-110949619D01*
X159360809Y-111965619D02*
X159360809Y-110949619D01*
X160521952Y-111965619D02*
X159941380Y-111965619D01*
X160231666Y-111965619D02*
X160231666Y-110949619D01*
X160134904Y-111094761D01*
X160038142Y-111191523D01*
X159941380Y-111239904D01*
X146570095Y-108016523D02*
X145844380Y-108016523D01*
X146207238Y-108016523D02*
X146207238Y-106746523D01*
X146086285Y-106927952D01*
X145965333Y-107048904D01*
X145844380Y-107109380D01*
X147356285Y-106746523D02*
X147477238Y-106746523D01*
X147598190Y-106807000D01*
X147658666Y-106867476D01*
X147719142Y-106988428D01*
X147779619Y-107230333D01*
X147779619Y-107532714D01*
X147719142Y-107774619D01*
X147658666Y-107895571D01*
X147598190Y-107956047D01*
X147477238Y-108016523D01*
X147356285Y-108016523D01*
X147235333Y-107956047D01*
X147174857Y-107895571D01*
X147114380Y-107774619D01*
X147053904Y-107532714D01*
X147053904Y-107230333D01*
X147114380Y-106988428D01*
X147174857Y-106867476D01*
X147235333Y-106807000D01*
X147356285Y-106746523D01*
D11*
X153234571Y-120015000D02*
X153234571Y-120269000D01*
X153633714Y-120269000D02*
X152871714Y-120269000D01*
X152871714Y-119906142D01*
X153234571Y-119615857D02*
X153234571Y-119361857D01*
X153633714Y-119253000D02*
X153633714Y-119615857D01*
X152871714Y-119615857D01*
X152871714Y-119253000D01*
X152871714Y-119035285D02*
X152871714Y-118599857D01*
X153633714Y-118817571D02*
X152871714Y-118817571D01*
X152944285Y-118382142D02*
X152908000Y-118345857D01*
X152871714Y-118273285D01*
X152871714Y-118091857D01*
X152908000Y-118019285D01*
X152944285Y-117983000D01*
X153016857Y-117946714D01*
X153089428Y-117946714D01*
X153198285Y-117983000D01*
X153633714Y-118418428D01*
X153633714Y-117946714D01*
X146267714Y-135109857D02*
X145904857Y-135363857D01*
X146267714Y-135545285D02*
X145505714Y-135545285D01*
X145505714Y-135255000D01*
X145542000Y-135182428D01*
X145578285Y-135146142D01*
X145650857Y-135109857D01*
X145759714Y-135109857D01*
X145832285Y-135146142D01*
X145868571Y-135182428D01*
X145904857Y-135255000D01*
X145904857Y-135545285D01*
X146267714Y-134384142D02*
X146267714Y-134819571D01*
X146267714Y-134601857D02*
X145505714Y-134601857D01*
X145614571Y-134674428D01*
X145687142Y-134747000D01*
X145723428Y-134819571D01*
X146267714Y-134021285D02*
X146267714Y-133876142D01*
X146231428Y-133803571D01*
X146195142Y-133767285D01*
X146086285Y-133694714D01*
X145941142Y-133658428D01*
X145650857Y-133658428D01*
X145578285Y-133694714D01*
X145542000Y-133731000D01*
X145505714Y-133803571D01*
X145505714Y-133948714D01*
X145542000Y-134021285D01*
X145578285Y-134057571D01*
X145650857Y-134093857D01*
X145832285Y-134093857D01*
X145904857Y-134057571D01*
X145941142Y-134021285D01*
X145977428Y-133948714D01*
X145977428Y-133803571D01*
X145941142Y-133731000D01*
X145904857Y-133694714D01*
X145832285Y-133658428D01*
X147537714Y-135109857D02*
X147174857Y-135363857D01*
X147537714Y-135545285D02*
X146775714Y-135545285D01*
X146775714Y-135255000D01*
X146812000Y-135182428D01*
X146848285Y-135146142D01*
X146920857Y-135109857D01*
X147029714Y-135109857D01*
X147102285Y-135146142D01*
X147138571Y-135182428D01*
X147174857Y-135255000D01*
X147174857Y-135545285D01*
X146848285Y-134819571D02*
X146812000Y-134783285D01*
X146775714Y-134710714D01*
X146775714Y-134529285D01*
X146812000Y-134456714D01*
X146848285Y-134420428D01*
X146920857Y-134384142D01*
X146993428Y-134384142D01*
X147102285Y-134420428D01*
X147537714Y-134855857D01*
X147537714Y-134384142D01*
X146848285Y-134093857D02*
X146812000Y-134057571D01*
X146775714Y-133985000D01*
X146775714Y-133803571D01*
X146812000Y-133731000D01*
X146848285Y-133694714D01*
X146920857Y-133658428D01*
X146993428Y-133658428D01*
X147102285Y-133694714D01*
X147537714Y-134130142D01*
X147537714Y-133658428D01*
X176965428Y-137885714D02*
X176965428Y-138502571D01*
X177001714Y-138575142D01*
X177038000Y-138611428D01*
X177110571Y-138647714D01*
X177255714Y-138647714D01*
X177328285Y-138611428D01*
X177364571Y-138575142D01*
X177400857Y-138502571D01*
X177400857Y-137885714D01*
X178162857Y-138647714D02*
X177727428Y-138647714D01*
X177945142Y-138647714D02*
X177945142Y-137885714D01*
X177872571Y-137994571D01*
X177800000Y-138067142D01*
X177727428Y-138103428D01*
X190336714Y-115497428D02*
X189574714Y-115497428D01*
X189574714Y-115316000D01*
X189611000Y-115207142D01*
X189683571Y-115134571D01*
X189756142Y-115098285D01*
X189901285Y-115062000D01*
X190010142Y-115062000D01*
X190155285Y-115098285D01*
X190227857Y-115134571D01*
X190300428Y-115207142D01*
X190336714Y-115316000D01*
X190336714Y-115497428D01*
X189937571Y-114481428D02*
X189973857Y-114372571D01*
X190010142Y-114336285D01*
X190082714Y-114300000D01*
X190191571Y-114300000D01*
X190264142Y-114336285D01*
X190300428Y-114372571D01*
X190336714Y-114445142D01*
X190336714Y-114735428D01*
X189574714Y-114735428D01*
X189574714Y-114481428D01*
X189611000Y-114408857D01*
X189647285Y-114372571D01*
X189719857Y-114336285D01*
X189792428Y-114336285D01*
X189865000Y-114372571D01*
X189901285Y-114408857D01*
X189937571Y-114481428D01*
X189937571Y-114735428D01*
X189611000Y-113574285D02*
X189574714Y-113646857D01*
X189574714Y-113755714D01*
X189611000Y-113864571D01*
X189683571Y-113937142D01*
X189756142Y-113973428D01*
X189901285Y-114009714D01*
X190010142Y-114009714D01*
X190155285Y-113973428D01*
X190227857Y-113937142D01*
X190300428Y-113864571D01*
X190336714Y-113755714D01*
X190336714Y-113683142D01*
X190300428Y-113574285D01*
X190264142Y-113538000D01*
X190010142Y-113538000D01*
X190010142Y-113683142D01*
X190336714Y-112812285D02*
X190336714Y-113247714D01*
X190336714Y-113030000D02*
X189574714Y-113030000D01*
X189683571Y-113102571D01*
X189756142Y-113175142D01*
X189792428Y-113247714D01*
X176657000Y-115588142D02*
X176620714Y-115624428D01*
X176511857Y-115660714D01*
X176439285Y-115660714D01*
X176330428Y-115624428D01*
X176257857Y-115551857D01*
X176221571Y-115479285D01*
X176185285Y-115334142D01*
X176185285Y-115225285D01*
X176221571Y-115080142D01*
X176257857Y-115007571D01*
X176330428Y-114935000D01*
X176439285Y-114898714D01*
X176511857Y-114898714D01*
X176620714Y-114935000D01*
X176657000Y-114971285D01*
X176911000Y-114898714D02*
X177419000Y-114898714D01*
X177092428Y-115660714D01*
X169672000Y-109238142D02*
X169635714Y-109274428D01*
X169526857Y-109310714D01*
X169454285Y-109310714D01*
X169345428Y-109274428D01*
X169272857Y-109201857D01*
X169236571Y-109129285D01*
X169200285Y-108984142D01*
X169200285Y-108875285D01*
X169236571Y-108730142D01*
X169272857Y-108657571D01*
X169345428Y-108585000D01*
X169454285Y-108548714D01*
X169526857Y-108548714D01*
X169635714Y-108585000D01*
X169672000Y-108621285D01*
X169926000Y-108548714D02*
X170397714Y-108548714D01*
X170143714Y-108839000D01*
X170252571Y-108839000D01*
X170325142Y-108875285D01*
X170361428Y-108911571D01*
X170397714Y-108984142D01*
X170397714Y-109165571D01*
X170361428Y-109238142D01*
X170325142Y-109274428D01*
X170252571Y-109310714D01*
X170034857Y-109310714D01*
X169962285Y-109274428D01*
X169926000Y-109238142D01*
X155284714Y-116948857D02*
X154921857Y-117202857D01*
X155284714Y-117384285D02*
X154522714Y-117384285D01*
X154522714Y-117094000D01*
X154559000Y-117021428D01*
X154595285Y-116985142D01*
X154667857Y-116948857D01*
X154776714Y-116948857D01*
X154849285Y-116985142D01*
X154885571Y-117021428D01*
X154921857Y-117094000D01*
X154921857Y-117384285D01*
X154595285Y-116658571D02*
X154559000Y-116622285D01*
X154522714Y-116549714D01*
X154522714Y-116368285D01*
X154559000Y-116295714D01*
X154595285Y-116259428D01*
X154667857Y-116223142D01*
X154740428Y-116223142D01*
X154849285Y-116259428D01*
X155284714Y-116694857D01*
X155284714Y-116223142D01*
X154849285Y-115787714D02*
X154813000Y-115860285D01*
X154776714Y-115896571D01*
X154704142Y-115932857D01*
X154667857Y-115932857D01*
X154595285Y-115896571D01*
X154559000Y-115860285D01*
X154522714Y-115787714D01*
X154522714Y-115642571D01*
X154559000Y-115570000D01*
X154595285Y-115533714D01*
X154667857Y-115497428D01*
X154704142Y-115497428D01*
X154776714Y-115533714D01*
X154813000Y-115570000D01*
X154849285Y-115642571D01*
X154849285Y-115787714D01*
X154885571Y-115860285D01*
X154921857Y-115896571D01*
X154994428Y-115932857D01*
X155139571Y-115932857D01*
X155212142Y-115896571D01*
X155248428Y-115860285D01*
X155284714Y-115787714D01*
X155284714Y-115642571D01*
X155248428Y-115570000D01*
X155212142Y-115533714D01*
X155139571Y-115497428D01*
X154994428Y-115497428D01*
X154921857Y-115533714D01*
X154885571Y-115570000D01*
X154849285Y-115642571D01*
X153633714Y-116948857D02*
X153270857Y-117202857D01*
X153633714Y-117384285D02*
X152871714Y-117384285D01*
X152871714Y-117094000D01*
X152908000Y-117021428D01*
X152944285Y-116985142D01*
X153016857Y-116948857D01*
X153125714Y-116948857D01*
X153198285Y-116985142D01*
X153234571Y-117021428D01*
X153270857Y-117094000D01*
X153270857Y-117384285D01*
X152944285Y-116658571D02*
X152908000Y-116622285D01*
X152871714Y-116549714D01*
X152871714Y-116368285D01*
X152908000Y-116295714D01*
X152944285Y-116259428D01*
X153016857Y-116223142D01*
X153089428Y-116223142D01*
X153198285Y-116259428D01*
X153633714Y-116694857D01*
X153633714Y-116223142D01*
X152871714Y-115570000D02*
X152871714Y-115715142D01*
X152908000Y-115787714D01*
X152944285Y-115824000D01*
X153053142Y-115896571D01*
X153198285Y-115932857D01*
X153488571Y-115932857D01*
X153561142Y-115896571D01*
X153597428Y-115860285D01*
X153633714Y-115787714D01*
X153633714Y-115642571D01*
X153597428Y-115570000D01*
X153561142Y-115533714D01*
X153488571Y-115497428D01*
X153307142Y-115497428D01*
X153234571Y-115533714D01*
X153198285Y-115570000D01*
X153162000Y-115642571D01*
X153162000Y-115787714D01*
X153198285Y-115860285D01*
X153234571Y-115896571D01*
X153307142Y-115932857D01*
X143891000Y-123534714D02*
X143637000Y-123171857D01*
X143455571Y-123534714D02*
X143455571Y-122772714D01*
X143745857Y-122772714D01*
X143818428Y-122809000D01*
X143854714Y-122845285D01*
X143891000Y-122917857D01*
X143891000Y-123026714D01*
X143854714Y-123099285D01*
X143818428Y-123135571D01*
X143745857Y-123171857D01*
X143455571Y-123171857D01*
X144544142Y-122772714D02*
X144399000Y-122772714D01*
X144326428Y-122809000D01*
X144290142Y-122845285D01*
X144217571Y-122954142D01*
X144181285Y-123099285D01*
X144181285Y-123389571D01*
X144217571Y-123462142D01*
X144253857Y-123498428D01*
X144326428Y-123534714D01*
X144471571Y-123534714D01*
X144544142Y-123498428D01*
X144580428Y-123462142D01*
X144616714Y-123389571D01*
X144616714Y-123208142D01*
X144580428Y-123135571D01*
X144544142Y-123099285D01*
X144471571Y-123063000D01*
X144326428Y-123063000D01*
X144253857Y-123099285D01*
X144217571Y-123135571D01*
X144181285Y-123208142D01*
X154885571Y-120015000D02*
X154885571Y-120269000D01*
X155284714Y-120269000D02*
X154522714Y-120269000D01*
X154522714Y-119906142D01*
X154885571Y-119615857D02*
X154885571Y-119361857D01*
X155284714Y-119253000D02*
X155284714Y-119615857D01*
X154522714Y-119615857D01*
X154522714Y-119253000D01*
X154522714Y-119035285D02*
X154522714Y-118599857D01*
X155284714Y-118817571D02*
X154522714Y-118817571D01*
X154522714Y-118418428D02*
X154522714Y-117946714D01*
X154813000Y-118200714D01*
X154813000Y-118091857D01*
X154849285Y-118019285D01*
X154885571Y-117983000D01*
X154958142Y-117946714D01*
X155139571Y-117946714D01*
X155212142Y-117983000D01*
X155248428Y-118019285D01*
X155284714Y-118091857D01*
X155284714Y-118309571D01*
X155248428Y-118382142D01*
X155212142Y-118418428D01*
X147828000Y-123534714D02*
X147574000Y-123171857D01*
X147392571Y-123534714D02*
X147392571Y-122772714D01*
X147682857Y-122772714D01*
X147755428Y-122809000D01*
X147791714Y-122845285D01*
X147828000Y-122917857D01*
X147828000Y-123026714D01*
X147791714Y-123099285D01*
X147755428Y-123135571D01*
X147682857Y-123171857D01*
X147392571Y-123171857D01*
X148082000Y-122772714D02*
X148553714Y-122772714D01*
X148299714Y-123063000D01*
X148408571Y-123063000D01*
X148481142Y-123099285D01*
X148517428Y-123135571D01*
X148553714Y-123208142D01*
X148553714Y-123389571D01*
X148517428Y-123462142D01*
X148481142Y-123498428D01*
X148408571Y-123534714D01*
X148190857Y-123534714D01*
X148118285Y-123498428D01*
X148082000Y-123462142D01*
X145669000Y-123534714D02*
X145415000Y-123171857D01*
X145233571Y-123534714D02*
X145233571Y-122772714D01*
X145523857Y-122772714D01*
X145596428Y-122809000D01*
X145632714Y-122845285D01*
X145669000Y-122917857D01*
X145669000Y-123026714D01*
X145632714Y-123099285D01*
X145596428Y-123135571D01*
X145523857Y-123171857D01*
X145233571Y-123171857D01*
X145959285Y-122845285D02*
X145995571Y-122809000D01*
X146068142Y-122772714D01*
X146249571Y-122772714D01*
X146322142Y-122809000D01*
X146358428Y-122845285D01*
X146394714Y-122917857D01*
X146394714Y-122990428D01*
X146358428Y-123099285D01*
X145923000Y-123534714D01*
X146394714Y-123534714D01*
D16*
X180340000Y-133794500D02*
X180467000Y-133836833D01*
X180509333Y-133879166D01*
X180551666Y-133963833D01*
X180551666Y-134090833D01*
X180509333Y-134175500D01*
X180467000Y-134217833D01*
X180382333Y-134260166D01*
X180043666Y-134260166D01*
X180043666Y-133371166D01*
X180340000Y-133371166D01*
X180424666Y-133413500D01*
X180467000Y-133455833D01*
X180509333Y-133540500D01*
X180509333Y-133625166D01*
X180467000Y-133709833D01*
X180424666Y-133752166D01*
X180340000Y-133794500D01*
X180043666Y-133794500D01*
X180890333Y-134006166D02*
X181313666Y-134006166D01*
X180805666Y-134260166D02*
X181102000Y-133371166D01*
X181398333Y-134260166D01*
X181567666Y-133371166D02*
X182075666Y-133371166D01*
X181821666Y-134260166D02*
X181821666Y-133371166D01*
X182160333Y-134344833D02*
X182837666Y-134344833D01*
X183557333Y-134175500D02*
X183515000Y-134217833D01*
X183388000Y-134260166D01*
X183303333Y-134260166D01*
X183176333Y-134217833D01*
X183091666Y-134133166D01*
X183049333Y-134048500D01*
X183007000Y-133879166D01*
X183007000Y-133752166D01*
X183049333Y-133582833D01*
X183091666Y-133498166D01*
X183176333Y-133413500D01*
X183303333Y-133371166D01*
X183388000Y-133371166D01*
X183515000Y-133413500D01*
X183557333Y-133455833D01*
X184107666Y-133371166D02*
X184277000Y-133371166D01*
X184361666Y-133413500D01*
X184446333Y-133498166D01*
X184488666Y-133667500D01*
X184488666Y-133963833D01*
X184446333Y-134133166D01*
X184361666Y-134217833D01*
X184277000Y-134260166D01*
X184107666Y-134260166D01*
X184023000Y-134217833D01*
X183938333Y-134133166D01*
X183896000Y-133963833D01*
X183896000Y-133667500D01*
X183938333Y-133498166D01*
X184023000Y-133413500D01*
X184107666Y-133371166D01*
X184869666Y-134260166D02*
X184869666Y-133371166D01*
X185377666Y-134260166D01*
X185377666Y-133371166D01*
X186266666Y-134260166D02*
X185758666Y-134260166D01*
X186012666Y-134260166D02*
X186012666Y-133371166D01*
X185928000Y-133498166D01*
X185843333Y-133582833D01*
X185758666Y-133625166D01*
D10*
X182568305Y-138607679D02*
X181987734Y-138607679D01*
X182278020Y-138607679D02*
X182278020Y-137591679D01*
X182181258Y-137736821D01*
X182084496Y-137833583D01*
X181987734Y-137881964D01*
X183991794Y-137637640D02*
X184040175Y-137589260D01*
X184136937Y-137540879D01*
X184378841Y-137540879D01*
X184475603Y-137589260D01*
X184523984Y-137637640D01*
X184572365Y-137734402D01*
X184572365Y-137831164D01*
X184523984Y-137976307D01*
X183943413Y-138556879D01*
X184572365Y-138556879D01*
D11*
X133313714Y-118364000D02*
X132950857Y-118618000D01*
X133313714Y-118799428D02*
X132551714Y-118799428D01*
X132551714Y-118509142D01*
X132588000Y-118436571D01*
X132624285Y-118400285D01*
X132696857Y-118364000D01*
X132805714Y-118364000D01*
X132878285Y-118400285D01*
X132914571Y-118436571D01*
X132950857Y-118509142D01*
X132950857Y-118799428D01*
X132551714Y-118110000D02*
X132551714Y-117602000D01*
X133313714Y-117928571D01*
X135400142Y-112231714D02*
X135146142Y-111868857D01*
X134964714Y-112231714D02*
X134964714Y-111469714D01*
X135255000Y-111469714D01*
X135327571Y-111506000D01*
X135363857Y-111542285D01*
X135400142Y-111614857D01*
X135400142Y-111723714D01*
X135363857Y-111796285D01*
X135327571Y-111832571D01*
X135255000Y-111868857D01*
X134964714Y-111868857D01*
X136125857Y-112231714D02*
X135690428Y-112231714D01*
X135908142Y-112231714D02*
X135908142Y-111469714D01*
X135835571Y-111578571D01*
X135763000Y-111651142D01*
X135690428Y-111687428D01*
X136379857Y-111469714D02*
X136851571Y-111469714D01*
X136597571Y-111760000D01*
X136706428Y-111760000D01*
X136779000Y-111796285D01*
X136815285Y-111832571D01*
X136851571Y-111905142D01*
X136851571Y-112086571D01*
X136815285Y-112159142D01*
X136779000Y-112195428D01*
X136706428Y-112231714D01*
X136488714Y-112231714D01*
X136416142Y-112195428D01*
X136379857Y-112159142D01*
X135400142Y-108802714D02*
X135146142Y-108439857D01*
X134964714Y-108802714D02*
X134964714Y-108040714D01*
X135255000Y-108040714D01*
X135327571Y-108077000D01*
X135363857Y-108113285D01*
X135400142Y-108185857D01*
X135400142Y-108294714D01*
X135363857Y-108367285D01*
X135327571Y-108403571D01*
X135255000Y-108439857D01*
X134964714Y-108439857D01*
X136125857Y-108802714D02*
X135690428Y-108802714D01*
X135908142Y-108802714D02*
X135908142Y-108040714D01*
X135835571Y-108149571D01*
X135763000Y-108222142D01*
X135690428Y-108258428D01*
X136597571Y-108040714D02*
X136670142Y-108040714D01*
X136742714Y-108077000D01*
X136779000Y-108113285D01*
X136815285Y-108185857D01*
X136851571Y-108331000D01*
X136851571Y-108512428D01*
X136815285Y-108657571D01*
X136779000Y-108730142D01*
X136742714Y-108766428D01*
X136670142Y-108802714D01*
X136597571Y-108802714D01*
X136525000Y-108766428D01*
X136488714Y-108730142D01*
X136452428Y-108657571D01*
X136416142Y-108512428D01*
X136416142Y-108331000D01*
X136452428Y-108185857D01*
X136488714Y-108113285D01*
X136525000Y-108077000D01*
X136597571Y-108040714D01*
X132043714Y-118980857D02*
X131680857Y-119234857D01*
X132043714Y-119416285D02*
X131281714Y-119416285D01*
X131281714Y-119126000D01*
X131318000Y-119053428D01*
X131354285Y-119017142D01*
X131426857Y-118980857D01*
X131535714Y-118980857D01*
X131608285Y-119017142D01*
X131644571Y-119053428D01*
X131680857Y-119126000D01*
X131680857Y-119416285D01*
X132043714Y-118255142D02*
X132043714Y-118690571D01*
X132043714Y-118472857D02*
X131281714Y-118472857D01*
X131390571Y-118545428D01*
X131463142Y-118618000D01*
X131499428Y-118690571D01*
X132043714Y-117529428D02*
X132043714Y-117964857D01*
X132043714Y-117747142D02*
X131281714Y-117747142D01*
X131390571Y-117819714D01*
X131463142Y-117892285D01*
X131499428Y-117964857D01*
X135382000Y-111088714D02*
X135128000Y-110725857D01*
X134946571Y-111088714D02*
X134946571Y-110326714D01*
X135236857Y-110326714D01*
X135309428Y-110363000D01*
X135345714Y-110399285D01*
X135382000Y-110471857D01*
X135382000Y-110580714D01*
X135345714Y-110653285D01*
X135309428Y-110689571D01*
X135236857Y-110725857D01*
X134946571Y-110725857D01*
X135744857Y-111088714D02*
X135890000Y-111088714D01*
X135962571Y-111052428D01*
X135998857Y-111016142D01*
X136071428Y-110907285D01*
X136107714Y-110762142D01*
X136107714Y-110471857D01*
X136071428Y-110399285D01*
X136035142Y-110363000D01*
X135962571Y-110326714D01*
X135817428Y-110326714D01*
X135744857Y-110363000D01*
X135708571Y-110399285D01*
X135672285Y-110471857D01*
X135672285Y-110653285D01*
X135708571Y-110725857D01*
X135744857Y-110762142D01*
X135817428Y-110798428D01*
X135962571Y-110798428D01*
X136035142Y-110762142D01*
X136071428Y-110725857D01*
X136107714Y-110653285D01*
X135726714Y-115443000D02*
X135363857Y-115697000D01*
X135726714Y-115878428D02*
X134964714Y-115878428D01*
X134964714Y-115588142D01*
X135001000Y-115515571D01*
X135037285Y-115479285D01*
X135109857Y-115443000D01*
X135218714Y-115443000D01*
X135291285Y-115479285D01*
X135327571Y-115515571D01*
X135363857Y-115588142D01*
X135363857Y-115878428D01*
X135291285Y-115007571D02*
X135255000Y-115080142D01*
X135218714Y-115116428D01*
X135146142Y-115152714D01*
X135109857Y-115152714D01*
X135037285Y-115116428D01*
X135001000Y-115080142D01*
X134964714Y-115007571D01*
X134964714Y-114862428D01*
X135001000Y-114789857D01*
X135037285Y-114753571D01*
X135109857Y-114717285D01*
X135146142Y-114717285D01*
X135218714Y-114753571D01*
X135255000Y-114789857D01*
X135291285Y-114862428D01*
X135291285Y-115007571D01*
X135327571Y-115080142D01*
X135363857Y-115116428D01*
X135436428Y-115152714D01*
X135581571Y-115152714D01*
X135654142Y-115116428D01*
X135690428Y-115080142D01*
X135726714Y-115007571D01*
X135726714Y-114862428D01*
X135690428Y-114789857D01*
X135654142Y-114753571D01*
X135581571Y-114717285D01*
X135436428Y-114717285D01*
X135363857Y-114753571D01*
X135327571Y-114789857D01*
X135291285Y-114862428D01*
X135400142Y-109945714D02*
X135146142Y-109582857D01*
X134964714Y-109945714D02*
X134964714Y-109183714D01*
X135255000Y-109183714D01*
X135327571Y-109220000D01*
X135363857Y-109256285D01*
X135400142Y-109328857D01*
X135400142Y-109437714D01*
X135363857Y-109510285D01*
X135327571Y-109546571D01*
X135255000Y-109582857D01*
X134964714Y-109582857D01*
X136125857Y-109945714D02*
X135690428Y-109945714D01*
X135908142Y-109945714D02*
X135908142Y-109183714D01*
X135835571Y-109292571D01*
X135763000Y-109365142D01*
X135690428Y-109401428D01*
X136779000Y-109437714D02*
X136779000Y-109945714D01*
X136597571Y-109147428D02*
X136416142Y-109691714D01*
X136887857Y-109691714D01*
X137668000Y-129431142D02*
X137631714Y-129467428D01*
X137522857Y-129503714D01*
X137450285Y-129503714D01*
X137341428Y-129467428D01*
X137268857Y-129394857D01*
X137232571Y-129322285D01*
X137196285Y-129177142D01*
X137196285Y-129068285D01*
X137232571Y-128923142D01*
X137268857Y-128850571D01*
X137341428Y-128778000D01*
X137450285Y-128741714D01*
X137522857Y-128741714D01*
X137631714Y-128778000D01*
X137668000Y-128814285D01*
X138393714Y-129503714D02*
X137958285Y-129503714D01*
X138176000Y-129503714D02*
X138176000Y-128741714D01*
X138103428Y-128850571D01*
X138030857Y-128923142D01*
X137958285Y-128959428D01*
X131227285Y-120341571D02*
X130973285Y-120341571D01*
X130973285Y-120740714D02*
X130973285Y-119978714D01*
X131336142Y-119978714D01*
X131626428Y-119978714D02*
X131626428Y-120595571D01*
X131662714Y-120668142D01*
X131699000Y-120704428D01*
X131771571Y-120740714D01*
X131916714Y-120740714D01*
X131989285Y-120704428D01*
X132025571Y-120668142D01*
X132061857Y-120595571D01*
X132061857Y-119978714D01*
X132388428Y-120704428D02*
X132497285Y-120740714D01*
X132678714Y-120740714D01*
X132751285Y-120704428D01*
X132787571Y-120668142D01*
X132823857Y-120595571D01*
X132823857Y-120523000D01*
X132787571Y-120450428D01*
X132751285Y-120414142D01*
X132678714Y-120377857D01*
X132533571Y-120341571D01*
X132461000Y-120305285D01*
X132424714Y-120269000D01*
X132388428Y-120196428D01*
X132388428Y-120123857D01*
X132424714Y-120051285D01*
X132461000Y-120015000D01*
X132533571Y-119978714D01*
X132715000Y-119978714D01*
X132823857Y-120015000D01*
X133150428Y-120341571D02*
X133404428Y-120341571D01*
X133513285Y-120740714D02*
X133150428Y-120740714D01*
X133150428Y-119978714D01*
X133513285Y-119978714D01*
X134239000Y-120740714D02*
X133803571Y-120740714D01*
X134021285Y-120740714D02*
X134021285Y-119978714D01*
X133948714Y-120087571D01*
X133876142Y-120160142D01*
X133803571Y-120196428D01*
X178689000Y-133495142D02*
X178652714Y-133531428D01*
X178543857Y-133567714D01*
X178471285Y-133567714D01*
X178362428Y-133531428D01*
X178289857Y-133458857D01*
X178253571Y-133386285D01*
X178217285Y-133241142D01*
X178217285Y-133132285D01*
X178253571Y-132987142D01*
X178289857Y-132914571D01*
X178362428Y-132842000D01*
X178471285Y-132805714D01*
X178543857Y-132805714D01*
X178652714Y-132842000D01*
X178689000Y-132878285D01*
X178979285Y-132878285D02*
X179015571Y-132842000D01*
X179088142Y-132805714D01*
X179269571Y-132805714D01*
X179342142Y-132842000D01*
X179378428Y-132878285D01*
X179414714Y-132950857D01*
X179414714Y-133023428D01*
X179378428Y-133132285D01*
X178943000Y-133567714D01*
X179414714Y-133567714D01*
X187361285Y-139155714D02*
X186998428Y-139155714D01*
X186998428Y-138393714D01*
X187615285Y-138756571D02*
X187869285Y-138756571D01*
X187978142Y-139155714D02*
X187615285Y-139155714D01*
X187615285Y-138393714D01*
X187978142Y-138393714D01*
X188304714Y-139155714D02*
X188304714Y-138393714D01*
X188486142Y-138393714D01*
X188595000Y-138430000D01*
X188667571Y-138502571D01*
X188703857Y-138575142D01*
X188740142Y-138720285D01*
X188740142Y-138829142D01*
X188703857Y-138974285D01*
X188667571Y-139046857D01*
X188595000Y-139119428D01*
X188486142Y-139155714D01*
X188304714Y-139155714D01*
X189465857Y-139155714D02*
X189030428Y-139155714D01*
X189248142Y-139155714D02*
X189248142Y-138393714D01*
X189175571Y-138502571D01*
X189103000Y-138575142D01*
X189030428Y-138611428D01*
X172339000Y-139028714D02*
X172085000Y-138665857D01*
X171903571Y-139028714D02*
X171903571Y-138266714D01*
X172193857Y-138266714D01*
X172266428Y-138303000D01*
X172302714Y-138339285D01*
X172339000Y-138411857D01*
X172339000Y-138520714D01*
X172302714Y-138593285D01*
X172266428Y-138629571D01*
X172193857Y-138665857D01*
X171903571Y-138665857D01*
X173064714Y-139028714D02*
X172629285Y-139028714D01*
X172847000Y-139028714D02*
X172847000Y-138266714D01*
X172774428Y-138375571D01*
X172701857Y-138448142D01*
X172629285Y-138484428D01*
X175641000Y-139028714D02*
X175387000Y-138665857D01*
X175205571Y-139028714D02*
X175205571Y-138266714D01*
X175495857Y-138266714D01*
X175568428Y-138303000D01*
X175604714Y-138339285D01*
X175641000Y-138411857D01*
X175641000Y-138520714D01*
X175604714Y-138593285D01*
X175568428Y-138629571D01*
X175495857Y-138665857D01*
X175205571Y-138665857D01*
X176294142Y-138520714D02*
X176294142Y-139028714D01*
X176112714Y-138230428D02*
X175931285Y-138774714D01*
X176403000Y-138774714D01*
X173990000Y-139028714D02*
X173736000Y-138665857D01*
X173554571Y-139028714D02*
X173554571Y-138266714D01*
X173844857Y-138266714D01*
X173917428Y-138303000D01*
X173953714Y-138339285D01*
X173990000Y-138411857D01*
X173990000Y-138520714D01*
X173953714Y-138593285D01*
X173917428Y-138629571D01*
X173844857Y-138665857D01*
X173554571Y-138665857D01*
X174679428Y-138266714D02*
X174316571Y-138266714D01*
X174280285Y-138629571D01*
X174316571Y-138593285D01*
X174389142Y-138557000D01*
X174570571Y-138557000D01*
X174643142Y-138593285D01*
X174679428Y-138629571D01*
X174715714Y-138702142D01*
X174715714Y-138883571D01*
X174679428Y-138956142D01*
X174643142Y-138992428D01*
X174570571Y-139028714D01*
X174389142Y-139028714D01*
X174316571Y-138992428D01*
X174280285Y-138956142D01*
X164737142Y-137668000D02*
X164773428Y-137704285D01*
X164809714Y-137813142D01*
X164809714Y-137885714D01*
X164773428Y-137994571D01*
X164700857Y-138067142D01*
X164628285Y-138103428D01*
X164483142Y-138139714D01*
X164374285Y-138139714D01*
X164229142Y-138103428D01*
X164156571Y-138067142D01*
X164084000Y-137994571D01*
X164047714Y-137885714D01*
X164047714Y-137813142D01*
X164084000Y-137704285D01*
X164120285Y-137668000D01*
X164301714Y-137014857D02*
X164809714Y-137014857D01*
X164011428Y-137196285D02*
X164555714Y-137377714D01*
X164555714Y-136906000D01*
X149624142Y-136525000D02*
X149660428Y-136561285D01*
X149696714Y-136670142D01*
X149696714Y-136742714D01*
X149660428Y-136851571D01*
X149587857Y-136924142D01*
X149515285Y-136960428D01*
X149370142Y-136996714D01*
X149261285Y-136996714D01*
X149116142Y-136960428D01*
X149043571Y-136924142D01*
X148971000Y-136851571D01*
X148934714Y-136742714D01*
X148934714Y-136670142D01*
X148971000Y-136561285D01*
X149007285Y-136525000D01*
X148934714Y-135835571D02*
X148934714Y-136198428D01*
X149297571Y-136234714D01*
X149261285Y-136198428D01*
X149225000Y-136125857D01*
X149225000Y-135944428D01*
X149261285Y-135871857D01*
X149297571Y-135835571D01*
X149370142Y-135799285D01*
X149551571Y-135799285D01*
X149624142Y-135835571D01*
X149660428Y-135871857D01*
X149696714Y-135944428D01*
X149696714Y-136125857D01*
X149660428Y-136198428D01*
X149624142Y-136234714D01*
X144925142Y-135128000D02*
X144961428Y-135164285D01*
X144997714Y-135273142D01*
X144997714Y-135345714D01*
X144961428Y-135454571D01*
X144888857Y-135527142D01*
X144816285Y-135563428D01*
X144671142Y-135599714D01*
X144562285Y-135599714D01*
X144417142Y-135563428D01*
X144344571Y-135527142D01*
X144272000Y-135454571D01*
X144235714Y-135345714D01*
X144235714Y-135273142D01*
X144272000Y-135164285D01*
X144308285Y-135128000D01*
X144235714Y-134474857D02*
X144235714Y-134620000D01*
X144272000Y-134692571D01*
X144308285Y-134728857D01*
X144417142Y-134801428D01*
X144562285Y-134837714D01*
X144852571Y-134837714D01*
X144925142Y-134801428D01*
X144961428Y-134765142D01*
X144997714Y-134692571D01*
X144997714Y-134547428D01*
X144961428Y-134474857D01*
X144925142Y-134438571D01*
X144852571Y-134402285D01*
X144671142Y-134402285D01*
X144598571Y-134438571D01*
X144562285Y-134474857D01*
X144526000Y-134547428D01*
X144526000Y-134692571D01*
X144562285Y-134765142D01*
X144598571Y-134801428D01*
X144671142Y-134837714D01*
X173119142Y-115660714D02*
X172865142Y-115297857D01*
X172683714Y-115660714D02*
X172683714Y-114898714D01*
X172974000Y-114898714D01*
X173046571Y-114935000D01*
X173082857Y-114971285D01*
X173119142Y-115043857D01*
X173119142Y-115152714D01*
X173082857Y-115225285D01*
X173046571Y-115261571D01*
X172974000Y-115297857D01*
X172683714Y-115297857D01*
X173844857Y-115660714D02*
X173409428Y-115660714D01*
X173627142Y-115660714D02*
X173627142Y-114898714D01*
X173554571Y-115007571D01*
X173482000Y-115080142D01*
X173409428Y-115116428D01*
X174498000Y-114898714D02*
X174352857Y-114898714D01*
X174280285Y-114935000D01*
X174244000Y-114971285D01*
X174171428Y-115080142D01*
X174135142Y-115225285D01*
X174135142Y-115515571D01*
X174171428Y-115588142D01*
X174207714Y-115624428D01*
X174280285Y-115660714D01*
X174425428Y-115660714D01*
X174498000Y-115624428D01*
X174534285Y-115588142D01*
X174570571Y-115515571D01*
X174570571Y-115334142D01*
X174534285Y-115261571D01*
X174498000Y-115225285D01*
X174425428Y-115189000D01*
X174280285Y-115189000D01*
X174207714Y-115225285D01*
X174171428Y-115261571D01*
X174135142Y-115334142D01*
X160927142Y-133821714D02*
X160673142Y-133458857D01*
X160491714Y-133821714D02*
X160491714Y-133059714D01*
X160782000Y-133059714D01*
X160854571Y-133096000D01*
X160890857Y-133132285D01*
X160927142Y-133204857D01*
X160927142Y-133313714D01*
X160890857Y-133386285D01*
X160854571Y-133422571D01*
X160782000Y-133458857D01*
X160491714Y-133458857D01*
X161652857Y-133821714D02*
X161217428Y-133821714D01*
X161435142Y-133821714D02*
X161435142Y-133059714D01*
X161362571Y-133168571D01*
X161290000Y-133241142D01*
X161217428Y-133277428D01*
X161906857Y-133059714D02*
X162414857Y-133059714D01*
X162088285Y-133821714D01*
X163539714Y-137649857D02*
X163176857Y-137903857D01*
X163539714Y-138085285D02*
X162777714Y-138085285D01*
X162777714Y-137795000D01*
X162814000Y-137722428D01*
X162850285Y-137686142D01*
X162922857Y-137649857D01*
X163031714Y-137649857D01*
X163104285Y-137686142D01*
X163140571Y-137722428D01*
X163176857Y-137795000D01*
X163176857Y-138085285D01*
X163539714Y-136924142D02*
X163539714Y-137359571D01*
X163539714Y-137141857D02*
X162777714Y-137141857D01*
X162886571Y-137214428D01*
X162959142Y-137287000D01*
X162995428Y-137359571D01*
X163104285Y-136488714D02*
X163068000Y-136561285D01*
X163031714Y-136597571D01*
X162959142Y-136633857D01*
X162922857Y-136633857D01*
X162850285Y-136597571D01*
X162814000Y-136561285D01*
X162777714Y-136488714D01*
X162777714Y-136343571D01*
X162814000Y-136271000D01*
X162850285Y-136234714D01*
X162922857Y-136198428D01*
X162959142Y-136198428D01*
X163031714Y-136234714D01*
X163068000Y-136271000D01*
X163104285Y-136343571D01*
X163104285Y-136488714D01*
X163140571Y-136561285D01*
X163176857Y-136597571D01*
X163249428Y-136633857D01*
X163394571Y-136633857D01*
X163467142Y-136597571D01*
X163503428Y-136561285D01*
X163539714Y-136488714D01*
X163539714Y-136343571D01*
X163503428Y-136271000D01*
X163467142Y-136234714D01*
X163394571Y-136198428D01*
X163249428Y-136198428D01*
X163176857Y-136234714D01*
X163140571Y-136271000D01*
X163104285Y-136343571D01*
X143727714Y-135109857D02*
X143364857Y-135363857D01*
X143727714Y-135545285D02*
X142965714Y-135545285D01*
X142965714Y-135255000D01*
X143002000Y-135182428D01*
X143038285Y-135146142D01*
X143110857Y-135109857D01*
X143219714Y-135109857D01*
X143292285Y-135146142D01*
X143328571Y-135182428D01*
X143364857Y-135255000D01*
X143364857Y-135545285D01*
X143038285Y-134819571D02*
X143002000Y-134783285D01*
X142965714Y-134710714D01*
X142965714Y-134529285D01*
X143002000Y-134456714D01*
X143038285Y-134420428D01*
X143110857Y-134384142D01*
X143183428Y-134384142D01*
X143292285Y-134420428D01*
X143727714Y-134855857D01*
X143727714Y-134384142D01*
X142965714Y-133912428D02*
X142965714Y-133839857D01*
X143002000Y-133767285D01*
X143038285Y-133731000D01*
X143110857Y-133694714D01*
X143256000Y-133658428D01*
X143437428Y-133658428D01*
X143582571Y-133694714D01*
X143655142Y-133731000D01*
X143691428Y-133767285D01*
X143727714Y-133839857D01*
X143727714Y-133912428D01*
X143691428Y-133985000D01*
X143655142Y-134021285D01*
X143582571Y-134057571D01*
X143437428Y-134093857D01*
X143256000Y-134093857D01*
X143110857Y-134057571D01*
X143038285Y-134021285D01*
X143002000Y-133985000D01*
X142965714Y-133912428D01*
X178961142Y-115660714D02*
X178707142Y-115297857D01*
X178525714Y-115660714D02*
X178525714Y-114898714D01*
X178816000Y-114898714D01*
X178888571Y-114935000D01*
X178924857Y-114971285D01*
X178961142Y-115043857D01*
X178961142Y-115152714D01*
X178924857Y-115225285D01*
X178888571Y-115261571D01*
X178816000Y-115297857D01*
X178525714Y-115297857D01*
X179251428Y-114971285D02*
X179287714Y-114935000D01*
X179360285Y-114898714D01*
X179541714Y-114898714D01*
X179614285Y-114935000D01*
X179650571Y-114971285D01*
X179686857Y-115043857D01*
X179686857Y-115116428D01*
X179650571Y-115225285D01*
X179215142Y-115660714D01*
X179686857Y-115660714D01*
X180412571Y-115660714D02*
X179977142Y-115660714D01*
X180194857Y-115660714D02*
X180194857Y-114898714D01*
X180122285Y-115007571D01*
X180049714Y-115080142D01*
X179977142Y-115116428D01*
X162269714Y-137268857D02*
X161906857Y-137522857D01*
X162269714Y-137704285D02*
X161507714Y-137704285D01*
X161507714Y-137414000D01*
X161544000Y-137341428D01*
X161580285Y-137305142D01*
X161652857Y-137268857D01*
X161761714Y-137268857D01*
X161834285Y-137305142D01*
X161870571Y-137341428D01*
X161906857Y-137414000D01*
X161906857Y-137704285D01*
X161580285Y-136978571D02*
X161544000Y-136942285D01*
X161507714Y-136869714D01*
X161507714Y-136688285D01*
X161544000Y-136615714D01*
X161580285Y-136579428D01*
X161652857Y-136543142D01*
X161725428Y-136543142D01*
X161834285Y-136579428D01*
X162269714Y-137014857D01*
X162269714Y-136543142D01*
X161507714Y-136289142D02*
X161507714Y-135817428D01*
X161798000Y-136071428D01*
X161798000Y-135962571D01*
X161834285Y-135890000D01*
X161870571Y-135853714D01*
X161943142Y-135817428D01*
X162124571Y-135817428D01*
X162197142Y-135853714D01*
X162233428Y-135890000D01*
X162269714Y-135962571D01*
X162269714Y-136180285D01*
X162233428Y-136252857D01*
X162197142Y-136289142D01*
X148426714Y-137395857D02*
X148063857Y-137649857D01*
X148426714Y-137831285D02*
X147664714Y-137831285D01*
X147664714Y-137541000D01*
X147701000Y-137468428D01*
X147737285Y-137432142D01*
X147809857Y-137395857D01*
X147918714Y-137395857D01*
X147991285Y-137432142D01*
X148027571Y-137468428D01*
X148063857Y-137541000D01*
X148063857Y-137831285D01*
X147737285Y-137105571D02*
X147701000Y-137069285D01*
X147664714Y-136996714D01*
X147664714Y-136815285D01*
X147701000Y-136742714D01*
X147737285Y-136706428D01*
X147809857Y-136670142D01*
X147882428Y-136670142D01*
X147991285Y-136706428D01*
X148426714Y-137141857D01*
X148426714Y-136670142D01*
X147918714Y-136017000D02*
X148426714Y-136017000D01*
X147628428Y-136198428D02*
X148172714Y-136379857D01*
X148172714Y-135908142D01*
X167150142Y-109310714D02*
X166896142Y-108947857D01*
X166714714Y-109310714D02*
X166714714Y-108548714D01*
X167005000Y-108548714D01*
X167077571Y-108585000D01*
X167113857Y-108621285D01*
X167150142Y-108693857D01*
X167150142Y-108802714D01*
X167113857Y-108875285D01*
X167077571Y-108911571D01*
X167005000Y-108947857D01*
X166714714Y-108947857D01*
X167875857Y-109310714D02*
X167440428Y-109310714D01*
X167658142Y-109310714D02*
X167658142Y-108548714D01*
X167585571Y-108657571D01*
X167513000Y-108730142D01*
X167440428Y-108766428D01*
X168565285Y-108548714D02*
X168202428Y-108548714D01*
X168166142Y-108911571D01*
X168202428Y-108875285D01*
X168275000Y-108839000D01*
X168456428Y-108839000D01*
X168529000Y-108875285D01*
X168565285Y-108911571D01*
X168601571Y-108984142D01*
X168601571Y-109165571D01*
X168565285Y-109238142D01*
X168529000Y-109274428D01*
X168456428Y-109310714D01*
X168275000Y-109310714D01*
X168202428Y-109274428D01*
X168166142Y-109238142D01*
X167730714Y-111233857D02*
X167367857Y-111487857D01*
X167730714Y-111669285D02*
X166968714Y-111669285D01*
X166968714Y-111379000D01*
X167005000Y-111306428D01*
X167041285Y-111270142D01*
X167113857Y-111233857D01*
X167222714Y-111233857D01*
X167295285Y-111270142D01*
X167331571Y-111306428D01*
X167367857Y-111379000D01*
X167367857Y-111669285D01*
X167041285Y-110943571D02*
X167005000Y-110907285D01*
X166968714Y-110834714D01*
X166968714Y-110653285D01*
X167005000Y-110580714D01*
X167041285Y-110544428D01*
X167113857Y-110508142D01*
X167186428Y-110508142D01*
X167295285Y-110544428D01*
X167730714Y-110979857D01*
X167730714Y-110508142D01*
X166968714Y-110254142D02*
X166968714Y-109746142D01*
X167730714Y-110072714D01*
X160201428Y-138266714D02*
X160201428Y-138883571D01*
X160237714Y-138956142D01*
X160274000Y-138992428D01*
X160346571Y-139028714D01*
X160491714Y-139028714D01*
X160564285Y-138992428D01*
X160600571Y-138956142D01*
X160636857Y-138883571D01*
X160636857Y-138266714D01*
X160927142Y-138266714D02*
X161398857Y-138266714D01*
X161144857Y-138557000D01*
X161253714Y-138557000D01*
X161326285Y-138593285D01*
X161362571Y-138629571D01*
X161398857Y-138702142D01*
X161398857Y-138883571D01*
X161362571Y-138956142D01*
X161326285Y-138992428D01*
X161253714Y-139028714D01*
X161036000Y-139028714D01*
X160963428Y-138992428D01*
X160927142Y-138956142D01*
D16*
X159067500Y-139086166D02*
X158982833Y-139043833D01*
X158940500Y-139001500D01*
X158898166Y-138916833D01*
X158898166Y-138662833D01*
X158940500Y-138578166D01*
X158982833Y-138535833D01*
X159067500Y-138493500D01*
X159194500Y-138493500D01*
X159279166Y-138535833D01*
X159321500Y-138578166D01*
X159363833Y-138662833D01*
X159363833Y-138916833D01*
X159321500Y-139001500D01*
X159279166Y-139043833D01*
X159194500Y-139086166D01*
X159067500Y-139086166D01*
D11*
X152109714Y-120323428D02*
X151347714Y-120323428D01*
X151347714Y-120142000D01*
X151384000Y-120033142D01*
X151456571Y-119960571D01*
X151529142Y-119924285D01*
X151674285Y-119888000D01*
X151783142Y-119888000D01*
X151928285Y-119924285D01*
X152000857Y-119960571D01*
X152073428Y-120033142D01*
X152109714Y-120142000D01*
X152109714Y-120323428D01*
X152109714Y-119162285D02*
X152109714Y-119597714D01*
X152109714Y-119380000D02*
X151347714Y-119380000D01*
X151456571Y-119452571D01*
X151529142Y-119525142D01*
X151565428Y-119597714D01*
X140589000Y-126836714D02*
X140226142Y-126836714D01*
X140226142Y-126074714D01*
X141242142Y-126836714D02*
X140806714Y-126836714D01*
X141024428Y-126836714D02*
X141024428Y-126074714D01*
X140951857Y-126183571D01*
X140879285Y-126256142D01*
X140806714Y-126292428D01*
X145251714Y-129267857D02*
X144888857Y-129521857D01*
X145251714Y-129703285D02*
X144489714Y-129703285D01*
X144489714Y-129413000D01*
X144526000Y-129340428D01*
X144562285Y-129304142D01*
X144634857Y-129267857D01*
X144743714Y-129267857D01*
X144816285Y-129304142D01*
X144852571Y-129340428D01*
X144888857Y-129413000D01*
X144888857Y-129703285D01*
X144562285Y-128977571D02*
X144526000Y-128941285D01*
X144489714Y-128868714D01*
X144489714Y-128687285D01*
X144526000Y-128614714D01*
X144562285Y-128578428D01*
X144634857Y-128542142D01*
X144707428Y-128542142D01*
X144816285Y-128578428D01*
X145251714Y-129013857D01*
X145251714Y-128542142D01*
X145251714Y-128179285D02*
X145251714Y-128034142D01*
X145215428Y-127961571D01*
X145179142Y-127925285D01*
X145070285Y-127852714D01*
X144925142Y-127816428D01*
X144634857Y-127816428D01*
X144562285Y-127852714D01*
X144526000Y-127889000D01*
X144489714Y-127961571D01*
X144489714Y-128106714D01*
X144526000Y-128179285D01*
X144562285Y-128215571D01*
X144634857Y-128251857D01*
X144816285Y-128251857D01*
X144888857Y-128215571D01*
X144925142Y-128179285D01*
X144961428Y-128106714D01*
X144961428Y-127961571D01*
X144925142Y-127889000D01*
X144888857Y-127852714D01*
X144816285Y-127816428D01*
X137994571Y-120359714D02*
X137740571Y-119996857D01*
X137559142Y-120359714D02*
X137559142Y-119597714D01*
X137849428Y-119597714D01*
X137922000Y-119634000D01*
X137958285Y-119670285D01*
X137994571Y-119742857D01*
X137994571Y-119851714D01*
X137958285Y-119924285D01*
X137922000Y-119960571D01*
X137849428Y-119996857D01*
X137559142Y-119996857D01*
X138321142Y-120359714D02*
X138321142Y-119597714D01*
X138575142Y-120142000D01*
X138829142Y-119597714D01*
X138829142Y-120359714D01*
X139591142Y-120359714D02*
X139155714Y-120359714D01*
X139373428Y-120359714D02*
X139373428Y-119597714D01*
X139300857Y-119706571D01*
X139228285Y-119779142D01*
X139155714Y-119815428D01*
D10*
X186538809Y-128094619D02*
X186200142Y-127610809D01*
X185958238Y-128094619D02*
X185958238Y-127078619D01*
X186345285Y-127078619D01*
X186442047Y-127127000D01*
X186490428Y-127175380D01*
X186538809Y-127272142D01*
X186538809Y-127417285D01*
X186490428Y-127514047D01*
X186442047Y-127562428D01*
X186345285Y-127610809D01*
X185958238Y-127610809D01*
X186925857Y-128046238D02*
X187071000Y-128094619D01*
X187312904Y-128094619D01*
X187409666Y-128046238D01*
X187458047Y-127997857D01*
X187506428Y-127901095D01*
X187506428Y-127804333D01*
X187458047Y-127707571D01*
X187409666Y-127659190D01*
X187312904Y-127610809D01*
X187119380Y-127562428D01*
X187022619Y-127514047D01*
X186974238Y-127465666D01*
X186925857Y-127368904D01*
X186925857Y-127272142D01*
X186974238Y-127175380D01*
X187022619Y-127127000D01*
X187119380Y-127078619D01*
X187361285Y-127078619D01*
X187506428Y-127127000D01*
X187796714Y-127078619D02*
X188377285Y-127078619D01*
X188087000Y-128094619D02*
X188087000Y-127078619D01*
X189248142Y-128094619D02*
X188667571Y-128094619D01*
X188957857Y-128094619D02*
X188957857Y-127078619D01*
X188861095Y-127223761D01*
X188764333Y-127320523D01*
X188667571Y-127368904D01*
X168843476Y-117934619D02*
X168504809Y-117450809D01*
X168262904Y-117934619D02*
X168262904Y-116918619D01*
X168649952Y-116918619D01*
X168746714Y-116967000D01*
X168795095Y-117015380D01*
X168843476Y-117112142D01*
X168843476Y-117257285D01*
X168795095Y-117354047D01*
X168746714Y-117402428D01*
X168649952Y-117450809D01*
X168262904Y-117450809D01*
X169278904Y-117934619D02*
X169278904Y-116918619D01*
X169665952Y-116918619D01*
X169762714Y-116967000D01*
X169811095Y-117015380D01*
X169859476Y-117112142D01*
X169859476Y-117257285D01*
X169811095Y-117354047D01*
X169762714Y-117402428D01*
X169665952Y-117450809D01*
X169278904Y-117450809D01*
X170246523Y-117015380D02*
X170294904Y-116967000D01*
X170391666Y-116918619D01*
X170633571Y-116918619D01*
X170730333Y-116967000D01*
X170778714Y-117015380D01*
X170827095Y-117112142D01*
X170827095Y-117208904D01*
X170778714Y-117354047D01*
X170198142Y-117934619D01*
X170827095Y-117934619D01*
X171456047Y-116918619D02*
X171552809Y-116918619D01*
X171649571Y-116967000D01*
X171697952Y-117015380D01*
X171746333Y-117112142D01*
X171794714Y-117305666D01*
X171794714Y-117547571D01*
X171746333Y-117741095D01*
X171697952Y-117837857D01*
X171649571Y-117886238D01*
X171552809Y-117934619D01*
X171456047Y-117934619D01*
X171359285Y-117886238D01*
X171310904Y-117837857D01*
X171262523Y-117741095D01*
X171214142Y-117547571D01*
X171214142Y-117305666D01*
X171262523Y-117112142D01*
X171310904Y-117015380D01*
X171359285Y-116967000D01*
X171456047Y-116918619D01*
X172665571Y-117257285D02*
X172665571Y-117934619D01*
X172423666Y-116870238D02*
X172181761Y-117595952D01*
X172810714Y-117595952D01*
X173391285Y-116918619D02*
X173488047Y-116918619D01*
X173584809Y-116967000D01*
X173633190Y-117015380D01*
X173681571Y-117112142D01*
X173729952Y-117305666D01*
X173729952Y-117547571D01*
X173681571Y-117741095D01*
X173633190Y-117837857D01*
X173584809Y-117886238D01*
X173488047Y-117934619D01*
X173391285Y-117934619D01*
X173294523Y-117886238D01*
X173246142Y-117837857D01*
X173197761Y-117741095D01*
X173149380Y-117547571D01*
X173149380Y-117305666D01*
X173197761Y-117112142D01*
X173246142Y-117015380D01*
X173294523Y-116967000D01*
X173391285Y-116918619D01*
X173923476Y-118031380D02*
X174697571Y-118031380D01*
X174939476Y-117934619D02*
X174939476Y-116918619D01*
X175326523Y-116918619D01*
X175423285Y-116967000D01*
X175471666Y-117015380D01*
X175520047Y-117112142D01*
X175520047Y-117257285D01*
X175471666Y-117354047D01*
X175423285Y-117402428D01*
X175326523Y-117450809D01*
X174939476Y-117450809D01*
X176439285Y-117934619D02*
X175955476Y-117934619D01*
X175955476Y-116918619D01*
X176729571Y-117644333D02*
X177213380Y-117644333D01*
X176632809Y-117934619D02*
X176971476Y-116918619D01*
X177310142Y-117934619D01*
X177503666Y-116918619D02*
X178084238Y-116918619D01*
X177793952Y-117934619D02*
X177793952Y-116918619D01*
X178761571Y-117402428D02*
X178422904Y-117402428D01*
X178422904Y-117934619D02*
X178422904Y-116918619D01*
X178906714Y-116918619D01*
X179487285Y-116918619D02*
X179680809Y-116918619D01*
X179777571Y-116967000D01*
X179874333Y-117063761D01*
X179922714Y-117257285D01*
X179922714Y-117595952D01*
X179874333Y-117789476D01*
X179777571Y-117886238D01*
X179680809Y-117934619D01*
X179487285Y-117934619D01*
X179390523Y-117886238D01*
X179293761Y-117789476D01*
X179245380Y-117595952D01*
X179245380Y-117257285D01*
X179293761Y-117063761D01*
X179390523Y-116967000D01*
X179487285Y-116918619D01*
X180938714Y-117934619D02*
X180600047Y-117450809D01*
X180358142Y-117934619D02*
X180358142Y-116918619D01*
X180745190Y-116918619D01*
X180841952Y-116967000D01*
X180890333Y-117015380D01*
X180938714Y-117112142D01*
X180938714Y-117257285D01*
X180890333Y-117354047D01*
X180841952Y-117402428D01*
X180745190Y-117450809D01*
X180358142Y-117450809D01*
X181374142Y-117934619D02*
X181374142Y-116918619D01*
X181712809Y-117644333D01*
X182051476Y-116918619D01*
X182051476Y-117934619D01*
X183067476Y-117934619D02*
X182486904Y-117934619D01*
X182777190Y-117934619D02*
X182777190Y-116918619D01*
X182680428Y-117063761D01*
X182583666Y-117160523D01*
X182486904Y-117208904D01*
X183859714Y-129195285D02*
X183859714Y-129872619D01*
X183617809Y-128808238D02*
X183375904Y-129533952D01*
X184004857Y-129533952D01*
X184585428Y-128856619D02*
X184682190Y-128856619D01*
X184778952Y-128905000D01*
X184827333Y-128953380D01*
X184875714Y-129050142D01*
X184924095Y-129243666D01*
X184924095Y-129485571D01*
X184875714Y-129679095D01*
X184827333Y-129775857D01*
X184778952Y-129824238D01*
X184682190Y-129872619D01*
X184585428Y-129872619D01*
X184488666Y-129824238D01*
X184440285Y-129775857D01*
X184391904Y-129679095D01*
X184343523Y-129485571D01*
X184343523Y-129243666D01*
X184391904Y-129050142D01*
X184440285Y-128953380D01*
X184488666Y-128905000D01*
X184585428Y-128856619D01*
X134988904Y-132763380D02*
X135037285Y-132715000D01*
X135134047Y-132666619D01*
X135375952Y-132666619D01*
X135472714Y-132715000D01*
X135521095Y-132763380D01*
X135569476Y-132860142D01*
X135569476Y-132956904D01*
X135521095Y-133102047D01*
X134940523Y-133682619D01*
X135569476Y-133682619D01*
X136537095Y-133682619D02*
X135956523Y-133682619D01*
X136246809Y-133682619D02*
X136246809Y-132666619D01*
X136150047Y-132811761D01*
X136053285Y-132908523D01*
X135956523Y-132956904D01*
X136639904Y-114856380D02*
X136688285Y-114808000D01*
X136785047Y-114759619D01*
X137026952Y-114759619D01*
X137123714Y-114808000D01*
X137172095Y-114856380D01*
X137220476Y-114953142D01*
X137220476Y-115049904D01*
X137172095Y-115195047D01*
X136591523Y-115775619D01*
X137220476Y-115775619D01*
X137849428Y-114759619D02*
X137946190Y-114759619D01*
X138042952Y-114808000D01*
X138091333Y-114856380D01*
X138139714Y-114953142D01*
X138188095Y-115146666D01*
X138188095Y-115388571D01*
X138139714Y-115582095D01*
X138091333Y-115678857D01*
X138042952Y-115727238D01*
X137946190Y-115775619D01*
X137849428Y-115775619D01*
X137752666Y-115727238D01*
X137704285Y-115678857D01*
X137655904Y-115582095D01*
X137607523Y-115388571D01*
X137607523Y-115146666D01*
X137655904Y-114953142D01*
X137704285Y-114856380D01*
X137752666Y-114808000D01*
X137849428Y-114759619D01*
X186218285Y-113870619D02*
X185637714Y-113870619D01*
X185928000Y-113870619D02*
X185928000Y-112854619D01*
X185831238Y-112999761D01*
X185734476Y-113096523D01*
X185637714Y-113144904D01*
X139040809Y-111427380D02*
X138944047Y-111379000D01*
X138847285Y-111282238D01*
X138702142Y-111137095D01*
X138605380Y-111088714D01*
X138508619Y-111088714D01*
X138557000Y-111330619D02*
X138460238Y-111282238D01*
X138363476Y-111185476D01*
X138315095Y-110991952D01*
X138315095Y-110653285D01*
X138363476Y-110459761D01*
X138460238Y-110363000D01*
X138557000Y-110314619D01*
X138750523Y-110314619D01*
X138847285Y-110363000D01*
X138944047Y-110459761D01*
X138992428Y-110653285D01*
X138992428Y-110991952D01*
X138944047Y-111185476D01*
X138847285Y-111282238D01*
X138750523Y-111330619D01*
X138557000Y-111330619D01*
X139331095Y-110314619D02*
X139573000Y-111330619D01*
X139766523Y-110604904D01*
X139960047Y-111330619D01*
X140201952Y-110314619D01*
X140540619Y-111282238D02*
X140685761Y-111330619D01*
X140927666Y-111330619D01*
X141024428Y-111282238D01*
X141072809Y-111233857D01*
X141121190Y-111137095D01*
X141121190Y-111040333D01*
X141072809Y-110943571D01*
X141024428Y-110895190D01*
X140927666Y-110846809D01*
X140734142Y-110798428D01*
X140637380Y-110750047D01*
X140589000Y-110701666D01*
X140540619Y-110604904D01*
X140540619Y-110508142D01*
X140589000Y-110411380D01*
X140637380Y-110363000D01*
X140734142Y-110314619D01*
X140976047Y-110314619D01*
X141121190Y-110363000D01*
X141411476Y-110314619D02*
X141992047Y-110314619D01*
X141701761Y-111330619D02*
X141701761Y-110314619D01*
X142862904Y-111330619D02*
X142282333Y-111330619D01*
X142572619Y-111330619D02*
X142572619Y-110314619D01*
X142475857Y-110459761D01*
X142379095Y-110556523D01*
X142282333Y-110604904D01*
X139482285Y-103837619D02*
X138901714Y-103837619D01*
X139192000Y-103837619D02*
X139192000Y-102821619D01*
X139095238Y-102966761D01*
X138998476Y-103063523D01*
X138901714Y-103111904D01*
X132666619Y-112213571D02*
X131650619Y-112213571D01*
X132134428Y-112213571D02*
X132134428Y-111633000D01*
X132666619Y-111633000D02*
X131650619Y-111633000D01*
X132666619Y-111149190D02*
X131650619Y-111149190D01*
X131650619Y-110907285D01*
X131699000Y-110762142D01*
X131795761Y-110665380D01*
X131892523Y-110617000D01*
X132086047Y-110568619D01*
X132231190Y-110568619D01*
X132424714Y-110617000D01*
X132521476Y-110665380D01*
X132618238Y-110762142D01*
X132666619Y-110907285D01*
X132666619Y-111149190D01*
X132666619Y-110133190D02*
X131650619Y-110133190D01*
X132376333Y-109794523D01*
X131650619Y-109455857D01*
X132666619Y-109455857D01*
X132666619Y-108972047D02*
X131650619Y-108972047D01*
X132666619Y-107956047D02*
X132666619Y-108536619D01*
X132666619Y-108246333D02*
X131650619Y-108246333D01*
X131795761Y-108343095D01*
X131892523Y-108439857D01*
X131940904Y-108536619D01*
X180291619Y-124193904D02*
X181114095Y-124193904D01*
X181210857Y-124145523D01*
X181259238Y-124097142D01*
X181307619Y-124000380D01*
X181307619Y-123806857D01*
X181259238Y-123710095D01*
X181210857Y-123661714D01*
X181114095Y-123613333D01*
X180291619Y-123613333D01*
X181259238Y-123177904D02*
X181307619Y-123032761D01*
X181307619Y-122790857D01*
X181259238Y-122694095D01*
X181210857Y-122645714D01*
X181114095Y-122597333D01*
X181017333Y-122597333D01*
X180920571Y-122645714D01*
X180872190Y-122694095D01*
X180823809Y-122790857D01*
X180775428Y-122984380D01*
X180727047Y-123081142D01*
X180678666Y-123129523D01*
X180581904Y-123177904D01*
X180485142Y-123177904D01*
X180388380Y-123129523D01*
X180340000Y-123081142D01*
X180291619Y-122984380D01*
X180291619Y-122742476D01*
X180340000Y-122597333D01*
X180775428Y-121823238D02*
X180823809Y-121678095D01*
X180872190Y-121629714D01*
X180968952Y-121581333D01*
X181114095Y-121581333D01*
X181210857Y-121629714D01*
X181259238Y-121678095D01*
X181307619Y-121774857D01*
X181307619Y-122161904D01*
X180291619Y-122161904D01*
X180291619Y-121823238D01*
X180340000Y-121726476D01*
X180388380Y-121678095D01*
X180485142Y-121629714D01*
X180581904Y-121629714D01*
X180678666Y-121678095D01*
X180727047Y-121726476D01*
X180775428Y-121823238D01*
X180775428Y-122161904D01*
X181307619Y-120613714D02*
X181307619Y-121194285D01*
X181307619Y-120904000D02*
X180291619Y-120904000D01*
X180436761Y-121000761D01*
X180533523Y-121097523D01*
X180581904Y-121194285D01*
D14*
X185639666Y-123649809D02*
X185809000Y-124157809D01*
X185978333Y-123649809D01*
X186317000Y-123891714D02*
X186389571Y-123915904D01*
X186413761Y-123940095D01*
X186437952Y-123988476D01*
X186437952Y-124061047D01*
X186413761Y-124109428D01*
X186389571Y-124133619D01*
X186341190Y-124157809D01*
X186147666Y-124157809D01*
X186147666Y-123649809D01*
X186317000Y-123649809D01*
X186365380Y-123674000D01*
X186389571Y-123698190D01*
X186413761Y-123746571D01*
X186413761Y-123794952D01*
X186389571Y-123843333D01*
X186365380Y-123867523D01*
X186317000Y-123891714D01*
X186147666Y-123891714D01*
X186655666Y-123649809D02*
X186655666Y-124061047D01*
X186679857Y-124109428D01*
X186704047Y-124133619D01*
X186752428Y-124157809D01*
X186849190Y-124157809D01*
X186897571Y-124133619D01*
X186921761Y-124109428D01*
X186945952Y-124061047D01*
X186945952Y-123649809D01*
X187163666Y-124133619D02*
X187236238Y-124157809D01*
X187357190Y-124157809D01*
X187405571Y-124133619D01*
X187429761Y-124109428D01*
X187453952Y-124061047D01*
X187453952Y-124012666D01*
X187429761Y-123964285D01*
X187405571Y-123940095D01*
X187357190Y-123915904D01*
X187260428Y-123891714D01*
X187212047Y-123867523D01*
X187187857Y-123843333D01*
X187163666Y-123794952D01*
X187163666Y-123746571D01*
X187187857Y-123698190D01*
X187212047Y-123674000D01*
X187260428Y-123649809D01*
X187381380Y-123649809D01*
X187453952Y-123674000D01*
X185623476Y-123407809D02*
X185623476Y-122899809D01*
X185744428Y-122899809D01*
X185817000Y-122924000D01*
X185865380Y-122972380D01*
X185889571Y-123020761D01*
X185913761Y-123117523D01*
X185913761Y-123190095D01*
X185889571Y-123286857D01*
X185865380Y-123335238D01*
X185817000Y-123383619D01*
X185744428Y-123407809D01*
X185623476Y-123407809D01*
X186131476Y-123214285D02*
X186518523Y-123214285D01*
X185623476Y-122657809D02*
X185623476Y-122149809D01*
X185744428Y-122149809D01*
X185817000Y-122174000D01*
X185865380Y-122222380D01*
X185889571Y-122270761D01*
X185913761Y-122367523D01*
X185913761Y-122440095D01*
X185889571Y-122536857D01*
X185865380Y-122585238D01*
X185817000Y-122633619D01*
X185744428Y-122657809D01*
X185623476Y-122657809D01*
X186131476Y-122464285D02*
X186518523Y-122464285D01*
X186325000Y-122657809D02*
X186325000Y-122270761D01*
X185567000Y-121907809D02*
X185567000Y-121399809D01*
X185808904Y-121907809D02*
X185808904Y-121399809D01*
X185929857Y-121399809D01*
X186002428Y-121424000D01*
X186050809Y-121472380D01*
X186075000Y-121520761D01*
X186099190Y-121617523D01*
X186099190Y-121690095D01*
X186075000Y-121786857D01*
X186050809Y-121835238D01*
X186002428Y-121883619D01*
X185929857Y-121907809D01*
X185808904Y-121907809D01*
X185783952Y-120574000D02*
X185735571Y-120549809D01*
X185663000Y-120549809D01*
X185590428Y-120574000D01*
X185542047Y-120622380D01*
X185517857Y-120670761D01*
X185493666Y-120767523D01*
X185493666Y-120840095D01*
X185517857Y-120936857D01*
X185542047Y-120985238D01*
X185590428Y-121033619D01*
X185663000Y-121057809D01*
X185711380Y-121057809D01*
X185783952Y-121033619D01*
X185808142Y-121009428D01*
X185808142Y-120840095D01*
X185711380Y-120840095D01*
X186025857Y-121057809D02*
X186025857Y-120549809D01*
X186316142Y-121057809D01*
X186316142Y-120549809D01*
X186558047Y-121057809D02*
X186558047Y-120549809D01*
X186679000Y-120549809D01*
X186751571Y-120574000D01*
X186799952Y-120622380D01*
X186824142Y-120670761D01*
X186848333Y-120767523D01*
X186848333Y-120840095D01*
X186824142Y-120936857D01*
X186799952Y-120985238D01*
X186751571Y-121033619D01*
X186679000Y-121057809D01*
X186558047Y-121057809D01*
M02*
