G04 #@! TF.GenerationSoftware,KiCad,Pcbnew,5.1.0-rc2-unknown-036be7d~80~ubuntu16.04.1*
G04 #@! TF.CreationDate,2023-11-01T16:14:12+02:00*
G04 #@! TF.ProjectId,RP2040-PICO-PC_rev_D,52503230-3430-42d5-9049-434f2d50435f,D*
G04 #@! TF.SameCoordinates,Original*
G04 #@! TF.FileFunction,Soldermask,Bot*
G04 #@! TF.FilePolarity,Negative*
%FSLAX46Y46*%
G04 Gerber Fmt 4.6, Leading zero omitted, Abs format (unit mm)*
G04 Created by KiCad (PCBNEW 5.1.0-rc2-unknown-036be7d~80~ubuntu16.04.1) date 2023-11-01 16:14:12*
%MOMM*%
%LPD*%
G04 APERTURE LIST*
%ADD10C,1.901600*%
%ADD11C,1.101600*%
%ADD12C,1.801600*%
%ADD13R,1.801600X1.801600*%
%ADD14C,1.879600*%
%ADD15R,1.879600X1.879600*%
%ADD16R,0.609600X0.863600*%
%ADD17C,1.301600*%
%ADD18C,6.401600*%
%ADD19C,1.501600*%
%ADD20R,1.501600X1.501600*%
%ADD21O,2.801600X1.401600*%
%ADD22O,2.401600X1.401600*%
%ADD23C,0.701600*%
%ADD24O,1.901600X1.301600*%
G04 APERTURE END LIST*
D10*
X177483000Y-106680000D03*
X184483000Y-106680000D03*
D11*
X122732800Y-133096000D03*
X122732800Y-125095000D03*
D12*
X149098000Y-107442000D03*
X149098000Y-104902000D03*
X151638000Y-107442000D03*
X151638000Y-104902000D03*
X154178000Y-107442000D03*
X154178000Y-104902000D03*
X156718000Y-107442000D03*
X156718000Y-104902000D03*
X159258000Y-107442000D03*
D13*
X159258000Y-104902000D03*
D14*
X187960000Y-116459000D03*
X187960000Y-113919000D03*
D15*
X187960000Y-111379000D03*
D16*
X128270000Y-120015000D03*
X129032000Y-120015000D03*
D17*
X165481000Y-104648000D03*
X170307000Y-104648000D03*
X169545000Y-106299000D03*
X166243000Y-106426000D03*
X169545000Y-102997000D03*
X166243000Y-102997000D03*
X167894000Y-107061000D03*
X167894000Y-102235000D03*
D18*
X167894000Y-104648000D03*
D19*
X184261760Y-136288780D03*
D20*
X182232300Y-136291320D03*
D17*
X132969000Y-104648000D03*
X137795000Y-104648000D03*
X137033000Y-106299000D03*
X133731000Y-106426000D03*
X137033000Y-102997000D03*
X133731000Y-102997000D03*
X135382000Y-107061000D03*
X135382000Y-102235000D03*
D18*
X135382000Y-104648000D03*
D17*
X137160000Y-135890000D03*
X141986000Y-135890000D03*
X141224000Y-137541000D03*
X137922000Y-137668000D03*
X141224000Y-134239000D03*
X137922000Y-134239000D03*
X139573000Y-138303000D03*
X139573000Y-133477000D03*
D18*
X139573000Y-135890000D03*
D17*
X165481000Y-135890000D03*
X170307000Y-135890000D03*
X169545000Y-137541000D03*
X166243000Y-137668000D03*
X169545000Y-134239000D03*
X166243000Y-134239000D03*
X167894000Y-138303000D03*
X167894000Y-133477000D03*
D18*
X167894000Y-135890000D03*
D14*
X173990000Y-131318000D03*
X179070000Y-131318000D03*
X143510000Y-131318000D03*
X158750000Y-131318000D03*
X158750000Y-113538000D03*
X143510000Y-113538000D03*
X156210000Y-131318000D03*
X179070000Y-113538000D03*
X146050000Y-113538000D03*
X171450000Y-113538000D03*
X176530000Y-113538000D03*
X184150000Y-131318000D03*
X151130000Y-113538000D03*
X135890000Y-113538000D03*
X171450000Y-131318000D03*
X173990000Y-113538000D03*
X153670000Y-113538000D03*
X140970000Y-113538000D03*
X138430000Y-113538000D03*
X163830000Y-131318000D03*
X138430000Y-131318000D03*
X176530000Y-131318000D03*
X151130000Y-131318000D03*
X146050000Y-131318000D03*
X148590000Y-131318000D03*
X140970000Y-131318000D03*
D15*
X184150000Y-113538000D03*
D14*
X181610000Y-113538000D03*
X168910000Y-113538000D03*
X156210000Y-113538000D03*
X135890000Y-131318000D03*
X153670000Y-131318000D03*
X148590000Y-113538000D03*
X181610000Y-131318000D03*
X161290000Y-131318000D03*
X161290000Y-113538000D03*
X163830000Y-113538000D03*
X166370000Y-131318000D03*
X166370000Y-113538000D03*
X168910000Y-131318000D03*
D21*
X129568000Y-102682000D03*
X129568000Y-117282000D03*
D22*
X123518000Y-117282000D03*
X123518000Y-102682000D03*
D23*
X185171000Y-124428000D03*
X185171000Y-120428000D03*
D24*
X187321000Y-126028000D03*
X183851000Y-126028000D03*
X183851000Y-118828000D03*
X187321000Y-118828000D03*
M02*
