G04 #@! TF.GenerationSoftware,KiCad,Pcbnew,5.1.0-rc2-unknown-036be7d~80~ubuntu16.04.1*
G04 #@! TF.CreationDate,2023-11-01T16:14:12+02:00*
G04 #@! TF.ProjectId,RP2040-PICO-PC_rev_D,52503230-3430-42d5-9049-434f2d50435f,D*
G04 #@! TF.SameCoordinates,Original*
G04 #@! TF.FileFunction,Paste,Top*
G04 #@! TF.FilePolarity,Positive*
%FSLAX46Y46*%
G04 Gerber Fmt 4.6, Leading zero omitted, Abs format (unit mm)*
G04 Created by KiCad (PCBNEW 5.1.0-rc2-unknown-036be7d~80~ubuntu16.04.1) date 2023-11-01 16:14:12*
%MOMM*%
%LPD*%
G04 APERTURE LIST*
%ADD10R,3.700000X2.600000*%
%ADD11R,2.000000X3.699999*%
%ADD12R,2.400000X3.699999*%
%ADD13R,2.600000X3.699999*%
%ADD14R,1.400000X1.000000*%
%ADD15R,2.600000X1.400000*%
%ADD16R,1.800000X1.800000*%
%ADD17R,1.800000X1.400000*%
%ADD18R,1.100000X0.700000*%
%ADD19R,0.550000X0.500000*%
%ADD20R,1.000000X1.400000*%
%ADD21R,0.550000X1.200000*%
%ADD22R,1.270000X1.524000*%
%ADD23R,0.500000X0.550000*%
%ADD24R,1.016000X1.016000*%
%ADD25R,1.600000X1.800000*%
%ADD26R,0.800000X0.800000*%
%ADD27R,1.400000X0.325000*%
%ADD28R,1.524000X1.270000*%
%ADD29R,1.016000X0.508000*%
%ADD30R,1.016000X0.762000*%
%ADD31R,0.904000X1.304000*%
%ADD32R,1.550000X0.600000*%
%ADD33R,3.100000X1.200000*%
%ADD34C,1.000000*%
%ADD35R,1.580000X0.230000*%
%ADD36R,3.000000X2.300000*%
%ADD37R,2.600000X2.300000*%
%ADD38R,1.700000X0.700000*%
%ADD39R,1.700000X0.400000*%
%ADD40R,2.000000X1.700000*%
%ADD41R,1.200000X1.300000*%
G04 APERTURE END LIST*
D10*
X172733000Y-107680000D03*
D11*
X185683000Y-103030000D03*
D12*
X183783000Y-110430000D03*
D13*
X176283000Y-103030000D03*
D11*
X188483000Y-103030000D03*
D14*
X174081440Y-135315960D03*
X174081440Y-133413500D03*
X171871640Y-134368540D03*
D15*
X123135000Y-122198000D03*
X123135000Y-137898000D03*
D16*
X132735000Y-136998000D03*
D17*
X132735000Y-122198000D03*
D18*
X133615000Y-123498000D03*
X133615000Y-124598000D03*
X133615000Y-125698000D03*
X133615000Y-126798000D03*
X133615000Y-127898000D03*
X133615000Y-128998000D03*
X133615000Y-130098000D03*
X133615000Y-131198000D03*
X133615000Y-132298000D03*
D19*
X133096000Y-113157000D03*
X133096000Y-114173000D03*
X142494000Y-121031000D03*
X142494000Y-122047000D03*
D20*
X146618960Y-117256560D03*
X144716500Y-117256560D03*
X145671540Y-119466360D03*
D19*
X150368000Y-134112000D03*
X150368000Y-135128000D03*
X151384000Y-135128000D03*
X151384000Y-134112000D03*
D21*
X175580000Y-136936000D03*
X176530000Y-136936000D03*
X177480000Y-136936000D03*
X175580000Y-134336000D03*
X177480000Y-134336000D03*
D22*
X176149000Y-110998000D03*
X178181000Y-110998000D03*
X169037000Y-110744000D03*
X171069000Y-110744000D03*
D23*
X149606000Y-115824000D03*
X148590000Y-115824000D03*
X146177000Y-115824000D03*
X145161000Y-115824000D03*
D19*
X143764000Y-122047000D03*
X143764000Y-121031000D03*
D20*
X150047960Y-117256560D03*
X148145500Y-117256560D03*
X149100540Y-119466360D03*
D19*
X147828000Y-121031000D03*
X147828000Y-122047000D03*
X145669000Y-121031000D03*
X145669000Y-122047000D03*
X132842000Y-115951000D03*
X132842000Y-116967000D03*
D23*
X133223000Y-111379000D03*
X134239000Y-111379000D03*
X133223000Y-108458000D03*
X134239000Y-108458000D03*
D19*
X131953000Y-115951000D03*
X131953000Y-116967000D03*
D23*
X133223000Y-110490000D03*
X134239000Y-110490000D03*
D19*
X133985000Y-113157000D03*
X133985000Y-114173000D03*
D23*
X133223000Y-109347000D03*
X134239000Y-109347000D03*
D24*
X137795000Y-127889000D03*
X137795000Y-126111000D03*
D25*
X125727000Y-120269000D03*
X128527000Y-120269000D03*
D24*
X179070000Y-134366000D03*
X179070000Y-136144000D03*
D26*
X188976000Y-137541000D03*
X187452000Y-137541000D03*
D19*
X172085000Y-137795000D03*
X172085000Y-136779000D03*
X174117000Y-137795000D03*
X174117000Y-136779000D03*
X173101000Y-136779000D03*
X173101000Y-137795000D03*
X163830000Y-134620000D03*
X163830000Y-135636000D03*
X151511000Y-137033000D03*
X151511000Y-138049000D03*
X149352000Y-135128000D03*
X149352000Y-134112000D03*
D24*
X172720000Y-110998000D03*
X174498000Y-110998000D03*
D23*
X163830000Y-133477000D03*
X162814000Y-133477000D03*
X161798000Y-134620000D03*
X162814000Y-134620000D03*
D19*
X148336000Y-135128000D03*
X148336000Y-134112000D03*
D24*
X181610000Y-110998000D03*
X179832000Y-110998000D03*
D19*
X160782000Y-135636000D03*
X160782000Y-134620000D03*
X150495000Y-137033000D03*
X150495000Y-138049000D03*
D23*
X165354000Y-109855000D03*
X166370000Y-109855000D03*
X166370000Y-110871000D03*
X165354000Y-110871000D03*
D27*
X153083000Y-137840000D03*
X153083000Y-137190000D03*
X153083000Y-136540000D03*
X153083000Y-135890000D03*
X153083000Y-135240000D03*
X153083000Y-134590000D03*
X153083000Y-133940000D03*
X159083000Y-133940000D03*
X159083000Y-134590000D03*
X159083000Y-135240000D03*
X159083000Y-135890000D03*
X159083000Y-136540000D03*
X159083000Y-137190000D03*
X159083000Y-137890000D03*
D14*
X142748000Y-115956000D03*
X142748000Y-119756000D03*
D28*
X141732000Y-128143000D03*
X139700000Y-128143000D03*
D19*
X143510000Y-128270000D03*
X143510000Y-129286000D03*
D29*
X139319000Y-122555000D03*
X139319000Y-123317000D03*
X137795000Y-122555000D03*
X137795000Y-123317000D03*
D30*
X139319000Y-121666000D03*
X137795000Y-121666000D03*
X139319000Y-124206000D03*
X137795000Y-124206000D03*
D31*
X189162000Y-129116000D03*
X189162000Y-133266000D03*
X187012000Y-129116000D03*
X187012000Y-133266000D03*
D32*
X139926000Y-107799000D03*
X139926000Y-106799000D03*
D33*
X141701000Y-109099000D03*
D32*
X139926000Y-104799000D03*
D33*
X141701000Y-103499000D03*
D32*
X139926000Y-105799000D03*
D34*
X172085000Y-102489000D03*
D35*
X130518000Y-114482000D03*
X130518000Y-113982000D03*
X130518000Y-113482000D03*
X130518000Y-112982000D03*
X130518000Y-112482000D03*
X130518000Y-111982000D03*
X130518000Y-111482000D03*
X130518000Y-110982000D03*
X130518000Y-110482000D03*
X130518000Y-109982000D03*
X130518000Y-109482000D03*
X130518000Y-108982000D03*
X130518000Y-108482000D03*
X130518000Y-107982000D03*
X130518000Y-107482000D03*
X130518000Y-106982000D03*
X130518000Y-106482000D03*
X130518000Y-105982000D03*
X130518000Y-105482000D03*
D36*
X129568000Y-117782000D03*
D37*
X123518000Y-117782000D03*
X123518000Y-102182000D03*
D36*
X129568000Y-102182000D03*
D38*
X183896000Y-123878000D03*
X183896000Y-120978000D03*
D39*
X183896000Y-121778000D03*
X183896000Y-123078000D03*
X183896000Y-122428000D03*
D40*
X183851000Y-118578000D03*
D41*
X188471000Y-120928000D03*
X188471000Y-123928000D03*
D40*
X187271000Y-118578000D03*
X183821000Y-126278000D03*
X187271000Y-126278000D03*
M02*
