M48
; DRILL file {KiCad 5.1.0-rc2-unknown-036be7d~80~ubuntu16.04.1} date  9.03.2022 (ср)  8:52:50 EET
; FORMAT={-:-/ absolute / inch / decimal}
; #@! TF.CreationDate,2022-03-09T08:52:50+02:00*
; #@! TF.GenerationSoftware,Kicad,Pcbnew,5.1.0-rc2-unknown-036be7d~80~ubuntu16.04.1
; #@! TF.FileFunction,Plated,1,2,PTH
FMAT,2
INCH
T1C0.0157
T2C0.0236
T3C0.0315
T4C0.0354
T5C0.0394
T6C0.0433
T7C0.1299
%
G90
G05
T1
X5.265Y-4.6362
X5.265Y-4.6738
X5.37Y-4.5762
X5.37Y-4.6138
T2
X4.73Y-4.86
X4.73Y-5.445
X4.74Y-5.275
X4.745Y-4.22
X4.745Y-4.415
X4.81Y-5.07
X4.85Y-4.335
X4.85Y-4.505
X4.855Y-4.135
X4.99Y-5.235
X5.0Y-4.87
X5.02Y-4.265
X5.03Y-4.37
X5.035Y-4.52
X5.04Y-5.43
X5.05Y-4.215
X5.05Y-4.315
X5.05Y-4.77
X5.065Y-4.43
X5.12Y-4.725
X5.16Y-5.29
X5.18Y-4.95
X5.18Y-5.04
X5.205Y-4.23
X5.405Y-4.965
X5.42Y-4.66
X5.505Y-4.015
X5.56Y-4.74
X5.69Y-4.71
X5.705Y-4.095
X5.705Y-5.38
X5.715Y-4.285
X5.74Y-4.99
X5.775Y-4.8
X5.775Y-4.875
X5.785Y-5.44
X5.8Y-4.965
X5.815Y-4.71
X5.845Y-4.335
X5.87Y-4.8
X5.875Y-5.415
X5.895Y-4.76
X5.9Y-4.93
X5.925Y-5.36
X5.95Y-4.335
X5.95Y-4.56
X5.97Y-4.98
X6.0Y-4.6
X6.0Y-4.665
X6.06Y-4.74
X6.06Y-4.8
X6.085Y-5.33
X6.1Y-5.05
X6.1Y-5.11
X6.1Y-5.39
X6.14Y-5.26
X6.1514Y-5.4339
X6.155Y-4.735
X6.195Y-5.085
X6.205Y-5.36
X6.24Y-4.735
X6.28Y-4.985
X6.3Y-5.235
X6.34Y-5.395
X6.35Y-4.81
X6.38Y-5.445
X6.395Y-5.08
X6.425Y-4.025
X6.45Y-4.8
X6.485Y-4.555
X6.49Y-4.255
X6.53Y-4.8
X6.535Y-4.285
X6.645Y-4.745
X6.7Y-4.565
X6.7Y-5.11
X6.745Y-5.45
X6.77Y-5.335
X6.845Y-5.0
X6.85Y-4.58
X6.88Y-4.41
X6.94Y-4.995
X6.95Y-4.75
X6.965Y-5.34
X7.0Y-4.565
X7.02Y-4.93
X7.02Y-4.98
X7.04Y-4.05
X7.11Y-4.2
X7.12Y-4.57
X7.165Y-4.88
X7.165Y-4.935
X7.175Y-4.71
X7.175Y-4.765
X7.195Y-4.095
X7.245Y-4.095
X7.36Y-4.235
X7.365Y-4.81
X7.45Y-5.165
X7.465Y-4.16
X7.465Y-4.285
X6.515Y-5.35
X6.545Y-5.285
X6.545Y-5.42
X6.61Y-5.255
X6.61Y-5.445
X6.675Y-5.285
X6.675Y-5.415
X6.705Y-5.35
X5.4Y-5.35
X5.43Y-5.285
X5.43Y-5.42
X5.495Y-5.255
X5.495Y-5.445
X5.56Y-5.285
X5.56Y-5.415
X5.59Y-5.35
X5.235Y-4.12
X5.265Y-4.055
X5.265Y-4.19
X5.33Y-4.025
X5.33Y-4.215
X5.395Y-4.055
X5.395Y-4.185
X5.425Y-4.12
X6.515Y-4.12
X6.545Y-4.055
X6.545Y-4.19
X6.61Y-4.025
X6.61Y-4.215
X6.675Y-4.055
X6.675Y-4.185
X6.705Y-4.12
T3
X5.5817Y-4.0719
X5.5817Y-4.1506
X5.5817Y-4.2294
X5.5817Y-4.3081
T4
X7.1745Y-5.3658
X7.2544Y-5.3657
T5
X7.4Y-4.385
X7.4Y-4.485
X7.4Y-4.585
X5.35Y-4.47
X5.35Y-5.17
X5.45Y-4.47
X5.45Y-5.17
X5.55Y-4.47
X5.55Y-5.17
X5.65Y-4.47
X5.65Y-5.17
X5.75Y-4.47
X5.75Y-5.17
X5.85Y-4.47
X5.85Y-5.17
X5.95Y-4.47
X5.95Y-5.17
X6.05Y-4.47
X6.05Y-5.17
X6.15Y-4.47
X6.15Y-5.17
X6.25Y-4.47
X6.25Y-5.17
X6.35Y-4.47
X6.35Y-5.17
X6.45Y-4.47
X6.45Y-5.17
X6.55Y-4.47
X6.55Y-5.17
X6.65Y-4.47
X6.65Y-5.17
X6.75Y-4.47
X6.75Y-5.17
X6.85Y-4.47
X6.85Y-5.17
X6.95Y-4.47
X6.95Y-5.17
X7.05Y-4.47
X7.05Y-5.17
X7.15Y-4.47
X7.15Y-5.17
X7.25Y-4.47
X7.25Y-5.17
T6
X5.87Y-4.13
X5.87Y-4.23
X5.97Y-4.13
X5.97Y-4.23
X6.07Y-4.13
X6.07Y-4.23
X6.17Y-4.13
X6.17Y-4.23
X6.27Y-4.13
X6.27Y-4.23
T7
X6.61Y-5.35
X5.495Y-5.35
X5.33Y-4.12
X6.61Y-4.12
T2
G00X7.2264Y-4.6783
M15
G01X7.25Y-4.6783
M16
G05
G00X7.2264Y-4.9617
M15
G01X7.25Y-4.9617
M16
G05
G00X7.363Y-4.6783
M15
G01X7.3867Y-4.6783
M16
G05
G00X7.363Y-4.9617
M15
G01X7.3867Y-4.9617
M16
G05
T3
G00X4.8432Y-4.0426
M15
G01X4.8826Y-4.0426
M16
G05
G00X4.8432Y-4.6174
M15
G01X4.8826Y-4.6174
M16
G05
G00X5.0735Y-4.0426
M15
G01X5.1287Y-4.0426
M16
G05
G00X5.0735Y-4.6174
M15
G01X5.1287Y-4.6174
M16
G05
T0
M30
