%TF.GenerationSoftware,KiCad,Pcbnew,5.1.0-rc2-unknown-036be7d~80~ubuntu16.04.1*%
%TF.CreationDate,2022-03-09T08:52:48+02:00*%
%TF.ProjectId,RP2040-PICO-PC_rev_C,52503230-3430-42d5-9049-434f2d50435f,C*%
%TF.SameCoordinates,Original*%
%TF.FileFunction,Legend,Bot*%
%TF.FilePolarity,Positive*%
%FSLAX46Y46*%
G04 Gerber Fmt 4.6, Leading zero omitted, Abs format (unit mm)*
G04 Created by KiCad (PCBNEW 5.1.0-rc2-unknown-036be7d~80~ubuntu16.04.1) date 2022-03-09 08:52:48*
%MOMM*%
%LPD*%
G04 APERTURE LIST*
%ADD10C,0.254000*%
%ADD11C,0.381000*%
%ADD12C,0.300000*%
%ADD13C,0.150000*%
%ADD14C,0.152400*%
%ADD15C,0.100000*%
%ADD16C,0.700000*%
%ADD17C,0.400000*%
%ADD18C,0.500000*%
%ADD19C,0.508000*%
%ADD20C,0.127000*%
%ADD21C,0.200000*%
%ADD22C,1.000000*%
%ADD23C,0.370000*%
%ADD24C,0.380000*%
%ADD25C,0.420000*%
%ADD26C,0.190500*%
%ADD27C,0.350000*%
%ADD28C,0.180000*%
G04 APERTURE END LIST*
D10*
X143092714Y-103837619D02*
X143673285Y-103837619D01*
X143383000Y-103837619D02*
X143383000Y-102821619D01*
X143479761Y-102966761D01*
X143576523Y-103063523D01*
X143673285Y-103111904D01*
D11*
X167785142Y-117783428D02*
X168293142Y-117057714D01*
X168656000Y-117783428D02*
X168656000Y-116259428D01*
X168075428Y-116259428D01*
X167930285Y-116332000D01*
X167857714Y-116404571D01*
X167785142Y-116549714D01*
X167785142Y-116767428D01*
X167857714Y-116912571D01*
X167930285Y-116985142D01*
X168075428Y-117057714D01*
X168656000Y-117057714D01*
X167132000Y-117783428D02*
X167132000Y-116259428D01*
X166551428Y-116259428D01*
X166406285Y-116332000D01*
X166333714Y-116404571D01*
X166261142Y-116549714D01*
X166261142Y-116767428D01*
X166333714Y-116912571D01*
X166406285Y-116985142D01*
X166551428Y-117057714D01*
X167132000Y-117057714D01*
X165680571Y-116404571D02*
X165608000Y-116332000D01*
X165462857Y-116259428D01*
X165100000Y-116259428D01*
X164954857Y-116332000D01*
X164882285Y-116404571D01*
X164809714Y-116549714D01*
X164809714Y-116694857D01*
X164882285Y-116912571D01*
X165753142Y-117783428D01*
X164809714Y-117783428D01*
X163866285Y-116259428D02*
X163721142Y-116259428D01*
X163576000Y-116332000D01*
X163503428Y-116404571D01*
X163430857Y-116549714D01*
X163358285Y-116840000D01*
X163358285Y-117202857D01*
X163430857Y-117493142D01*
X163503428Y-117638285D01*
X163576000Y-117710857D01*
X163721142Y-117783428D01*
X163866285Y-117783428D01*
X164011428Y-117710857D01*
X164084000Y-117638285D01*
X164156571Y-117493142D01*
X164229142Y-117202857D01*
X164229142Y-116840000D01*
X164156571Y-116549714D01*
X164084000Y-116404571D01*
X164011428Y-116332000D01*
X163866285Y-116259428D01*
X162052000Y-116767428D02*
X162052000Y-117783428D01*
X162414857Y-116186857D02*
X162777714Y-117275428D01*
X161834285Y-117275428D01*
X160963428Y-116259428D02*
X160818285Y-116259428D01*
X160673142Y-116332000D01*
X160600571Y-116404571D01*
X160528000Y-116549714D01*
X160455428Y-116840000D01*
X160455428Y-117202857D01*
X160528000Y-117493142D01*
X160600571Y-117638285D01*
X160673142Y-117710857D01*
X160818285Y-117783428D01*
X160963428Y-117783428D01*
X161108571Y-117710857D01*
X161181142Y-117638285D01*
X161253714Y-117493142D01*
X161326285Y-117202857D01*
X161326285Y-116840000D01*
X161253714Y-116549714D01*
X161181142Y-116404571D01*
X161108571Y-116332000D01*
X160963428Y-116259428D01*
X159802285Y-117202857D02*
X158641142Y-117202857D01*
X157915428Y-117783428D02*
X157915428Y-116259428D01*
X157334857Y-116259428D01*
X157189714Y-116332000D01*
X157117142Y-116404571D01*
X157044571Y-116549714D01*
X157044571Y-116767428D01*
X157117142Y-116912571D01*
X157189714Y-116985142D01*
X157334857Y-117057714D01*
X157915428Y-117057714D01*
X156391428Y-117783428D02*
X156391428Y-116259428D01*
X154794857Y-117638285D02*
X154867428Y-117710857D01*
X155085142Y-117783428D01*
X155230285Y-117783428D01*
X155448000Y-117710857D01*
X155593142Y-117565714D01*
X155665714Y-117420571D01*
X155738285Y-117130285D01*
X155738285Y-116912571D01*
X155665714Y-116622285D01*
X155593142Y-116477142D01*
X155448000Y-116332000D01*
X155230285Y-116259428D01*
X155085142Y-116259428D01*
X154867428Y-116332000D01*
X154794857Y-116404571D01*
X153851428Y-116259428D02*
X153561142Y-116259428D01*
X153416000Y-116332000D01*
X153270857Y-116477142D01*
X153198285Y-116767428D01*
X153198285Y-117275428D01*
X153270857Y-117565714D01*
X153416000Y-117710857D01*
X153561142Y-117783428D01*
X153851428Y-117783428D01*
X153996571Y-117710857D01*
X154141714Y-117565714D01*
X154214285Y-117275428D01*
X154214285Y-116767428D01*
X154141714Y-116477142D01*
X153996571Y-116332000D01*
X153851428Y-116259428D01*
X152545142Y-117202857D02*
X151384000Y-117202857D01*
X150658285Y-117783428D02*
X150658285Y-116259428D01*
X150077714Y-116259428D01*
X149932571Y-116332000D01*
X149860000Y-116404571D01*
X149787428Y-116549714D01*
X149787428Y-116767428D01*
X149860000Y-116912571D01*
X149932571Y-116985142D01*
X150077714Y-117057714D01*
X150658285Y-117057714D01*
X148263428Y-117638285D02*
X148336000Y-117710857D01*
X148553714Y-117783428D01*
X148698857Y-117783428D01*
X148916571Y-117710857D01*
X149061714Y-117565714D01*
X149134285Y-117420571D01*
X149206857Y-117130285D01*
X149206857Y-116912571D01*
X149134285Y-116622285D01*
X149061714Y-116477142D01*
X148916571Y-116332000D01*
X148698857Y-116259428D01*
X148553714Y-116259428D01*
X148336000Y-116332000D01*
X148263428Y-116404571D01*
D10*
X168637857Y-120480666D02*
X168686238Y-120432285D01*
X168783000Y-120287142D01*
X168831380Y-120190380D01*
X168879761Y-120045238D01*
X168928142Y-119803333D01*
X168928142Y-119609809D01*
X168879761Y-119367904D01*
X168831380Y-119222761D01*
X168783000Y-119126000D01*
X168686238Y-118980857D01*
X168637857Y-118932476D01*
X167815380Y-120045238D02*
X167912142Y-120093619D01*
X168105666Y-120093619D01*
X168202428Y-120045238D01*
X168250809Y-119996857D01*
X168299190Y-119900095D01*
X168299190Y-119609809D01*
X168250809Y-119513047D01*
X168202428Y-119464666D01*
X168105666Y-119416285D01*
X167912142Y-119416285D01*
X167815380Y-119464666D01*
X167476714Y-120480666D02*
X167428333Y-120432285D01*
X167331571Y-120287142D01*
X167283190Y-120190380D01*
X167234809Y-120045238D01*
X167186428Y-119803333D01*
X167186428Y-119609809D01*
X167234809Y-119367904D01*
X167283190Y-119222761D01*
X167331571Y-119126000D01*
X167428333Y-118980857D01*
X167476714Y-118932476D01*
X165976904Y-119174380D02*
X165928523Y-119126000D01*
X165831761Y-119077619D01*
X165589857Y-119077619D01*
X165493095Y-119126000D01*
X165444714Y-119174380D01*
X165396333Y-119271142D01*
X165396333Y-119367904D01*
X165444714Y-119513047D01*
X166025285Y-120093619D01*
X165396333Y-120093619D01*
X164767380Y-119077619D02*
X164670619Y-119077619D01*
X164573857Y-119126000D01*
X164525476Y-119174380D01*
X164477095Y-119271142D01*
X164428714Y-119464666D01*
X164428714Y-119706571D01*
X164477095Y-119900095D01*
X164525476Y-119996857D01*
X164573857Y-120045238D01*
X164670619Y-120093619D01*
X164767380Y-120093619D01*
X164864142Y-120045238D01*
X164912523Y-119996857D01*
X164960904Y-119900095D01*
X165009285Y-119706571D01*
X165009285Y-119464666D01*
X164960904Y-119271142D01*
X164912523Y-119174380D01*
X164864142Y-119126000D01*
X164767380Y-119077619D01*
X164041666Y-119174380D02*
X163993285Y-119126000D01*
X163896523Y-119077619D01*
X163654619Y-119077619D01*
X163557857Y-119126000D01*
X163509476Y-119174380D01*
X163461095Y-119271142D01*
X163461095Y-119367904D01*
X163509476Y-119513047D01*
X164090047Y-120093619D01*
X163461095Y-120093619D01*
X163074047Y-119174380D02*
X163025666Y-119126000D01*
X162928904Y-119077619D01*
X162687000Y-119077619D01*
X162590238Y-119126000D01*
X162541857Y-119174380D01*
X162493476Y-119271142D01*
X162493476Y-119367904D01*
X162541857Y-119513047D01*
X163122428Y-120093619D01*
X162493476Y-120093619D01*
X151498904Y-120093619D02*
X151837571Y-119609809D01*
X152079476Y-120093619D02*
X152079476Y-119077619D01*
X151692428Y-119077619D01*
X151595666Y-119126000D01*
X151547285Y-119174380D01*
X151498904Y-119271142D01*
X151498904Y-119416285D01*
X151547285Y-119513047D01*
X151595666Y-119561428D01*
X151692428Y-119609809D01*
X152079476Y-119609809D01*
X150676428Y-120045238D02*
X150773190Y-120093619D01*
X150966714Y-120093619D01*
X151063476Y-120045238D01*
X151111857Y-119948476D01*
X151111857Y-119561428D01*
X151063476Y-119464666D01*
X150966714Y-119416285D01*
X150773190Y-119416285D01*
X150676428Y-119464666D01*
X150628047Y-119561428D01*
X150628047Y-119658190D01*
X151111857Y-119754952D01*
X150289380Y-119416285D02*
X150047476Y-120093619D01*
X149805571Y-119416285D01*
X149418523Y-119996857D02*
X149370142Y-120045238D01*
X149418523Y-120093619D01*
X149466904Y-120045238D01*
X149418523Y-119996857D01*
X149418523Y-120093619D01*
X148354142Y-119996857D02*
X148402523Y-120045238D01*
X148547666Y-120093619D01*
X148644428Y-120093619D01*
X148789571Y-120045238D01*
X148886333Y-119948476D01*
X148934714Y-119851714D01*
X148983095Y-119658190D01*
X148983095Y-119513047D01*
X148934714Y-119319523D01*
X148886333Y-119222761D01*
X148789571Y-119126000D01*
X148644428Y-119077619D01*
X148547666Y-119077619D01*
X148402523Y-119126000D01*
X148354142Y-119174380D01*
X134015238Y-131354285D02*
X133821714Y-132031619D01*
X133628190Y-131547809D01*
X133434666Y-132031619D01*
X133241142Y-131354285D01*
X132950857Y-131354285D02*
X132757333Y-132031619D01*
X132563809Y-131547809D01*
X132370285Y-132031619D01*
X132176761Y-131354285D01*
X131886476Y-131354285D02*
X131692952Y-132031619D01*
X131499428Y-131547809D01*
X131305904Y-132031619D01*
X131112380Y-131354285D01*
X130725333Y-131934857D02*
X130676952Y-131983238D01*
X130725333Y-132031619D01*
X130773714Y-131983238D01*
X130725333Y-131934857D01*
X130725333Y-132031619D01*
X130096380Y-132031619D02*
X130193142Y-131983238D01*
X130241523Y-131934857D01*
X130289904Y-131838095D01*
X130289904Y-131547809D01*
X130241523Y-131451047D01*
X130193142Y-131402666D01*
X130096380Y-131354285D01*
X129951238Y-131354285D01*
X129854476Y-131402666D01*
X129806095Y-131451047D01*
X129757714Y-131547809D01*
X129757714Y-131838095D01*
X129806095Y-131934857D01*
X129854476Y-131983238D01*
X129951238Y-132031619D01*
X130096380Y-132031619D01*
X129177142Y-132031619D02*
X129273904Y-131983238D01*
X129322285Y-131886476D01*
X129322285Y-131015619D01*
X128790095Y-132031619D02*
X128790095Y-131354285D01*
X128790095Y-131015619D02*
X128838476Y-131064000D01*
X128790095Y-131112380D01*
X128741714Y-131064000D01*
X128790095Y-131015619D01*
X128790095Y-131112380D01*
X128306285Y-132031619D02*
X128306285Y-131354285D01*
X128306285Y-131451047D02*
X128257904Y-131402666D01*
X128161142Y-131354285D01*
X128016000Y-131354285D01*
X127919238Y-131402666D01*
X127870857Y-131499428D01*
X127870857Y-132031619D01*
X127870857Y-131499428D02*
X127822476Y-131402666D01*
X127725714Y-131354285D01*
X127580571Y-131354285D01*
X127483809Y-131402666D01*
X127435428Y-131499428D01*
X127435428Y-132031619D01*
X126564571Y-131983238D02*
X126661333Y-132031619D01*
X126854857Y-132031619D01*
X126951619Y-131983238D01*
X127000000Y-131886476D01*
X127000000Y-131499428D01*
X126951619Y-131402666D01*
X126854857Y-131354285D01*
X126661333Y-131354285D01*
X126564571Y-131402666D01*
X126516190Y-131499428D01*
X126516190Y-131596190D01*
X127000000Y-131692952D01*
X126177523Y-132031619D02*
X125645333Y-131354285D01*
X126177523Y-131354285D02*
X125645333Y-132031619D01*
X125258285Y-131934857D02*
X125209904Y-131983238D01*
X125258285Y-132031619D01*
X125306666Y-131983238D01*
X125258285Y-131934857D01*
X125258285Y-132031619D01*
X124339047Y-131983238D02*
X124435809Y-132031619D01*
X124629333Y-132031619D01*
X124726095Y-131983238D01*
X124774476Y-131934857D01*
X124822857Y-131838095D01*
X124822857Y-131547809D01*
X124774476Y-131451047D01*
X124726095Y-131402666D01*
X124629333Y-131354285D01*
X124435809Y-131354285D01*
X124339047Y-131402666D01*
X123758476Y-132031619D02*
X123855238Y-131983238D01*
X123903619Y-131934857D01*
X123952000Y-131838095D01*
X123952000Y-131547809D01*
X123903619Y-131451047D01*
X123855238Y-131402666D01*
X123758476Y-131354285D01*
X123613333Y-131354285D01*
X123516571Y-131402666D01*
X123468190Y-131451047D01*
X123419809Y-131547809D01*
X123419809Y-131838095D01*
X123468190Y-131934857D01*
X123516571Y-131983238D01*
X123613333Y-132031619D01*
X123758476Y-132031619D01*
X122984380Y-132031619D02*
X122984380Y-131354285D01*
X122984380Y-131451047D02*
X122936000Y-131402666D01*
X122839238Y-131354285D01*
X122694095Y-131354285D01*
X122597333Y-131402666D01*
X122548952Y-131499428D01*
X122548952Y-132031619D01*
X122548952Y-131499428D02*
X122500571Y-131402666D01*
X122403809Y-131354285D01*
X122258666Y-131354285D01*
X122161904Y-131402666D01*
X122113523Y-131499428D01*
X122113523Y-132031619D01*
%TO.C,REF\002A\002A*%
X140105000Y-127889000D02*
X141355000Y-127889000D01*
X140105000Y-128139000D02*
X141355000Y-128139000D01*
X140105000Y-127639000D02*
X140105000Y-128139000D01*
X141355000Y-127639000D02*
X140105000Y-127639000D01*
X139855000Y-125889000D02*
X139855000Y-126389000D01*
X139855000Y-129889000D02*
G75*
G03X139855000Y-125889000I0J2000000D01*
G01*
X139855000Y-129389000D02*
X139855000Y-129889000D01*
D12*
X139904980Y-129639000D02*
G75*
G03X139905000Y-126139000I-49980J1750000D01*
G01*
D10*
X139855000Y-129389000D02*
G75*
G03X139855000Y-126389000I0J1500000D01*
G01*
D12*
X143404980Y-129639000D02*
G75*
G03X143405000Y-126139000I-49980J1750000D01*
G01*
D10*
X143355000Y-129389000D02*
X143355000Y-129889000D01*
X143355000Y-125889000D02*
X143355000Y-126389000D01*
X143355000Y-129889000D02*
G75*
G03X143355000Y-125889000I0J2000000D01*
G01*
X143355000Y-129389000D02*
G75*
G03X143355000Y-126389000I0J1500000D01*
G01*
%TO.C,Antistatic*%
X160401000Y-122809000D02*
X163957000Y-129921000D01*
X163957000Y-129921000D02*
X156845000Y-129921000D01*
X156845000Y-129921000D02*
X158178500Y-127254000D01*
X158178500Y-127254000D02*
X158623000Y-126365000D01*
X158623000Y-126365000D02*
X160401000Y-122809000D01*
X162179000Y-126428500D02*
X156845000Y-129921000D01*
X159804100Y-126365000D02*
X158623000Y-126365000D01*
X158178500Y-127254000D02*
X158496000Y-127254000D01*
X161163000Y-128841500D02*
X161010600Y-128841500D01*
X162115500Y-127444500D02*
X162115500Y-128524000D01*
X161671000Y-128841500D02*
X161671000Y-128714500D01*
X161734500Y-128651000D02*
X161734500Y-127635000D01*
X161734500Y-128651000D02*
X161798000Y-128651000D01*
X161798000Y-128651000D02*
G75*
G02X161925000Y-128778000I0J-127000D01*
G01*
X161671000Y-128714500D02*
G75*
G02X161734500Y-128651000I63500J0D01*
G01*
X161732071Y-128907545D02*
G75*
G02X161671000Y-128841500I2429J63505D01*
G01*
X162115500Y-128524000D02*
G75*
G02X161734500Y-128905000I-381000J0D01*
G01*
X161926048Y-127128575D02*
G75*
G02X162115500Y-127444500I-168688J-315925D01*
G01*
X161923549Y-127127142D02*
G75*
G02X161607500Y-126809500I478971J792622D01*
G01*
X161732935Y-127636845D02*
G75*
G02X161036000Y-127190500I153965J1007685D01*
G01*
X161289068Y-128397674D02*
G75*
G02X161290000Y-128714500I-316568J-159346D01*
G01*
X161289967Y-128714600D02*
G75*
G02X161163000Y-128841500I-190467J63600D01*
G01*
X159961275Y-127953493D02*
G75*
G02X160401000Y-128079500I-825195J-3709947D01*
G01*
X160400915Y-128080965D02*
G75*
G02X160972500Y-128841500I-284395J-808795D01*
G01*
X160338708Y-127636166D02*
G75*
G02X161290000Y-128397000I-285688J-1332334D01*
G01*
X159826461Y-127890576D02*
G75*
G02X159004000Y-127444500I147819J1253796D01*
G01*
X158495301Y-127254474D02*
G75*
G02X159004000Y-127444500I64199J-604046D01*
G01*
X160019915Y-126303114D02*
G75*
G02X159804100Y-126365000I-182795J230214D01*
G01*
X160020721Y-126301678D02*
G75*
G02X161607500Y-126809500I466639J-1274902D01*
G01*
D13*
%TO.C,5V_ENABLE1*%
X129159000Y-120523000D02*
X128143000Y-120523000D01*
X129413000Y-119761000D02*
X129413000Y-120269000D01*
X128143000Y-119507000D02*
X129159000Y-119507000D01*
X127889000Y-120269000D02*
X127889000Y-119761000D01*
D14*
X128143000Y-120523000D02*
G75*
G02X127889000Y-120269000I0J254000D01*
G01*
X129413000Y-120269000D02*
G75*
G02X129159000Y-120523000I-254000J0D01*
G01*
X129159000Y-119507000D02*
G75*
G02X129413000Y-119761000I0J-254000D01*
G01*
X127889000Y-119761000D02*
G75*
G02X128143000Y-119507000I254000J0D01*
G01*
D15*
%TO.C,OLIMEX_LOGO*%
X124726700Y-125679200D02*
X123355100Y-125679200D01*
X123355100Y-125679200D02*
X123304300Y-125679200D01*
X123304300Y-125679200D02*
X122047000Y-126923800D01*
X126250700Y-125793500D02*
X126149100Y-125793500D01*
X126098300Y-125730000D02*
X126098300Y-125717300D01*
X126098300Y-125717300D02*
X127393700Y-125717300D01*
X127393700Y-125717300D02*
X127419100Y-125717300D01*
X127419100Y-125717300D02*
X128041400Y-126212600D01*
X126098300Y-128739900D02*
X126098300Y-125730000D01*
X129755900Y-125780800D02*
X129832100Y-125780800D01*
X129908300Y-125717300D02*
X128663700Y-125717300D01*
X128663700Y-125717300D02*
X128079500Y-126199900D01*
X129908300Y-128714500D02*
X129908300Y-125730000D01*
X130644900Y-128308100D02*
X130556000Y-128308100D01*
X130987800Y-128308100D02*
X131051300Y-128308100D01*
X131127500Y-128371600D02*
X130517900Y-128371600D01*
X130517900Y-128371600D02*
X130492500Y-128371600D01*
X130492500Y-128371600D02*
X130492500Y-126352300D01*
X131127500Y-126352300D02*
X131127500Y-128371600D01*
X132626100Y-125742700D02*
X132511800Y-125742700D01*
X132753100Y-125666500D02*
X132448300Y-125666500D01*
X132448300Y-125666500D02*
X132448300Y-128701800D01*
X132930900Y-125755400D02*
X132994400Y-125742700D01*
X133045200Y-125666500D02*
X133057900Y-125666500D01*
X133057900Y-125666500D02*
X133070600Y-125666500D01*
X133070600Y-125666500D02*
X133070600Y-128816100D01*
X132765800Y-125666500D02*
X133045200Y-125666500D01*
D16*
X132765800Y-128739900D02*
X132765800Y-126009400D01*
X126428500Y-126022100D02*
X126428500Y-128625600D01*
X134543800Y-126009400D02*
X135547100Y-126009400D01*
X133921500Y-126619000D02*
X133921500Y-128549400D01*
X136144000Y-126657100D02*
X136144000Y-126898400D01*
X136144000Y-128625600D02*
X135559800Y-129197100D01*
X136131300Y-128638300D02*
X136131300Y-127876300D01*
X135572500Y-129197100D02*
X134531100Y-129197100D01*
D17*
X123803659Y-127584200D02*
G75*
G03X123803659Y-127584200I-359659J0D01*
G01*
D16*
X123952000Y-127584200D02*
X125171200Y-127584200D01*
D17*
X120869735Y-125844300D02*
G75*
G03X120869735Y-125844300I-359435J0D01*
G01*
D16*
X120878600Y-126199900D02*
X121742200Y-127093600D01*
D18*
X122301000Y-127190500D02*
X121742200Y-127190500D01*
D16*
X123418600Y-126009400D02*
X122326400Y-127076200D01*
X124640500Y-126009400D02*
X123418600Y-126009400D01*
X125171200Y-126492000D02*
X124688600Y-125984000D01*
X125171200Y-126517400D02*
X125171200Y-128752600D01*
X125171200Y-128752600D02*
X124739400Y-129184400D01*
X124739400Y-129184400D02*
X123418600Y-129184400D01*
X123418600Y-129184400D02*
X122275600Y-128066800D01*
D18*
X122275600Y-127965200D02*
X121742200Y-127965200D01*
D16*
X120929400Y-128879600D02*
X121767600Y-128066800D01*
D17*
X120928666Y-129235200D02*
G75*
G03X120928666Y-129235200I-329466J0D01*
G01*
X126791729Y-129146300D02*
G75*
G03X126791729Y-129146300I-363229J0D01*
G01*
D16*
X127330200Y-126034800D02*
X126441200Y-126034800D01*
D17*
X128412318Y-127863600D02*
G75*
G03X128412318Y-127863600I-370918J0D01*
G01*
D16*
X127965200Y-126542800D02*
X127330200Y-126034800D01*
X128041400Y-127330200D02*
X128041400Y-126619000D01*
X128752600Y-126034800D02*
X128143000Y-126542800D01*
X129590800Y-126034800D02*
X128752600Y-126034800D01*
X129590800Y-128625600D02*
X129590800Y-126034800D01*
D17*
X129937759Y-129133600D02*
G75*
G03X129937759Y-129133600I-359659J0D01*
G01*
X131170818Y-125933200D02*
G75*
G03X131170818Y-125933200I-373518J0D01*
G01*
D16*
X130810000Y-126466600D02*
X130810000Y-128066800D01*
D17*
X131176324Y-129159000D02*
G75*
G03X131176324Y-129159000I-366324J0D01*
G01*
D16*
X131322800Y-129184400D02*
X132308600Y-129184400D01*
X132308600Y-129184400D02*
X132765800Y-128727200D01*
X133934200Y-128587500D02*
X134493000Y-129171700D01*
X134543800Y-126022100D02*
X133908800Y-126631700D01*
X136144000Y-126606300D02*
X135636000Y-126098300D01*
D17*
X136468747Y-127381000D02*
G75*
G03X136468747Y-127381000I-337447J0D01*
G01*
D10*
%TO.C,RoHS_Complaint*%
X169291000Y-126873000D02*
X181102000Y-126873000D01*
X181102000Y-129921000D02*
X169291000Y-129921000D01*
X168435020Y-125890020D02*
X168381680Y-125836680D01*
X167662860Y-125836680D02*
X167386000Y-126111000D01*
X174244000Y-120904000D02*
X173377860Y-123019820D01*
X171394120Y-125407420D02*
X171358560Y-125442980D01*
X169489120Y-126111000D02*
X168973500Y-126111000D01*
X174244000Y-120904000D02*
X173382940Y-121523760D01*
X171665900Y-121861580D02*
X169517060Y-121666000D01*
X167467280Y-123182380D02*
X167319960Y-123781820D01*
X167261540Y-124460000D02*
X167261540Y-124841000D01*
X167363140Y-126065280D02*
X167386000Y-126111000D01*
X168021000Y-127381000D02*
X167835580Y-127195580D01*
X172849540Y-122555000D02*
X172567600Y-122902980D01*
X170540680Y-123654820D02*
X170230800Y-123715780D01*
X167675560Y-124985780D02*
X167505380Y-125173740D01*
X167261540Y-124841000D02*
X167264080Y-124838460D01*
X168320720Y-123766580D02*
X168328340Y-123761500D01*
X169595800Y-123258580D02*
X170113960Y-123184920D01*
X171462700Y-122969020D02*
X172849540Y-122555000D01*
X168021000Y-127508000D02*
X167513000Y-126746000D01*
X167386000Y-126283720D02*
X167386000Y-126238000D01*
X168148000Y-127381000D02*
X167657780Y-126890780D01*
X167386000Y-126619000D02*
X167281860Y-126725680D01*
X166631620Y-126753620D02*
X166497000Y-126619000D01*
X166497000Y-126619000D02*
X166794180Y-126199900D01*
X166677340Y-124998480D02*
X166624000Y-124904500D01*
X165902640Y-124259340D02*
X165481000Y-124079000D01*
X165481000Y-124079000D02*
X164465000Y-123698000D01*
X164465000Y-123698000D02*
X164599620Y-124236480D01*
X164779960Y-126298960D02*
X164802820Y-126321820D01*
X165582600Y-126619000D02*
X165938200Y-126619000D01*
X166484300Y-126619000D02*
X166497000Y-126619000D01*
X165404800Y-125427740D02*
X165430200Y-125818900D01*
X173863000Y-121412000D02*
X172849540Y-122049540D01*
D19*
X172849540Y-122049540D02*
X171704000Y-122049540D01*
X171704000Y-122049540D02*
X170688000Y-121920000D01*
X170688000Y-121920000D02*
X169037000Y-121920000D01*
X169037000Y-121920000D02*
X168402000Y-122301000D01*
X168402000Y-122301000D02*
X167894000Y-122809000D01*
X167894000Y-122809000D02*
X167640000Y-123317000D01*
X167640000Y-123317000D02*
X167513000Y-124333000D01*
X167513000Y-124333000D02*
X168021000Y-123698000D01*
X168021000Y-123698000D02*
X168656000Y-123317000D01*
X168656000Y-123317000D02*
X168402000Y-122809000D01*
X168402000Y-122809000D02*
X168021000Y-123317000D01*
X168783000Y-123317000D02*
X169418000Y-122936000D01*
X169418000Y-122936000D02*
X169926000Y-122936000D01*
X169926000Y-122936000D02*
X170053000Y-122936000D01*
X170053000Y-122936000D02*
X171196000Y-122809000D01*
X171196000Y-122809000D02*
X172466000Y-122428000D01*
X172466000Y-122428000D02*
X172974000Y-122301000D01*
X172974000Y-122301000D02*
X168402000Y-122301000D01*
X168402000Y-122301000D02*
X168402000Y-122555000D01*
X168402000Y-122809000D02*
X168402000Y-122555000D01*
X168402000Y-122555000D02*
X173355000Y-122478800D01*
X168275000Y-122936000D02*
X169926000Y-122936000D01*
X173863000Y-121412000D02*
X173355000Y-122301000D01*
X173355000Y-122301000D02*
X173228000Y-122809000D01*
X173228000Y-122809000D02*
X172849540Y-123317000D01*
X172849540Y-123317000D02*
X172849540Y-122936000D01*
X172849540Y-122936000D02*
X173228000Y-122049540D01*
X172720000Y-123444000D02*
X172339000Y-123952000D01*
X172339000Y-123952000D02*
X172085000Y-124333000D01*
X172085000Y-124333000D02*
X171196000Y-125222000D01*
X171196000Y-125222000D02*
X170688000Y-125603000D01*
X170688000Y-125603000D02*
X169799000Y-125857000D01*
X169799000Y-125857000D02*
X168910000Y-125857000D01*
X168910000Y-125857000D02*
X168148000Y-125349000D01*
X168148000Y-125349000D02*
X167767000Y-125476000D01*
X167767000Y-125476000D02*
X167513000Y-125730000D01*
X167513000Y-125730000D02*
X167767000Y-125222000D01*
X167767000Y-125222000D02*
X168275000Y-124714000D01*
X168275000Y-124714000D02*
X168960800Y-124307600D01*
X168960800Y-124307600D02*
X170357800Y-123825000D01*
X170357800Y-123825000D02*
X170967400Y-123825000D01*
X170967400Y-123825000D02*
X171704000Y-123571000D01*
X171704000Y-123571000D02*
X172466000Y-123190000D01*
X172339000Y-123571000D02*
X171577000Y-124206000D01*
X171577000Y-124206000D02*
X171450000Y-124079000D01*
X171450000Y-124079000D02*
X171323000Y-124079000D01*
X171323000Y-124079000D02*
X170180000Y-124206000D01*
X170180000Y-124206000D02*
X169164000Y-124460000D01*
X169164000Y-124460000D02*
X168529000Y-124968000D01*
X168529000Y-124968000D02*
X168402000Y-125095000D01*
X168402000Y-125095000D02*
X168529000Y-125349000D01*
X168529000Y-125349000D02*
X168783000Y-125349000D01*
X168783000Y-125349000D02*
X169164000Y-125476000D01*
X169164000Y-125476000D02*
X169799000Y-125476000D01*
X169799000Y-125476000D02*
X170180000Y-125349000D01*
X170180000Y-125349000D02*
X170688000Y-125222000D01*
X170688000Y-125222000D02*
X171323000Y-124714000D01*
X171323000Y-124714000D02*
X171450000Y-124587000D01*
X171450000Y-124587000D02*
X171323000Y-124460000D01*
X171323000Y-124460000D02*
X170815000Y-124460000D01*
X170815000Y-124460000D02*
X169799000Y-124714000D01*
X169799000Y-124714000D02*
X169545000Y-124714000D01*
X169545000Y-124714000D02*
X169037000Y-124968000D01*
X169037000Y-124968000D02*
X169037000Y-125095000D01*
X169037000Y-125095000D02*
X169164000Y-125222000D01*
X169164000Y-125222000D02*
X169545000Y-125095000D01*
X169545000Y-125095000D02*
X170815000Y-124841000D01*
D10*
X166194740Y-126494540D02*
X166222680Y-126522480D01*
X165811200Y-125425200D02*
X165811200Y-125417580D01*
X166751000Y-125879860D02*
X166751000Y-125857000D01*
X166751000Y-125857000D02*
X166751000Y-125603000D01*
X166751000Y-125603000D02*
X166624000Y-125603000D01*
X166624000Y-125603000D02*
X166497000Y-125603000D01*
X166497000Y-125603000D02*
X166497000Y-126238000D01*
X166624000Y-125603000D02*
X166624000Y-125730000D01*
X166624000Y-125730000D02*
X166624000Y-126111000D01*
X166624000Y-126111000D02*
X166624000Y-126238000D01*
X166624000Y-126238000D02*
X166624000Y-126365000D01*
X166497000Y-125603000D02*
X166116000Y-125603000D01*
X166116000Y-125603000D02*
X165862000Y-125603000D01*
X165862000Y-125603000D02*
X166370000Y-126492000D01*
X166116000Y-125603000D02*
X166116000Y-126111000D01*
X166624000Y-125730000D02*
X165989000Y-125730000D01*
X166751000Y-125857000D02*
X165989000Y-125857000D01*
X166751000Y-125984000D02*
X165989000Y-125984000D01*
X166624000Y-126111000D02*
X165989000Y-126111000D01*
X166624000Y-126238000D02*
X166116000Y-126238000D01*
X165862000Y-125476000D02*
X166751000Y-125476000D01*
X165862000Y-125349000D02*
X166751000Y-125349000D01*
X165862000Y-125222000D02*
X166624000Y-125222000D01*
X165862000Y-125095000D02*
X166624000Y-125095000D01*
X165735000Y-124968000D02*
X166624000Y-124968000D01*
X165735000Y-124841000D02*
X166497000Y-124841000D01*
X165608000Y-124714000D02*
X166370000Y-124714000D01*
X165608000Y-124587000D02*
X166243000Y-124587000D01*
X165481000Y-124460000D02*
X165989000Y-124460000D01*
X164719000Y-124333000D02*
X164846000Y-124333000D01*
X164846000Y-124333000D02*
X164973000Y-124333000D01*
X164973000Y-124333000D02*
X165862000Y-124333000D01*
X165481000Y-124206000D02*
X164719000Y-124206000D01*
X165227000Y-124079000D02*
X164592000Y-124079000D01*
X165100000Y-123952000D02*
X164592000Y-123952000D01*
X164973000Y-124333000D02*
X164973000Y-124841000D01*
X164846000Y-124333000D02*
X164846000Y-124841000D01*
X165227000Y-124841000D02*
X164719000Y-124841000D01*
X165227000Y-124968000D02*
X164719000Y-124968000D01*
X165354000Y-125095000D02*
X164719000Y-125095000D01*
X165354000Y-125222000D02*
X164592000Y-125222000D01*
X165354000Y-125349000D02*
X164592000Y-125349000D01*
X165354000Y-125476000D02*
X164592000Y-125476000D01*
X165354000Y-125603000D02*
X164592000Y-125603000D01*
X165354000Y-125730000D02*
X164592000Y-125730000D01*
X165354000Y-125857000D02*
X164592000Y-125857000D01*
X165430200Y-125984000D02*
X164592000Y-125984000D01*
X165481000Y-126111000D02*
X164719000Y-126111000D01*
X165481000Y-126238000D02*
X164846000Y-126238000D01*
X165608000Y-126365000D02*
X164973000Y-126365000D01*
X165735000Y-126492000D02*
X165227000Y-126492000D01*
X166750556Y-125881371D02*
G75*
G02X166497000Y-126492000I-865696J1511D01*
G01*
X165304020Y-124386180D02*
G75*
G02X165811200Y-125417580I-991420J-1127920D01*
G01*
X166221340Y-126522046D02*
G75*
G02X165811200Y-125425200I1118940J1043506D01*
G01*
X166498788Y-126620791D02*
G75*
G02X166194740Y-126494540I752J431051D01*
G01*
X165932340Y-126614613D02*
G75*
G02X165430200Y-125818900I709440J1003993D01*
G01*
X165050795Y-124480066D02*
G75*
G02X165404800Y-125470920I-1408755J-1061974D01*
G01*
X165583927Y-126620303D02*
G75*
G02X165384480Y-126596140I-1327J824263D01*
G01*
X165382497Y-126595453D02*
G75*
G02X164802820Y-126321820I205183J1185493D01*
G01*
X164778946Y-126299974D02*
G75*
G02X164465000Y-125542040I757934J757934D01*
G01*
X164465283Y-125542487D02*
G75*
G02X164536120Y-125173740I992857J447D01*
G01*
X164600148Y-124239136D02*
G75*
G02X164536120Y-125173740I-1478808J-368184D01*
G01*
X165902000Y-124260511D02*
G75*
G02X166624000Y-124904500I-601340J-1400909D01*
G01*
X166677794Y-125000321D02*
G75*
G02X166878000Y-125755400I-1323794J-755079D01*
G01*
X166879874Y-125755901D02*
G75*
G02X166794180Y-126199900I-1195674J501D01*
G01*
X166923720Y-126874612D02*
G75*
G02X166631620Y-126753620I0J413092D01*
G01*
X167281134Y-126724954D02*
G75*
G02X166923720Y-126873000I-357414J357414D01*
G01*
X167654258Y-126890710D02*
G75*
G02X167386000Y-126238000I653762J650170D01*
G01*
X167891978Y-127508280D02*
G75*
G02X167386000Y-126283720I1228842J1224560D01*
G01*
X171456379Y-122969186D02*
G75*
G02X170113960Y-123184920I-1812319J6992786D01*
G01*
X168332130Y-123758934D02*
G75*
G02X169595800Y-123258580I2134890J-3545866D01*
G01*
X167265641Y-124836765D02*
G75*
G02X168320720Y-123766580I3831299J-2722035D01*
G01*
X167385155Y-126111069D02*
G75*
G02X167505380Y-125173740I762845J378529D01*
G01*
X167676473Y-124985156D02*
G75*
G02X170230800Y-123715780I3654147J-4148444D01*
G01*
X172567541Y-122904778D02*
G75*
G02X170540680Y-123654820I-2631381J3997218D01*
G01*
X167833549Y-127196559D02*
G75*
G02X167386000Y-126111000I1086611J1083019D01*
G01*
X167259760Y-124459243D02*
G75*
G02X167319960Y-123781820I3049780J70363D01*
G01*
X167466736Y-123178585D02*
G75*
G02X169517060Y-121666000I2144304J-760715D01*
G01*
X173380952Y-121521522D02*
G75*
G02X171665900Y-121861580I-1268012J1900222D01*
G01*
X171354933Y-125445013D02*
G75*
G02X169489120Y-126111000I-1738813J1924813D01*
G01*
X173375464Y-123025447D02*
G75*
G02X171394120Y-125407420I-8344044J4925607D01*
G01*
X167662860Y-125834140D02*
G75*
G02X168381680Y-125836680I358140J-360680D01*
G01*
X168973500Y-126113066D02*
G75*
G02X168435020Y-125890020I0J761526D01*
G01*
X169291000Y-129921000D02*
G75*
G02X167767000Y-128397000I0J1524000D01*
G01*
X182626000Y-128397000D02*
G75*
G02X181102000Y-129921000I-1524000J0D01*
G01*
X181102000Y-126873000D02*
G75*
G02X182626000Y-128397000I0J-1524000D01*
G01*
X167767000Y-128397000D02*
G75*
G02X169291000Y-126873000I1524000J0D01*
G01*
D20*
%TO.C,Recycle_bin*%
X151257000Y-128143000D02*
G75*
G03X151257000Y-128143000I-127000J0D01*
G01*
D10*
X152273000Y-124079000D02*
X152273000Y-124206000D01*
X152273000Y-124206000D02*
X151892000Y-124206000D01*
X151892000Y-124206000D02*
X151892000Y-124079000D01*
X151892000Y-124079000D02*
X152273000Y-124079000D01*
X152146000Y-125603000D02*
X151511000Y-125603000D01*
X152273000Y-125476000D02*
X151384000Y-125476000D01*
X151384000Y-125476000D02*
X151384000Y-125857000D01*
X151384000Y-125857000D02*
X152273000Y-125857000D01*
X152273000Y-125857000D02*
X152273000Y-125476000D01*
X150876000Y-125476000D02*
X150876000Y-125095000D01*
X150876000Y-125095000D02*
X150749000Y-125095000D01*
X150749000Y-125095000D02*
X150749000Y-125476000D01*
X150876000Y-125095000D02*
X150876000Y-125222000D01*
X150876000Y-124968000D02*
X150749000Y-125349000D01*
X150876000Y-125095000D02*
X150876000Y-125222000D01*
X151003000Y-124968000D02*
X151003000Y-125476000D01*
X151003000Y-125476000D02*
X150622000Y-125476000D01*
X150622000Y-125476000D02*
X150622000Y-124968000D01*
X153035000Y-124841000D02*
X153035000Y-124333000D01*
X153035000Y-124333000D02*
X152908000Y-124333000D01*
X152908000Y-124333000D02*
X152908000Y-124841000D01*
X151531609Y-128143000D02*
G75*
G03X151531609Y-128143000I-401609J0D01*
G01*
X151130000Y-127635000D02*
X151003000Y-125603000D01*
X153035000Y-128143000D02*
X153035000Y-128524000D01*
X153035000Y-128524000D02*
X152527000Y-128524000D01*
X152527000Y-128524000D02*
X152527000Y-128270000D01*
X153543000Y-124968000D02*
X150622000Y-124968000D01*
X153035000Y-128143000D02*
X153289000Y-125095000D01*
X153035000Y-128143000D02*
X151638000Y-128143000D01*
X154051000Y-128524000D02*
X149987000Y-124587000D01*
X154178000Y-124460000D02*
X149987000Y-128651000D01*
D13*
X154333200Y-129896400D02*
X149913600Y-129896400D01*
X149913600Y-129794800D02*
X154282400Y-129794800D01*
X154333200Y-129591600D02*
X149862800Y-129591600D01*
X154333200Y-129439200D02*
X149913600Y-129439200D01*
X149862800Y-129693200D02*
X154282400Y-129693200D01*
X149862800Y-129540800D02*
X154282400Y-129540800D01*
X154333200Y-129388400D02*
X149862800Y-129388400D01*
X149862800Y-129286800D02*
X154282400Y-129286800D01*
X149812000Y-129998000D02*
X154384000Y-129998000D01*
X154384000Y-129998000D02*
X154384000Y-129236000D01*
X154384000Y-129236000D02*
X149812000Y-129236000D01*
X149812000Y-129236000D02*
X149812000Y-129998000D01*
D10*
X151003000Y-124841000D02*
G75*
G02X153289000Y-124841000I1143000J-1143000D01*
G01*
D21*
%TO.C,PB_FREE*%
X181703980Y-104693720D02*
X179270660Y-107114340D01*
D10*
X182345437Y-105857040D02*
G75*
G03X182345437Y-105857040I-1802237J0D01*
G01*
D22*
%TO.C,Open_Hardware*%
X126725680Y-108635800D02*
X126392940Y-109367320D01*
X126725680Y-108727240D02*
X125544580Y-109740700D01*
X126611380Y-108590080D02*
X125994160Y-108917740D01*
X126291340Y-108170980D02*
X125681740Y-108277660D01*
X125455680Y-107012740D02*
X126177040Y-107160060D01*
X125696980Y-106319320D02*
X126352300Y-106685080D01*
X126565660Y-105450640D02*
X126984760Y-106037380D01*
X127152400Y-105199180D02*
X127373380Y-105884980D01*
X128417320Y-105183940D02*
X128249680Y-105793540D01*
X128851660Y-105443020D02*
X128676400Y-105801160D01*
X129849880Y-106220260D02*
X129392680Y-106509820D01*
X130025140Y-106700320D02*
X129583180Y-106860340D01*
X130350260Y-107944920D02*
X129644140Y-107817920D01*
X130101340Y-108590080D02*
X129537460Y-108110020D01*
X129435860Y-109489240D02*
X129070100Y-108727240D01*
X124645420Y-107436920D02*
X126113540Y-107523280D01*
X125636020Y-105252520D02*
X126748540Y-106319320D01*
X127901700Y-104195880D02*
X127896620Y-105709720D01*
X130162300Y-105171240D02*
X129100580Y-106278680D01*
X131147820Y-107457240D02*
X129730500Y-107396280D01*
X130111500Y-109661960D02*
X129258060Y-108640880D01*
D13*
X129095500Y-108231940D02*
X128788160Y-108498640D01*
X129425700Y-105318560D02*
X128442720Y-104825800D01*
X127246380Y-108823760D02*
X127368300Y-108539280D01*
X127109220Y-108369100D02*
X127363220Y-108534200D01*
X128610360Y-108366560D02*
X128384300Y-108541820D01*
X128978660Y-108252260D02*
X128719580Y-108590080D01*
X129202180Y-108031280D02*
X129108200Y-108201460D01*
X129202180Y-108031280D02*
X129108200Y-108201460D01*
X129339340Y-107177840D02*
X129207260Y-108000800D01*
X128915160Y-106441240D02*
X129334260Y-107172760D01*
X128043940Y-106011980D02*
X128915160Y-106441240D01*
X127228600Y-106179620D02*
X128043940Y-106019600D01*
X126718060Y-106608880D02*
X127228600Y-106179620D01*
X126484380Y-107281980D02*
X126718060Y-106608880D01*
X126489460Y-107787440D02*
X126489460Y-107269280D01*
X126865380Y-108498640D02*
X126489460Y-107787440D01*
X127043180Y-108620560D02*
X126865380Y-108498640D01*
X130314700Y-104599740D02*
X129430780Y-105321100D01*
X130070860Y-105953560D02*
X130672840Y-105044240D01*
X130075940Y-105948480D02*
X130462020Y-106946700D01*
X131605020Y-107215940D02*
X130489960Y-106969560D01*
X131462780Y-107160060D02*
X131462780Y-107810300D01*
X127086360Y-108562140D02*
X126558040Y-109943900D01*
X126695200Y-110241080D02*
X127081280Y-109260640D01*
X126166880Y-109913420D02*
X126695200Y-110241080D01*
X125483620Y-110246160D02*
X126304040Y-109717840D01*
X126347220Y-109941360D02*
X125470920Y-110561120D01*
X125460760Y-110556040D02*
X124777500Y-109865160D01*
X125064520Y-109781340D02*
X125549660Y-110312200D01*
X125031500Y-108145580D02*
X125412500Y-109126020D01*
X125135640Y-108178600D02*
X124012960Y-107967780D01*
X123997720Y-106989880D02*
X124000260Y-107947460D01*
X124081540Y-107731560D02*
X125188980Y-107955080D01*
X125384560Y-105961180D02*
X125018800Y-106829860D01*
X124769880Y-105079800D02*
X125473460Y-106070400D01*
X125468380Y-104381300D02*
X124774960Y-105072180D01*
X126484380Y-105056940D02*
X125473460Y-104383840D01*
X127170180Y-104670860D02*
X126365000Y-105008680D01*
X127386080Y-103581200D02*
X127160020Y-104752140D01*
X128351280Y-103581200D02*
X127386080Y-103581200D01*
X128361440Y-103588820D02*
X128562100Y-104614980D01*
X129349500Y-104983280D02*
X128445260Y-104604820D01*
X130284220Y-104335580D02*
X129313940Y-105051860D01*
X130970020Y-105051860D02*
X130296920Y-104338120D01*
X130949700Y-105087420D02*
X130355340Y-105940860D01*
X130688080Y-106771440D02*
X130352800Y-105938320D01*
X131757420Y-106969560D02*
X130586480Y-106766360D01*
X131754880Y-106972100D02*
X131754880Y-107957620D01*
X131754880Y-107965240D02*
X130683000Y-108160820D01*
X130992880Y-109872780D02*
X130395980Y-109009180D01*
X130263900Y-110568740D02*
X130985260Y-109875320D01*
X129430780Y-109997240D02*
X130256280Y-110561120D01*
X129418080Y-110007400D02*
X129072640Y-110228380D01*
X129034540Y-110210600D02*
X128384300Y-108541820D01*
D23*
X125468380Y-110401100D02*
X124914660Y-109855000D01*
X125534420Y-108960920D02*
X124914660Y-109847380D01*
X126657100Y-110027720D02*
X127231140Y-108587540D01*
X126319280Y-109842300D02*
X126657100Y-110027720D01*
X125483620Y-110408720D02*
X126319280Y-109842300D01*
X125128020Y-108049060D02*
X125534420Y-108960920D01*
X124114560Y-107878880D02*
X125128020Y-108049060D01*
X124114560Y-107043220D02*
X124114560Y-107878880D01*
X125196600Y-106814620D02*
X124114560Y-107043220D01*
X125536960Y-105877360D02*
X125196600Y-106814620D01*
X124919740Y-105087420D02*
X125536960Y-105877360D01*
X125473460Y-104538780D02*
X124919740Y-105084880D01*
X126377700Y-105171240D02*
X125473460Y-104536800D01*
X127292100Y-104726740D02*
X126390400Y-105176320D01*
X127505460Y-103708200D02*
X127292100Y-104726740D01*
X128272540Y-103687880D02*
X127487680Y-103687880D01*
X128264920Y-103700580D02*
X128470660Y-104714040D01*
X129369820Y-105140760D02*
X128524000Y-104734360D01*
X130258820Y-104498140D02*
X129430780Y-105150920D01*
D24*
X130807460Y-105056940D02*
X130307080Y-104523540D01*
D23*
X130797300Y-105079800D02*
X130241040Y-105930700D01*
X130568700Y-106847640D02*
X130220720Y-105981500D01*
X131617720Y-107063540D02*
X130599180Y-106883200D01*
D24*
X131605020Y-107076240D02*
X131610100Y-107863640D01*
D23*
X131615180Y-107853480D02*
X130665220Y-108071920D01*
X130637280Y-108094780D02*
X130279140Y-108978700D01*
X130812540Y-109855000D02*
X130279140Y-109021880D01*
D24*
X130827780Y-109855000D02*
X130263900Y-110393480D01*
D17*
X130251200Y-110393480D02*
X129471420Y-109862620D01*
D23*
X129461260Y-109844840D02*
X129143760Y-110050580D01*
D25*
X129115820Y-110030260D02*
X128564640Y-108607860D01*
D23*
X127220980Y-108585000D02*
G75*
G02X126850140Y-106720640I746760J1117600D01*
G01*
X126839980Y-106735880D02*
G75*
G02X128765300Y-106537760I1061720J-863600D01*
G01*
X128790700Y-106563160D02*
G75*
G02X128714500Y-108417360I-965200J-889000D01*
G01*
%TO.C,RP2040_PLATFORM1*%
D10*
X184440285Y-133005285D02*
X184440285Y-133682619D01*
X184682190Y-132618238D02*
X184924095Y-133343952D01*
X184295142Y-133343952D01*
X183714571Y-132666619D02*
X183617809Y-132666619D01*
X183521047Y-132715000D01*
X183472666Y-132763380D01*
X183424285Y-132860142D01*
X183375904Y-133053666D01*
X183375904Y-133295571D01*
X183424285Y-133489095D01*
X183472666Y-133585857D01*
X183521047Y-133634238D01*
X183617809Y-133682619D01*
X183714571Y-133682619D01*
X183811333Y-133634238D01*
X183859714Y-133585857D01*
X183908095Y-133489095D01*
X183956476Y-133295571D01*
X183956476Y-133053666D01*
X183908095Y-132860142D01*
X183859714Y-132763380D01*
X183811333Y-132715000D01*
X183714571Y-132666619D01*
X136664095Y-132763380D02*
X136615714Y-132715000D01*
X136518952Y-132666619D01*
X136277047Y-132666619D01*
X136180285Y-132715000D01*
X136131904Y-132763380D01*
X136083523Y-132860142D01*
X136083523Y-132956904D01*
X136131904Y-133102047D01*
X136712476Y-133682619D01*
X136083523Y-133682619D01*
X135115904Y-133682619D02*
X135696476Y-133682619D01*
X135406190Y-133682619D02*
X135406190Y-132666619D01*
X135502952Y-132811761D01*
X135599714Y-132908523D01*
X135696476Y-132956904D01*
X136664095Y-111173380D02*
X136615714Y-111125000D01*
X136518952Y-111076619D01*
X136277047Y-111076619D01*
X136180285Y-111125000D01*
X136131904Y-111173380D01*
X136083523Y-111270142D01*
X136083523Y-111366904D01*
X136131904Y-111512047D01*
X136712476Y-112092619D01*
X136083523Y-112092619D01*
X135454571Y-111076619D02*
X135357809Y-111076619D01*
X135261047Y-111125000D01*
X135212666Y-111173380D01*
X135164285Y-111270142D01*
X135115904Y-111463666D01*
X135115904Y-111705571D01*
X135164285Y-111899095D01*
X135212666Y-111995857D01*
X135261047Y-112044238D01*
X135357809Y-112092619D01*
X135454571Y-112092619D01*
X135551333Y-112044238D01*
X135599714Y-111995857D01*
X135648095Y-111899095D01*
X135696476Y-111705571D01*
X135696476Y-111463666D01*
X135648095Y-111270142D01*
X135599714Y-111173380D01*
X135551333Y-111125000D01*
X135454571Y-111076619D01*
X183859714Y-112092619D02*
X184440285Y-112092619D01*
X184150000Y-112092619D02*
X184150000Y-111076619D01*
X184246761Y-111221761D01*
X184343523Y-111318523D01*
X184440285Y-111366904D01*
%TO.C,UEXT1*%
X147053904Y-108016523D02*
X147779619Y-108016523D01*
X147416761Y-108016523D02*
X147416761Y-106746523D01*
X147537714Y-106927952D01*
X147658666Y-107048904D01*
X147779619Y-107109380D01*
X146267714Y-106746523D02*
X146146761Y-106746523D01*
X146025809Y-106807000D01*
X145965333Y-106867476D01*
X145904857Y-106988428D01*
X145844380Y-107230333D01*
X145844380Y-107532714D01*
X145904857Y-107774619D01*
X145965333Y-107895571D01*
X146025809Y-107956047D01*
X146146761Y-108016523D01*
X146267714Y-108016523D01*
X146388666Y-107956047D01*
X146449142Y-107895571D01*
X146509619Y-107774619D01*
X146570095Y-107532714D01*
X146570095Y-107230333D01*
X146509619Y-106988428D01*
X146449142Y-106867476D01*
X146388666Y-106807000D01*
X146267714Y-106746523D01*
X161435142Y-105476523D02*
X162160857Y-105476523D01*
X161798000Y-105476523D02*
X161798000Y-104206523D01*
X161918952Y-104387952D01*
X162039904Y-104508904D01*
X162160857Y-104569380D01*
X162160857Y-106867476D02*
X162100380Y-106807000D01*
X161979428Y-106746523D01*
X161677047Y-106746523D01*
X161556095Y-106807000D01*
X161495619Y-106867476D01*
X161435142Y-106988428D01*
X161435142Y-107109380D01*
X161495619Y-107290809D01*
X162221333Y-108016523D01*
X161435142Y-108016523D01*
X147053904Y-105476523D02*
X146812000Y-105476523D01*
X146691047Y-105416047D01*
X146630571Y-105355571D01*
X146509619Y-105174142D01*
X146449142Y-104932238D01*
X146449142Y-104448428D01*
X146509619Y-104327476D01*
X146570095Y-104267000D01*
X146691047Y-104206523D01*
X146932952Y-104206523D01*
X147053904Y-104267000D01*
X147114380Y-104327476D01*
X147174857Y-104448428D01*
X147174857Y-104750809D01*
X147114380Y-104871761D01*
X147053904Y-104932238D01*
X146932952Y-104992714D01*
X146691047Y-104992714D01*
X146570095Y-104932238D01*
X146509619Y-104871761D01*
X146449142Y-104750809D01*
%TO.C,CON2*%
D26*
X140906500Y-106961214D02*
X140652500Y-107723214D01*
X140398500Y-106961214D01*
X140144500Y-107723214D02*
X140144500Y-106961214D01*
X139963071Y-106961214D01*
X139854214Y-106997500D01*
X139781642Y-107070071D01*
X139745357Y-107142642D01*
X139709071Y-107287785D01*
X139709071Y-107396642D01*
X139745357Y-107541785D01*
X139781642Y-107614357D01*
X139854214Y-107686928D01*
X139963071Y-107723214D01*
X140144500Y-107723214D01*
X138947071Y-107650642D02*
X138983357Y-107686928D01*
X139092214Y-107723214D01*
X139164785Y-107723214D01*
X139273642Y-107686928D01*
X139346214Y-107614357D01*
X139382500Y-107541785D01*
X139418785Y-107396642D01*
X139418785Y-107287785D01*
X139382500Y-107142642D01*
X139346214Y-107070071D01*
X139273642Y-106997500D01*
X139164785Y-106961214D01*
X139092214Y-106961214D01*
X138983357Y-106997500D01*
X138947071Y-107033785D01*
X140344071Y-109029500D02*
X140416642Y-108993214D01*
X140525500Y-108993214D01*
X140634357Y-109029500D01*
X140706928Y-109102071D01*
X140743214Y-109174642D01*
X140779500Y-109319785D01*
X140779500Y-109428642D01*
X140743214Y-109573785D01*
X140706928Y-109646357D01*
X140634357Y-109718928D01*
X140525500Y-109755214D01*
X140452928Y-109755214D01*
X140344071Y-109718928D01*
X140307785Y-109682642D01*
X140307785Y-109428642D01*
X140452928Y-109428642D01*
X139981214Y-109755214D02*
X139981214Y-108993214D01*
X139545785Y-109755214D01*
X139545785Y-108993214D01*
X139182928Y-109755214D02*
X139182928Y-108993214D01*
X139001500Y-108993214D01*
X138892642Y-109029500D01*
X138820071Y-109102071D01*
X138783785Y-109174642D01*
X138747500Y-109319785D01*
X138747500Y-109428642D01*
X138783785Y-109573785D01*
X138820071Y-109646357D01*
X138892642Y-109718928D01*
X139001500Y-109755214D01*
X139182928Y-109755214D01*
X140815785Y-105734428D02*
X140706928Y-105770714D01*
X140525500Y-105770714D01*
X140452928Y-105734428D01*
X140416642Y-105698142D01*
X140380357Y-105625571D01*
X140380357Y-105553000D01*
X140416642Y-105480428D01*
X140452928Y-105444142D01*
X140525500Y-105407857D01*
X140670642Y-105371571D01*
X140743214Y-105335285D01*
X140779500Y-105299000D01*
X140815785Y-105226428D01*
X140815785Y-105153857D01*
X140779500Y-105081285D01*
X140743214Y-105045000D01*
X140670642Y-105008714D01*
X140489214Y-105008714D01*
X140380357Y-105045000D01*
X140053785Y-105770714D02*
X140053785Y-105008714D01*
X139872357Y-105008714D01*
X139763500Y-105045000D01*
X139690928Y-105117571D01*
X139654642Y-105190142D01*
X139618357Y-105335285D01*
X139618357Y-105444142D01*
X139654642Y-105589285D01*
X139690928Y-105661857D01*
X139763500Y-105734428D01*
X139872357Y-105770714D01*
X140053785Y-105770714D01*
X139328071Y-105553000D02*
X138965214Y-105553000D01*
X139400642Y-105770714D02*
X139146642Y-105008714D01*
X138892642Y-105770714D01*
X140797642Y-103686428D02*
X140688785Y-103722714D01*
X140507357Y-103722714D01*
X140434785Y-103686428D01*
X140398500Y-103650142D01*
X140362214Y-103577571D01*
X140362214Y-103505000D01*
X140398500Y-103432428D01*
X140434785Y-103396142D01*
X140507357Y-103359857D01*
X140652500Y-103323571D01*
X140725071Y-103287285D01*
X140761357Y-103251000D01*
X140797642Y-103178428D01*
X140797642Y-103105857D01*
X140761357Y-103033285D01*
X140725071Y-102997000D01*
X140652500Y-102960714D01*
X140471071Y-102960714D01*
X140362214Y-102997000D01*
X139600214Y-103650142D02*
X139636500Y-103686428D01*
X139745357Y-103722714D01*
X139817928Y-103722714D01*
X139926785Y-103686428D01*
X139999357Y-103613857D01*
X140035642Y-103541285D01*
X140071928Y-103396142D01*
X140071928Y-103287285D01*
X140035642Y-103142142D01*
X139999357Y-103069571D01*
X139926785Y-102997000D01*
X139817928Y-102960714D01*
X139745357Y-102960714D01*
X139636500Y-102997000D01*
X139600214Y-103033285D01*
X138910785Y-103722714D02*
X139273642Y-103722714D01*
X139273642Y-102960714D01*
%TO.C,DBG1*%
X186381571Y-116205000D02*
X186454142Y-116168714D01*
X186563000Y-116168714D01*
X186671857Y-116205000D01*
X186744428Y-116277571D01*
X186780714Y-116350142D01*
X186817000Y-116495285D01*
X186817000Y-116604142D01*
X186780714Y-116749285D01*
X186744428Y-116821857D01*
X186671857Y-116894428D01*
X186563000Y-116930714D01*
X186490428Y-116930714D01*
X186381571Y-116894428D01*
X186345285Y-116858142D01*
X186345285Y-116604142D01*
X186490428Y-116604142D01*
X186018714Y-116930714D02*
X186018714Y-116168714D01*
X185583285Y-116930714D01*
X185583285Y-116168714D01*
X185220428Y-116930714D02*
X185220428Y-116168714D01*
X185039000Y-116168714D01*
X184930142Y-116205000D01*
X184857571Y-116277571D01*
X184821285Y-116350142D01*
X184785000Y-116495285D01*
X184785000Y-116604142D01*
X184821285Y-116749285D01*
X184857571Y-116821857D01*
X184930142Y-116894428D01*
X185039000Y-116930714D01*
X185220428Y-116930714D01*
X186182000Y-114263714D02*
X186436000Y-113900857D01*
X186617428Y-114263714D02*
X186617428Y-113501714D01*
X186327142Y-113501714D01*
X186254571Y-113538000D01*
X186218285Y-113574285D01*
X186182000Y-113646857D01*
X186182000Y-113755714D01*
X186218285Y-113828285D01*
X186254571Y-113864571D01*
X186327142Y-113900857D01*
X186617428Y-113900857D01*
X185928000Y-113501714D02*
X185420000Y-114263714D01*
X185420000Y-113501714D02*
X185928000Y-114263714D01*
X186635571Y-110961714D02*
X186200142Y-110961714D01*
X186417857Y-111723714D02*
X186417857Y-110961714D01*
X186018714Y-110961714D02*
X185510714Y-111723714D01*
X185510714Y-110961714D02*
X186018714Y-111723714D01*
X189266285Y-111723714D02*
X189701714Y-111723714D01*
X189484000Y-111723714D02*
X189484000Y-110961714D01*
X189556571Y-111070571D01*
X189629142Y-111143142D01*
X189701714Y-111179428D01*
%TO.C,5V_ENABLE1*%
D10*
X132521476Y-121490619D02*
X133005285Y-121490619D01*
X133053666Y-121974428D01*
X133005285Y-121926047D01*
X132908523Y-121877666D01*
X132666619Y-121877666D01*
X132569857Y-121926047D01*
X132521476Y-121974428D01*
X132473095Y-122071190D01*
X132473095Y-122313095D01*
X132521476Y-122409857D01*
X132569857Y-122458238D01*
X132666619Y-122506619D01*
X132908523Y-122506619D01*
X133005285Y-122458238D01*
X133053666Y-122409857D01*
X132182809Y-121490619D02*
X131844142Y-122506619D01*
X131505476Y-121490619D01*
X131408714Y-122603380D02*
X130634619Y-122603380D01*
X130392714Y-121974428D02*
X130054047Y-121974428D01*
X129908904Y-122506619D02*
X130392714Y-122506619D01*
X130392714Y-121490619D01*
X129908904Y-121490619D01*
X129473476Y-122506619D02*
X129473476Y-121490619D01*
X128892904Y-122506619D01*
X128892904Y-121490619D01*
X128457476Y-122216333D02*
X127973666Y-122216333D01*
X128554238Y-122506619D02*
X128215571Y-121490619D01*
X127876904Y-122506619D01*
X127199571Y-121974428D02*
X127054428Y-122022809D01*
X127006047Y-122071190D01*
X126957666Y-122167952D01*
X126957666Y-122313095D01*
X127006047Y-122409857D01*
X127054428Y-122458238D01*
X127151190Y-122506619D01*
X127538238Y-122506619D01*
X127538238Y-121490619D01*
X127199571Y-121490619D01*
X127102809Y-121539000D01*
X127054428Y-121587380D01*
X127006047Y-121684142D01*
X127006047Y-121780904D01*
X127054428Y-121877666D01*
X127102809Y-121926047D01*
X127199571Y-121974428D01*
X127538238Y-121974428D01*
X126038428Y-122506619D02*
X126522238Y-122506619D01*
X126522238Y-121490619D01*
X125699761Y-121974428D02*
X125361095Y-121974428D01*
X125215952Y-122506619D02*
X125699761Y-122506619D01*
X125699761Y-121490619D01*
X125215952Y-121490619D01*
X124248333Y-122506619D02*
X124828904Y-122506619D01*
X124538619Y-122506619D02*
X124538619Y-121490619D01*
X124635380Y-121635761D01*
X124732142Y-121732523D01*
X124828904Y-121780904D01*
%TO.C,BAT_CON1*%
X182662527Y-138218091D02*
X181888432Y-138218091D01*
X182275480Y-138605139D02*
X182275480Y-137831043D01*
X184613247Y-138169831D02*
X183839152Y-138169831D01*
%TO.C,RoHS_Complaint*%
D27*
X180659193Y-129082800D02*
X180743860Y-129167466D01*
X180997860Y-129252133D01*
X181167193Y-129252133D01*
X181421193Y-129167466D01*
X181590526Y-128998133D01*
X181675193Y-128828800D01*
X181759860Y-128490133D01*
X181759860Y-128236133D01*
X181675193Y-127897466D01*
X181590526Y-127728133D01*
X181421193Y-127558800D01*
X181167193Y-127474133D01*
X180997860Y-127474133D01*
X180743860Y-127558800D01*
X180659193Y-127643466D01*
X179643193Y-129252133D02*
X179812526Y-129167466D01*
X179897193Y-129082800D01*
X179981860Y-128913466D01*
X179981860Y-128405466D01*
X179897193Y-128236133D01*
X179812526Y-128151466D01*
X179643193Y-128066800D01*
X179389193Y-128066800D01*
X179219860Y-128151466D01*
X179135193Y-128236133D01*
X179050526Y-128405466D01*
X179050526Y-128913466D01*
X179135193Y-129082800D01*
X179219860Y-129167466D01*
X179389193Y-129252133D01*
X179643193Y-129252133D01*
X178288526Y-129252133D02*
X178288526Y-128066800D01*
X178288526Y-128236133D02*
X178203860Y-128151466D01*
X178034526Y-128066800D01*
X177780526Y-128066800D01*
X177611193Y-128151466D01*
X177526526Y-128320800D01*
X177526526Y-129252133D01*
X177526526Y-128320800D02*
X177441860Y-128151466D01*
X177272526Y-128066800D01*
X177018526Y-128066800D01*
X176849193Y-128151466D01*
X176764526Y-128320800D01*
X176764526Y-129252133D01*
X175917860Y-128066800D02*
X175917860Y-129844800D01*
X175917860Y-128151466D02*
X175748526Y-128066800D01*
X175409860Y-128066800D01*
X175240526Y-128151466D01*
X175155860Y-128236133D01*
X175071193Y-128405466D01*
X175071193Y-128913466D01*
X175155860Y-129082800D01*
X175240526Y-129167466D01*
X175409860Y-129252133D01*
X175748526Y-129252133D01*
X175917860Y-129167466D01*
X174055193Y-129252133D02*
X174224526Y-129167466D01*
X174309193Y-128998133D01*
X174309193Y-127474133D01*
X173377860Y-129252133D02*
X173377860Y-128066800D01*
X173377860Y-127474133D02*
X173462526Y-127558800D01*
X173377860Y-127643466D01*
X173293193Y-127558800D01*
X173377860Y-127474133D01*
X173377860Y-127643466D01*
X171769193Y-129252133D02*
X171769193Y-128320800D01*
X171853860Y-128151466D01*
X172023193Y-128066800D01*
X172361860Y-128066800D01*
X172531193Y-128151466D01*
X171769193Y-129167466D02*
X171938526Y-129252133D01*
X172361860Y-129252133D01*
X172531193Y-129167466D01*
X172615860Y-128998133D01*
X172615860Y-128828800D01*
X172531193Y-128659466D01*
X172361860Y-128574800D01*
X171938526Y-128574800D01*
X171769193Y-128490133D01*
X170922526Y-128066800D02*
X170922526Y-129252133D01*
X170922526Y-128236133D02*
X170837860Y-128151466D01*
X170668526Y-128066800D01*
X170414526Y-128066800D01*
X170245193Y-128151466D01*
X170160526Y-128320800D01*
X170160526Y-129252133D01*
X169567860Y-128066800D02*
X168890526Y-128066800D01*
X169313860Y-127474133D02*
X169313860Y-128998133D01*
X169229193Y-129167466D01*
X169059860Y-129252133D01*
X168890526Y-129252133D01*
D18*
X180080634Y-126147081D02*
X180747300Y-125194700D01*
X181223491Y-126147081D02*
X181223491Y-124147081D01*
X180461586Y-124147081D01*
X180271110Y-124242320D01*
X180175872Y-124337558D01*
X180080634Y-124528034D01*
X180080634Y-124813748D01*
X180175872Y-125004224D01*
X180271110Y-125099462D01*
X180461586Y-125194700D01*
X181223491Y-125194700D01*
X178937777Y-126147081D02*
X179128253Y-126051843D01*
X179223491Y-125956605D01*
X179318729Y-125766129D01*
X179318729Y-125194700D01*
X179223491Y-125004224D01*
X179128253Y-124908986D01*
X178937777Y-124813748D01*
X178652062Y-124813748D01*
X178461586Y-124908986D01*
X178366348Y-125004224D01*
X178271110Y-125194700D01*
X178271110Y-125766129D01*
X178366348Y-125956605D01*
X178461586Y-126051843D01*
X178652062Y-126147081D01*
X178937777Y-126147081D01*
X177413967Y-126147081D02*
X177413967Y-124147081D01*
X177413967Y-125099462D02*
X176271110Y-125099462D01*
X176271110Y-126147081D02*
X176271110Y-124147081D01*
X175413967Y-126051843D02*
X175128253Y-126147081D01*
X174652062Y-126147081D01*
X174461586Y-126051843D01*
X174366348Y-125956605D01*
X174271110Y-125766129D01*
X174271110Y-125575653D01*
X174366348Y-125385177D01*
X174461586Y-125289939D01*
X174652062Y-125194700D01*
X175033015Y-125099462D01*
X175223491Y-125004224D01*
X175318729Y-124908986D01*
X175413967Y-124718510D01*
X175413967Y-124528034D01*
X175318729Y-124337558D01*
X175223491Y-124242320D01*
X175033015Y-124147081D01*
X174556824Y-124147081D01*
X174271110Y-124242320D01*
%TO.C,PB_FREE*%
D10*
X181497788Y-106605767D02*
X181497788Y-104905767D01*
X180926360Y-104905767D01*
X180783502Y-104986720D01*
X180712074Y-105067672D01*
X180640645Y-105229577D01*
X180640645Y-105472434D01*
X180712074Y-105634339D01*
X180783502Y-105715291D01*
X180926360Y-105796243D01*
X181497788Y-105796243D01*
X179997788Y-106605767D02*
X179997788Y-104905767D01*
X179997788Y-105553386D02*
X179854931Y-105472434D01*
X179569217Y-105472434D01*
X179426360Y-105553386D01*
X179354931Y-105634339D01*
X179283502Y-105796243D01*
X179283502Y-106281958D01*
X179354931Y-106443862D01*
X179426360Y-106524815D01*
X179569217Y-106605767D01*
X179854931Y-106605767D01*
X179997788Y-106524815D01*
%TO.C,Open_Hardware*%
X132835298Y-112242379D02*
X132940060Y-112189998D01*
X132992440Y-112137617D01*
X133044821Y-112032855D01*
X133044821Y-111718569D01*
X132992440Y-111613807D01*
X132940060Y-111561426D01*
X132835298Y-111509045D01*
X132678155Y-111509045D01*
X132573393Y-111561426D01*
X132521012Y-111613807D01*
X132468631Y-111718569D01*
X132468631Y-112032855D01*
X132521012Y-112137617D01*
X132573393Y-112189998D01*
X132678155Y-112242379D01*
X132835298Y-112242379D01*
X131997202Y-111509045D02*
X131997202Y-112609045D01*
X131997202Y-111561426D02*
X131892440Y-111509045D01*
X131682917Y-111509045D01*
X131578155Y-111561426D01*
X131525774Y-111613807D01*
X131473393Y-111718569D01*
X131473393Y-112032855D01*
X131525774Y-112137617D01*
X131578155Y-112189998D01*
X131682917Y-112242379D01*
X131892440Y-112242379D01*
X131997202Y-112189998D01*
X130582917Y-112189998D02*
X130687679Y-112242379D01*
X130897202Y-112242379D01*
X131001964Y-112189998D01*
X131054345Y-112085236D01*
X131054345Y-111666188D01*
X131001964Y-111561426D01*
X130897202Y-111509045D01*
X130687679Y-111509045D01*
X130582917Y-111561426D01*
X130530536Y-111666188D01*
X130530536Y-111770950D01*
X131054345Y-111875712D01*
X130059107Y-111509045D02*
X130059107Y-112242379D01*
X130059107Y-111613807D02*
X130006726Y-111561426D01*
X129901964Y-111509045D01*
X129744821Y-111509045D01*
X129640060Y-111561426D01*
X129587679Y-111666188D01*
X129587679Y-112242379D01*
D28*
X128519797Y-112288580D02*
X128519797Y-111288580D01*
X128091225Y-112288580D02*
X128091225Y-111764771D01*
X128138844Y-111669533D01*
X128234082Y-111621914D01*
X128376940Y-111621914D01*
X128472178Y-111669533D01*
X128519797Y-111717152D01*
X127186463Y-112288580D02*
X127186463Y-111764771D01*
X127234082Y-111669533D01*
X127329320Y-111621914D01*
X127519797Y-111621914D01*
X127615035Y-111669533D01*
X127186463Y-112240961D02*
X127281701Y-112288580D01*
X127519797Y-112288580D01*
X127615035Y-112240961D01*
X127662654Y-112145723D01*
X127662654Y-112050485D01*
X127615035Y-111955247D01*
X127519797Y-111907628D01*
X127281701Y-111907628D01*
X127186463Y-111860009D01*
X126710273Y-112288580D02*
X126710273Y-111621914D01*
X126710273Y-111812390D02*
X126662654Y-111717152D01*
X126615035Y-111669533D01*
X126519797Y-111621914D01*
X126424559Y-111621914D01*
X125662654Y-112288580D02*
X125662654Y-111288580D01*
X125662654Y-112240961D02*
X125757892Y-112288580D01*
X125948368Y-112288580D01*
X126043606Y-112240961D01*
X126091225Y-112193342D01*
X126138844Y-112098104D01*
X126138844Y-111812390D01*
X126091225Y-111717152D01*
X126043606Y-111669533D01*
X125948368Y-111621914D01*
X125757892Y-111621914D01*
X125662654Y-111669533D01*
X125281701Y-111621914D02*
X125091225Y-112288580D01*
X124900749Y-111812390D01*
X124710273Y-112288580D01*
X124519797Y-111621914D01*
X123710273Y-112288580D02*
X123710273Y-111764771D01*
X123757892Y-111669533D01*
X123853130Y-111621914D01*
X124043606Y-111621914D01*
X124138844Y-111669533D01*
X123710273Y-112240961D02*
X123805511Y-112288580D01*
X124043606Y-112288580D01*
X124138844Y-112240961D01*
X124186463Y-112145723D01*
X124186463Y-112050485D01*
X124138844Y-111955247D01*
X124043606Y-111907628D01*
X123805511Y-111907628D01*
X123710273Y-111860009D01*
X123234082Y-112288580D02*
X123234082Y-111621914D01*
X123234082Y-111812390D02*
X123186463Y-111717152D01*
X123138844Y-111669533D01*
X123043606Y-111621914D01*
X122948368Y-111621914D01*
X122234082Y-112240961D02*
X122329320Y-112288580D01*
X122519797Y-112288580D01*
X122615035Y-112240961D01*
X122662654Y-112145723D01*
X122662654Y-111764771D01*
X122615035Y-111669533D01*
X122519797Y-111621914D01*
X122329320Y-111621914D01*
X122234082Y-111669533D01*
X122186463Y-111764771D01*
X122186463Y-111860009D01*
X122662654Y-111955247D01*
%TD*%
M02*
