%TF.GenerationSoftware,KiCad,Pcbnew,5.1.0-rc2-unknown-036be7d~80~ubuntu16.04.1*%
%TF.CreationDate,2022-03-09T08:52:48+02:00*%
%TF.ProjectId,RP2040-PICO-PC_rev_C,52503230-3430-42d5-9049-434f2d50435f,C*%
%TF.SameCoordinates,Original*%
%TF.FileFunction,Soldermask,Bot*%
%TF.FilePolarity,Negative*%
%FSLAX46Y46*%
G04 Gerber Fmt 4.6, Leading zero omitted, Abs format (unit mm)*
G04 Created by KiCad (PCBNEW 5.1.0-rc2-unknown-036be7d~80~ubuntu16.04.1) date 2022-03-09 08:52:48*
%MOMM*%
%LPD*%
G04 APERTURE LIST*
%ADD10C,1.879600*%
%ADD11R,1.879600X1.879600*%
%ADD12C,1.101600*%
%ADD13C,1.801600*%
%ADD14R,1.801600X1.801600*%
%ADD15R,1.301600X1.301600*%
%ADD16C,1.301600*%
%ADD17C,2.001600*%
%ADD18R,0.609600X0.863600*%
%ADD19C,6.401600*%
%ADD20C,1.501600*%
%ADD21R,1.501600X1.501600*%
%ADD22C,0.701600*%
%ADD23O,1.901600X1.301600*%
%ADD24O,2.401600X1.401600*%
%ADD25O,2.801600X1.401600*%
G04 APERTURE END LIST*
D10*
%TO.C,RP2040_PLATFORM1*%
X168910000Y-131318000D03*
X166370000Y-113538000D03*
X166370000Y-131318000D03*
X163830000Y-113538000D03*
X161290000Y-113538000D03*
X161290000Y-131318000D03*
X181610000Y-131318000D03*
X148590000Y-113538000D03*
X153670000Y-131318000D03*
X135890000Y-131318000D03*
X156210000Y-113538000D03*
X168910000Y-113538000D03*
X181610000Y-113538000D03*
D11*
X184150000Y-113538000D03*
D10*
X140970000Y-131318000D03*
X148590000Y-131318000D03*
X146050000Y-131318000D03*
X151130000Y-131318000D03*
X176530000Y-131318000D03*
X138430000Y-131318000D03*
X163830000Y-131318000D03*
X138430000Y-113538000D03*
X140970000Y-113538000D03*
X153670000Y-113538000D03*
X173990000Y-113538000D03*
X171450000Y-131318000D03*
X135890000Y-113538000D03*
X151130000Y-113538000D03*
X184150000Y-131318000D03*
X176530000Y-113538000D03*
X171450000Y-113538000D03*
X146050000Y-113538000D03*
X179070000Y-113538000D03*
X156210000Y-131318000D03*
X143510000Y-113538000D03*
X158750000Y-113538000D03*
X158750000Y-131318000D03*
X143510000Y-131318000D03*
X179070000Y-131318000D03*
X173990000Y-131318000D03*
%TD*%
D12*
%TO.C,MICRO_SD1*%
X122732800Y-133096000D03*
X122732800Y-125095000D03*
%TD*%
D13*
%TO.C,UEXT1*%
X149098000Y-107442000D03*
X149098000Y-104902000D03*
X151638000Y-107442000D03*
X151638000Y-104902000D03*
X154178000Y-107442000D03*
X154178000Y-104902000D03*
X156718000Y-107442000D03*
X156718000Y-104902000D03*
X159258000Y-107442000D03*
D14*
X159258000Y-104902000D03*
%TD*%
D15*
%TO.C,CON2*%
X141774000Y-103426000D03*
D16*
X141774000Y-105426000D03*
X141774000Y-107426000D03*
X141774000Y-109426000D03*
%TD*%
D10*
%TO.C,DBG1*%
X187960000Y-116459000D03*
X187960000Y-113919000D03*
D11*
X187960000Y-111379000D03*
%TD*%
D17*
%TO.C,AUDIO_JACK_1*%
X184483000Y-106680000D03*
X177483000Y-106680000D03*
%TD*%
D18*
%TO.C,5V_ENABLE1*%
X128270000Y-120015000D03*
X129032000Y-120015000D03*
%TD*%
D16*
%TO.C,MH3*%
X165481000Y-104648000D03*
X170307000Y-104648000D03*
X169545000Y-106299000D03*
X166243000Y-106426000D03*
X169545000Y-102997000D03*
X166243000Y-102997000D03*
X167894000Y-107061000D03*
X167894000Y-102235000D03*
D19*
X167894000Y-104648000D03*
%TD*%
D20*
%TO.C,BAT_CON1*%
X184261760Y-136288780D03*
D21*
X182232300Y-136291320D03*
%TD*%
D22*
%TO.C,USB1*%
X185171000Y-124428000D03*
X185171000Y-120428000D03*
D23*
X187321000Y-126028000D03*
X183851000Y-126028000D03*
X183851000Y-118828000D03*
X187321000Y-118828000D03*
%TD*%
D16*
%TO.C,MH1*%
X132969000Y-104648000D03*
X137795000Y-104648000D03*
X137033000Y-106299000D03*
X133731000Y-106426000D03*
X137033000Y-102997000D03*
X133731000Y-102997000D03*
X135382000Y-107061000D03*
X135382000Y-102235000D03*
D19*
X135382000Y-104648000D03*
%TD*%
D16*
%TO.C,MH2*%
X137160000Y-135890000D03*
X141986000Y-135890000D03*
X141224000Y-137541000D03*
X137922000Y-137668000D03*
X141224000Y-134239000D03*
X137922000Y-134239000D03*
X139573000Y-138303000D03*
X139573000Y-133477000D03*
D19*
X139573000Y-135890000D03*
%TD*%
D16*
%TO.C,MH4*%
X165481000Y-135890000D03*
X170307000Y-135890000D03*
X169545000Y-137541000D03*
X166243000Y-137668000D03*
X169545000Y-134239000D03*
X166243000Y-134239000D03*
X167894000Y-138303000D03*
X167894000Y-133477000D03*
D19*
X167894000Y-135890000D03*
%TD*%
D24*
%TO.C,HDMI1*%
X123518000Y-102682000D03*
X123518000Y-117282000D03*
D25*
X129568000Y-117282000D03*
X129568000Y-102682000D03*
%TD*%
M02*
