%TF.GenerationSoftware,KiCad,Pcbnew,5.1.0-rc2-unknown-036be7d~80~ubuntu16.04.1*%
%TF.CreationDate,2022-03-09T08:52:48+02:00*%
%TF.ProjectId,RP2040-PICO-PC_rev_C,52503230-3430-42d5-9049-434f2d50435f,C*%
%TF.SameCoordinates,Original*%
%TF.FileFunction,Soldermask,Top*%
%TF.FilePolarity,Negative*%
%FSLAX46Y46*%
G04 Gerber Fmt 4.6, Leading zero omitted, Abs format (unit mm)*
G04 Created by KiCad (PCBNEW 5.1.0-rc2-unknown-036be7d~80~ubuntu16.04.1) date 2022-03-09 08:52:48*
%MOMM*%
%LPD*%
G04 APERTURE LIST*
%ADD10R,1.501600X1.101600*%
%ADD11C,1.879600*%
%ADD12R,1.879600X1.879600*%
%ADD13R,1.100000X0.700000*%
%ADD14R,1.600000X1.400000*%
%ADD15R,1.600000X1.800000*%
%ADD16R,2.400000X1.400000*%
%ADD17C,1.101600*%
%ADD18R,0.651600X0.601600*%
%ADD19C,1.801600*%
%ADD20R,1.801600X1.801600*%
%ADD21R,1.101600X1.501600*%
%ADD22R,1.301600X1.301600*%
%ADD23C,1.301600*%
%ADD24R,0.651600X1.301600*%
%ADD25R,1.371600X1.625600*%
%ADD26R,0.601600X0.651600*%
%ADD27R,1.501600X2.701600*%
%ADD28R,2.101600X2.701600*%
%ADD29R,1.901600X2.701600*%
%ADD30R,2.701600X2.101600*%
%ADD31C,2.001600*%
%ADD32C,6.401600*%
%ADD33C,1.254000*%
%ADD34C,1.501600*%
%ADD35R,1.501600X1.501600*%
%ADD36R,1.117600X1.117600*%
%ADD37R,1.701600X1.901600*%
%ADD38R,0.901600X0.901600*%
%ADD39R,1.751600X0.601600*%
%ADD40R,1.751600X0.426600*%
%ADD41C,0.701600*%
%ADD42R,1.101600X1.201600*%
%ADD43O,1.901600X1.301600*%
%ADD44R,1.501600X0.426600*%
%ADD45R,1.625600X1.371600*%
%ADD46R,1.117600X0.609600*%
%ADD47R,1.117600X0.863600*%
%ADD48O,2.401600X1.401600*%
%ADD49R,1.701600X0.351600*%
%ADD50O,2.801600X1.401600*%
%ADD51R,0.751600X1.151600*%
G04 APERTURE END LIST*
D10*
%TO.C,FET1*%
X174081440Y-135315960D03*
X174081440Y-133413500D03*
X171871640Y-134368540D03*
%TD*%
D11*
%TO.C,RP2040_PLATFORM1*%
X168910000Y-131318000D03*
X166370000Y-113538000D03*
X166370000Y-131318000D03*
X163830000Y-113538000D03*
X161290000Y-113538000D03*
X161290000Y-131318000D03*
X181610000Y-131318000D03*
X148590000Y-113538000D03*
X153670000Y-131318000D03*
X135890000Y-131318000D03*
X156210000Y-113538000D03*
X168910000Y-113538000D03*
X181610000Y-113538000D03*
D12*
X184150000Y-113538000D03*
D11*
X140970000Y-131318000D03*
X148590000Y-131318000D03*
X146050000Y-131318000D03*
X151130000Y-131318000D03*
X176530000Y-131318000D03*
X138430000Y-131318000D03*
X163830000Y-131318000D03*
X138430000Y-113538000D03*
X140970000Y-113538000D03*
X153670000Y-113538000D03*
X173990000Y-113538000D03*
X171450000Y-131318000D03*
X135890000Y-113538000D03*
X151130000Y-113538000D03*
X184150000Y-131318000D03*
X176530000Y-113538000D03*
X171450000Y-113538000D03*
X146050000Y-113538000D03*
X179070000Y-113538000D03*
X156210000Y-131318000D03*
X143510000Y-113538000D03*
X158750000Y-113538000D03*
X158750000Y-131318000D03*
X143510000Y-131318000D03*
X179070000Y-131318000D03*
X173990000Y-131318000D03*
%TD*%
D13*
%TO.C,MICRO_SD1*%
X133615000Y-123498000D03*
X133615000Y-124598000D03*
X133615000Y-125698000D03*
X133615000Y-126798000D03*
X133615000Y-127898000D03*
X133615000Y-128998000D03*
X133615000Y-130098000D03*
X133615000Y-131198000D03*
X133615000Y-132298000D03*
D14*
X132735000Y-122298000D03*
D15*
X132735000Y-136898000D03*
D16*
X123135000Y-122298000D03*
X123135000Y-137798000D03*
D17*
X122732800Y-133096000D03*
X122732800Y-125095000D03*
%TD*%
D18*
%TO.C,R12*%
X133096000Y-113157000D03*
X133096000Y-114173000D03*
%TD*%
%TO.C,R25*%
X142494000Y-121031000D03*
X142494000Y-122047000D03*
%TD*%
D19*
%TO.C,UEXT1*%
X149098000Y-107442000D03*
X149098000Y-104902000D03*
X151638000Y-107442000D03*
X151638000Y-104902000D03*
X154178000Y-107442000D03*
X154178000Y-104902000D03*
X156718000Y-107442000D03*
X156718000Y-104902000D03*
X159258000Y-107442000D03*
D20*
X159258000Y-104902000D03*
%TD*%
D21*
%TO.C,FET2*%
X146618960Y-117256560D03*
X144716500Y-117256560D03*
X145671540Y-119466360D03*
%TD*%
D18*
%TO.C,R19*%
X150368000Y-134112000D03*
X150368000Y-135128000D03*
%TD*%
%TO.C,R22*%
X151384000Y-135128000D03*
X151384000Y-134112000D03*
%TD*%
D22*
%TO.C,CON2*%
X141774000Y-103426000D03*
D23*
X141774000Y-105426000D03*
X141774000Y-107426000D03*
X141774000Y-109426000D03*
%TD*%
D24*
%TO.C,U1*%
X175580000Y-136936000D03*
X176530000Y-136936000D03*
X177480000Y-136936000D03*
X175580000Y-134336000D03*
X177480000Y-134336000D03*
%TD*%
D11*
%TO.C,DBG1*%
X187960000Y-116459000D03*
X187960000Y-113919000D03*
D12*
X187960000Y-111379000D03*
%TD*%
D25*
%TO.C,C7*%
X176149000Y-110998000D03*
X178181000Y-110998000D03*
%TD*%
%TO.C,C3*%
X169037000Y-110744000D03*
X171069000Y-110744000D03*
%TD*%
D26*
%TO.C,R28*%
X149606000Y-115824000D03*
X148590000Y-115824000D03*
%TD*%
%TO.C,R26*%
X146177000Y-115824000D03*
X145161000Y-115824000D03*
%TD*%
D18*
%TO.C,R6*%
X143764000Y-122047000D03*
X143764000Y-121031000D03*
%TD*%
D21*
%TO.C,FET3*%
X150047960Y-117256560D03*
X148145500Y-117256560D03*
X149100540Y-119466360D03*
%TD*%
D27*
%TO.C,AUDIO_JACK_1*%
X188483000Y-103280000D03*
D28*
X176283000Y-103280000D03*
D29*
X183783000Y-110180000D03*
D30*
X172683000Y-107480000D03*
D27*
X185683000Y-103280000D03*
D31*
X184483000Y-106680000D03*
X177483000Y-106680000D03*
%TD*%
D18*
%TO.C,R3*%
X147828000Y-121031000D03*
X147828000Y-122047000D03*
%TD*%
%TO.C,R2*%
X145669000Y-121031000D03*
X145669000Y-122047000D03*
%TD*%
D23*
%TO.C,MH3*%
X165481000Y-104648000D03*
X170307000Y-104648000D03*
X169545000Y-106299000D03*
X166243000Y-106426000D03*
X169545000Y-102997000D03*
X166243000Y-102997000D03*
X167894000Y-107061000D03*
X167894000Y-102235000D03*
D32*
X167894000Y-104648000D03*
%TD*%
D33*
%TO.C,FID4*%
X135128000Y-137922000D03*
%TD*%
D34*
%TO.C,BAT_CON1*%
X184261760Y-136288780D03*
D35*
X182232300Y-136291320D03*
%TD*%
D18*
%TO.C,R7*%
X132842000Y-115951000D03*
X132842000Y-116967000D03*
%TD*%
D26*
%TO.C,R13*%
X133223000Y-111379000D03*
X134239000Y-111379000D03*
%TD*%
%TO.C,R10*%
X133223000Y-108458000D03*
X134239000Y-108458000D03*
%TD*%
D18*
%TO.C,R11*%
X131953000Y-115951000D03*
X131953000Y-116967000D03*
%TD*%
D26*
%TO.C,R9*%
X133223000Y-110490000D03*
X134239000Y-110490000D03*
%TD*%
D18*
%TO.C,R8*%
X133985000Y-113157000D03*
X133985000Y-114173000D03*
%TD*%
D26*
%TO.C,R14*%
X133223000Y-109347000D03*
X134239000Y-109347000D03*
%TD*%
D33*
%TO.C,FID1*%
X172085000Y-102489000D03*
%TD*%
%TO.C,FID2*%
X188087000Y-135255000D03*
%TD*%
%TO.C,FID3*%
X120142000Y-119634000D03*
%TD*%
D36*
%TO.C,C1*%
X136144000Y-127889000D03*
X136144000Y-126111000D03*
%TD*%
D37*
%TO.C,FUSE1*%
X123695000Y-119888000D03*
X126495000Y-119888000D03*
%TD*%
D36*
%TO.C,C2*%
X179070000Y-134366000D03*
X179070000Y-136144000D03*
%TD*%
D38*
%TO.C,LED1*%
X188976000Y-137541000D03*
X187452000Y-137541000D03*
%TD*%
D18*
%TO.C,R1*%
X172085000Y-137795000D03*
X172085000Y-136779000D03*
%TD*%
%TO.C,R4*%
X174117000Y-137795000D03*
X174117000Y-136779000D03*
%TD*%
%TO.C,R5*%
X173101000Y-136779000D03*
X173101000Y-137795000D03*
%TD*%
D39*
%TO.C,USB1*%
X183921000Y-123815500D03*
D40*
X183921000Y-123078000D03*
X183921000Y-122428000D03*
X183921000Y-121778000D03*
D39*
X183921000Y-121040500D03*
D41*
X185171000Y-124428000D03*
X185171000Y-120428000D03*
D42*
X188471000Y-123928000D03*
X188471000Y-120928000D03*
D43*
X187321000Y-126028000D03*
X183851000Y-126028000D03*
X183851000Y-118828000D03*
X187321000Y-118828000D03*
%TD*%
D18*
%TO.C,C4*%
X163830000Y-134620000D03*
X163830000Y-135636000D03*
%TD*%
%TO.C,C5*%
X151511000Y-137033000D03*
X151511000Y-138049000D03*
%TD*%
%TO.C,C6*%
X149352000Y-135128000D03*
X149352000Y-134112000D03*
%TD*%
D36*
%TO.C,R16*%
X172720000Y-110998000D03*
X174498000Y-110998000D03*
%TD*%
D26*
%TO.C,R17*%
X163830000Y-133477000D03*
X162814000Y-133477000D03*
%TD*%
%TO.C,R18*%
X161798000Y-134620000D03*
X162814000Y-134620000D03*
%TD*%
D18*
%TO.C,R20*%
X148336000Y-135128000D03*
X148336000Y-134112000D03*
%TD*%
D36*
%TO.C,R21*%
X181610000Y-110998000D03*
X179832000Y-110998000D03*
%TD*%
D18*
%TO.C,R23*%
X160782000Y-135636000D03*
X160782000Y-134620000D03*
%TD*%
%TO.C,R24*%
X150495000Y-137033000D03*
X150495000Y-138049000D03*
%TD*%
D26*
%TO.C,R15*%
X165354000Y-109855000D03*
X166370000Y-109855000D03*
%TD*%
%TO.C,R27*%
X166370000Y-110871000D03*
X165354000Y-110871000D03*
%TD*%
D44*
%TO.C,U3*%
X153083000Y-137840000D03*
X153083000Y-137190000D03*
X153083000Y-136540000D03*
X153083000Y-135890000D03*
X153083000Y-135240000D03*
X153083000Y-134590000D03*
X153083000Y-133940000D03*
X159083000Y-133940000D03*
X159083000Y-134590000D03*
X159083000Y-135240000D03*
X159083000Y-135890000D03*
X159083000Y-136540000D03*
X159083000Y-137190000D03*
X159083000Y-137890000D03*
%TD*%
D23*
%TO.C,MH1*%
X132969000Y-104648000D03*
X137795000Y-104648000D03*
X137033000Y-106299000D03*
X133731000Y-106426000D03*
X137033000Y-102997000D03*
X133731000Y-102997000D03*
X135382000Y-107061000D03*
X135382000Y-102235000D03*
D32*
X135382000Y-104648000D03*
%TD*%
D23*
%TO.C,MH2*%
X137160000Y-135890000D03*
X141986000Y-135890000D03*
X141224000Y-137541000D03*
X137922000Y-137668000D03*
X141224000Y-134239000D03*
X137922000Y-134239000D03*
X139573000Y-138303000D03*
X139573000Y-133477000D03*
D32*
X139573000Y-135890000D03*
%TD*%
D23*
%TO.C,MH4*%
X165481000Y-135890000D03*
X170307000Y-135890000D03*
X169545000Y-137541000D03*
X166243000Y-137668000D03*
X169545000Y-134239000D03*
X166243000Y-134239000D03*
X167894000Y-138303000D03*
X167894000Y-133477000D03*
D32*
X167894000Y-135890000D03*
%TD*%
D10*
%TO.C,D1*%
X142748000Y-115956000D03*
X142748000Y-119756000D03*
%TD*%
D45*
%TO.C,L1*%
X140081000Y-128143000D03*
X138049000Y-128143000D03*
%TD*%
D18*
%TO.C,R29*%
X141859000Y-128270000D03*
X141859000Y-129286000D03*
%TD*%
D46*
%TO.C,RM1*%
X137795000Y-122555000D03*
X137795000Y-123317000D03*
X136271000Y-122555000D03*
X136271000Y-123317000D03*
D47*
X137795000Y-121666000D03*
X136271000Y-121666000D03*
X137795000Y-124206000D03*
X136271000Y-124206000D03*
%TD*%
D48*
%TO.C,HDMI1*%
X123518000Y-102682000D03*
D49*
X130518000Y-105482000D03*
X130518000Y-105982000D03*
X130518000Y-106482000D03*
X130518000Y-106982000D03*
X130518000Y-107482000D03*
X130518000Y-107982000D03*
X130518000Y-108482000D03*
X130518000Y-108982000D03*
X130518000Y-109482000D03*
X130518000Y-109982000D03*
X130518000Y-110482000D03*
X130518000Y-110982000D03*
X130518000Y-111482000D03*
X130518000Y-111982000D03*
X130518000Y-112482000D03*
X130518000Y-112982000D03*
X130518000Y-113482000D03*
X130518000Y-113982000D03*
X130518000Y-114482000D03*
D48*
X123518000Y-117282000D03*
D50*
X129568000Y-117282000D03*
X129568000Y-102682000D03*
%TD*%
D51*
%TO.C,RST1*%
X189162000Y-129116000D03*
X189162000Y-133266000D03*
X187012000Y-129116000D03*
X187012000Y-133266000D03*
%TD*%
M02*
